G04 #@! TF.GenerationSoftware,KiCad,Pcbnew,(5.0.1-3-g963ef8bb5)*
G04 #@! TF.CreationDate,2018-11-23T17:34:31+10:30*
G04 #@! TF.ProjectId,electric-greetings,656C6563747269632D6772656574696E,1.0.0*
G04 #@! TF.SameCoordinates,Original*
G04 #@! TF.FileFunction,Other,Comment*
%FSLAX46Y46*%
G04 Gerber Fmt 4.6, Leading zero omitted, Abs format (unit mm)*
G04 Created by KiCad (PCBNEW (5.0.1-3-g963ef8bb5)) date Friday, 23 November 2018 at 05:34:31 pm*
%MOMM*%
%LPD*%
G01*
G04 APERTURE LIST*
%ADD10C,0.200000*%
%ADD11C,0.300000*%
G04 APERTURE END LIST*
D10*
X112000000Y-98500000D02*
X113000000Y-98500000D01*
X107000000Y-100000000D02*
X107000000Y-100500000D01*
X105000000Y-100000000D02*
X105000000Y-100500000D01*
X100000000Y-98500000D02*
X99000000Y-98500000D01*
D11*
X109607142Y-102892857D02*
X109821428Y-102964285D01*
X109892857Y-103035714D01*
X109964285Y-103178571D01*
X109964285Y-103392857D01*
X109892857Y-103535714D01*
X109821428Y-103607142D01*
X109678571Y-103678571D01*
X109107142Y-103678571D01*
X109107142Y-102178571D01*
X109607142Y-102178571D01*
X109750000Y-102250000D01*
X109821428Y-102321428D01*
X109892857Y-102464285D01*
X109892857Y-102607142D01*
X109821428Y-102750000D01*
X109750000Y-102821428D01*
X109607142Y-102892857D01*
X109107142Y-102892857D01*
X102142857Y-103250000D02*
X102857142Y-103250000D01*
X102000000Y-103678571D02*
X102500000Y-102178571D01*
X103000000Y-103678571D01*
X97107142Y-108760714D02*
X97035714Y-108832142D01*
X96821428Y-108903571D01*
X96678571Y-108903571D01*
X96464285Y-108832142D01*
X96321428Y-108689285D01*
X96250000Y-108546428D01*
X96178571Y-108260714D01*
X96178571Y-108046428D01*
X96250000Y-107760714D01*
X96321428Y-107617857D01*
X96464285Y-107475000D01*
X96678571Y-107403571D01*
X96821428Y-107403571D01*
X97035714Y-107475000D01*
X97107142Y-107546428D01*
X98392857Y-108903571D02*
X98392857Y-108117857D01*
X98321428Y-107975000D01*
X98178571Y-107903571D01*
X97892857Y-107903571D01*
X97750000Y-107975000D01*
X98392857Y-108832142D02*
X98250000Y-108903571D01*
X97892857Y-108903571D01*
X97750000Y-108832142D01*
X97678571Y-108689285D01*
X97678571Y-108546428D01*
X97750000Y-108403571D01*
X97892857Y-108332142D01*
X98250000Y-108332142D01*
X98392857Y-108260714D01*
X99107142Y-107903571D02*
X99107142Y-109403571D01*
X99107142Y-107975000D02*
X99250000Y-107903571D01*
X99535714Y-107903571D01*
X99678571Y-107975000D01*
X99750000Y-108046428D01*
X99821428Y-108189285D01*
X99821428Y-108617857D01*
X99750000Y-108760714D01*
X99678571Y-108832142D01*
X99535714Y-108903571D01*
X99250000Y-108903571D01*
X99107142Y-108832142D01*
X101107142Y-108903571D02*
X101107142Y-108117857D01*
X101035714Y-107975000D01*
X100892857Y-107903571D01*
X100607142Y-107903571D01*
X100464285Y-107975000D01*
X101107142Y-108832142D02*
X100964285Y-108903571D01*
X100607142Y-108903571D01*
X100464285Y-108832142D01*
X100392857Y-108689285D01*
X100392857Y-108546428D01*
X100464285Y-108403571D01*
X100607142Y-108332142D01*
X100964285Y-108332142D01*
X101107142Y-108260714D01*
X102464285Y-108832142D02*
X102321428Y-108903571D01*
X102035714Y-108903571D01*
X101892857Y-108832142D01*
X101821428Y-108760714D01*
X101750000Y-108617857D01*
X101750000Y-108189285D01*
X101821428Y-108046428D01*
X101892857Y-107975000D01*
X102035714Y-107903571D01*
X102321428Y-107903571D01*
X102464285Y-107975000D01*
X103107142Y-108903571D02*
X103107142Y-107903571D01*
X103107142Y-107403571D02*
X103035714Y-107475000D01*
X103107142Y-107546428D01*
X103178571Y-107475000D01*
X103107142Y-107403571D01*
X103107142Y-107546428D01*
X103607142Y-107903571D02*
X104178571Y-107903571D01*
X103821428Y-107403571D02*
X103821428Y-108689285D01*
X103892857Y-108832142D01*
X104035714Y-108903571D01*
X104178571Y-108903571D01*
X104678571Y-108903571D02*
X104678571Y-107903571D01*
X104678571Y-107403571D02*
X104607142Y-107475000D01*
X104678571Y-107546428D01*
X104750000Y-107475000D01*
X104678571Y-107403571D01*
X104678571Y-107546428D01*
X105250000Y-107903571D02*
X105607142Y-108903571D01*
X105964285Y-107903571D01*
X107107142Y-108832142D02*
X106964285Y-108903571D01*
X106678571Y-108903571D01*
X106535714Y-108832142D01*
X106464285Y-108689285D01*
X106464285Y-108117857D01*
X106535714Y-107975000D01*
X106678571Y-107903571D01*
X106964285Y-107903571D01*
X107107142Y-107975000D01*
X107178571Y-108117857D01*
X107178571Y-108260714D01*
X106464285Y-108403571D01*
X109464285Y-108117857D02*
X109678571Y-108189285D01*
X109750000Y-108260714D01*
X109821428Y-108403571D01*
X109821428Y-108617857D01*
X109750000Y-108760714D01*
X109678571Y-108832142D01*
X109535714Y-108903571D01*
X108964285Y-108903571D01*
X108964285Y-107403571D01*
X109464285Y-107403571D01*
X109607142Y-107475000D01*
X109678571Y-107546428D01*
X109750000Y-107689285D01*
X109750000Y-107832142D01*
X109678571Y-107975000D01*
X109607142Y-108046428D01*
X109464285Y-108117857D01*
X108964285Y-108117857D01*
X111107142Y-107903571D02*
X111107142Y-108903571D01*
X110464285Y-107903571D02*
X110464285Y-108689285D01*
X110535714Y-108832142D01*
X110678571Y-108903571D01*
X110892857Y-108903571D01*
X111035714Y-108832142D01*
X111107142Y-108760714D01*
X111607142Y-107903571D02*
X112178571Y-107903571D01*
X111821428Y-107403571D02*
X111821428Y-108689285D01*
X111892857Y-108832142D01*
X112035714Y-108903571D01*
X112178571Y-108903571D01*
X112464285Y-107903571D02*
X113035714Y-107903571D01*
X112678571Y-107403571D02*
X112678571Y-108689285D01*
X112750000Y-108832142D01*
X112892857Y-108903571D01*
X113035714Y-108903571D01*
X113750000Y-108903571D02*
X113607142Y-108832142D01*
X113535714Y-108760714D01*
X113464285Y-108617857D01*
X113464285Y-108189285D01*
X113535714Y-108046428D01*
X113607142Y-107975000D01*
X113750000Y-107903571D01*
X113964285Y-107903571D01*
X114107142Y-107975000D01*
X114178571Y-108046428D01*
X114250000Y-108189285D01*
X114250000Y-108617857D01*
X114178571Y-108760714D01*
X114107142Y-108832142D01*
X113964285Y-108903571D01*
X113750000Y-108903571D01*
X114892857Y-107903571D02*
X114892857Y-108903571D01*
X114892857Y-108046428D02*
X114964285Y-107975000D01*
X115107142Y-107903571D01*
X115321428Y-107903571D01*
X115464285Y-107975000D01*
X115535714Y-108117857D01*
X115535714Y-108903571D01*
X116178571Y-108832142D02*
X116321428Y-108903571D01*
X116607142Y-108903571D01*
X116750000Y-108832142D01*
X116821428Y-108689285D01*
X116821428Y-108617857D01*
X116750000Y-108475000D01*
X116607142Y-108403571D01*
X116392857Y-108403571D01*
X116250000Y-108332142D01*
X116178571Y-108189285D01*
X116178571Y-108117857D01*
X116250000Y-107975000D01*
X116392857Y-107903571D01*
X116607142Y-107903571D01*
X116750000Y-107975000D01*
X96999999Y-111453571D02*
X96999999Y-109953571D01*
X97571428Y-109953571D01*
X97714285Y-110025000D01*
X97785714Y-110096428D01*
X97857142Y-110239285D01*
X97857142Y-110453571D01*
X97785714Y-110596428D01*
X97714285Y-110667857D01*
X97571428Y-110739285D01*
X96999999Y-110739285D01*
X98714285Y-111453571D02*
X98571428Y-111382142D01*
X98499999Y-111239285D01*
X98499999Y-109953571D01*
X99928571Y-111453571D02*
X99928571Y-110667857D01*
X99857142Y-110525000D01*
X99714285Y-110453571D01*
X99428571Y-110453571D01*
X99285714Y-110525000D01*
X99928571Y-111382142D02*
X99785714Y-111453571D01*
X99428571Y-111453571D01*
X99285714Y-111382142D01*
X99214285Y-111239285D01*
X99214285Y-111096428D01*
X99285714Y-110953571D01*
X99428571Y-110882142D01*
X99785714Y-110882142D01*
X99928571Y-110810714D01*
X100428571Y-110453571D02*
X100999999Y-110453571D01*
X100642857Y-109953571D02*
X100642857Y-111239285D01*
X100714285Y-111382142D01*
X100857142Y-111453571D01*
X100999999Y-111453571D01*
X102071428Y-111382142D02*
X101928571Y-111453571D01*
X101642857Y-111453571D01*
X101499999Y-111382142D01*
X101428571Y-111239285D01*
X101428571Y-110667857D01*
X101499999Y-110525000D01*
X101642857Y-110453571D01*
X101928571Y-110453571D01*
X102071428Y-110525000D01*
X102142857Y-110667857D01*
X102142857Y-110810714D01*
X101428571Y-110953571D01*
X103928571Y-111453571D02*
X103928571Y-109953571D01*
X103928571Y-110525000D02*
X104071428Y-110453571D01*
X104357142Y-110453571D01*
X104499999Y-110525000D01*
X104571428Y-110596428D01*
X104642857Y-110739285D01*
X104642857Y-111167857D01*
X104571428Y-111310714D01*
X104499999Y-111382142D01*
X104357142Y-111453571D01*
X104071428Y-111453571D01*
X103928571Y-111382142D01*
X105499999Y-111453571D02*
X105357142Y-111382142D01*
X105285714Y-111310714D01*
X105214285Y-111167857D01*
X105214285Y-110739285D01*
X105285714Y-110596428D01*
X105357142Y-110525000D01*
X105499999Y-110453571D01*
X105714285Y-110453571D01*
X105857142Y-110525000D01*
X105928571Y-110596428D01*
X105999999Y-110739285D01*
X105999999Y-111167857D01*
X105928571Y-111310714D01*
X105857142Y-111382142D01*
X105714285Y-111453571D01*
X105499999Y-111453571D01*
X107285714Y-111453571D02*
X107285714Y-110667857D01*
X107214285Y-110525000D01*
X107071428Y-110453571D01*
X106785714Y-110453571D01*
X106642857Y-110525000D01*
X107285714Y-111382142D02*
X107142857Y-111453571D01*
X106785714Y-111453571D01*
X106642857Y-111382142D01*
X106571428Y-111239285D01*
X106571428Y-111096428D01*
X106642857Y-110953571D01*
X106785714Y-110882142D01*
X107142857Y-110882142D01*
X107285714Y-110810714D01*
X107999999Y-111453571D02*
X107999999Y-110453571D01*
X107999999Y-110739285D02*
X108071428Y-110596428D01*
X108142857Y-110525000D01*
X108285714Y-110453571D01*
X108428571Y-110453571D01*
X109571428Y-111453571D02*
X109571428Y-109953571D01*
X109571428Y-111382142D02*
X109428571Y-111453571D01*
X109142857Y-111453571D01*
X108999999Y-111382142D01*
X108928571Y-111310714D01*
X108857142Y-111167857D01*
X108857142Y-110739285D01*
X108928571Y-110596428D01*
X108999999Y-110525000D01*
X109142857Y-110453571D01*
X109428571Y-110453571D01*
X109571428Y-110525000D01*
X111999999Y-111382142D02*
X111857142Y-111453571D01*
X111571428Y-111453571D01*
X111428571Y-111382142D01*
X111357142Y-111239285D01*
X111357142Y-110667857D01*
X111428571Y-110525000D01*
X111571428Y-110453571D01*
X111857142Y-110453571D01*
X111999999Y-110525000D01*
X112071428Y-110667857D01*
X112071428Y-110810714D01*
X111357142Y-110953571D01*
X113357142Y-111453571D02*
X113357142Y-109953571D01*
X113357142Y-111382142D02*
X113214285Y-111453571D01*
X112928571Y-111453571D01*
X112785714Y-111382142D01*
X112714285Y-111310714D01*
X112642857Y-111167857D01*
X112642857Y-110739285D01*
X112714285Y-110596428D01*
X112785714Y-110525000D01*
X112928571Y-110453571D01*
X113214285Y-110453571D01*
X113357142Y-110525000D01*
X114714285Y-110453571D02*
X114714285Y-111667857D01*
X114642857Y-111810714D01*
X114571428Y-111882142D01*
X114428571Y-111953571D01*
X114214285Y-111953571D01*
X114071428Y-111882142D01*
X114714285Y-111382142D02*
X114571428Y-111453571D01*
X114285714Y-111453571D01*
X114142857Y-111382142D01*
X114071428Y-111310714D01*
X113999999Y-111167857D01*
X113999999Y-110739285D01*
X114071428Y-110596428D01*
X114142857Y-110525000D01*
X114285714Y-110453571D01*
X114571428Y-110453571D01*
X114714285Y-110525000D01*
X115999999Y-111382142D02*
X115857142Y-111453571D01*
X115571428Y-111453571D01*
X115428571Y-111382142D01*
X115357142Y-111239285D01*
X115357142Y-110667857D01*
X115428571Y-110525000D01*
X115571428Y-110453571D01*
X115857142Y-110453571D01*
X115999999Y-110525000D01*
X116071428Y-110667857D01*
X116071428Y-110810714D01*
X115357142Y-110953571D01*
X141075952Y-65445238D02*
X141171190Y-65350000D01*
X141361666Y-65254761D01*
X141837857Y-65254761D01*
X142028333Y-65350000D01*
X142123571Y-65445238D01*
X142218809Y-65635714D01*
X142218809Y-65826190D01*
X142123571Y-66111904D01*
X140980714Y-67254761D01*
X142218809Y-67254761D01*
X145552142Y-67254761D02*
X144599761Y-67254761D01*
X144599761Y-65254761D01*
X147075952Y-67254761D02*
X147075952Y-66207142D01*
X146980714Y-66016666D01*
X146790238Y-65921428D01*
X146409285Y-65921428D01*
X146218809Y-66016666D01*
X147075952Y-67159523D02*
X146885476Y-67254761D01*
X146409285Y-67254761D01*
X146218809Y-67159523D01*
X146123571Y-66969047D01*
X146123571Y-66778571D01*
X146218809Y-66588095D01*
X146409285Y-66492857D01*
X146885476Y-66492857D01*
X147075952Y-66397619D01*
X147837857Y-65921428D02*
X148314047Y-67254761D01*
X148790238Y-65921428D02*
X148314047Y-67254761D01*
X148123571Y-67730952D01*
X148028333Y-67826190D01*
X147837857Y-67921428D01*
X150314047Y-67159523D02*
X150123571Y-67254761D01*
X149742619Y-67254761D01*
X149552142Y-67159523D01*
X149456904Y-66969047D01*
X149456904Y-66207142D01*
X149552142Y-66016666D01*
X149742619Y-65921428D01*
X150123571Y-65921428D01*
X150314047Y-66016666D01*
X150409285Y-66207142D01*
X150409285Y-66397619D01*
X149456904Y-66588095D01*
X151266428Y-67254761D02*
X151266428Y-65921428D01*
X151266428Y-66302380D02*
X151361666Y-66111904D01*
X151456904Y-66016666D01*
X151647380Y-65921428D01*
X151837857Y-65921428D01*
X153933095Y-67159523D02*
X154218809Y-67254761D01*
X154695000Y-67254761D01*
X154885476Y-67159523D01*
X154980714Y-67064285D01*
X155075952Y-66873809D01*
X155075952Y-66683333D01*
X154980714Y-66492857D01*
X154885476Y-66397619D01*
X154695000Y-66302380D01*
X154314047Y-66207142D01*
X154123571Y-66111904D01*
X154028333Y-66016666D01*
X153933095Y-65826190D01*
X153933095Y-65635714D01*
X154028333Y-65445238D01*
X154123571Y-65350000D01*
X154314047Y-65254761D01*
X154790238Y-65254761D01*
X155075952Y-65350000D01*
X155647380Y-65921428D02*
X156409285Y-65921428D01*
X155933095Y-65254761D02*
X155933095Y-66969047D01*
X156028333Y-67159523D01*
X156218809Y-67254761D01*
X156409285Y-67254761D01*
X157933095Y-67254761D02*
X157933095Y-66207142D01*
X157837857Y-66016666D01*
X157647380Y-65921428D01*
X157266428Y-65921428D01*
X157075952Y-66016666D01*
X157933095Y-67159523D02*
X157742619Y-67254761D01*
X157266428Y-67254761D01*
X157075952Y-67159523D01*
X156980714Y-66969047D01*
X156980714Y-66778571D01*
X157075952Y-66588095D01*
X157266428Y-66492857D01*
X157742619Y-66492857D01*
X157933095Y-66397619D01*
X159742619Y-67159523D02*
X159552142Y-67254761D01*
X159171190Y-67254761D01*
X158980714Y-67159523D01*
X158885476Y-67064285D01*
X158790238Y-66873809D01*
X158790238Y-66302380D01*
X158885476Y-66111904D01*
X158980714Y-66016666D01*
X159171190Y-65921428D01*
X159552142Y-65921428D01*
X159742619Y-66016666D01*
X160599761Y-67254761D02*
X160599761Y-65254761D01*
X160790238Y-66492857D02*
X161361666Y-67254761D01*
X161361666Y-65921428D02*
X160599761Y-66683333D01*
X163075952Y-65921428D02*
X163075952Y-67254761D01*
X162218809Y-65921428D02*
X162218809Y-66969047D01*
X162314047Y-67159523D01*
X162504523Y-67254761D01*
X162790238Y-67254761D01*
X162980714Y-67159523D01*
X163075952Y-67064285D01*
X164028333Y-65921428D02*
X164028333Y-67921428D01*
X164028333Y-66016666D02*
X164218809Y-65921428D01*
X164599761Y-65921428D01*
X164790238Y-66016666D01*
X164885476Y-66111904D01*
X164980714Y-66302380D01*
X164980714Y-66873809D01*
X164885476Y-67064285D01*
X164790238Y-67159523D01*
X164599761Y-67254761D01*
X164218809Y-67254761D01*
X164028333Y-67159523D01*
X141075952Y-72045238D02*
X141171190Y-71950000D01*
X141361666Y-71854761D01*
X141837857Y-71854761D01*
X142028333Y-71950000D01*
X142123571Y-72045238D01*
X142218809Y-72235714D01*
X142218809Y-72426190D01*
X142123571Y-72711904D01*
X140980714Y-73854761D01*
X142218809Y-73854761D01*
X143075952Y-73664285D02*
X143171190Y-73759523D01*
X143075952Y-73854761D01*
X142980714Y-73759523D01*
X143075952Y-73664285D01*
X143075952Y-73854761D01*
X144409285Y-71854761D02*
X144599761Y-71854761D01*
X144790238Y-71950000D01*
X144885476Y-72045238D01*
X144980714Y-72235714D01*
X145075952Y-72616666D01*
X145075952Y-73092857D01*
X144980714Y-73473809D01*
X144885476Y-73664285D01*
X144790238Y-73759523D01*
X144599761Y-73854761D01*
X144409285Y-73854761D01*
X144218809Y-73759523D01*
X144123571Y-73664285D01*
X144028333Y-73473809D01*
X143933095Y-73092857D01*
X143933095Y-72616666D01*
X144028333Y-72235714D01*
X144123571Y-72045238D01*
X144218809Y-71950000D01*
X144409285Y-71854761D01*
X145933095Y-73854761D02*
X145933095Y-72521428D01*
X145933095Y-72711904D02*
X146028333Y-72616666D01*
X146218809Y-72521428D01*
X146504523Y-72521428D01*
X146695000Y-72616666D01*
X146790238Y-72807142D01*
X146790238Y-73854761D01*
X146790238Y-72807142D02*
X146885476Y-72616666D01*
X147075952Y-72521428D01*
X147361666Y-72521428D01*
X147552142Y-72616666D01*
X147647380Y-72807142D01*
X147647380Y-73854761D01*
X148599761Y-73854761D02*
X148599761Y-72521428D01*
X148599761Y-72711904D02*
X148695000Y-72616666D01*
X148885476Y-72521428D01*
X149171190Y-72521428D01*
X149361666Y-72616666D01*
X149456904Y-72807142D01*
X149456904Y-73854761D01*
X149456904Y-72807142D02*
X149552142Y-72616666D01*
X149742619Y-72521428D01*
X150028333Y-72521428D01*
X150218809Y-72616666D01*
X150314047Y-72807142D01*
X150314047Y-73854761D01*
X153456904Y-72807142D02*
X152790238Y-72807142D01*
X152790238Y-73854761D02*
X152790238Y-71854761D01*
X153742619Y-71854761D01*
X155647380Y-73854761D02*
X154980714Y-72902380D01*
X154504523Y-73854761D02*
X154504523Y-71854761D01*
X155266428Y-71854761D01*
X155456904Y-71950000D01*
X155552142Y-72045238D01*
X155647380Y-72235714D01*
X155647380Y-72521428D01*
X155552142Y-72711904D01*
X155456904Y-72807142D01*
X155266428Y-72902380D01*
X154504523Y-72902380D01*
X157361666Y-72521428D02*
X157361666Y-73854761D01*
X156885476Y-71759523D02*
X156409285Y-73188095D01*
X157647380Y-73188095D01*
X142218809Y-77154761D02*
X141075952Y-77154761D01*
X141647380Y-77154761D02*
X141647380Y-75154761D01*
X141456904Y-75440476D01*
X141266428Y-75630952D01*
X141075952Y-75726190D01*
X143361666Y-77154761D02*
X143171190Y-77059523D01*
X143075952Y-76964285D01*
X142980714Y-76773809D01*
X142980714Y-76202380D01*
X143075952Y-76011904D01*
X143171190Y-75916666D01*
X143361666Y-75821428D01*
X143647380Y-75821428D01*
X143837857Y-75916666D01*
X143933095Y-76011904D01*
X144028333Y-76202380D01*
X144028333Y-76773809D01*
X143933095Y-76964285D01*
X143837857Y-77059523D01*
X143647380Y-77154761D01*
X143361666Y-77154761D01*
X144695000Y-75821428D02*
X145742619Y-75821428D01*
X144695000Y-77154761D01*
X145742619Y-77154761D01*
X148599761Y-77916666D02*
X148504523Y-77821428D01*
X148314047Y-77535714D01*
X148218809Y-77345238D01*
X148123571Y-77059523D01*
X148028333Y-76583333D01*
X148028333Y-76202380D01*
X148123571Y-75726190D01*
X148218809Y-75440476D01*
X148314047Y-75250000D01*
X148504523Y-74964285D01*
X148599761Y-74869047D01*
X149171190Y-75154761D02*
X150409285Y-75154761D01*
X149742619Y-75916666D01*
X150028333Y-75916666D01*
X150218809Y-76011904D01*
X150314047Y-76107142D01*
X150409285Y-76297619D01*
X150409285Y-76773809D01*
X150314047Y-76964285D01*
X150218809Y-77059523D01*
X150028333Y-77154761D01*
X149456904Y-77154761D01*
X149266428Y-77059523D01*
X149171190Y-76964285D01*
X152218809Y-75154761D02*
X151266428Y-75154761D01*
X151171190Y-76107142D01*
X151266428Y-76011904D01*
X151456904Y-75916666D01*
X151933095Y-75916666D01*
X152123571Y-76011904D01*
X152218809Y-76107142D01*
X152314047Y-76297619D01*
X152314047Y-76773809D01*
X152218809Y-76964285D01*
X152123571Y-77059523D01*
X151933095Y-77154761D01*
X151456904Y-77154761D01*
X151266428Y-77059523D01*
X151171190Y-76964285D01*
X154028333Y-75821428D02*
X154028333Y-77154761D01*
X153171190Y-75821428D02*
X153171190Y-76869047D01*
X153266428Y-77059523D01*
X153456904Y-77154761D01*
X153742619Y-77154761D01*
X153933095Y-77059523D01*
X154028333Y-76964285D01*
X154980714Y-77154761D02*
X154980714Y-75821428D01*
X154980714Y-76011904D02*
X155075952Y-75916666D01*
X155266428Y-75821428D01*
X155552142Y-75821428D01*
X155742619Y-75916666D01*
X155837857Y-76107142D01*
X155837857Y-77154761D01*
X155837857Y-76107142D02*
X155933095Y-75916666D01*
X156123571Y-75821428D01*
X156409285Y-75821428D01*
X156599761Y-75916666D01*
X156695000Y-76107142D01*
X156695000Y-77154761D01*
X157456904Y-77916666D02*
X157552142Y-77821428D01*
X157742619Y-77535714D01*
X157837857Y-77345238D01*
X157933095Y-77059523D01*
X158028333Y-76583333D01*
X158028333Y-76202380D01*
X157933095Y-75726190D01*
X157837857Y-75440476D01*
X157742619Y-75250000D01*
X157552142Y-74964285D01*
X157456904Y-74869047D01*
X161361666Y-77059523D02*
X161171190Y-77154761D01*
X160790238Y-77154761D01*
X160599761Y-77059523D01*
X160504523Y-76964285D01*
X160409285Y-76773809D01*
X160409285Y-76202380D01*
X160504523Y-76011904D01*
X160599761Y-75916666D01*
X160790238Y-75821428D01*
X161171190Y-75821428D01*
X161361666Y-75916666D01*
X162504523Y-77154761D02*
X162314047Y-77059523D01*
X162218809Y-76964285D01*
X162123571Y-76773809D01*
X162123571Y-76202380D01*
X162218809Y-76011904D01*
X162314047Y-75916666D01*
X162504523Y-75821428D01*
X162790238Y-75821428D01*
X162980714Y-75916666D01*
X163075952Y-76011904D01*
X163171190Y-76202380D01*
X163171190Y-76773809D01*
X163075952Y-76964285D01*
X162980714Y-77059523D01*
X162790238Y-77154761D01*
X162504523Y-77154761D01*
X164028333Y-75821428D02*
X164028333Y-77821428D01*
X164028333Y-75916666D02*
X164218809Y-75821428D01*
X164599761Y-75821428D01*
X164790238Y-75916666D01*
X164885476Y-76011904D01*
X164980714Y-76202380D01*
X164980714Y-76773809D01*
X164885476Y-76964285D01*
X164790238Y-77059523D01*
X164599761Y-77154761D01*
X164218809Y-77154761D01*
X164028333Y-77059523D01*
X165837857Y-75821428D02*
X165837857Y-77821428D01*
X165837857Y-75916666D02*
X166028333Y-75821428D01*
X166409285Y-75821428D01*
X166599761Y-75916666D01*
X166695000Y-76011904D01*
X166790238Y-76202380D01*
X166790238Y-76773809D01*
X166695000Y-76964285D01*
X166599761Y-77059523D01*
X166409285Y-77154761D01*
X166028333Y-77154761D01*
X165837857Y-77059523D01*
X168409285Y-77059523D02*
X168218809Y-77154761D01*
X167837857Y-77154761D01*
X167647380Y-77059523D01*
X167552142Y-76869047D01*
X167552142Y-76107142D01*
X167647380Y-75916666D01*
X167837857Y-75821428D01*
X168218809Y-75821428D01*
X168409285Y-75916666D01*
X168504523Y-76107142D01*
X168504523Y-76297619D01*
X167552142Y-76488095D01*
X169361666Y-77154761D02*
X169361666Y-75821428D01*
X169361666Y-76202380D02*
X169456904Y-76011904D01*
X169552142Y-75916666D01*
X169742619Y-75821428D01*
X169933095Y-75821428D01*
X141171190Y-79407142D02*
X141837857Y-79407142D01*
X142123571Y-80454761D02*
X141171190Y-80454761D01*
X141171190Y-78454761D01*
X142123571Y-78454761D01*
X142980714Y-80454761D02*
X142980714Y-78454761D01*
X144123571Y-80454761D01*
X144123571Y-78454761D01*
X145075952Y-80454761D02*
X145075952Y-78454761D01*
X147075952Y-78550000D02*
X146885476Y-78454761D01*
X146599761Y-78454761D01*
X146314047Y-78550000D01*
X146123571Y-78740476D01*
X146028333Y-78930952D01*
X145933095Y-79311904D01*
X145933095Y-79597619D01*
X146028333Y-79978571D01*
X146123571Y-80169047D01*
X146314047Y-80359523D01*
X146599761Y-80454761D01*
X146790238Y-80454761D01*
X147075952Y-80359523D01*
X147171190Y-80264285D01*
X147171190Y-79597619D01*
X146790238Y-79597619D01*
X149456904Y-80359523D02*
X149647380Y-80454761D01*
X150028333Y-80454761D01*
X150218809Y-80359523D01*
X150314047Y-80169047D01*
X150314047Y-80073809D01*
X150218809Y-79883333D01*
X150028333Y-79788095D01*
X149742619Y-79788095D01*
X149552142Y-79692857D01*
X149456904Y-79502380D01*
X149456904Y-79407142D01*
X149552142Y-79216666D01*
X149742619Y-79121428D01*
X150028333Y-79121428D01*
X150218809Y-79216666D01*
X152028333Y-79121428D02*
X152028333Y-80454761D01*
X151171190Y-79121428D02*
X151171190Y-80169047D01*
X151266428Y-80359523D01*
X151456904Y-80454761D01*
X151742619Y-80454761D01*
X151933095Y-80359523D01*
X152028333Y-80264285D01*
X152980714Y-80454761D02*
X152980714Y-79121428D01*
X152980714Y-79502380D02*
X153075952Y-79311904D01*
X153171190Y-79216666D01*
X153361666Y-79121428D01*
X153552142Y-79121428D01*
X153933095Y-79121428D02*
X154695000Y-79121428D01*
X154218809Y-80454761D02*
X154218809Y-78740476D01*
X154314047Y-78550000D01*
X154504523Y-78454761D01*
X154695000Y-78454761D01*
X156218809Y-80454761D02*
X156218809Y-79407142D01*
X156123571Y-79216666D01*
X155933095Y-79121428D01*
X155552142Y-79121428D01*
X155361666Y-79216666D01*
X156218809Y-80359523D02*
X156028333Y-80454761D01*
X155552142Y-80454761D01*
X155361666Y-80359523D01*
X155266428Y-80169047D01*
X155266428Y-79978571D01*
X155361666Y-79788095D01*
X155552142Y-79692857D01*
X156028333Y-79692857D01*
X156218809Y-79597619D01*
X158028333Y-80359523D02*
X157837857Y-80454761D01*
X157456904Y-80454761D01*
X157266428Y-80359523D01*
X157171190Y-80264285D01*
X157075952Y-80073809D01*
X157075952Y-79502380D01*
X157171190Y-79311904D01*
X157266428Y-79216666D01*
X157456904Y-79121428D01*
X157837857Y-79121428D01*
X158028333Y-79216666D01*
X159647380Y-80359523D02*
X159456904Y-80454761D01*
X159075952Y-80454761D01*
X158885476Y-80359523D01*
X158790238Y-80169047D01*
X158790238Y-79407142D01*
X158885476Y-79216666D01*
X159075952Y-79121428D01*
X159456904Y-79121428D01*
X159647380Y-79216666D01*
X159742619Y-79407142D01*
X159742619Y-79597619D01*
X158790238Y-79788095D01*
X161837857Y-79121428D02*
X162599761Y-79121428D01*
X162123571Y-80454761D02*
X162123571Y-78740476D01*
X162218809Y-78550000D01*
X162409285Y-78454761D01*
X162599761Y-78454761D01*
X163266428Y-80454761D02*
X163266428Y-79121428D01*
X163266428Y-78454761D02*
X163171190Y-78550000D01*
X163266428Y-78645238D01*
X163361666Y-78550000D01*
X163266428Y-78454761D01*
X163266428Y-78645238D01*
X164218809Y-79121428D02*
X164218809Y-80454761D01*
X164218809Y-79311904D02*
X164314047Y-79216666D01*
X164504523Y-79121428D01*
X164790238Y-79121428D01*
X164980714Y-79216666D01*
X165075952Y-79407142D01*
X165075952Y-80454761D01*
X166028333Y-80454761D02*
X166028333Y-79121428D01*
X166028333Y-78454761D02*
X165933095Y-78550000D01*
X166028333Y-78645238D01*
X166123571Y-78550000D01*
X166028333Y-78454761D01*
X166028333Y-78645238D01*
X166885476Y-80359523D02*
X167075952Y-80454761D01*
X167456904Y-80454761D01*
X167647380Y-80359523D01*
X167742619Y-80169047D01*
X167742619Y-80073809D01*
X167647380Y-79883333D01*
X167456904Y-79788095D01*
X167171190Y-79788095D01*
X166980714Y-79692857D01*
X166885476Y-79502380D01*
X166885476Y-79407142D01*
X166980714Y-79216666D01*
X167171190Y-79121428D01*
X167456904Y-79121428D01*
X167647380Y-79216666D01*
X168599761Y-80454761D02*
X168599761Y-78454761D01*
X169456904Y-80454761D02*
X169456904Y-79407142D01*
X169361666Y-79216666D01*
X169171190Y-79121428D01*
X168885476Y-79121428D01*
X168695000Y-79216666D01*
X168599761Y-79311904D01*
X141171190Y-83754761D02*
X141171190Y-81754761D01*
X141837857Y-83183333D01*
X142504523Y-81754761D01*
X142504523Y-83754761D01*
X144314047Y-83754761D02*
X144314047Y-82707142D01*
X144218809Y-82516666D01*
X144028333Y-82421428D01*
X143647380Y-82421428D01*
X143456904Y-82516666D01*
X144314047Y-83659523D02*
X144123571Y-83754761D01*
X143647380Y-83754761D01*
X143456904Y-83659523D01*
X143361666Y-83469047D01*
X143361666Y-83278571D01*
X143456904Y-83088095D01*
X143647380Y-82992857D01*
X144123571Y-82992857D01*
X144314047Y-82897619D01*
X144980714Y-82421428D02*
X145742619Y-82421428D01*
X145266428Y-81754761D02*
X145266428Y-83469047D01*
X145361666Y-83659523D01*
X145552142Y-83754761D01*
X145742619Y-83754761D01*
X146123571Y-82421428D02*
X146885476Y-82421428D01*
X146409285Y-81754761D02*
X146409285Y-83469047D01*
X146504523Y-83659523D01*
X146695000Y-83754761D01*
X146885476Y-83754761D01*
X148314047Y-83659523D02*
X148123571Y-83754761D01*
X147742619Y-83754761D01*
X147552142Y-83659523D01*
X147456904Y-83469047D01*
X147456904Y-82707142D01*
X147552142Y-82516666D01*
X147742619Y-82421428D01*
X148123571Y-82421428D01*
X148314047Y-82516666D01*
X148409285Y-82707142D01*
X148409285Y-82897619D01*
X147456904Y-83088095D01*
X150790238Y-83754761D02*
X150790238Y-81754761D01*
X150790238Y-82516666D02*
X150980714Y-82421428D01*
X151361666Y-82421428D01*
X151552142Y-82516666D01*
X151647380Y-82611904D01*
X151742619Y-82802380D01*
X151742619Y-83373809D01*
X151647380Y-83564285D01*
X151552142Y-83659523D01*
X151361666Y-83754761D01*
X150980714Y-83754761D01*
X150790238Y-83659523D01*
X152885476Y-83754761D02*
X152695000Y-83659523D01*
X152599761Y-83469047D01*
X152599761Y-81754761D01*
X154504523Y-83754761D02*
X154504523Y-82707142D01*
X154409285Y-82516666D01*
X154218809Y-82421428D01*
X153837857Y-82421428D01*
X153647380Y-82516666D01*
X154504523Y-83659523D02*
X154314047Y-83754761D01*
X153837857Y-83754761D01*
X153647380Y-83659523D01*
X153552142Y-83469047D01*
X153552142Y-83278571D01*
X153647380Y-83088095D01*
X153837857Y-82992857D01*
X154314047Y-82992857D01*
X154504523Y-82897619D01*
X156314047Y-83659523D02*
X156123571Y-83754761D01*
X155742619Y-83754761D01*
X155552142Y-83659523D01*
X155456904Y-83564285D01*
X155361666Y-83373809D01*
X155361666Y-82802380D01*
X155456904Y-82611904D01*
X155552142Y-82516666D01*
X155742619Y-82421428D01*
X156123571Y-82421428D01*
X156314047Y-82516666D01*
X157171190Y-83754761D02*
X157171190Y-81754761D01*
X157361666Y-82992857D02*
X157933095Y-83754761D01*
X157933095Y-82421428D02*
X157171190Y-83183333D01*
X160218809Y-83659523D02*
X160409285Y-83754761D01*
X160790238Y-83754761D01*
X160980714Y-83659523D01*
X161075952Y-83469047D01*
X161075952Y-83373809D01*
X160980714Y-83183333D01*
X160790238Y-83088095D01*
X160504523Y-83088095D01*
X160314047Y-82992857D01*
X160218809Y-82802380D01*
X160218809Y-82707142D01*
X160314047Y-82516666D01*
X160504523Y-82421428D01*
X160790238Y-82421428D01*
X160980714Y-82516666D01*
X162218809Y-83754761D02*
X162028333Y-83659523D01*
X161933095Y-83564285D01*
X161837857Y-83373809D01*
X161837857Y-82802380D01*
X161933095Y-82611904D01*
X162028333Y-82516666D01*
X162218809Y-82421428D01*
X162504523Y-82421428D01*
X162695000Y-82516666D01*
X162790238Y-82611904D01*
X162885476Y-82802380D01*
X162885476Y-83373809D01*
X162790238Y-83564285D01*
X162695000Y-83659523D01*
X162504523Y-83754761D01*
X162218809Y-83754761D01*
X164028333Y-83754761D02*
X163837857Y-83659523D01*
X163742619Y-83469047D01*
X163742619Y-81754761D01*
X165647380Y-83754761D02*
X165647380Y-81754761D01*
X165647380Y-83659523D02*
X165456904Y-83754761D01*
X165075952Y-83754761D01*
X164885476Y-83659523D01*
X164790238Y-83564285D01*
X164695000Y-83373809D01*
X164695000Y-82802380D01*
X164790238Y-82611904D01*
X164885476Y-82516666D01*
X165075952Y-82421428D01*
X165456904Y-82421428D01*
X165647380Y-82516666D01*
X167361666Y-83659523D02*
X167171190Y-83754761D01*
X166790238Y-83754761D01*
X166599761Y-83659523D01*
X166504523Y-83469047D01*
X166504523Y-82707142D01*
X166599761Y-82516666D01*
X166790238Y-82421428D01*
X167171190Y-82421428D01*
X167361666Y-82516666D01*
X167456904Y-82707142D01*
X167456904Y-82897619D01*
X166504523Y-83088095D01*
X168314047Y-83754761D02*
X168314047Y-82421428D01*
X168314047Y-82802380D02*
X168409285Y-82611904D01*
X168504523Y-82516666D01*
X168695000Y-82421428D01*
X168885476Y-82421428D01*
X169552142Y-83754761D02*
X169552142Y-82421428D01*
X169552142Y-82611904D02*
X169647380Y-82516666D01*
X169837857Y-82421428D01*
X170123571Y-82421428D01*
X170314047Y-82516666D01*
X170409285Y-82707142D01*
X170409285Y-83754761D01*
X170409285Y-82707142D02*
X170504523Y-82516666D01*
X170695000Y-82421428D01*
X170980714Y-82421428D01*
X171171190Y-82516666D01*
X171266428Y-82707142D01*
X171266428Y-83754761D01*
X173075952Y-83754761D02*
X173075952Y-82707142D01*
X172980714Y-82516666D01*
X172790238Y-82421428D01*
X172409285Y-82421428D01*
X172218809Y-82516666D01*
X173075952Y-83659523D02*
X172885476Y-83754761D01*
X172409285Y-83754761D01*
X172218809Y-83659523D01*
X172123571Y-83469047D01*
X172123571Y-83278571D01*
X172218809Y-83088095D01*
X172409285Y-82992857D01*
X172885476Y-82992857D01*
X173075952Y-82897619D01*
X173933095Y-83659523D02*
X174123571Y-83754761D01*
X174504523Y-83754761D01*
X174695000Y-83659523D01*
X174790238Y-83469047D01*
X174790238Y-83373809D01*
X174695000Y-83183333D01*
X174504523Y-83088095D01*
X174218809Y-83088095D01*
X174028333Y-82992857D01*
X173933095Y-82802380D01*
X173933095Y-82707142D01*
X174028333Y-82516666D01*
X174218809Y-82421428D01*
X174504523Y-82421428D01*
X174695000Y-82516666D01*
X175647380Y-83754761D02*
X175647380Y-81754761D01*
X175837857Y-82992857D02*
X176409285Y-83754761D01*
X176409285Y-82421428D02*
X175647380Y-83183333D01*
X142218809Y-87054761D02*
X141075952Y-87054761D01*
X141647380Y-87054761D02*
X141647380Y-85054761D01*
X141456904Y-85340476D01*
X141266428Y-85530952D01*
X141075952Y-85626190D01*
X142980714Y-85245238D02*
X143075952Y-85150000D01*
X143266428Y-85054761D01*
X143742619Y-85054761D01*
X143933095Y-85150000D01*
X144028333Y-85245238D01*
X144123571Y-85435714D01*
X144123571Y-85626190D01*
X144028333Y-85911904D01*
X142885476Y-87054761D01*
X144123571Y-87054761D01*
X144790238Y-87054761D02*
X145837857Y-85721428D01*
X144790238Y-85721428D02*
X145837857Y-87054761D01*
X146409285Y-85054761D02*
X147647380Y-85054761D01*
X146980714Y-85816666D01*
X147266428Y-85816666D01*
X147456904Y-85911904D01*
X147552142Y-86007142D01*
X147647380Y-86197619D01*
X147647380Y-86673809D01*
X147552142Y-86864285D01*
X147456904Y-86959523D01*
X147266428Y-87054761D01*
X146695000Y-87054761D01*
X146504523Y-86959523D01*
X146409285Y-86864285D01*
X148885476Y-85054761D02*
X149075952Y-85054761D01*
X149266428Y-85150000D01*
X149361666Y-85245238D01*
X149456904Y-85435714D01*
X149552142Y-85816666D01*
X149552142Y-86292857D01*
X149456904Y-86673809D01*
X149361666Y-86864285D01*
X149266428Y-86959523D01*
X149075952Y-87054761D01*
X148885476Y-87054761D01*
X148695000Y-86959523D01*
X148599761Y-86864285D01*
X148504523Y-86673809D01*
X148409285Y-86292857D01*
X148409285Y-85816666D01*
X148504523Y-85435714D01*
X148599761Y-85245238D01*
X148695000Y-85150000D01*
X148885476Y-85054761D01*
X150409285Y-87054761D02*
X150409285Y-85721428D01*
X150409285Y-85911904D02*
X150504523Y-85816666D01*
X150695000Y-85721428D01*
X150980714Y-85721428D01*
X151171190Y-85816666D01*
X151266428Y-86007142D01*
X151266428Y-87054761D01*
X151266428Y-86007142D02*
X151361666Y-85816666D01*
X151552142Y-85721428D01*
X151837857Y-85721428D01*
X152028333Y-85816666D01*
X152123571Y-86007142D01*
X152123571Y-87054761D01*
X153075952Y-87054761D02*
X153075952Y-85721428D01*
X153075952Y-85911904D02*
X153171190Y-85816666D01*
X153361666Y-85721428D01*
X153647380Y-85721428D01*
X153837857Y-85816666D01*
X153933095Y-86007142D01*
X153933095Y-87054761D01*
X153933095Y-86007142D02*
X154028333Y-85816666D01*
X154218809Y-85721428D01*
X154504523Y-85721428D01*
X154695000Y-85816666D01*
X154790238Y-86007142D01*
X154790238Y-87054761D01*
X157552142Y-87054761D02*
X157361666Y-86959523D01*
X157266428Y-86864285D01*
X157171190Y-86673809D01*
X157171190Y-86102380D01*
X157266428Y-85911904D01*
X157361666Y-85816666D01*
X157552142Y-85721428D01*
X157837857Y-85721428D01*
X158028333Y-85816666D01*
X158123571Y-85911904D01*
X158218809Y-86102380D01*
X158218809Y-86673809D01*
X158123571Y-86864285D01*
X158028333Y-86959523D01*
X157837857Y-87054761D01*
X157552142Y-87054761D01*
X159933095Y-85721428D02*
X159933095Y-87054761D01*
X159075952Y-85721428D02*
X159075952Y-86769047D01*
X159171190Y-86959523D01*
X159361666Y-87054761D01*
X159647380Y-87054761D01*
X159837857Y-86959523D01*
X159933095Y-86864285D01*
X160599761Y-85721428D02*
X161361666Y-85721428D01*
X160885476Y-85054761D02*
X160885476Y-86769047D01*
X160980714Y-86959523D01*
X161171190Y-87054761D01*
X161361666Y-87054761D01*
X162314047Y-87054761D02*
X162123571Y-86959523D01*
X162028333Y-86769047D01*
X162028333Y-85054761D01*
X163075952Y-87054761D02*
X163075952Y-85721428D01*
X163075952Y-85054761D02*
X162980714Y-85150000D01*
X163075952Y-85245238D01*
X163171190Y-85150000D01*
X163075952Y-85054761D01*
X163075952Y-85245238D01*
X164028333Y-85721428D02*
X164028333Y-87054761D01*
X164028333Y-85911904D02*
X164123571Y-85816666D01*
X164314047Y-85721428D01*
X164599761Y-85721428D01*
X164790238Y-85816666D01*
X164885476Y-86007142D01*
X164885476Y-87054761D01*
X166599761Y-86959523D02*
X166409285Y-87054761D01*
X166028333Y-87054761D01*
X165837857Y-86959523D01*
X165742619Y-86769047D01*
X165742619Y-86007142D01*
X165837857Y-85816666D01*
X166028333Y-85721428D01*
X166409285Y-85721428D01*
X166599761Y-85816666D01*
X166695000Y-86007142D01*
X166695000Y-86197619D01*
X165742619Y-86388095D01*
X167552142Y-86864285D02*
X167647380Y-86959523D01*
X167552142Y-87054761D01*
X167456904Y-86959523D01*
X167552142Y-86864285D01*
X167552142Y-87054761D01*
X141552142Y-88354761D02*
X141742619Y-88354761D01*
X141933095Y-88450000D01*
X142028333Y-88545238D01*
X142123571Y-88735714D01*
X142218809Y-89116666D01*
X142218809Y-89592857D01*
X142123571Y-89973809D01*
X142028333Y-90164285D01*
X141933095Y-90259523D01*
X141742619Y-90354761D01*
X141552142Y-90354761D01*
X141361666Y-90259523D01*
X141266428Y-90164285D01*
X141171190Y-89973809D01*
X141075952Y-89592857D01*
X141075952Y-89116666D01*
X141171190Y-88735714D01*
X141266428Y-88545238D01*
X141361666Y-88450000D01*
X141552142Y-88354761D01*
X143075952Y-90164285D02*
X143171190Y-90259523D01*
X143075952Y-90354761D01*
X142980714Y-90259523D01*
X143075952Y-90164285D01*
X143075952Y-90354761D01*
X143837857Y-88354761D02*
X145075952Y-88354761D01*
X144409285Y-89116666D01*
X144695000Y-89116666D01*
X144885476Y-89211904D01*
X144980714Y-89307142D01*
X145075952Y-89497619D01*
X145075952Y-89973809D01*
X144980714Y-90164285D01*
X144885476Y-90259523D01*
X144695000Y-90354761D01*
X144123571Y-90354761D01*
X143933095Y-90259523D01*
X143837857Y-90164285D01*
X146885476Y-88354761D02*
X145933095Y-88354761D01*
X145837857Y-89307142D01*
X145933095Y-89211904D01*
X146123571Y-89116666D01*
X146599761Y-89116666D01*
X146790238Y-89211904D01*
X146885476Y-89307142D01*
X146980714Y-89497619D01*
X146980714Y-89973809D01*
X146885476Y-90164285D01*
X146790238Y-90259523D01*
X146599761Y-90354761D01*
X146123571Y-90354761D01*
X145933095Y-90259523D01*
X145837857Y-90164285D01*
X147837857Y-90354761D02*
X147837857Y-89021428D01*
X147837857Y-89211904D02*
X147933095Y-89116666D01*
X148123571Y-89021428D01*
X148409285Y-89021428D01*
X148599761Y-89116666D01*
X148695000Y-89307142D01*
X148695000Y-90354761D01*
X148695000Y-89307142D02*
X148790238Y-89116666D01*
X148980714Y-89021428D01*
X149266428Y-89021428D01*
X149456904Y-89116666D01*
X149552142Y-89307142D01*
X149552142Y-90354761D01*
X150504523Y-90354761D02*
X150504523Y-89021428D01*
X150504523Y-89211904D02*
X150599761Y-89116666D01*
X150790238Y-89021428D01*
X151075952Y-89021428D01*
X151266428Y-89116666D01*
X151361666Y-89307142D01*
X151361666Y-90354761D01*
X151361666Y-89307142D02*
X151456904Y-89116666D01*
X151647380Y-89021428D01*
X151933095Y-89021428D01*
X152123571Y-89116666D01*
X152218809Y-89307142D01*
X152218809Y-90354761D01*
X154504523Y-89021428D02*
X154980714Y-90354761D01*
X155456904Y-89021428D01*
X156218809Y-90354761D02*
X156218809Y-89021428D01*
X156218809Y-88354761D02*
X156123571Y-88450000D01*
X156218809Y-88545238D01*
X156314047Y-88450000D01*
X156218809Y-88354761D01*
X156218809Y-88545238D01*
X158028333Y-90354761D02*
X158028333Y-89307142D01*
X157933095Y-89116666D01*
X157742619Y-89021428D01*
X157361666Y-89021428D01*
X157171190Y-89116666D01*
X158028333Y-90259523D02*
X157837857Y-90354761D01*
X157361666Y-90354761D01*
X157171190Y-90259523D01*
X157075952Y-90069047D01*
X157075952Y-89878571D01*
X157171190Y-89688095D01*
X157361666Y-89592857D01*
X157837857Y-89592857D01*
X158028333Y-89497619D01*
X161361666Y-90354761D02*
X161361666Y-88354761D01*
X161361666Y-90259523D02*
X161171190Y-90354761D01*
X160790238Y-90354761D01*
X160599761Y-90259523D01*
X160504523Y-90164285D01*
X160409285Y-89973809D01*
X160409285Y-89402380D01*
X160504523Y-89211904D01*
X160599761Y-89116666D01*
X160790238Y-89021428D01*
X161171190Y-89021428D01*
X161361666Y-89116666D01*
X162314047Y-90354761D02*
X162314047Y-89021428D01*
X162314047Y-89402380D02*
X162409285Y-89211904D01*
X162504523Y-89116666D01*
X162695000Y-89021428D01*
X162885476Y-89021428D01*
X163552142Y-90354761D02*
X163552142Y-89021428D01*
X163552142Y-88354761D02*
X163456904Y-88450000D01*
X163552142Y-88545238D01*
X163647380Y-88450000D01*
X163552142Y-88354761D01*
X163552142Y-88545238D01*
X164790238Y-90354761D02*
X164599761Y-90259523D01*
X164504523Y-90069047D01*
X164504523Y-88354761D01*
X165837857Y-90354761D02*
X165647380Y-90259523D01*
X165552142Y-90069047D01*
X165552142Y-88354761D01*
X141171190Y-96954761D02*
X141171190Y-94954761D01*
X142314047Y-96954761D01*
X142314047Y-94954761D01*
X143647380Y-94954761D02*
X144028333Y-94954761D01*
X144218809Y-95050000D01*
X144409285Y-95240476D01*
X144504523Y-95621428D01*
X144504523Y-96288095D01*
X144409285Y-96669047D01*
X144218809Y-96859523D01*
X144028333Y-96954761D01*
X143647380Y-96954761D01*
X143456904Y-96859523D01*
X143266428Y-96669047D01*
X143171190Y-96288095D01*
X143171190Y-95621428D01*
X143266428Y-95240476D01*
X143456904Y-95050000D01*
X143647380Y-94954761D01*
X146790238Y-96859523D02*
X146980714Y-96954761D01*
X147361666Y-96954761D01*
X147552142Y-96859523D01*
X147647380Y-96669047D01*
X147647380Y-96573809D01*
X147552142Y-96383333D01*
X147361666Y-96288095D01*
X147075952Y-96288095D01*
X146885476Y-96192857D01*
X146790238Y-96002380D01*
X146790238Y-95907142D01*
X146885476Y-95716666D01*
X147075952Y-95621428D01*
X147361666Y-95621428D01*
X147552142Y-95716666D01*
X148504523Y-96954761D02*
X148504523Y-95621428D01*
X148504523Y-94954761D02*
X148409285Y-95050000D01*
X148504523Y-95145238D01*
X148599761Y-95050000D01*
X148504523Y-94954761D01*
X148504523Y-95145238D01*
X149742619Y-96954761D02*
X149552142Y-96859523D01*
X149456904Y-96669047D01*
X149456904Y-94954761D01*
X150504523Y-96954761D02*
X150504523Y-94954761D01*
X150695000Y-96192857D02*
X151266428Y-96954761D01*
X151266428Y-95621428D02*
X150504523Y-96383333D01*
X152028333Y-96859523D02*
X152218809Y-96954761D01*
X152599761Y-96954761D01*
X152790238Y-96859523D01*
X152885476Y-96669047D01*
X152885476Y-96573809D01*
X152790238Y-96383333D01*
X152599761Y-96288095D01*
X152314047Y-96288095D01*
X152123571Y-96192857D01*
X152028333Y-96002380D01*
X152028333Y-95907142D01*
X152123571Y-95716666D01*
X152314047Y-95621428D01*
X152599761Y-95621428D01*
X152790238Y-95716666D01*
X154599761Y-96859523D02*
X154409285Y-96954761D01*
X154028333Y-96954761D01*
X153837857Y-96859523D01*
X153742619Y-96764285D01*
X153647380Y-96573809D01*
X153647380Y-96002380D01*
X153742619Y-95811904D01*
X153837857Y-95716666D01*
X154028333Y-95621428D01*
X154409285Y-95621428D01*
X154599761Y-95716666D01*
X155456904Y-96954761D02*
X155456904Y-95621428D01*
X155456904Y-96002380D02*
X155552142Y-95811904D01*
X155647380Y-95716666D01*
X155837857Y-95621428D01*
X156028333Y-95621428D01*
X157456904Y-96859523D02*
X157266428Y-96954761D01*
X156885476Y-96954761D01*
X156695000Y-96859523D01*
X156599761Y-96669047D01*
X156599761Y-95907142D01*
X156695000Y-95716666D01*
X156885476Y-95621428D01*
X157266428Y-95621428D01*
X157456904Y-95716666D01*
X157552142Y-95907142D01*
X157552142Y-96097619D01*
X156599761Y-96288095D01*
X159171190Y-96859523D02*
X158980714Y-96954761D01*
X158599761Y-96954761D01*
X158409285Y-96859523D01*
X158314047Y-96669047D01*
X158314047Y-95907142D01*
X158409285Y-95716666D01*
X158599761Y-95621428D01*
X158980714Y-95621428D01*
X159171190Y-95716666D01*
X159266428Y-95907142D01*
X159266428Y-96097619D01*
X158314047Y-96288095D01*
X160123571Y-95621428D02*
X160123571Y-96954761D01*
X160123571Y-95811904D02*
X160218809Y-95716666D01*
X160409285Y-95621428D01*
X160695000Y-95621428D01*
X160885476Y-95716666D01*
X160980714Y-95907142D01*
X160980714Y-96954761D01*
X163742619Y-96954761D02*
X163552142Y-96859523D01*
X163456904Y-96764285D01*
X163361666Y-96573809D01*
X163361666Y-96002380D01*
X163456904Y-95811904D01*
X163552142Y-95716666D01*
X163742619Y-95621428D01*
X164028333Y-95621428D01*
X164218809Y-95716666D01*
X164314047Y-95811904D01*
X164409285Y-96002380D01*
X164409285Y-96573809D01*
X164314047Y-96764285D01*
X164218809Y-96859523D01*
X164028333Y-96954761D01*
X163742619Y-96954761D01*
X165266428Y-95621428D02*
X165266428Y-96954761D01*
X165266428Y-95811904D02*
X165361666Y-95716666D01*
X165552142Y-95621428D01*
X165837857Y-95621428D01*
X166028333Y-95716666D01*
X166123571Y-95907142D01*
X166123571Y-96954761D01*
X168314047Y-95621428D02*
X169075952Y-95621428D01*
X168599761Y-94954761D02*
X168599761Y-96669047D01*
X168695000Y-96859523D01*
X168885476Y-96954761D01*
X169075952Y-96954761D01*
X170028333Y-96954761D02*
X169837857Y-96859523D01*
X169742619Y-96764285D01*
X169647380Y-96573809D01*
X169647380Y-96002380D01*
X169742619Y-95811904D01*
X169837857Y-95716666D01*
X170028333Y-95621428D01*
X170314047Y-95621428D01*
X170504523Y-95716666D01*
X170599761Y-95811904D01*
X170695000Y-96002380D01*
X170695000Y-96573809D01*
X170599761Y-96764285D01*
X170504523Y-96859523D01*
X170314047Y-96954761D01*
X170028333Y-96954761D01*
X171552142Y-95621428D02*
X171552142Y-97621428D01*
X171552142Y-95716666D02*
X171742619Y-95621428D01*
X172123571Y-95621428D01*
X172314047Y-95716666D01*
X172409285Y-95811904D01*
X172504523Y-96002380D01*
X172504523Y-96573809D01*
X172409285Y-96764285D01*
X172314047Y-96859523D01*
X172123571Y-96954761D01*
X171742619Y-96954761D01*
X171552142Y-96859523D01*
X176504523Y-96954761D02*
X176409285Y-96954761D01*
X176218809Y-96859523D01*
X175933095Y-96573809D01*
X175456904Y-96002380D01*
X175266428Y-95716666D01*
X175171190Y-95430952D01*
X175171190Y-95240476D01*
X175266428Y-95050000D01*
X175456904Y-94954761D01*
X175552142Y-94954761D01*
X175742619Y-95050000D01*
X175837857Y-95240476D01*
X175837857Y-95335714D01*
X175742619Y-95526190D01*
X175647380Y-95621428D01*
X175075952Y-96002380D01*
X174980714Y-96097619D01*
X174885476Y-96288095D01*
X174885476Y-96573809D01*
X174980714Y-96764285D01*
X175075952Y-96859523D01*
X175266428Y-96954761D01*
X175552142Y-96954761D01*
X175742619Y-96859523D01*
X175837857Y-96764285D01*
X176123571Y-96383333D01*
X176218809Y-96097619D01*
X176218809Y-95907142D01*
X178885476Y-96954761D02*
X178885476Y-94954761D01*
X178885476Y-95716666D02*
X179075952Y-95621428D01*
X179456904Y-95621428D01*
X179647380Y-95716666D01*
X179742619Y-95811904D01*
X179837857Y-96002380D01*
X179837857Y-96573809D01*
X179742619Y-96764285D01*
X179647380Y-96859523D01*
X179456904Y-96954761D01*
X179075952Y-96954761D01*
X178885476Y-96859523D01*
X180980714Y-96954761D02*
X180790238Y-96859523D01*
X180695000Y-96764285D01*
X180599761Y-96573809D01*
X180599761Y-96002380D01*
X180695000Y-95811904D01*
X180790238Y-95716666D01*
X180980714Y-95621428D01*
X181266428Y-95621428D01*
X181456904Y-95716666D01*
X181552142Y-95811904D01*
X181647380Y-96002380D01*
X181647380Y-96573809D01*
X181552142Y-96764285D01*
X181456904Y-96859523D01*
X181266428Y-96954761D01*
X180980714Y-96954761D01*
X182218809Y-95621428D02*
X182980714Y-95621428D01*
X182504523Y-94954761D02*
X182504523Y-96669047D01*
X182599761Y-96859523D01*
X182790238Y-96954761D01*
X182980714Y-96954761D01*
X183361666Y-95621428D02*
X184123571Y-95621428D01*
X183647380Y-94954761D02*
X183647380Y-96669047D01*
X183742619Y-96859523D01*
X183933095Y-96954761D01*
X184123571Y-96954761D01*
X185075952Y-96954761D02*
X184885476Y-96859523D01*
X184790238Y-96764285D01*
X184695000Y-96573809D01*
X184695000Y-96002380D01*
X184790238Y-95811904D01*
X184885476Y-95716666D01*
X185075952Y-95621428D01*
X185361666Y-95621428D01*
X185552142Y-95716666D01*
X185647380Y-95811904D01*
X185742619Y-96002380D01*
X185742619Y-96573809D01*
X185647380Y-96764285D01*
X185552142Y-96859523D01*
X185361666Y-96954761D01*
X185075952Y-96954761D01*
X186599761Y-96954761D02*
X186599761Y-95621428D01*
X186599761Y-95811904D02*
X186695000Y-95716666D01*
X186885476Y-95621428D01*
X187171190Y-95621428D01*
X187361666Y-95716666D01*
X187456904Y-95907142D01*
X187456904Y-96954761D01*
X187456904Y-95907142D02*
X187552142Y-95716666D01*
X187742619Y-95621428D01*
X188028333Y-95621428D01*
X188218809Y-95716666D01*
X188314047Y-95907142D01*
X188314047Y-96954761D01*
X141171190Y-100254761D02*
X141171190Y-98254761D01*
X141933095Y-98254761D01*
X142123571Y-98350000D01*
X142218809Y-98445238D01*
X142314047Y-98635714D01*
X142314047Y-98921428D01*
X142218809Y-99111904D01*
X142123571Y-99207142D01*
X141933095Y-99302380D01*
X141171190Y-99302380D01*
X143456904Y-100254761D02*
X143266428Y-100159523D01*
X143171190Y-99969047D01*
X143171190Y-98254761D01*
X145075952Y-100254761D02*
X145075952Y-99207142D01*
X144980714Y-99016666D01*
X144790238Y-98921428D01*
X144409285Y-98921428D01*
X144218809Y-99016666D01*
X145075952Y-100159523D02*
X144885476Y-100254761D01*
X144409285Y-100254761D01*
X144218809Y-100159523D01*
X144123571Y-99969047D01*
X144123571Y-99778571D01*
X144218809Y-99588095D01*
X144409285Y-99492857D01*
X144885476Y-99492857D01*
X145075952Y-99397619D01*
X145742619Y-98921428D02*
X146504523Y-98921428D01*
X146028333Y-98254761D02*
X146028333Y-99969047D01*
X146123571Y-100159523D01*
X146314047Y-100254761D01*
X146504523Y-100254761D01*
X147933095Y-100159523D02*
X147742619Y-100254761D01*
X147361666Y-100254761D01*
X147171190Y-100159523D01*
X147075952Y-99969047D01*
X147075952Y-99207142D01*
X147171190Y-99016666D01*
X147361666Y-98921428D01*
X147742619Y-98921428D01*
X147933095Y-99016666D01*
X148028333Y-99207142D01*
X148028333Y-99397619D01*
X147075952Y-99588095D01*
X151171190Y-100159523D02*
X150980714Y-100254761D01*
X150599761Y-100254761D01*
X150409285Y-100159523D01*
X150314047Y-99969047D01*
X150314047Y-99207142D01*
X150409285Y-99016666D01*
X150599761Y-98921428D01*
X150980714Y-98921428D01*
X151171190Y-99016666D01*
X151266428Y-99207142D01*
X151266428Y-99397619D01*
X150314047Y-99588095D01*
X152980714Y-100254761D02*
X152980714Y-98254761D01*
X152980714Y-100159523D02*
X152790238Y-100254761D01*
X152409285Y-100254761D01*
X152218809Y-100159523D01*
X152123571Y-100064285D01*
X152028333Y-99873809D01*
X152028333Y-99302380D01*
X152123571Y-99111904D01*
X152218809Y-99016666D01*
X152409285Y-98921428D01*
X152790238Y-98921428D01*
X152980714Y-99016666D01*
X154790238Y-98921428D02*
X154790238Y-100540476D01*
X154695000Y-100730952D01*
X154599761Y-100826190D01*
X154409285Y-100921428D01*
X154123571Y-100921428D01*
X153933095Y-100826190D01*
X154790238Y-100159523D02*
X154599761Y-100254761D01*
X154218809Y-100254761D01*
X154028333Y-100159523D01*
X153933095Y-100064285D01*
X153837857Y-99873809D01*
X153837857Y-99302380D01*
X153933095Y-99111904D01*
X154028333Y-99016666D01*
X154218809Y-98921428D01*
X154599761Y-98921428D01*
X154790238Y-99016666D01*
X156504523Y-100159523D02*
X156314047Y-100254761D01*
X155933095Y-100254761D01*
X155742619Y-100159523D01*
X155647380Y-99969047D01*
X155647380Y-99207142D01*
X155742619Y-99016666D01*
X155933095Y-98921428D01*
X156314047Y-98921428D01*
X156504523Y-99016666D01*
X156599761Y-99207142D01*
X156599761Y-99397619D01*
X155647380Y-99588095D01*
X159837857Y-100254761D02*
X159837857Y-99207142D01*
X159742619Y-99016666D01*
X159552142Y-98921428D01*
X159171190Y-98921428D01*
X158980714Y-99016666D01*
X159837857Y-100159523D02*
X159647380Y-100254761D01*
X159171190Y-100254761D01*
X158980714Y-100159523D01*
X158885476Y-99969047D01*
X158885476Y-99778571D01*
X158980714Y-99588095D01*
X159171190Y-99492857D01*
X159647380Y-99492857D01*
X159837857Y-99397619D01*
X160790238Y-100254761D02*
X160790238Y-98921428D01*
X160790238Y-99302380D02*
X160885476Y-99111904D01*
X160980714Y-99016666D01*
X161171190Y-98921428D01*
X161361666Y-98921428D01*
X162314047Y-100254761D02*
X162123571Y-100159523D01*
X162028333Y-100064285D01*
X161933095Y-99873809D01*
X161933095Y-99302380D01*
X162028333Y-99111904D01*
X162123571Y-99016666D01*
X162314047Y-98921428D01*
X162599761Y-98921428D01*
X162790238Y-99016666D01*
X162885476Y-99111904D01*
X162980714Y-99302380D01*
X162980714Y-99873809D01*
X162885476Y-100064285D01*
X162790238Y-100159523D01*
X162599761Y-100254761D01*
X162314047Y-100254761D01*
X164695000Y-98921428D02*
X164695000Y-100254761D01*
X163837857Y-98921428D02*
X163837857Y-99969047D01*
X163933095Y-100159523D01*
X164123571Y-100254761D01*
X164409285Y-100254761D01*
X164599761Y-100159523D01*
X164695000Y-100064285D01*
X165647380Y-98921428D02*
X165647380Y-100254761D01*
X165647380Y-99111904D02*
X165742619Y-99016666D01*
X165933095Y-98921428D01*
X166218809Y-98921428D01*
X166409285Y-99016666D01*
X166504523Y-99207142D01*
X166504523Y-100254761D01*
X168314047Y-100254761D02*
X168314047Y-98254761D01*
X168314047Y-100159523D02*
X168123571Y-100254761D01*
X167742619Y-100254761D01*
X167552142Y-100159523D01*
X167456904Y-100064285D01*
X167361666Y-99873809D01*
X167361666Y-99302380D01*
X167456904Y-99111904D01*
X167552142Y-99016666D01*
X167742619Y-98921428D01*
X168123571Y-98921428D01*
X168314047Y-99016666D01*
X171647380Y-100159523D02*
X171456904Y-100254761D01*
X171075952Y-100254761D01*
X170885476Y-100159523D01*
X170790238Y-100064285D01*
X170695000Y-99873809D01*
X170695000Y-99302380D01*
X170790238Y-99111904D01*
X170885476Y-99016666D01*
X171075952Y-98921428D01*
X171456904Y-98921428D01*
X171647380Y-99016666D01*
X173361666Y-100254761D02*
X173361666Y-99207142D01*
X173266428Y-99016666D01*
X173075952Y-98921428D01*
X172695000Y-98921428D01*
X172504523Y-99016666D01*
X173361666Y-100159523D02*
X173171190Y-100254761D01*
X172695000Y-100254761D01*
X172504523Y-100159523D01*
X172409285Y-99969047D01*
X172409285Y-99778571D01*
X172504523Y-99588095D01*
X172695000Y-99492857D01*
X173171190Y-99492857D01*
X173361666Y-99397619D01*
X174314047Y-98921428D02*
X174314047Y-100921428D01*
X174314047Y-99016666D02*
X174504523Y-98921428D01*
X174885476Y-98921428D01*
X175075952Y-99016666D01*
X175171190Y-99111904D01*
X175266428Y-99302380D01*
X175266428Y-99873809D01*
X175171190Y-100064285D01*
X175075952Y-100159523D01*
X174885476Y-100254761D01*
X174504523Y-100254761D01*
X174314047Y-100159523D01*
X176980714Y-100254761D02*
X176980714Y-99207142D01*
X176885476Y-99016666D01*
X176695000Y-98921428D01*
X176314047Y-98921428D01*
X176123571Y-99016666D01*
X176980714Y-100159523D02*
X176790238Y-100254761D01*
X176314047Y-100254761D01*
X176123571Y-100159523D01*
X176028333Y-99969047D01*
X176028333Y-99778571D01*
X176123571Y-99588095D01*
X176314047Y-99492857D01*
X176790238Y-99492857D01*
X176980714Y-99397619D01*
X178790238Y-100159523D02*
X178599761Y-100254761D01*
X178218809Y-100254761D01*
X178028333Y-100159523D01*
X177933095Y-100064285D01*
X177837857Y-99873809D01*
X177837857Y-99302380D01*
X177933095Y-99111904D01*
X178028333Y-99016666D01*
X178218809Y-98921428D01*
X178599761Y-98921428D01*
X178790238Y-99016666D01*
X179647380Y-100254761D02*
X179647380Y-98921428D01*
X179647380Y-98254761D02*
X179552142Y-98350000D01*
X179647380Y-98445238D01*
X179742619Y-98350000D01*
X179647380Y-98254761D01*
X179647380Y-98445238D01*
X180314047Y-98921428D02*
X181075952Y-98921428D01*
X180599761Y-98254761D02*
X180599761Y-99969047D01*
X180695000Y-100159523D01*
X180885476Y-100254761D01*
X181075952Y-100254761D01*
X181742619Y-100254761D02*
X181742619Y-98921428D01*
X181742619Y-98254761D02*
X181647380Y-98350000D01*
X181742619Y-98445238D01*
X181837857Y-98350000D01*
X181742619Y-98254761D01*
X181742619Y-98445238D01*
X182504523Y-98921428D02*
X182980714Y-100254761D01*
X183456904Y-98921428D01*
X184980714Y-100159523D02*
X184790238Y-100254761D01*
X184409285Y-100254761D01*
X184218809Y-100159523D01*
X184123571Y-99969047D01*
X184123571Y-99207142D01*
X184218809Y-99016666D01*
X184409285Y-98921428D01*
X184790238Y-98921428D01*
X184980714Y-99016666D01*
X185075952Y-99207142D01*
X185075952Y-99397619D01*
X184123571Y-99588095D01*
X187171190Y-98921428D02*
X187933095Y-98921428D01*
X187456904Y-98254761D02*
X187456904Y-99969047D01*
X187552142Y-100159523D01*
X187742619Y-100254761D01*
X187933095Y-100254761D01*
X188885476Y-100254761D02*
X188695000Y-100159523D01*
X188599761Y-100064285D01*
X188504523Y-99873809D01*
X188504523Y-99302380D01*
X188599761Y-99111904D01*
X188695000Y-99016666D01*
X188885476Y-98921428D01*
X189171190Y-98921428D01*
X189361666Y-99016666D01*
X189456904Y-99111904D01*
X189552142Y-99302380D01*
X189552142Y-99873809D01*
X189456904Y-100064285D01*
X189361666Y-100159523D01*
X189171190Y-100254761D01*
X188885476Y-100254761D01*
X191266428Y-98921428D02*
X191266428Y-100254761D01*
X190409285Y-98921428D02*
X190409285Y-99969047D01*
X190504523Y-100159523D01*
X190695000Y-100254761D01*
X190980714Y-100254761D01*
X191171190Y-100159523D01*
X191266428Y-100064285D01*
X193075952Y-100159523D02*
X192885476Y-100254761D01*
X192504523Y-100254761D01*
X192314047Y-100159523D01*
X192218809Y-100064285D01*
X192123571Y-99873809D01*
X192123571Y-99302380D01*
X192218809Y-99111904D01*
X192314047Y-99016666D01*
X192504523Y-98921428D01*
X192885476Y-98921428D01*
X193075952Y-99016666D01*
X193933095Y-100254761D02*
X193933095Y-98254761D01*
X194790238Y-100254761D02*
X194790238Y-99207142D01*
X194695000Y-99016666D01*
X194504523Y-98921428D01*
X194218809Y-98921428D01*
X194028333Y-99016666D01*
X193933095Y-99111904D01*
X197266428Y-98921428D02*
X197266428Y-100921428D01*
X197266428Y-99016666D02*
X197456904Y-98921428D01*
X197837857Y-98921428D01*
X198028333Y-99016666D01*
X198123571Y-99111904D01*
X198218809Y-99302380D01*
X198218809Y-99873809D01*
X198123571Y-100064285D01*
X198028333Y-100159523D01*
X197837857Y-100254761D01*
X197456904Y-100254761D01*
X197266428Y-100159523D01*
X199933095Y-100254761D02*
X199933095Y-99207142D01*
X199837857Y-99016666D01*
X199647380Y-98921428D01*
X199266428Y-98921428D01*
X199075952Y-99016666D01*
X199933095Y-100159523D02*
X199742619Y-100254761D01*
X199266428Y-100254761D01*
X199075952Y-100159523D01*
X198980714Y-99969047D01*
X198980714Y-99778571D01*
X199075952Y-99588095D01*
X199266428Y-99492857D01*
X199742619Y-99492857D01*
X199933095Y-99397619D01*
X201742619Y-100254761D02*
X201742619Y-98254761D01*
X201742619Y-100159523D02*
X201552142Y-100254761D01*
X201171190Y-100254761D01*
X200980714Y-100159523D01*
X200885476Y-100064285D01*
X200790238Y-99873809D01*
X200790238Y-99302380D01*
X200885476Y-99111904D01*
X200980714Y-99016666D01*
X201171190Y-98921428D01*
X201552142Y-98921428D01*
X201742619Y-99016666D01*
X202599761Y-100159523D02*
X202790238Y-100254761D01*
X203171190Y-100254761D01*
X203361666Y-100159523D01*
X203456904Y-99969047D01*
X203456904Y-99873809D01*
X203361666Y-99683333D01*
X203171190Y-99588095D01*
X202885476Y-99588095D01*
X202694999Y-99492857D01*
X202599761Y-99302380D01*
X202599761Y-99207142D01*
X202694999Y-99016666D01*
X202885476Y-98921428D01*
X203171190Y-98921428D01*
X203361666Y-99016666D01*
X206694999Y-100254761D02*
X206694999Y-99207142D01*
X206599761Y-99016666D01*
X206409285Y-98921428D01*
X206028333Y-98921428D01*
X205837857Y-99016666D01*
X206694999Y-100159523D02*
X206504523Y-100254761D01*
X206028333Y-100254761D01*
X205837857Y-100159523D01*
X205742619Y-99969047D01*
X205742619Y-99778571D01*
X205837857Y-99588095D01*
X206028333Y-99492857D01*
X206504523Y-99492857D01*
X206694999Y-99397619D01*
X207552142Y-100159523D02*
X207742619Y-100254761D01*
X208123571Y-100254761D01*
X208314047Y-100159523D01*
X208409285Y-99969047D01*
X208409285Y-99873809D01*
X208314047Y-99683333D01*
X208123571Y-99588095D01*
X207837857Y-99588095D01*
X207647380Y-99492857D01*
X207552142Y-99302380D01*
X207552142Y-99207142D01*
X207647380Y-99016666D01*
X207837857Y-98921428D01*
X208123571Y-98921428D01*
X208314047Y-99016666D01*
X210790238Y-100254761D02*
X210790238Y-98921428D01*
X210790238Y-99111904D02*
X210885476Y-99016666D01*
X211075952Y-98921428D01*
X211361666Y-98921428D01*
X211552142Y-99016666D01*
X211647380Y-99207142D01*
X211647380Y-100254761D01*
X211647380Y-99207142D02*
X211742619Y-99016666D01*
X211933095Y-98921428D01*
X212218809Y-98921428D01*
X212409285Y-99016666D01*
X212504523Y-99207142D01*
X212504523Y-100254761D01*
X214314047Y-100254761D02*
X214314047Y-99207142D01*
X214218809Y-99016666D01*
X214028333Y-98921428D01*
X213647380Y-98921428D01*
X213456904Y-99016666D01*
X214314047Y-100159523D02*
X214123571Y-100254761D01*
X213647380Y-100254761D01*
X213456904Y-100159523D01*
X213361666Y-99969047D01*
X213361666Y-99778571D01*
X213456904Y-99588095D01*
X213647380Y-99492857D01*
X214123571Y-99492857D01*
X214314047Y-99397619D01*
X215266428Y-100254761D02*
X215266428Y-98921428D01*
X215266428Y-99302380D02*
X215361666Y-99111904D01*
X215456904Y-99016666D01*
X215647380Y-98921428D01*
X215837857Y-98921428D01*
X216504523Y-100254761D02*
X216504523Y-98254761D01*
X216694999Y-99492857D02*
X217266428Y-100254761D01*
X217266428Y-98921428D02*
X216504523Y-99683333D01*
X218885476Y-100159523D02*
X218694999Y-100254761D01*
X218314047Y-100254761D01*
X218123571Y-100159523D01*
X218028333Y-99969047D01*
X218028333Y-99207142D01*
X218123571Y-99016666D01*
X218314047Y-98921428D01*
X218694999Y-98921428D01*
X218885476Y-99016666D01*
X218980714Y-99207142D01*
X218980714Y-99397619D01*
X218028333Y-99588095D01*
X220694999Y-100254761D02*
X220694999Y-98254761D01*
X220694999Y-100159523D02*
X220504523Y-100254761D01*
X220123571Y-100254761D01*
X219933095Y-100159523D01*
X219837857Y-100064285D01*
X219742619Y-99873809D01*
X219742619Y-99302380D01*
X219837857Y-99111904D01*
X219933095Y-99016666D01*
X220123571Y-98921428D01*
X220504523Y-98921428D01*
X220694999Y-99016666D01*
X221647380Y-100064285D02*
X221742619Y-100159523D01*
X221647380Y-100254761D01*
X221552142Y-100159523D01*
X221647380Y-100064285D01*
X221647380Y-100254761D01*
X141171190Y-103554761D02*
X141171190Y-101554761D01*
X142123571Y-102221428D02*
X142123571Y-103554761D01*
X142123571Y-102411904D02*
X142218809Y-102316666D01*
X142409285Y-102221428D01*
X142695000Y-102221428D01*
X142885476Y-102316666D01*
X142980714Y-102507142D01*
X142980714Y-103554761D01*
X143647380Y-102221428D02*
X144409285Y-102221428D01*
X143933095Y-103554761D02*
X143933095Y-101840476D01*
X144028333Y-101650000D01*
X144218809Y-101554761D01*
X144409285Y-101554761D01*
X145361666Y-103554761D02*
X145171190Y-103459523D01*
X145075952Y-103269047D01*
X145075952Y-101554761D01*
X146980714Y-103554761D02*
X146980714Y-102507142D01*
X146885476Y-102316666D01*
X146695000Y-102221428D01*
X146314047Y-102221428D01*
X146123571Y-102316666D01*
X146980714Y-103459523D02*
X146790238Y-103554761D01*
X146314047Y-103554761D01*
X146123571Y-103459523D01*
X146028333Y-103269047D01*
X146028333Y-103078571D01*
X146123571Y-102888095D01*
X146314047Y-102792857D01*
X146790238Y-102792857D01*
X146980714Y-102697619D01*
X147647380Y-102221428D02*
X148409285Y-102221428D01*
X147933095Y-101554761D02*
X147933095Y-103269047D01*
X148028333Y-103459523D01*
X148218809Y-103554761D01*
X148409285Y-103554761D01*
X149837857Y-103459523D02*
X149647380Y-103554761D01*
X149266428Y-103554761D01*
X149075952Y-103459523D01*
X148980714Y-103269047D01*
X148980714Y-102507142D01*
X149075952Y-102316666D01*
X149266428Y-102221428D01*
X149647380Y-102221428D01*
X149837857Y-102316666D01*
X149933095Y-102507142D01*
X149933095Y-102697619D01*
X148980714Y-102888095D01*
X152218809Y-103459523D02*
X152409285Y-103554761D01*
X152790238Y-103554761D01*
X152980714Y-103459523D01*
X153075952Y-103269047D01*
X153075952Y-103173809D01*
X152980714Y-102983333D01*
X152790238Y-102888095D01*
X152504523Y-102888095D01*
X152314047Y-102792857D01*
X152218809Y-102602380D01*
X152218809Y-102507142D01*
X152314047Y-102316666D01*
X152504523Y-102221428D01*
X152790238Y-102221428D01*
X152980714Y-102316666D01*
X154218809Y-103554761D02*
X154028333Y-103459523D01*
X153933095Y-103364285D01*
X153837857Y-103173809D01*
X153837857Y-102602380D01*
X153933095Y-102411904D01*
X154028333Y-102316666D01*
X154218809Y-102221428D01*
X154504523Y-102221428D01*
X154695000Y-102316666D01*
X154790238Y-102411904D01*
X154885476Y-102602380D01*
X154885476Y-103173809D01*
X154790238Y-103364285D01*
X154695000Y-103459523D01*
X154504523Y-103554761D01*
X154218809Y-103554761D01*
X156028333Y-103554761D02*
X155837857Y-103459523D01*
X155742619Y-103269047D01*
X155742619Y-101554761D01*
X157647380Y-103554761D02*
X157647380Y-101554761D01*
X157647380Y-103459523D02*
X157456904Y-103554761D01*
X157075952Y-103554761D01*
X156885476Y-103459523D01*
X156790238Y-103364285D01*
X156695000Y-103173809D01*
X156695000Y-102602380D01*
X156790238Y-102411904D01*
X156885476Y-102316666D01*
X157075952Y-102221428D01*
X157456904Y-102221428D01*
X157647380Y-102316666D01*
X159361666Y-103459523D02*
X159171190Y-103554761D01*
X158790238Y-103554761D01*
X158599761Y-103459523D01*
X158504523Y-103269047D01*
X158504523Y-102507142D01*
X158599761Y-102316666D01*
X158790238Y-102221428D01*
X159171190Y-102221428D01*
X159361666Y-102316666D01*
X159456904Y-102507142D01*
X159456904Y-102697619D01*
X158504523Y-102888095D01*
X160314047Y-103554761D02*
X160314047Y-102221428D01*
X160314047Y-102602380D02*
X160409285Y-102411904D01*
X160504523Y-102316666D01*
X160695000Y-102221428D01*
X160885476Y-102221428D01*
X161552142Y-103554761D02*
X161552142Y-102221428D01*
X161552142Y-102411904D02*
X161647380Y-102316666D01*
X161837857Y-102221428D01*
X162123571Y-102221428D01*
X162314047Y-102316666D01*
X162409285Y-102507142D01*
X162409285Y-103554761D01*
X162409285Y-102507142D02*
X162504523Y-102316666D01*
X162695000Y-102221428D01*
X162980714Y-102221428D01*
X163171190Y-102316666D01*
X163266428Y-102507142D01*
X163266428Y-103554761D01*
X165075952Y-103554761D02*
X165075952Y-102507142D01*
X164980714Y-102316666D01*
X164790238Y-102221428D01*
X164409285Y-102221428D01*
X164218809Y-102316666D01*
X165075952Y-103459523D02*
X164885476Y-103554761D01*
X164409285Y-103554761D01*
X164218809Y-103459523D01*
X164123571Y-103269047D01*
X164123571Y-103078571D01*
X164218809Y-102888095D01*
X164409285Y-102792857D01*
X164885476Y-102792857D01*
X165075952Y-102697619D01*
X165933095Y-103459523D02*
X166123571Y-103554761D01*
X166504523Y-103554761D01*
X166695000Y-103459523D01*
X166790238Y-103269047D01*
X166790238Y-103173809D01*
X166695000Y-102983333D01*
X166504523Y-102888095D01*
X166218809Y-102888095D01*
X166028333Y-102792857D01*
X165933095Y-102602380D01*
X165933095Y-102507142D01*
X166028333Y-102316666D01*
X166218809Y-102221428D01*
X166504523Y-102221428D01*
X166695000Y-102316666D01*
X167647380Y-103554761D02*
X167647380Y-101554761D01*
X167837857Y-102792857D02*
X168409285Y-103554761D01*
X168409285Y-102221428D02*
X167647380Y-102983333D01*
X171647380Y-103554761D02*
X171647380Y-102507142D01*
X171552142Y-102316666D01*
X171361666Y-102221428D01*
X170980714Y-102221428D01*
X170790238Y-102316666D01*
X171647380Y-103459523D02*
X171456904Y-103554761D01*
X170980714Y-103554761D01*
X170790238Y-103459523D01*
X170695000Y-103269047D01*
X170695000Y-103078571D01*
X170790238Y-102888095D01*
X170980714Y-102792857D01*
X171456904Y-102792857D01*
X171647380Y-102697619D01*
X172504523Y-103459523D02*
X172695000Y-103554761D01*
X173075952Y-103554761D01*
X173266428Y-103459523D01*
X173361666Y-103269047D01*
X173361666Y-103173809D01*
X173266428Y-102983333D01*
X173075952Y-102888095D01*
X172790238Y-102888095D01*
X172599761Y-102792857D01*
X172504523Y-102602380D01*
X172504523Y-102507142D01*
X172599761Y-102316666D01*
X172790238Y-102221428D01*
X173075952Y-102221428D01*
X173266428Y-102316666D01*
X175742619Y-103554761D02*
X175742619Y-102221428D01*
X175742619Y-102602380D02*
X175837857Y-102411904D01*
X175933095Y-102316666D01*
X176123571Y-102221428D01*
X176314047Y-102221428D01*
X177742619Y-103459523D02*
X177552142Y-103554761D01*
X177171190Y-103554761D01*
X176980714Y-103459523D01*
X176885476Y-103269047D01*
X176885476Y-102507142D01*
X176980714Y-102316666D01*
X177171190Y-102221428D01*
X177552142Y-102221428D01*
X177742619Y-102316666D01*
X177837857Y-102507142D01*
X177837857Y-102697619D01*
X176885476Y-102888095D01*
X179552142Y-102221428D02*
X179552142Y-104221428D01*
X179552142Y-103459523D02*
X179361666Y-103554761D01*
X178980714Y-103554761D01*
X178790238Y-103459523D01*
X178695000Y-103364285D01*
X178599761Y-103173809D01*
X178599761Y-102602380D01*
X178695000Y-102411904D01*
X178790238Y-102316666D01*
X178980714Y-102221428D01*
X179361666Y-102221428D01*
X179552142Y-102316666D01*
X181361666Y-102221428D02*
X181361666Y-103554761D01*
X180504523Y-102221428D02*
X180504523Y-103269047D01*
X180599761Y-103459523D01*
X180790238Y-103554761D01*
X181075952Y-103554761D01*
X181266428Y-103459523D01*
X181361666Y-103364285D01*
X182314047Y-103554761D02*
X182314047Y-102221428D01*
X182314047Y-101554761D02*
X182218809Y-101650000D01*
X182314047Y-101745238D01*
X182409285Y-101650000D01*
X182314047Y-101554761D01*
X182314047Y-101745238D01*
X183266428Y-103554761D02*
X183266428Y-102221428D01*
X183266428Y-102602380D02*
X183361666Y-102411904D01*
X183456904Y-102316666D01*
X183647380Y-102221428D01*
X183837857Y-102221428D01*
X185266428Y-103459523D02*
X185075952Y-103554761D01*
X184695000Y-103554761D01*
X184504523Y-103459523D01*
X184409285Y-103269047D01*
X184409285Y-102507142D01*
X184504523Y-102316666D01*
X184695000Y-102221428D01*
X185075952Y-102221428D01*
X185266428Y-102316666D01*
X185361666Y-102507142D01*
X185361666Y-102697619D01*
X184409285Y-102888095D01*
X187075952Y-103554761D02*
X187075952Y-101554761D01*
X187075952Y-103459523D02*
X186885476Y-103554761D01*
X186504523Y-103554761D01*
X186314047Y-103459523D01*
X186218809Y-103364285D01*
X186123571Y-103173809D01*
X186123571Y-102602380D01*
X186218809Y-102411904D01*
X186314047Y-102316666D01*
X186504523Y-102221428D01*
X186885476Y-102221428D01*
X187075952Y-102316666D01*
X188028333Y-103364285D02*
X188123571Y-103459523D01*
X188028333Y-103554761D01*
X187933095Y-103459523D01*
X188028333Y-103364285D01*
X188028333Y-103554761D01*
M02*
