G04 #@! TF.GenerationSoftware,KiCad,Pcbnew,(5.0.1-3-g963ef8bb5)*
G04 #@! TF.CreationDate,2018-11-23T17:34:31+10:30*
G04 #@! TF.ProjectId,electric-greetings,656C6563747269632D6772656574696E,1.0.0*
G04 #@! TF.SameCoordinates,Original*
G04 #@! TF.FileFunction,Drawing*
%FSLAX46Y46*%
G04 Gerber Fmt 4.6, Leading zero omitted, Abs format (unit mm)*
G04 Created by KiCad (PCBNEW (5.0.1-3-g963ef8bb5)) date Friday, 23 November 2018 at 05:34:31 pm*
%MOMM*%
%LPD*%
G01*
G04 APERTURE LIST*
%ADD10C,0.300000*%
%ADD11C,0.150000*%
%ADD12C,0.025000*%
G04 APERTURE END LIST*
D10*
X102044740Y-63577956D02*
X101187604Y-63581527D01*
X101616172Y-63579742D02*
X101609922Y-62079755D01*
X101467959Y-62294634D01*
X101325698Y-62438085D01*
X101183140Y-62510108D01*
X102610508Y-62218444D02*
X102681639Y-62146718D01*
X102824197Y-62074695D01*
X103181337Y-62073207D01*
X103324490Y-62144040D01*
X103396216Y-62215170D01*
X103468239Y-62357728D01*
X103468834Y-62500584D01*
X103398299Y-62715166D01*
X102544735Y-63575873D01*
X103473299Y-63572004D01*
X104115555Y-63426469D02*
X104187280Y-63497599D01*
X104116150Y-63569325D01*
X104044425Y-63498195D01*
X104115555Y-63426469D01*
X104116150Y-63569325D01*
X105109891Y-62065171D02*
X105252747Y-62064576D01*
X105395901Y-62135409D01*
X105467626Y-62206539D01*
X105539650Y-62349098D01*
X105612268Y-62634512D01*
X105613756Y-62991652D01*
X105543519Y-63277661D01*
X105472686Y-63420814D01*
X105401556Y-63492540D01*
X105258997Y-63564563D01*
X105116141Y-63565158D01*
X104972988Y-63494326D01*
X104901262Y-63423195D01*
X104829239Y-63280637D01*
X104756621Y-62995223D01*
X104755133Y-62638083D01*
X104825370Y-62352074D01*
X104896203Y-62208920D01*
X104967333Y-62137195D01*
X105109891Y-62065171D01*
X107401836Y-63555635D02*
X107397669Y-62555643D01*
X107398264Y-62698499D02*
X107469395Y-62626774D01*
X107611953Y-62554751D01*
X107826237Y-62553858D01*
X107969390Y-62624690D01*
X108041414Y-62767249D01*
X108044687Y-63552956D01*
X108041414Y-62767249D02*
X108112246Y-62624095D01*
X108254805Y-62552072D01*
X108469089Y-62551179D01*
X108612242Y-62622012D01*
X108684265Y-62764570D01*
X108687539Y-63550278D01*
X109401819Y-63547301D02*
X109397652Y-62547310D01*
X109398247Y-62690166D02*
X109469377Y-62618440D01*
X109611936Y-62546417D01*
X109826220Y-62545524D01*
X109969373Y-62616357D01*
X110041396Y-62758915D01*
X110044670Y-63544623D01*
X110041396Y-62758915D02*
X110112229Y-62615762D01*
X110254787Y-62543739D01*
X110469071Y-62542846D01*
X110612225Y-62613679D01*
X110684248Y-62756237D01*
X110687522Y-63541944D01*
X99979200Y-65008004D02*
X111979200Y-64958004D01*
X100000000Y-70000000D02*
X99976757Y-64421589D01*
X112000000Y-69950000D02*
X111976757Y-64371589D01*
X111979200Y-64958004D02*
X110855149Y-65549113D01*
X111979200Y-64958004D02*
X110850263Y-64376282D01*
X99979200Y-65008004D02*
X101108137Y-65589726D01*
X99979200Y-65008004D02*
X101103251Y-64416895D01*
X118272126Y-89867561D02*
X118273673Y-88938990D01*
X118844268Y-89439942D01*
X118844625Y-89225657D01*
X118916292Y-89082919D01*
X118987839Y-89011609D01*
X119130815Y-88940419D01*
X119487957Y-88941014D01*
X119630695Y-89012681D01*
X119702005Y-89084228D01*
X119773195Y-89227204D01*
X119772481Y-89655775D01*
X119700814Y-89798513D01*
X119629267Y-89869822D01*
X118275221Y-88010420D02*
X118275459Y-87867563D01*
X118347126Y-87724825D01*
X118418673Y-87653516D01*
X118561649Y-87582326D01*
X118847482Y-87511373D01*
X119204625Y-87511969D01*
X119490219Y-87583873D01*
X119632957Y-87655540D01*
X119704267Y-87727087D01*
X119775457Y-87870063D01*
X119775219Y-88012920D01*
X119703552Y-88155658D01*
X119632005Y-88226968D01*
X119489029Y-88298158D01*
X119203196Y-88369110D01*
X118846054Y-88368515D01*
X118560459Y-88296610D01*
X118417721Y-88224944D01*
X118346411Y-88153396D01*
X118275221Y-88010420D01*
X119634267Y-86869827D02*
X119705814Y-86798517D01*
X119777124Y-86870065D01*
X119705576Y-86941374D01*
X119634267Y-86869827D01*
X119777124Y-86870065D01*
X118278792Y-85867566D02*
X118279031Y-85724709D01*
X118350697Y-85581971D01*
X118422245Y-85510662D01*
X118565221Y-85439471D01*
X118851054Y-85368519D01*
X119208196Y-85369114D01*
X119493791Y-85441019D01*
X119636529Y-85512686D01*
X119707838Y-85584233D01*
X119779029Y-85727209D01*
X119778790Y-85870066D01*
X119707124Y-86012804D01*
X119635576Y-86084113D01*
X119492600Y-86155304D01*
X119206767Y-86226256D01*
X118849625Y-86225661D01*
X118564030Y-86153756D01*
X118421292Y-86082090D01*
X118349983Y-86010542D01*
X118278792Y-85867566D01*
X119782600Y-83584355D02*
X118782601Y-83582688D01*
X118925458Y-83582926D02*
X118854149Y-83511379D01*
X118782958Y-83368403D01*
X118783316Y-83154118D01*
X118854982Y-83011380D01*
X118997958Y-82940189D01*
X119783671Y-82941499D01*
X118997958Y-82940189D02*
X118855220Y-82868523D01*
X118784030Y-82725547D01*
X118784387Y-82511261D01*
X118856054Y-82368523D01*
X118999030Y-82297333D01*
X119784743Y-82298643D01*
X119785933Y-81584358D02*
X118785935Y-81582691D01*
X118928792Y-81582929D02*
X118857482Y-81511382D01*
X118786292Y-81368406D01*
X118786649Y-81154120D01*
X118858316Y-81011382D01*
X119001291Y-80940192D01*
X119787005Y-80941502D01*
X119001291Y-80940192D02*
X118858554Y-80868525D01*
X118787363Y-80725549D01*
X118787720Y-80511264D01*
X118859387Y-80368526D01*
X119002363Y-80297336D01*
X119788076Y-80298645D01*
X117026652Y-70008294D02*
X116976652Y-100008294D01*
X112050000Y-70000000D02*
X117613072Y-70009272D01*
X112000000Y-100000000D02*
X117563072Y-100009272D01*
X116976652Y-100008294D02*
X116392110Y-98880814D01*
X116976652Y-100008294D02*
X117564949Y-98882769D01*
X117026652Y-70008294D02*
X116438355Y-71133819D01*
X117026652Y-70008294D02*
X117611194Y-71135774D01*
D11*
G04 #@! TO.C,J?1*
X99970000Y-69900000D02*
X99970000Y-81900000D01*
X99970000Y-69900000D02*
X112030000Y-69900000D01*
X112030000Y-69900000D02*
X112030000Y-81900000D01*
D12*
G04 #@! TO.C,U1*
X104370000Y-90900000D02*
X104370000Y-90620000D01*
X104370000Y-90620000D02*
G75*
G03X104130000Y-90620000I-120000J0D01*
G01*
X104130000Y-90620000D02*
X104130000Y-90900000D01*
X104130000Y-90900000D02*
X104370000Y-90900000D01*
X104870000Y-90900000D02*
X104870000Y-90620000D01*
X104870000Y-90620000D02*
G75*
G03X104630000Y-90620000I-120000J0D01*
G01*
X104630000Y-90620000D02*
X104630000Y-90900000D01*
X104630000Y-90900000D02*
X104870000Y-90900000D01*
X105370000Y-90900000D02*
X105370000Y-90620000D01*
X105370000Y-90620000D02*
G75*
G03X105130000Y-90620000I-120000J0D01*
G01*
X105130000Y-90620000D02*
X105130000Y-90900000D01*
X105130000Y-90900000D02*
X105370000Y-90900000D01*
X105870000Y-90900000D02*
X105870000Y-90620000D01*
X105870000Y-90620000D02*
G75*
G03X105630000Y-90620000I-120000J0D01*
G01*
X105630000Y-90620000D02*
X105630000Y-90900000D01*
X105630000Y-90900000D02*
X105870000Y-90900000D01*
X106370000Y-90900000D02*
X106370000Y-90620000D01*
X106370000Y-90620000D02*
G75*
G03X106130000Y-90620000I-120000J0D01*
G01*
X106130000Y-90620000D02*
X106130000Y-90900000D01*
X106130000Y-90900000D02*
X106370000Y-90900000D01*
X106870000Y-90900000D02*
X106870000Y-90620000D01*
X106870000Y-90620000D02*
G75*
G03X106630000Y-90620000I-120000J0D01*
G01*
X106630000Y-90620000D02*
X106630000Y-90900000D01*
X106630000Y-90900000D02*
X106870000Y-90900000D01*
X107370000Y-90900000D02*
X107370000Y-90620000D01*
X107370000Y-90620000D02*
G75*
G03X107130000Y-90620000I-120000J0D01*
G01*
X107130000Y-90620000D02*
X107130000Y-90900000D01*
X107130000Y-90900000D02*
X107370000Y-90900000D01*
X107870000Y-90900000D02*
X107870000Y-90620000D01*
X107870000Y-90620000D02*
G75*
G03X107630000Y-90620000I-120000J0D01*
G01*
X107630000Y-90620000D02*
X107630000Y-90900000D01*
X107630000Y-90900000D02*
X107870000Y-90900000D01*
X108500000Y-90030000D02*
X108220000Y-90030000D01*
X108220000Y-90030000D02*
G75*
G03X108220000Y-90270000I0J-120000D01*
G01*
X108220000Y-90270000D02*
X108500000Y-90270000D01*
X108500000Y-90270000D02*
X108500000Y-90030000D01*
X108500000Y-89530000D02*
X108220000Y-89530000D01*
X108220000Y-89530000D02*
G75*
G03X108220000Y-89770000I0J-120000D01*
G01*
X108220000Y-89770000D02*
X108500000Y-89770000D01*
X108500000Y-89770000D02*
X108500000Y-89530000D01*
X108500000Y-89030000D02*
X108220000Y-89030000D01*
X108220000Y-89030000D02*
G75*
G03X108220000Y-89270000I0J-120000D01*
G01*
X108220000Y-89270000D02*
X108500000Y-89270000D01*
X108500000Y-89270000D02*
X108500000Y-89030000D01*
X108500000Y-88530000D02*
X108220000Y-88530000D01*
X108220000Y-88530000D02*
G75*
G03X108220000Y-88770000I0J-120000D01*
G01*
X108220000Y-88770000D02*
X108500000Y-88770000D01*
X108500000Y-88770000D02*
X108500000Y-88530000D01*
X108500000Y-88030000D02*
X108220000Y-88030000D01*
X108220000Y-88030000D02*
G75*
G03X108220000Y-88270000I0J-120000D01*
G01*
X108220000Y-88270000D02*
X108500000Y-88270000D01*
X108500000Y-88270000D02*
X108500000Y-88030000D01*
X108500000Y-87530000D02*
X108220000Y-87530000D01*
X108220000Y-87530000D02*
G75*
G03X108220000Y-87770000I0J-120000D01*
G01*
X108220000Y-87770000D02*
X108500000Y-87770000D01*
X108500000Y-87770000D02*
X108500000Y-87530000D01*
X108500000Y-87030000D02*
X108220000Y-87030000D01*
X108220000Y-87030000D02*
G75*
G03X108220000Y-87270000I0J-120000D01*
G01*
X108220000Y-87270000D02*
X108500000Y-87270000D01*
X108500000Y-87270000D02*
X108500000Y-87030000D01*
X108500000Y-86530000D02*
X108220000Y-86530000D01*
X108220000Y-86530000D02*
G75*
G03X108220000Y-86770000I0J-120000D01*
G01*
X108220000Y-86770000D02*
X108500000Y-86770000D01*
X108500000Y-86770000D02*
X108500000Y-86530000D01*
X107630000Y-85900000D02*
X107630000Y-86180000D01*
X107630000Y-86180000D02*
G75*
G03X107870000Y-86180000I120000J0D01*
G01*
X107870000Y-86180000D02*
X107870000Y-85900000D01*
X107870000Y-85900000D02*
X107630000Y-85900000D01*
X107130000Y-85900000D02*
X107130000Y-86180000D01*
X107130000Y-86180000D02*
G75*
G03X107370000Y-86180000I120000J0D01*
G01*
X107370000Y-86180000D02*
X107370000Y-85900000D01*
X107370000Y-85900000D02*
X107130000Y-85900000D01*
X106630000Y-85900000D02*
X106630000Y-86180000D01*
X106630000Y-86180000D02*
G75*
G03X106870000Y-86180000I120000J0D01*
G01*
X106870000Y-86180000D02*
X106870000Y-85900000D01*
X106870000Y-85900000D02*
X106630000Y-85900000D01*
X106130000Y-85900000D02*
X106130000Y-86180000D01*
X106130000Y-86180000D02*
G75*
G03X106370000Y-86180000I120000J0D01*
G01*
X106370000Y-86180000D02*
X106370000Y-85900000D01*
X106370000Y-85900000D02*
X106130000Y-85900000D01*
X105630000Y-85900000D02*
X105630000Y-86180000D01*
X105630000Y-86180000D02*
G75*
G03X105870000Y-86180000I120000J0D01*
G01*
X105870000Y-86180000D02*
X105870000Y-85900000D01*
X105870000Y-85900000D02*
X105630000Y-85900000D01*
X105130000Y-85900000D02*
X105130000Y-86180000D01*
X105130000Y-86180000D02*
G75*
G03X105370000Y-86180000I120000J0D01*
G01*
X105370000Y-86180000D02*
X105370000Y-85900000D01*
X105370000Y-85900000D02*
X105130000Y-85900000D01*
X104630000Y-85900000D02*
X104630000Y-86180000D01*
X104630000Y-86180000D02*
G75*
G03X104870000Y-86180000I120000J0D01*
G01*
X104870000Y-86180000D02*
X104870000Y-85900000D01*
X104870000Y-85900000D02*
X104630000Y-85900000D01*
X104130000Y-85900000D02*
X104130000Y-86180000D01*
X104130000Y-86180000D02*
G75*
G03X104370000Y-86180000I120000J0D01*
G01*
X104370000Y-86180000D02*
X104370000Y-85900000D01*
X104370000Y-85900000D02*
X104130000Y-85900000D01*
X103500000Y-86770000D02*
X103780000Y-86770000D01*
X103780000Y-86770000D02*
G75*
G03X103780000Y-86530000I0J120000D01*
G01*
X103780000Y-86530000D02*
X103500000Y-86530000D01*
X103500000Y-86530000D02*
X103500000Y-86770000D01*
X103500000Y-87270000D02*
X103780000Y-87270000D01*
X103780000Y-87270000D02*
G75*
G03X103780000Y-87030000I0J120000D01*
G01*
X103780000Y-87030000D02*
X103500000Y-87030000D01*
X103500000Y-87030000D02*
X103500000Y-87270000D01*
X103500000Y-87770000D02*
X103780000Y-87770000D01*
X103780000Y-87770000D02*
G75*
G03X103780000Y-87530000I0J120000D01*
G01*
X103780000Y-87530000D02*
X103500000Y-87530000D01*
X103500000Y-87530000D02*
X103500000Y-87770000D01*
X103500000Y-88270000D02*
X103780000Y-88270000D01*
X103780000Y-88270000D02*
G75*
G03X103780000Y-88030000I0J120000D01*
G01*
X103780000Y-88030000D02*
X103500000Y-88030000D01*
X103500000Y-88030000D02*
X103500000Y-88270000D01*
X103500000Y-88770000D02*
X103780000Y-88770000D01*
X103780000Y-88770000D02*
G75*
G03X103780000Y-88530000I0J120000D01*
G01*
X103780000Y-88530000D02*
X103500000Y-88530000D01*
X103500000Y-88530000D02*
X103500000Y-88770000D01*
X103500000Y-89270000D02*
X103780000Y-89270000D01*
X103780000Y-89270000D02*
G75*
G03X103780000Y-89030000I0J120000D01*
G01*
X103780000Y-89030000D02*
X103500000Y-89030000D01*
X103500000Y-89030000D02*
X103500000Y-89270000D01*
X103500000Y-89770000D02*
X103780000Y-89770000D01*
X103780000Y-89770000D02*
G75*
G03X103780000Y-89530000I0J120000D01*
G01*
X103780000Y-89530000D02*
X103500000Y-89530000D01*
X103500000Y-89530000D02*
X103500000Y-89770000D01*
X103500000Y-90270000D02*
X103780000Y-90270000D01*
X103780000Y-90270000D02*
G75*
G03X103780000Y-90030000I0J120000D01*
G01*
X103780000Y-90030000D02*
X103500000Y-90030000D01*
X103500000Y-90030000D02*
X103500000Y-90270000D01*
X104775000Y-90125000D02*
X107475000Y-90125000D01*
X107475000Y-90125000D02*
G75*
G03X107725000Y-89875000I0J250000D01*
G01*
X107725000Y-89875000D02*
X107725000Y-86925000D01*
X107725000Y-86925000D02*
G75*
G03X107475000Y-86675000I-250000J0D01*
G01*
X107475000Y-86675000D02*
X104525000Y-86675000D01*
X104525000Y-86675000D02*
G75*
G03X104275000Y-86925000I0J-250000D01*
G01*
X104275000Y-86925000D02*
X104275000Y-89625000D01*
X104275000Y-89625000D02*
X104775000Y-90125000D01*
X103500000Y-90900000D02*
X103500000Y-85900000D01*
X103500000Y-85900000D02*
X108500000Y-85900000D01*
X108500000Y-85900000D02*
X108500000Y-90900000D01*
X108500000Y-90900000D02*
X103500000Y-90900000D01*
G04 #@! TD*
M02*
