G04 #@! TF.GenerationSoftware,KiCad,Pcbnew,(5.0.1-3-g963ef8bb5)*
G04 #@! TF.CreationDate,2018-11-23T17:34:31+10:30*
G04 #@! TF.ProjectId,electric-greetings,656C6563747269632D6772656574696E,1.0.0*
G04 #@! TF.SameCoordinates,Original*
G04 #@! TF.FileFunction,Paste,Top*
G04 #@! TF.FilePolarity,Positive*
%FSLAX46Y46*%
G04 Gerber Fmt 4.6, Leading zero omitted, Abs format (unit mm)*
G04 Created by KiCad (PCBNEW (5.0.1-3-g963ef8bb5)) date Friday, 23 November 2018 at 05:34:31 pm*
%MOMM*%
%LPD*%
G01*
G04 APERTURE LIST*
%ADD10R,0.400000X0.640000*%
%ADD11R,0.240000X0.640000*%
%ADD12R,1.000000X0.640000*%
%ADD13C,0.100000*%
%ADD14C,0.928000*%
%ADD15C,0.408000*%
%ADD16C,0.568000*%
%ADD17C,0.336000*%
%ADD18C,0.472000*%
%ADD19C,0.640000*%
%ADD20C,0.208000*%
%ADD21R,0.722400X0.722400*%
%ADD22R,1.220000X1.220000*%
G04 APERTURE END LIST*
D10*
G04 #@! TO.C,U3*
X103836500Y-95850000D03*
D11*
X102936500Y-95850000D03*
D10*
X102036500Y-95850000D03*
X102036500Y-94150000D03*
D11*
X102936500Y-94150000D03*
D10*
X103836500Y-94150000D03*
G04 #@! TD*
D12*
G04 #@! TO.C,Q1*
X108775500Y-94196000D03*
X108775500Y-95796000D03*
G04 #@! TD*
D13*
G04 #@! TO.C,C4*
G36*
X108828740Y-83912117D02*
X108851261Y-83915458D01*
X108873346Y-83920990D01*
X108894783Y-83928660D01*
X108915364Y-83938394D01*
X108934892Y-83950099D01*
X108953179Y-83963662D01*
X108970049Y-83978951D01*
X108985338Y-83995821D01*
X108998901Y-84014108D01*
X109010606Y-84033636D01*
X109020340Y-84054217D01*
X109028010Y-84075654D01*
X109033542Y-84097739D01*
X109036883Y-84120260D01*
X109038000Y-84143000D01*
X109038000Y-84607000D01*
X109036883Y-84629740D01*
X109033542Y-84652261D01*
X109028010Y-84674346D01*
X109020340Y-84695783D01*
X109010606Y-84716364D01*
X108998901Y-84735892D01*
X108985338Y-84754179D01*
X108970049Y-84771049D01*
X108953179Y-84786338D01*
X108934892Y-84799901D01*
X108915364Y-84811606D01*
X108894783Y-84821340D01*
X108873346Y-84829010D01*
X108851261Y-84834542D01*
X108828740Y-84837883D01*
X108806000Y-84839000D01*
X108094000Y-84839000D01*
X108071260Y-84837883D01*
X108048739Y-84834542D01*
X108026654Y-84829010D01*
X108005217Y-84821340D01*
X107984636Y-84811606D01*
X107965108Y-84799901D01*
X107946821Y-84786338D01*
X107929951Y-84771049D01*
X107914662Y-84754179D01*
X107901099Y-84735892D01*
X107889394Y-84716364D01*
X107879660Y-84695783D01*
X107871990Y-84674346D01*
X107866458Y-84652261D01*
X107863117Y-84629740D01*
X107862000Y-84607000D01*
X107862000Y-84143000D01*
X107863117Y-84120260D01*
X107866458Y-84097739D01*
X107871990Y-84075654D01*
X107879660Y-84054217D01*
X107889394Y-84033636D01*
X107901099Y-84014108D01*
X107914662Y-83995821D01*
X107929951Y-83978951D01*
X107946821Y-83963662D01*
X107965108Y-83950099D01*
X107984636Y-83938394D01*
X108005217Y-83928660D01*
X108026654Y-83920990D01*
X108048739Y-83915458D01*
X108071260Y-83912117D01*
X108094000Y-83911000D01*
X108806000Y-83911000D01*
X108828740Y-83912117D01*
X108828740Y-83912117D01*
G37*
D14*
X108450000Y-84375000D03*
D13*
G36*
X108828740Y-82162117D02*
X108851261Y-82165458D01*
X108873346Y-82170990D01*
X108894783Y-82178660D01*
X108915364Y-82188394D01*
X108934892Y-82200099D01*
X108953179Y-82213662D01*
X108970049Y-82228951D01*
X108985338Y-82245821D01*
X108998901Y-82264108D01*
X109010606Y-82283636D01*
X109020340Y-82304217D01*
X109028010Y-82325654D01*
X109033542Y-82347739D01*
X109036883Y-82370260D01*
X109038000Y-82393000D01*
X109038000Y-82857000D01*
X109036883Y-82879740D01*
X109033542Y-82902261D01*
X109028010Y-82924346D01*
X109020340Y-82945783D01*
X109010606Y-82966364D01*
X108998901Y-82985892D01*
X108985338Y-83004179D01*
X108970049Y-83021049D01*
X108953179Y-83036338D01*
X108934892Y-83049901D01*
X108915364Y-83061606D01*
X108894783Y-83071340D01*
X108873346Y-83079010D01*
X108851261Y-83084542D01*
X108828740Y-83087883D01*
X108806000Y-83089000D01*
X108094000Y-83089000D01*
X108071260Y-83087883D01*
X108048739Y-83084542D01*
X108026654Y-83079010D01*
X108005217Y-83071340D01*
X107984636Y-83061606D01*
X107965108Y-83049901D01*
X107946821Y-83036338D01*
X107929951Y-83021049D01*
X107914662Y-83004179D01*
X107901099Y-82985892D01*
X107889394Y-82966364D01*
X107879660Y-82945783D01*
X107871990Y-82924346D01*
X107866458Y-82902261D01*
X107863117Y-82879740D01*
X107862000Y-82857000D01*
X107862000Y-82393000D01*
X107863117Y-82370260D01*
X107866458Y-82347739D01*
X107871990Y-82325654D01*
X107879660Y-82304217D01*
X107889394Y-82283636D01*
X107901099Y-82264108D01*
X107914662Y-82245821D01*
X107929951Y-82228951D01*
X107946821Y-82213662D01*
X107965108Y-82200099D01*
X107984636Y-82188394D01*
X108005217Y-82178660D01*
X108026654Y-82170990D01*
X108048739Y-82165458D01*
X108071260Y-82162117D01*
X108094000Y-82161000D01*
X108806000Y-82161000D01*
X108828740Y-82162117D01*
X108828740Y-82162117D01*
G37*
D14*
X108450000Y-82625000D03*
G04 #@! TD*
D13*
G04 #@! TO.C,C3*
G36*
X102578740Y-83912117D02*
X102601261Y-83915458D01*
X102623346Y-83920990D01*
X102644783Y-83928660D01*
X102665364Y-83938394D01*
X102684892Y-83950099D01*
X102703179Y-83963662D01*
X102720049Y-83978951D01*
X102735338Y-83995821D01*
X102748901Y-84014108D01*
X102760606Y-84033636D01*
X102770340Y-84054217D01*
X102778010Y-84075654D01*
X102783542Y-84097739D01*
X102786883Y-84120260D01*
X102788000Y-84143000D01*
X102788000Y-84607000D01*
X102786883Y-84629740D01*
X102783542Y-84652261D01*
X102778010Y-84674346D01*
X102770340Y-84695783D01*
X102760606Y-84716364D01*
X102748901Y-84735892D01*
X102735338Y-84754179D01*
X102720049Y-84771049D01*
X102703179Y-84786338D01*
X102684892Y-84799901D01*
X102665364Y-84811606D01*
X102644783Y-84821340D01*
X102623346Y-84829010D01*
X102601261Y-84834542D01*
X102578740Y-84837883D01*
X102556000Y-84839000D01*
X101844000Y-84839000D01*
X101821260Y-84837883D01*
X101798739Y-84834542D01*
X101776654Y-84829010D01*
X101755217Y-84821340D01*
X101734636Y-84811606D01*
X101715108Y-84799901D01*
X101696821Y-84786338D01*
X101679951Y-84771049D01*
X101664662Y-84754179D01*
X101651099Y-84735892D01*
X101639394Y-84716364D01*
X101629660Y-84695783D01*
X101621990Y-84674346D01*
X101616458Y-84652261D01*
X101613117Y-84629740D01*
X101612000Y-84607000D01*
X101612000Y-84143000D01*
X101613117Y-84120260D01*
X101616458Y-84097739D01*
X101621990Y-84075654D01*
X101629660Y-84054217D01*
X101639394Y-84033636D01*
X101651099Y-84014108D01*
X101664662Y-83995821D01*
X101679951Y-83978951D01*
X101696821Y-83963662D01*
X101715108Y-83950099D01*
X101734636Y-83938394D01*
X101755217Y-83928660D01*
X101776654Y-83920990D01*
X101798739Y-83915458D01*
X101821260Y-83912117D01*
X101844000Y-83911000D01*
X102556000Y-83911000D01*
X102578740Y-83912117D01*
X102578740Y-83912117D01*
G37*
D14*
X102200000Y-84375000D03*
D13*
G36*
X102578740Y-82162117D02*
X102601261Y-82165458D01*
X102623346Y-82170990D01*
X102644783Y-82178660D01*
X102665364Y-82188394D01*
X102684892Y-82200099D01*
X102703179Y-82213662D01*
X102720049Y-82228951D01*
X102735338Y-82245821D01*
X102748901Y-82264108D01*
X102760606Y-82283636D01*
X102770340Y-82304217D01*
X102778010Y-82325654D01*
X102783542Y-82347739D01*
X102786883Y-82370260D01*
X102788000Y-82393000D01*
X102788000Y-82857000D01*
X102786883Y-82879740D01*
X102783542Y-82902261D01*
X102778010Y-82924346D01*
X102770340Y-82945783D01*
X102760606Y-82966364D01*
X102748901Y-82985892D01*
X102735338Y-83004179D01*
X102720049Y-83021049D01*
X102703179Y-83036338D01*
X102684892Y-83049901D01*
X102665364Y-83061606D01*
X102644783Y-83071340D01*
X102623346Y-83079010D01*
X102601261Y-83084542D01*
X102578740Y-83087883D01*
X102556000Y-83089000D01*
X101844000Y-83089000D01*
X101821260Y-83087883D01*
X101798739Y-83084542D01*
X101776654Y-83079010D01*
X101755217Y-83071340D01*
X101734636Y-83061606D01*
X101715108Y-83049901D01*
X101696821Y-83036338D01*
X101679951Y-83021049D01*
X101664662Y-83004179D01*
X101651099Y-82985892D01*
X101639394Y-82966364D01*
X101629660Y-82945783D01*
X101621990Y-82924346D01*
X101616458Y-82902261D01*
X101613117Y-82879740D01*
X101612000Y-82857000D01*
X101612000Y-82393000D01*
X101613117Y-82370260D01*
X101616458Y-82347739D01*
X101621990Y-82325654D01*
X101629660Y-82304217D01*
X101639394Y-82283636D01*
X101651099Y-82264108D01*
X101664662Y-82245821D01*
X101679951Y-82228951D01*
X101696821Y-82213662D01*
X101715108Y-82200099D01*
X101734636Y-82188394D01*
X101755217Y-82178660D01*
X101776654Y-82170990D01*
X101798739Y-82165458D01*
X101821260Y-82162117D01*
X101844000Y-82161000D01*
X102556000Y-82161000D01*
X102578740Y-82162117D01*
X102578740Y-82162117D01*
G37*
D14*
X102200000Y-82625000D03*
G04 #@! TD*
D13*
G04 #@! TO.C,R2*
G36*
X110729498Y-89295491D02*
X110739399Y-89296960D01*
X110749109Y-89299392D01*
X110758534Y-89302764D01*
X110767582Y-89307044D01*
X110776168Y-89312190D01*
X110784208Y-89318153D01*
X110791625Y-89324875D01*
X110798347Y-89332292D01*
X110804310Y-89340332D01*
X110809456Y-89348918D01*
X110813736Y-89357966D01*
X110817108Y-89367391D01*
X110819540Y-89377101D01*
X110821009Y-89387002D01*
X110821500Y-89397000D01*
X110821500Y-89673000D01*
X110821009Y-89682998D01*
X110819540Y-89692899D01*
X110817108Y-89702609D01*
X110813736Y-89712034D01*
X110809456Y-89721082D01*
X110804310Y-89729668D01*
X110798347Y-89737708D01*
X110791625Y-89745125D01*
X110784208Y-89751847D01*
X110776168Y-89757810D01*
X110767582Y-89762956D01*
X110758534Y-89767236D01*
X110749109Y-89770608D01*
X110739399Y-89773040D01*
X110729498Y-89774509D01*
X110719500Y-89775000D01*
X110515500Y-89775000D01*
X110505502Y-89774509D01*
X110495601Y-89773040D01*
X110485891Y-89770608D01*
X110476466Y-89767236D01*
X110467418Y-89762956D01*
X110458832Y-89757810D01*
X110450792Y-89751847D01*
X110443375Y-89745125D01*
X110436653Y-89737708D01*
X110430690Y-89729668D01*
X110425544Y-89721082D01*
X110421264Y-89712034D01*
X110417892Y-89702609D01*
X110415460Y-89692899D01*
X110413991Y-89682998D01*
X110413500Y-89673000D01*
X110413500Y-89397000D01*
X110413991Y-89387002D01*
X110415460Y-89377101D01*
X110417892Y-89367391D01*
X110421264Y-89357966D01*
X110425544Y-89348918D01*
X110430690Y-89340332D01*
X110436653Y-89332292D01*
X110443375Y-89324875D01*
X110450792Y-89318153D01*
X110458832Y-89312190D01*
X110467418Y-89307044D01*
X110476466Y-89302764D01*
X110485891Y-89299392D01*
X110495601Y-89296960D01*
X110505502Y-89295491D01*
X110515500Y-89295000D01*
X110719500Y-89295000D01*
X110729498Y-89295491D01*
X110729498Y-89295491D01*
G37*
D15*
X110617500Y-89535000D03*
D13*
G36*
X109839498Y-89295491D02*
X109849399Y-89296960D01*
X109859109Y-89299392D01*
X109868534Y-89302764D01*
X109877582Y-89307044D01*
X109886168Y-89312190D01*
X109894208Y-89318153D01*
X109901625Y-89324875D01*
X109908347Y-89332292D01*
X109914310Y-89340332D01*
X109919456Y-89348918D01*
X109923736Y-89357966D01*
X109927108Y-89367391D01*
X109929540Y-89377101D01*
X109931009Y-89387002D01*
X109931500Y-89397000D01*
X109931500Y-89673000D01*
X109931009Y-89682998D01*
X109929540Y-89692899D01*
X109927108Y-89702609D01*
X109923736Y-89712034D01*
X109919456Y-89721082D01*
X109914310Y-89729668D01*
X109908347Y-89737708D01*
X109901625Y-89745125D01*
X109894208Y-89751847D01*
X109886168Y-89757810D01*
X109877582Y-89762956D01*
X109868534Y-89767236D01*
X109859109Y-89770608D01*
X109849399Y-89773040D01*
X109839498Y-89774509D01*
X109829500Y-89775000D01*
X109625500Y-89775000D01*
X109615502Y-89774509D01*
X109605601Y-89773040D01*
X109595891Y-89770608D01*
X109586466Y-89767236D01*
X109577418Y-89762956D01*
X109568832Y-89757810D01*
X109560792Y-89751847D01*
X109553375Y-89745125D01*
X109546653Y-89737708D01*
X109540690Y-89729668D01*
X109535544Y-89721082D01*
X109531264Y-89712034D01*
X109527892Y-89702609D01*
X109525460Y-89692899D01*
X109523991Y-89682998D01*
X109523500Y-89673000D01*
X109523500Y-89397000D01*
X109523991Y-89387002D01*
X109525460Y-89377101D01*
X109527892Y-89367391D01*
X109531264Y-89357966D01*
X109535544Y-89348918D01*
X109540690Y-89340332D01*
X109546653Y-89332292D01*
X109553375Y-89324875D01*
X109560792Y-89318153D01*
X109568832Y-89312190D01*
X109577418Y-89307044D01*
X109586466Y-89302764D01*
X109595891Y-89299392D01*
X109605601Y-89296960D01*
X109615502Y-89295491D01*
X109625500Y-89295000D01*
X109829500Y-89295000D01*
X109839498Y-89295491D01*
X109839498Y-89295491D01*
G37*
D15*
X109727500Y-89535000D03*
G04 #@! TD*
D13*
G04 #@! TO.C,D1*
G36*
X110553918Y-82556684D02*
X110567703Y-82558728D01*
X110581220Y-82562114D01*
X110594341Y-82566809D01*
X110606938Y-82572767D01*
X110618891Y-82579931D01*
X110630084Y-82588233D01*
X110640409Y-82597591D01*
X110649767Y-82607916D01*
X110658069Y-82619109D01*
X110665233Y-82631062D01*
X110671191Y-82643659D01*
X110675886Y-82656780D01*
X110679272Y-82670297D01*
X110681316Y-82684082D01*
X110682000Y-82698000D01*
X110682000Y-82982000D01*
X110681316Y-82995918D01*
X110679272Y-83009703D01*
X110675886Y-83023220D01*
X110671191Y-83036341D01*
X110665233Y-83048938D01*
X110658069Y-83060891D01*
X110649767Y-83072084D01*
X110640409Y-83082409D01*
X110630084Y-83091767D01*
X110618891Y-83100069D01*
X110606938Y-83107233D01*
X110594341Y-83113191D01*
X110581220Y-83117886D01*
X110567703Y-83121272D01*
X110553918Y-83123316D01*
X110540000Y-83124000D01*
X110160000Y-83124000D01*
X110146082Y-83123316D01*
X110132297Y-83121272D01*
X110118780Y-83117886D01*
X110105659Y-83113191D01*
X110093062Y-83107233D01*
X110081109Y-83100069D01*
X110069916Y-83091767D01*
X110059591Y-83082409D01*
X110050233Y-83072084D01*
X110041931Y-83060891D01*
X110034767Y-83048938D01*
X110028809Y-83036341D01*
X110024114Y-83023220D01*
X110020728Y-83009703D01*
X110018684Y-82995918D01*
X110018000Y-82982000D01*
X110018000Y-82698000D01*
X110018684Y-82684082D01*
X110020728Y-82670297D01*
X110024114Y-82656780D01*
X110028809Y-82643659D01*
X110034767Y-82631062D01*
X110041931Y-82619109D01*
X110050233Y-82607916D01*
X110059591Y-82597591D01*
X110069916Y-82588233D01*
X110081109Y-82579931D01*
X110093062Y-82572767D01*
X110105659Y-82566809D01*
X110118780Y-82562114D01*
X110132297Y-82558728D01*
X110146082Y-82556684D01*
X110160000Y-82556000D01*
X110540000Y-82556000D01*
X110553918Y-82556684D01*
X110553918Y-82556684D01*
G37*
D16*
X110350000Y-82840000D03*
D13*
G36*
X110553918Y-83876684D02*
X110567703Y-83878728D01*
X110581220Y-83882114D01*
X110594341Y-83886809D01*
X110606938Y-83892767D01*
X110618891Y-83899931D01*
X110630084Y-83908233D01*
X110640409Y-83917591D01*
X110649767Y-83927916D01*
X110658069Y-83939109D01*
X110665233Y-83951062D01*
X110671191Y-83963659D01*
X110675886Y-83976780D01*
X110679272Y-83990297D01*
X110681316Y-84004082D01*
X110682000Y-84018000D01*
X110682000Y-84302000D01*
X110681316Y-84315918D01*
X110679272Y-84329703D01*
X110675886Y-84343220D01*
X110671191Y-84356341D01*
X110665233Y-84368938D01*
X110658069Y-84380891D01*
X110649767Y-84392084D01*
X110640409Y-84402409D01*
X110630084Y-84411767D01*
X110618891Y-84420069D01*
X110606938Y-84427233D01*
X110594341Y-84433191D01*
X110581220Y-84437886D01*
X110567703Y-84441272D01*
X110553918Y-84443316D01*
X110540000Y-84444000D01*
X110160000Y-84444000D01*
X110146082Y-84443316D01*
X110132297Y-84441272D01*
X110118780Y-84437886D01*
X110105659Y-84433191D01*
X110093062Y-84427233D01*
X110081109Y-84420069D01*
X110069916Y-84411767D01*
X110059591Y-84402409D01*
X110050233Y-84392084D01*
X110041931Y-84380891D01*
X110034767Y-84368938D01*
X110028809Y-84356341D01*
X110024114Y-84343220D01*
X110020728Y-84329703D01*
X110018684Y-84315918D01*
X110018000Y-84302000D01*
X110018000Y-84018000D01*
X110018684Y-84004082D01*
X110020728Y-83990297D01*
X110024114Y-83976780D01*
X110028809Y-83963659D01*
X110034767Y-83951062D01*
X110041931Y-83939109D01*
X110050233Y-83927916D01*
X110059591Y-83917591D01*
X110069916Y-83908233D01*
X110081109Y-83899931D01*
X110093062Y-83892767D01*
X110105659Y-83886809D01*
X110118780Y-83882114D01*
X110132297Y-83878728D01*
X110146082Y-83876684D01*
X110160000Y-83876000D01*
X110540000Y-83876000D01*
X110553918Y-83876684D01*
X110553918Y-83876684D01*
G37*
D16*
X110350000Y-84160000D03*
G04 #@! TD*
D13*
G04 #@! TO.C,U2*
G36*
X104400733Y-82318904D02*
X104408888Y-82320114D01*
X104416884Y-82322117D01*
X104424645Y-82324894D01*
X104432097Y-82328419D01*
X104439168Y-82332657D01*
X104445789Y-82337567D01*
X104451897Y-82343103D01*
X104457433Y-82349211D01*
X104462343Y-82355832D01*
X104466581Y-82362903D01*
X104470106Y-82370355D01*
X104472883Y-82378116D01*
X104474886Y-82386112D01*
X104476096Y-82394267D01*
X104476500Y-82402500D01*
X104476500Y-82570500D01*
X104476096Y-82578733D01*
X104474886Y-82586888D01*
X104472883Y-82594884D01*
X104470106Y-82602645D01*
X104466581Y-82610097D01*
X104462343Y-82617168D01*
X104457433Y-82623789D01*
X104451897Y-82629897D01*
X104445789Y-82635433D01*
X104439168Y-82640343D01*
X104432097Y-82644581D01*
X104424645Y-82648106D01*
X104416884Y-82650883D01*
X104408888Y-82652886D01*
X104400733Y-82654096D01*
X104392500Y-82654500D01*
X103880500Y-82654500D01*
X103872267Y-82654096D01*
X103864112Y-82652886D01*
X103856116Y-82650883D01*
X103848355Y-82648106D01*
X103840903Y-82644581D01*
X103833832Y-82640343D01*
X103827211Y-82635433D01*
X103821103Y-82629897D01*
X103815567Y-82623789D01*
X103810657Y-82617168D01*
X103806419Y-82610097D01*
X103802894Y-82602645D01*
X103800117Y-82594884D01*
X103798114Y-82586888D01*
X103796904Y-82578733D01*
X103796500Y-82570500D01*
X103796500Y-82402500D01*
X103796904Y-82394267D01*
X103798114Y-82386112D01*
X103800117Y-82378116D01*
X103802894Y-82370355D01*
X103806419Y-82362903D01*
X103810657Y-82355832D01*
X103815567Y-82349211D01*
X103821103Y-82343103D01*
X103827211Y-82337567D01*
X103833832Y-82332657D01*
X103840903Y-82328419D01*
X103848355Y-82324894D01*
X103856116Y-82322117D01*
X103864112Y-82320114D01*
X103872267Y-82318904D01*
X103880500Y-82318500D01*
X104392500Y-82318500D01*
X104400733Y-82318904D01*
X104400733Y-82318904D01*
G37*
D17*
X104136500Y-82486500D03*
D13*
G36*
X104400733Y-83268904D02*
X104408888Y-83270114D01*
X104416884Y-83272117D01*
X104424645Y-83274894D01*
X104432097Y-83278419D01*
X104439168Y-83282657D01*
X104445789Y-83287567D01*
X104451897Y-83293103D01*
X104457433Y-83299211D01*
X104462343Y-83305832D01*
X104466581Y-83312903D01*
X104470106Y-83320355D01*
X104472883Y-83328116D01*
X104474886Y-83336112D01*
X104476096Y-83344267D01*
X104476500Y-83352500D01*
X104476500Y-83520500D01*
X104476096Y-83528733D01*
X104474886Y-83536888D01*
X104472883Y-83544884D01*
X104470106Y-83552645D01*
X104466581Y-83560097D01*
X104462343Y-83567168D01*
X104457433Y-83573789D01*
X104451897Y-83579897D01*
X104445789Y-83585433D01*
X104439168Y-83590343D01*
X104432097Y-83594581D01*
X104424645Y-83598106D01*
X104416884Y-83600883D01*
X104408888Y-83602886D01*
X104400733Y-83604096D01*
X104392500Y-83604500D01*
X103880500Y-83604500D01*
X103872267Y-83604096D01*
X103864112Y-83602886D01*
X103856116Y-83600883D01*
X103848355Y-83598106D01*
X103840903Y-83594581D01*
X103833832Y-83590343D01*
X103827211Y-83585433D01*
X103821103Y-83579897D01*
X103815567Y-83573789D01*
X103810657Y-83567168D01*
X103806419Y-83560097D01*
X103802894Y-83552645D01*
X103800117Y-83544884D01*
X103798114Y-83536888D01*
X103796904Y-83528733D01*
X103796500Y-83520500D01*
X103796500Y-83352500D01*
X103796904Y-83344267D01*
X103798114Y-83336112D01*
X103800117Y-83328116D01*
X103802894Y-83320355D01*
X103806419Y-83312903D01*
X103810657Y-83305832D01*
X103815567Y-83299211D01*
X103821103Y-83293103D01*
X103827211Y-83287567D01*
X103833832Y-83282657D01*
X103840903Y-83278419D01*
X103848355Y-83274894D01*
X103856116Y-83272117D01*
X103864112Y-83270114D01*
X103872267Y-83268904D01*
X103880500Y-83268500D01*
X104392500Y-83268500D01*
X104400733Y-83268904D01*
X104400733Y-83268904D01*
G37*
D17*
X104136500Y-83436500D03*
D13*
G36*
X104400733Y-84218904D02*
X104408888Y-84220114D01*
X104416884Y-84222117D01*
X104424645Y-84224894D01*
X104432097Y-84228419D01*
X104439168Y-84232657D01*
X104445789Y-84237567D01*
X104451897Y-84243103D01*
X104457433Y-84249211D01*
X104462343Y-84255832D01*
X104466581Y-84262903D01*
X104470106Y-84270355D01*
X104472883Y-84278116D01*
X104474886Y-84286112D01*
X104476096Y-84294267D01*
X104476500Y-84302500D01*
X104476500Y-84470500D01*
X104476096Y-84478733D01*
X104474886Y-84486888D01*
X104472883Y-84494884D01*
X104470106Y-84502645D01*
X104466581Y-84510097D01*
X104462343Y-84517168D01*
X104457433Y-84523789D01*
X104451897Y-84529897D01*
X104445789Y-84535433D01*
X104439168Y-84540343D01*
X104432097Y-84544581D01*
X104424645Y-84548106D01*
X104416884Y-84550883D01*
X104408888Y-84552886D01*
X104400733Y-84554096D01*
X104392500Y-84554500D01*
X103880500Y-84554500D01*
X103872267Y-84554096D01*
X103864112Y-84552886D01*
X103856116Y-84550883D01*
X103848355Y-84548106D01*
X103840903Y-84544581D01*
X103833832Y-84540343D01*
X103827211Y-84535433D01*
X103821103Y-84529897D01*
X103815567Y-84523789D01*
X103810657Y-84517168D01*
X103806419Y-84510097D01*
X103802894Y-84502645D01*
X103800117Y-84494884D01*
X103798114Y-84486888D01*
X103796904Y-84478733D01*
X103796500Y-84470500D01*
X103796500Y-84302500D01*
X103796904Y-84294267D01*
X103798114Y-84286112D01*
X103800117Y-84278116D01*
X103802894Y-84270355D01*
X103806419Y-84262903D01*
X103810657Y-84255832D01*
X103815567Y-84249211D01*
X103821103Y-84243103D01*
X103827211Y-84237567D01*
X103833832Y-84232657D01*
X103840903Y-84228419D01*
X103848355Y-84224894D01*
X103856116Y-84222117D01*
X103864112Y-84220114D01*
X103872267Y-84218904D01*
X103880500Y-84218500D01*
X104392500Y-84218500D01*
X104400733Y-84218904D01*
X104400733Y-84218904D01*
G37*
D17*
X104136500Y-84386500D03*
D13*
G36*
X106800733Y-84218904D02*
X106808888Y-84220114D01*
X106816884Y-84222117D01*
X106824645Y-84224894D01*
X106832097Y-84228419D01*
X106839168Y-84232657D01*
X106845789Y-84237567D01*
X106851897Y-84243103D01*
X106857433Y-84249211D01*
X106862343Y-84255832D01*
X106866581Y-84262903D01*
X106870106Y-84270355D01*
X106872883Y-84278116D01*
X106874886Y-84286112D01*
X106876096Y-84294267D01*
X106876500Y-84302500D01*
X106876500Y-84470500D01*
X106876096Y-84478733D01*
X106874886Y-84486888D01*
X106872883Y-84494884D01*
X106870106Y-84502645D01*
X106866581Y-84510097D01*
X106862343Y-84517168D01*
X106857433Y-84523789D01*
X106851897Y-84529897D01*
X106845789Y-84535433D01*
X106839168Y-84540343D01*
X106832097Y-84544581D01*
X106824645Y-84548106D01*
X106816884Y-84550883D01*
X106808888Y-84552886D01*
X106800733Y-84554096D01*
X106792500Y-84554500D01*
X106280500Y-84554500D01*
X106272267Y-84554096D01*
X106264112Y-84552886D01*
X106256116Y-84550883D01*
X106248355Y-84548106D01*
X106240903Y-84544581D01*
X106233832Y-84540343D01*
X106227211Y-84535433D01*
X106221103Y-84529897D01*
X106215567Y-84523789D01*
X106210657Y-84517168D01*
X106206419Y-84510097D01*
X106202894Y-84502645D01*
X106200117Y-84494884D01*
X106198114Y-84486888D01*
X106196904Y-84478733D01*
X106196500Y-84470500D01*
X106196500Y-84302500D01*
X106196904Y-84294267D01*
X106198114Y-84286112D01*
X106200117Y-84278116D01*
X106202894Y-84270355D01*
X106206419Y-84262903D01*
X106210657Y-84255832D01*
X106215567Y-84249211D01*
X106221103Y-84243103D01*
X106227211Y-84237567D01*
X106233832Y-84232657D01*
X106240903Y-84228419D01*
X106248355Y-84224894D01*
X106256116Y-84222117D01*
X106264112Y-84220114D01*
X106272267Y-84218904D01*
X106280500Y-84218500D01*
X106792500Y-84218500D01*
X106800733Y-84218904D01*
X106800733Y-84218904D01*
G37*
D17*
X106536500Y-84386500D03*
D13*
G36*
X106800733Y-82318904D02*
X106808888Y-82320114D01*
X106816884Y-82322117D01*
X106824645Y-82324894D01*
X106832097Y-82328419D01*
X106839168Y-82332657D01*
X106845789Y-82337567D01*
X106851897Y-82343103D01*
X106857433Y-82349211D01*
X106862343Y-82355832D01*
X106866581Y-82362903D01*
X106870106Y-82370355D01*
X106872883Y-82378116D01*
X106874886Y-82386112D01*
X106876096Y-82394267D01*
X106876500Y-82402500D01*
X106876500Y-82570500D01*
X106876096Y-82578733D01*
X106874886Y-82586888D01*
X106872883Y-82594884D01*
X106870106Y-82602645D01*
X106866581Y-82610097D01*
X106862343Y-82617168D01*
X106857433Y-82623789D01*
X106851897Y-82629897D01*
X106845789Y-82635433D01*
X106839168Y-82640343D01*
X106832097Y-82644581D01*
X106824645Y-82648106D01*
X106816884Y-82650883D01*
X106808888Y-82652886D01*
X106800733Y-82654096D01*
X106792500Y-82654500D01*
X106280500Y-82654500D01*
X106272267Y-82654096D01*
X106264112Y-82652886D01*
X106256116Y-82650883D01*
X106248355Y-82648106D01*
X106240903Y-82644581D01*
X106233832Y-82640343D01*
X106227211Y-82635433D01*
X106221103Y-82629897D01*
X106215567Y-82623789D01*
X106210657Y-82617168D01*
X106206419Y-82610097D01*
X106202894Y-82602645D01*
X106200117Y-82594884D01*
X106198114Y-82586888D01*
X106196904Y-82578733D01*
X106196500Y-82570500D01*
X106196500Y-82402500D01*
X106196904Y-82394267D01*
X106198114Y-82386112D01*
X106200117Y-82378116D01*
X106202894Y-82370355D01*
X106206419Y-82362903D01*
X106210657Y-82355832D01*
X106215567Y-82349211D01*
X106221103Y-82343103D01*
X106227211Y-82337567D01*
X106233832Y-82332657D01*
X106240903Y-82328419D01*
X106248355Y-82324894D01*
X106256116Y-82322117D01*
X106264112Y-82320114D01*
X106272267Y-82318904D01*
X106280500Y-82318500D01*
X106792500Y-82318500D01*
X106800733Y-82318904D01*
X106800733Y-82318904D01*
G37*
D17*
X106536500Y-82486500D03*
G04 #@! TD*
D13*
G04 #@! TO.C,C1*
G36*
X102384566Y-89260568D02*
X102396021Y-89262267D01*
X102407254Y-89265081D01*
X102418157Y-89268982D01*
X102428625Y-89273933D01*
X102438557Y-89279887D01*
X102447858Y-89286785D01*
X102456439Y-89294561D01*
X102464215Y-89303142D01*
X102471113Y-89312443D01*
X102477067Y-89322375D01*
X102482018Y-89332843D01*
X102485919Y-89343746D01*
X102488733Y-89354979D01*
X102490432Y-89366434D01*
X102491000Y-89378000D01*
X102491000Y-89622000D01*
X102490432Y-89633566D01*
X102488733Y-89645021D01*
X102485919Y-89656254D01*
X102482018Y-89667157D01*
X102477067Y-89677625D01*
X102471113Y-89687557D01*
X102464215Y-89696858D01*
X102456439Y-89705439D01*
X102447858Y-89713215D01*
X102438557Y-89720113D01*
X102428625Y-89726067D01*
X102418157Y-89731018D01*
X102407254Y-89734919D01*
X102396021Y-89737733D01*
X102384566Y-89739432D01*
X102373000Y-89740000D01*
X102137000Y-89740000D01*
X102125434Y-89739432D01*
X102113979Y-89737733D01*
X102102746Y-89734919D01*
X102091843Y-89731018D01*
X102081375Y-89726067D01*
X102071443Y-89720113D01*
X102062142Y-89713215D01*
X102053561Y-89705439D01*
X102045785Y-89696858D01*
X102038887Y-89687557D01*
X102032933Y-89677625D01*
X102027982Y-89667157D01*
X102024081Y-89656254D01*
X102021267Y-89645021D01*
X102019568Y-89633566D01*
X102019000Y-89622000D01*
X102019000Y-89378000D01*
X102019568Y-89366434D01*
X102021267Y-89354979D01*
X102024081Y-89343746D01*
X102027982Y-89332843D01*
X102032933Y-89322375D01*
X102038887Y-89312443D01*
X102045785Y-89303142D01*
X102053561Y-89294561D01*
X102062142Y-89286785D01*
X102071443Y-89279887D01*
X102081375Y-89273933D01*
X102091843Y-89268982D01*
X102102746Y-89265081D01*
X102113979Y-89262267D01*
X102125434Y-89260568D01*
X102137000Y-89260000D01*
X102373000Y-89260000D01*
X102384566Y-89260568D01*
X102384566Y-89260568D01*
G37*
D18*
X102255000Y-89500000D03*
D13*
G36*
X101574566Y-89260568D02*
X101586021Y-89262267D01*
X101597254Y-89265081D01*
X101608157Y-89268982D01*
X101618625Y-89273933D01*
X101628557Y-89279887D01*
X101637858Y-89286785D01*
X101646439Y-89294561D01*
X101654215Y-89303142D01*
X101661113Y-89312443D01*
X101667067Y-89322375D01*
X101672018Y-89332843D01*
X101675919Y-89343746D01*
X101678733Y-89354979D01*
X101680432Y-89366434D01*
X101681000Y-89378000D01*
X101681000Y-89622000D01*
X101680432Y-89633566D01*
X101678733Y-89645021D01*
X101675919Y-89656254D01*
X101672018Y-89667157D01*
X101667067Y-89677625D01*
X101661113Y-89687557D01*
X101654215Y-89696858D01*
X101646439Y-89705439D01*
X101637858Y-89713215D01*
X101628557Y-89720113D01*
X101618625Y-89726067D01*
X101608157Y-89731018D01*
X101597254Y-89734919D01*
X101586021Y-89737733D01*
X101574566Y-89739432D01*
X101563000Y-89740000D01*
X101327000Y-89740000D01*
X101315434Y-89739432D01*
X101303979Y-89737733D01*
X101292746Y-89734919D01*
X101281843Y-89731018D01*
X101271375Y-89726067D01*
X101261443Y-89720113D01*
X101252142Y-89713215D01*
X101243561Y-89705439D01*
X101235785Y-89696858D01*
X101228887Y-89687557D01*
X101222933Y-89677625D01*
X101217982Y-89667157D01*
X101214081Y-89656254D01*
X101211267Y-89645021D01*
X101209568Y-89633566D01*
X101209000Y-89622000D01*
X101209000Y-89378000D01*
X101209568Y-89366434D01*
X101211267Y-89354979D01*
X101214081Y-89343746D01*
X101217982Y-89332843D01*
X101222933Y-89322375D01*
X101228887Y-89312443D01*
X101235785Y-89303142D01*
X101243561Y-89294561D01*
X101252142Y-89286785D01*
X101261443Y-89279887D01*
X101271375Y-89273933D01*
X101281843Y-89268982D01*
X101292746Y-89265081D01*
X101303979Y-89262267D01*
X101315434Y-89260568D01*
X101327000Y-89260000D01*
X101563000Y-89260000D01*
X101574566Y-89260568D01*
X101574566Y-89260568D01*
G37*
D18*
X101445000Y-89500000D03*
G04 #@! TD*
D13*
G04 #@! TO.C,C2*
G36*
X101574566Y-87962068D02*
X101586021Y-87963767D01*
X101597254Y-87966581D01*
X101608157Y-87970482D01*
X101618625Y-87975433D01*
X101628557Y-87981387D01*
X101637858Y-87988285D01*
X101646439Y-87996061D01*
X101654215Y-88004642D01*
X101661113Y-88013943D01*
X101667067Y-88023875D01*
X101672018Y-88034343D01*
X101675919Y-88045246D01*
X101678733Y-88056479D01*
X101680432Y-88067934D01*
X101681000Y-88079500D01*
X101681000Y-88323500D01*
X101680432Y-88335066D01*
X101678733Y-88346521D01*
X101675919Y-88357754D01*
X101672018Y-88368657D01*
X101667067Y-88379125D01*
X101661113Y-88389057D01*
X101654215Y-88398358D01*
X101646439Y-88406939D01*
X101637858Y-88414715D01*
X101628557Y-88421613D01*
X101618625Y-88427567D01*
X101608157Y-88432518D01*
X101597254Y-88436419D01*
X101586021Y-88439233D01*
X101574566Y-88440932D01*
X101563000Y-88441500D01*
X101327000Y-88441500D01*
X101315434Y-88440932D01*
X101303979Y-88439233D01*
X101292746Y-88436419D01*
X101281843Y-88432518D01*
X101271375Y-88427567D01*
X101261443Y-88421613D01*
X101252142Y-88414715D01*
X101243561Y-88406939D01*
X101235785Y-88398358D01*
X101228887Y-88389057D01*
X101222933Y-88379125D01*
X101217982Y-88368657D01*
X101214081Y-88357754D01*
X101211267Y-88346521D01*
X101209568Y-88335066D01*
X101209000Y-88323500D01*
X101209000Y-88079500D01*
X101209568Y-88067934D01*
X101211267Y-88056479D01*
X101214081Y-88045246D01*
X101217982Y-88034343D01*
X101222933Y-88023875D01*
X101228887Y-88013943D01*
X101235785Y-88004642D01*
X101243561Y-87996061D01*
X101252142Y-87988285D01*
X101261443Y-87981387D01*
X101271375Y-87975433D01*
X101281843Y-87970482D01*
X101292746Y-87966581D01*
X101303979Y-87963767D01*
X101315434Y-87962068D01*
X101327000Y-87961500D01*
X101563000Y-87961500D01*
X101574566Y-87962068D01*
X101574566Y-87962068D01*
G37*
D18*
X101445000Y-88201500D03*
D13*
G36*
X102384566Y-87962068D02*
X102396021Y-87963767D01*
X102407254Y-87966581D01*
X102418157Y-87970482D01*
X102428625Y-87975433D01*
X102438557Y-87981387D01*
X102447858Y-87988285D01*
X102456439Y-87996061D01*
X102464215Y-88004642D01*
X102471113Y-88013943D01*
X102477067Y-88023875D01*
X102482018Y-88034343D01*
X102485919Y-88045246D01*
X102488733Y-88056479D01*
X102490432Y-88067934D01*
X102491000Y-88079500D01*
X102491000Y-88323500D01*
X102490432Y-88335066D01*
X102488733Y-88346521D01*
X102485919Y-88357754D01*
X102482018Y-88368657D01*
X102477067Y-88379125D01*
X102471113Y-88389057D01*
X102464215Y-88398358D01*
X102456439Y-88406939D01*
X102447858Y-88414715D01*
X102438557Y-88421613D01*
X102428625Y-88427567D01*
X102418157Y-88432518D01*
X102407254Y-88436419D01*
X102396021Y-88439233D01*
X102384566Y-88440932D01*
X102373000Y-88441500D01*
X102137000Y-88441500D01*
X102125434Y-88440932D01*
X102113979Y-88439233D01*
X102102746Y-88436419D01*
X102091843Y-88432518D01*
X102081375Y-88427567D01*
X102071443Y-88421613D01*
X102062142Y-88414715D01*
X102053561Y-88406939D01*
X102045785Y-88398358D01*
X102038887Y-88389057D01*
X102032933Y-88379125D01*
X102027982Y-88368657D01*
X102024081Y-88357754D01*
X102021267Y-88346521D01*
X102019568Y-88335066D01*
X102019000Y-88323500D01*
X102019000Y-88079500D01*
X102019568Y-88067934D01*
X102021267Y-88056479D01*
X102024081Y-88045246D01*
X102027982Y-88034343D01*
X102032933Y-88023875D01*
X102038887Y-88013943D01*
X102045785Y-88004642D01*
X102053561Y-87996061D01*
X102062142Y-87988285D01*
X102071443Y-87981387D01*
X102081375Y-87975433D01*
X102091843Y-87970482D01*
X102102746Y-87966581D01*
X102113979Y-87963767D01*
X102125434Y-87962068D01*
X102137000Y-87961500D01*
X102373000Y-87961500D01*
X102384566Y-87962068D01*
X102384566Y-87962068D01*
G37*
D18*
X102255000Y-88201500D03*
G04 #@! TD*
D13*
G04 #@! TO.C,R1*
G36*
X110706998Y-87961991D02*
X110716899Y-87963460D01*
X110726609Y-87965892D01*
X110736034Y-87969264D01*
X110745082Y-87973544D01*
X110753668Y-87978690D01*
X110761708Y-87984653D01*
X110769125Y-87991375D01*
X110775847Y-87998792D01*
X110781810Y-88006832D01*
X110786956Y-88015418D01*
X110791236Y-88024466D01*
X110794608Y-88033891D01*
X110797040Y-88043601D01*
X110798509Y-88053502D01*
X110799000Y-88063500D01*
X110799000Y-88339500D01*
X110798509Y-88349498D01*
X110797040Y-88359399D01*
X110794608Y-88369109D01*
X110791236Y-88378534D01*
X110786956Y-88387582D01*
X110781810Y-88396168D01*
X110775847Y-88404208D01*
X110769125Y-88411625D01*
X110761708Y-88418347D01*
X110753668Y-88424310D01*
X110745082Y-88429456D01*
X110736034Y-88433736D01*
X110726609Y-88437108D01*
X110716899Y-88439540D01*
X110706998Y-88441009D01*
X110697000Y-88441500D01*
X110493000Y-88441500D01*
X110483002Y-88441009D01*
X110473101Y-88439540D01*
X110463391Y-88437108D01*
X110453966Y-88433736D01*
X110444918Y-88429456D01*
X110436332Y-88424310D01*
X110428292Y-88418347D01*
X110420875Y-88411625D01*
X110414153Y-88404208D01*
X110408190Y-88396168D01*
X110403044Y-88387582D01*
X110398764Y-88378534D01*
X110395392Y-88369109D01*
X110392960Y-88359399D01*
X110391491Y-88349498D01*
X110391000Y-88339500D01*
X110391000Y-88063500D01*
X110391491Y-88053502D01*
X110392960Y-88043601D01*
X110395392Y-88033891D01*
X110398764Y-88024466D01*
X110403044Y-88015418D01*
X110408190Y-88006832D01*
X110414153Y-87998792D01*
X110420875Y-87991375D01*
X110428292Y-87984653D01*
X110436332Y-87978690D01*
X110444918Y-87973544D01*
X110453966Y-87969264D01*
X110463391Y-87965892D01*
X110473101Y-87963460D01*
X110483002Y-87961991D01*
X110493000Y-87961500D01*
X110697000Y-87961500D01*
X110706998Y-87961991D01*
X110706998Y-87961991D01*
G37*
D15*
X110595000Y-88201500D03*
D13*
G36*
X109816998Y-87961991D02*
X109826899Y-87963460D01*
X109836609Y-87965892D01*
X109846034Y-87969264D01*
X109855082Y-87973544D01*
X109863668Y-87978690D01*
X109871708Y-87984653D01*
X109879125Y-87991375D01*
X109885847Y-87998792D01*
X109891810Y-88006832D01*
X109896956Y-88015418D01*
X109901236Y-88024466D01*
X109904608Y-88033891D01*
X109907040Y-88043601D01*
X109908509Y-88053502D01*
X109909000Y-88063500D01*
X109909000Y-88339500D01*
X109908509Y-88349498D01*
X109907040Y-88359399D01*
X109904608Y-88369109D01*
X109901236Y-88378534D01*
X109896956Y-88387582D01*
X109891810Y-88396168D01*
X109885847Y-88404208D01*
X109879125Y-88411625D01*
X109871708Y-88418347D01*
X109863668Y-88424310D01*
X109855082Y-88429456D01*
X109846034Y-88433736D01*
X109836609Y-88437108D01*
X109826899Y-88439540D01*
X109816998Y-88441009D01*
X109807000Y-88441500D01*
X109603000Y-88441500D01*
X109593002Y-88441009D01*
X109583101Y-88439540D01*
X109573391Y-88437108D01*
X109563966Y-88433736D01*
X109554918Y-88429456D01*
X109546332Y-88424310D01*
X109538292Y-88418347D01*
X109530875Y-88411625D01*
X109524153Y-88404208D01*
X109518190Y-88396168D01*
X109513044Y-88387582D01*
X109508764Y-88378534D01*
X109505392Y-88369109D01*
X109502960Y-88359399D01*
X109501491Y-88349498D01*
X109501000Y-88339500D01*
X109501000Y-88063500D01*
X109501491Y-88053502D01*
X109502960Y-88043601D01*
X109505392Y-88033891D01*
X109508764Y-88024466D01*
X109513044Y-88015418D01*
X109518190Y-88006832D01*
X109524153Y-87998792D01*
X109530875Y-87991375D01*
X109538292Y-87984653D01*
X109546332Y-87978690D01*
X109554918Y-87973544D01*
X109563966Y-87969264D01*
X109573391Y-87965892D01*
X109583101Y-87963460D01*
X109593002Y-87961991D01*
X109603000Y-87961500D01*
X109807000Y-87961500D01*
X109816998Y-87961991D01*
X109816998Y-87961991D01*
G37*
D15*
X109705000Y-88201500D03*
G04 #@! TD*
D13*
G04 #@! TO.C,SW1*
G36*
X106644183Y-96567270D02*
X106659714Y-96569574D01*
X106674946Y-96573390D01*
X106689729Y-96578679D01*
X106703923Y-96585393D01*
X106717391Y-96593465D01*
X106730003Y-96602818D01*
X106741637Y-96613363D01*
X106752182Y-96624997D01*
X106761535Y-96637609D01*
X106769607Y-96651077D01*
X106776321Y-96665271D01*
X106781610Y-96680054D01*
X106785426Y-96695286D01*
X106787730Y-96710817D01*
X106788500Y-96726500D01*
X106788500Y-97046500D01*
X106787730Y-97062183D01*
X106785426Y-97077714D01*
X106781610Y-97092946D01*
X106776321Y-97107729D01*
X106769607Y-97121923D01*
X106761535Y-97135391D01*
X106752182Y-97148003D01*
X106741637Y-97159637D01*
X106730003Y-97170182D01*
X106717391Y-97179535D01*
X106703923Y-97187607D01*
X106689729Y-97194321D01*
X106674946Y-97199610D01*
X106659714Y-97203426D01*
X106644183Y-97205730D01*
X106628500Y-97206500D01*
X105588500Y-97206500D01*
X105572817Y-97205730D01*
X105557286Y-97203426D01*
X105542054Y-97199610D01*
X105527271Y-97194321D01*
X105513077Y-97187607D01*
X105499609Y-97179535D01*
X105486997Y-97170182D01*
X105475363Y-97159637D01*
X105464818Y-97148003D01*
X105455465Y-97135391D01*
X105447393Y-97121923D01*
X105440679Y-97107729D01*
X105435390Y-97092946D01*
X105431574Y-97077714D01*
X105429270Y-97062183D01*
X105428500Y-97046500D01*
X105428500Y-96726500D01*
X105429270Y-96710817D01*
X105431574Y-96695286D01*
X105435390Y-96680054D01*
X105440679Y-96665271D01*
X105447393Y-96651077D01*
X105455465Y-96637609D01*
X105464818Y-96624997D01*
X105475363Y-96613363D01*
X105486997Y-96602818D01*
X105499609Y-96593465D01*
X105513077Y-96585393D01*
X105527271Y-96578679D01*
X105542054Y-96573390D01*
X105557286Y-96569574D01*
X105572817Y-96567270D01*
X105588500Y-96566500D01*
X106628500Y-96566500D01*
X106644183Y-96567270D01*
X106644183Y-96567270D01*
G37*
D19*
X106108500Y-96886500D03*
D13*
G36*
X106644183Y-93167270D02*
X106659714Y-93169574D01*
X106674946Y-93173390D01*
X106689729Y-93178679D01*
X106703923Y-93185393D01*
X106717391Y-93193465D01*
X106730003Y-93202818D01*
X106741637Y-93213363D01*
X106752182Y-93224997D01*
X106761535Y-93237609D01*
X106769607Y-93251077D01*
X106776321Y-93265271D01*
X106781610Y-93280054D01*
X106785426Y-93295286D01*
X106787730Y-93310817D01*
X106788500Y-93326500D01*
X106788500Y-93646500D01*
X106787730Y-93662183D01*
X106785426Y-93677714D01*
X106781610Y-93692946D01*
X106776321Y-93707729D01*
X106769607Y-93721923D01*
X106761535Y-93735391D01*
X106752182Y-93748003D01*
X106741637Y-93759637D01*
X106730003Y-93770182D01*
X106717391Y-93779535D01*
X106703923Y-93787607D01*
X106689729Y-93794321D01*
X106674946Y-93799610D01*
X106659714Y-93803426D01*
X106644183Y-93805730D01*
X106628500Y-93806500D01*
X105588500Y-93806500D01*
X105572817Y-93805730D01*
X105557286Y-93803426D01*
X105542054Y-93799610D01*
X105527271Y-93794321D01*
X105513077Y-93787607D01*
X105499609Y-93779535D01*
X105486997Y-93770182D01*
X105475363Y-93759637D01*
X105464818Y-93748003D01*
X105455465Y-93735391D01*
X105447393Y-93721923D01*
X105440679Y-93707729D01*
X105435390Y-93692946D01*
X105431574Y-93677714D01*
X105429270Y-93662183D01*
X105428500Y-93646500D01*
X105428500Y-93326500D01*
X105429270Y-93310817D01*
X105431574Y-93295286D01*
X105435390Y-93280054D01*
X105440679Y-93265271D01*
X105447393Y-93251077D01*
X105455465Y-93237609D01*
X105464818Y-93224997D01*
X105475363Y-93213363D01*
X105486997Y-93202818D01*
X105499609Y-93193465D01*
X105513077Y-93185393D01*
X105527271Y-93178679D01*
X105542054Y-93173390D01*
X105557286Y-93169574D01*
X105572817Y-93167270D01*
X105588500Y-93166500D01*
X106628500Y-93166500D01*
X106644183Y-93167270D01*
X106644183Y-93167270D01*
G37*
D19*
X106108500Y-93486500D03*
G04 #@! TD*
D13*
G04 #@! TO.C,U1*
G36*
X104307097Y-90473250D02*
X104312145Y-90473999D01*
X104317095Y-90475239D01*
X104321900Y-90476958D01*
X104326513Y-90479140D01*
X104330890Y-90481764D01*
X104334988Y-90484803D01*
X104338770Y-90488230D01*
X104342197Y-90492012D01*
X104345236Y-90496110D01*
X104347860Y-90500487D01*
X104350042Y-90505100D01*
X104351761Y-90509905D01*
X104353001Y-90514855D01*
X104353750Y-90519903D01*
X104354000Y-90525000D01*
X104354000Y-91045000D01*
X104353750Y-91050097D01*
X104353001Y-91055145D01*
X104351761Y-91060095D01*
X104350042Y-91064900D01*
X104347860Y-91069513D01*
X104345236Y-91073890D01*
X104342197Y-91077988D01*
X104338770Y-91081770D01*
X104334988Y-91085197D01*
X104330890Y-91088236D01*
X104326513Y-91090860D01*
X104321900Y-91093042D01*
X104317095Y-91094761D01*
X104312145Y-91096001D01*
X104307097Y-91096750D01*
X104302000Y-91097000D01*
X104198000Y-91097000D01*
X104192903Y-91096750D01*
X104187855Y-91096001D01*
X104182905Y-91094761D01*
X104178100Y-91093042D01*
X104173487Y-91090860D01*
X104169110Y-91088236D01*
X104165012Y-91085197D01*
X104161230Y-91081770D01*
X104157803Y-91077988D01*
X104154764Y-91073890D01*
X104152140Y-91069513D01*
X104149958Y-91064900D01*
X104148239Y-91060095D01*
X104146999Y-91055145D01*
X104146250Y-91050097D01*
X104146000Y-91045000D01*
X104146000Y-90525000D01*
X104146250Y-90519903D01*
X104146999Y-90514855D01*
X104148239Y-90509905D01*
X104149958Y-90505100D01*
X104152140Y-90500487D01*
X104154764Y-90496110D01*
X104157803Y-90492012D01*
X104161230Y-90488230D01*
X104165012Y-90484803D01*
X104169110Y-90481764D01*
X104173487Y-90479140D01*
X104178100Y-90476958D01*
X104182905Y-90475239D01*
X104187855Y-90473999D01*
X104192903Y-90473250D01*
X104198000Y-90473000D01*
X104302000Y-90473000D01*
X104307097Y-90473250D01*
X104307097Y-90473250D01*
G37*
D20*
X104250000Y-90785000D03*
D13*
G36*
X104807097Y-90473250D02*
X104812145Y-90473999D01*
X104817095Y-90475239D01*
X104821900Y-90476958D01*
X104826513Y-90479140D01*
X104830890Y-90481764D01*
X104834988Y-90484803D01*
X104838770Y-90488230D01*
X104842197Y-90492012D01*
X104845236Y-90496110D01*
X104847860Y-90500487D01*
X104850042Y-90505100D01*
X104851761Y-90509905D01*
X104853001Y-90514855D01*
X104853750Y-90519903D01*
X104854000Y-90525000D01*
X104854000Y-91045000D01*
X104853750Y-91050097D01*
X104853001Y-91055145D01*
X104851761Y-91060095D01*
X104850042Y-91064900D01*
X104847860Y-91069513D01*
X104845236Y-91073890D01*
X104842197Y-91077988D01*
X104838770Y-91081770D01*
X104834988Y-91085197D01*
X104830890Y-91088236D01*
X104826513Y-91090860D01*
X104821900Y-91093042D01*
X104817095Y-91094761D01*
X104812145Y-91096001D01*
X104807097Y-91096750D01*
X104802000Y-91097000D01*
X104698000Y-91097000D01*
X104692903Y-91096750D01*
X104687855Y-91096001D01*
X104682905Y-91094761D01*
X104678100Y-91093042D01*
X104673487Y-91090860D01*
X104669110Y-91088236D01*
X104665012Y-91085197D01*
X104661230Y-91081770D01*
X104657803Y-91077988D01*
X104654764Y-91073890D01*
X104652140Y-91069513D01*
X104649958Y-91064900D01*
X104648239Y-91060095D01*
X104646999Y-91055145D01*
X104646250Y-91050097D01*
X104646000Y-91045000D01*
X104646000Y-90525000D01*
X104646250Y-90519903D01*
X104646999Y-90514855D01*
X104648239Y-90509905D01*
X104649958Y-90505100D01*
X104652140Y-90500487D01*
X104654764Y-90496110D01*
X104657803Y-90492012D01*
X104661230Y-90488230D01*
X104665012Y-90484803D01*
X104669110Y-90481764D01*
X104673487Y-90479140D01*
X104678100Y-90476958D01*
X104682905Y-90475239D01*
X104687855Y-90473999D01*
X104692903Y-90473250D01*
X104698000Y-90473000D01*
X104802000Y-90473000D01*
X104807097Y-90473250D01*
X104807097Y-90473250D01*
G37*
D20*
X104750000Y-90785000D03*
D13*
G36*
X105307097Y-90473250D02*
X105312145Y-90473999D01*
X105317095Y-90475239D01*
X105321900Y-90476958D01*
X105326513Y-90479140D01*
X105330890Y-90481764D01*
X105334988Y-90484803D01*
X105338770Y-90488230D01*
X105342197Y-90492012D01*
X105345236Y-90496110D01*
X105347860Y-90500487D01*
X105350042Y-90505100D01*
X105351761Y-90509905D01*
X105353001Y-90514855D01*
X105353750Y-90519903D01*
X105354000Y-90525000D01*
X105354000Y-91045000D01*
X105353750Y-91050097D01*
X105353001Y-91055145D01*
X105351761Y-91060095D01*
X105350042Y-91064900D01*
X105347860Y-91069513D01*
X105345236Y-91073890D01*
X105342197Y-91077988D01*
X105338770Y-91081770D01*
X105334988Y-91085197D01*
X105330890Y-91088236D01*
X105326513Y-91090860D01*
X105321900Y-91093042D01*
X105317095Y-91094761D01*
X105312145Y-91096001D01*
X105307097Y-91096750D01*
X105302000Y-91097000D01*
X105198000Y-91097000D01*
X105192903Y-91096750D01*
X105187855Y-91096001D01*
X105182905Y-91094761D01*
X105178100Y-91093042D01*
X105173487Y-91090860D01*
X105169110Y-91088236D01*
X105165012Y-91085197D01*
X105161230Y-91081770D01*
X105157803Y-91077988D01*
X105154764Y-91073890D01*
X105152140Y-91069513D01*
X105149958Y-91064900D01*
X105148239Y-91060095D01*
X105146999Y-91055145D01*
X105146250Y-91050097D01*
X105146000Y-91045000D01*
X105146000Y-90525000D01*
X105146250Y-90519903D01*
X105146999Y-90514855D01*
X105148239Y-90509905D01*
X105149958Y-90505100D01*
X105152140Y-90500487D01*
X105154764Y-90496110D01*
X105157803Y-90492012D01*
X105161230Y-90488230D01*
X105165012Y-90484803D01*
X105169110Y-90481764D01*
X105173487Y-90479140D01*
X105178100Y-90476958D01*
X105182905Y-90475239D01*
X105187855Y-90473999D01*
X105192903Y-90473250D01*
X105198000Y-90473000D01*
X105302000Y-90473000D01*
X105307097Y-90473250D01*
X105307097Y-90473250D01*
G37*
D20*
X105250000Y-90785000D03*
D13*
G36*
X105807097Y-90473250D02*
X105812145Y-90473999D01*
X105817095Y-90475239D01*
X105821900Y-90476958D01*
X105826513Y-90479140D01*
X105830890Y-90481764D01*
X105834988Y-90484803D01*
X105838770Y-90488230D01*
X105842197Y-90492012D01*
X105845236Y-90496110D01*
X105847860Y-90500487D01*
X105850042Y-90505100D01*
X105851761Y-90509905D01*
X105853001Y-90514855D01*
X105853750Y-90519903D01*
X105854000Y-90525000D01*
X105854000Y-91045000D01*
X105853750Y-91050097D01*
X105853001Y-91055145D01*
X105851761Y-91060095D01*
X105850042Y-91064900D01*
X105847860Y-91069513D01*
X105845236Y-91073890D01*
X105842197Y-91077988D01*
X105838770Y-91081770D01*
X105834988Y-91085197D01*
X105830890Y-91088236D01*
X105826513Y-91090860D01*
X105821900Y-91093042D01*
X105817095Y-91094761D01*
X105812145Y-91096001D01*
X105807097Y-91096750D01*
X105802000Y-91097000D01*
X105698000Y-91097000D01*
X105692903Y-91096750D01*
X105687855Y-91096001D01*
X105682905Y-91094761D01*
X105678100Y-91093042D01*
X105673487Y-91090860D01*
X105669110Y-91088236D01*
X105665012Y-91085197D01*
X105661230Y-91081770D01*
X105657803Y-91077988D01*
X105654764Y-91073890D01*
X105652140Y-91069513D01*
X105649958Y-91064900D01*
X105648239Y-91060095D01*
X105646999Y-91055145D01*
X105646250Y-91050097D01*
X105646000Y-91045000D01*
X105646000Y-90525000D01*
X105646250Y-90519903D01*
X105646999Y-90514855D01*
X105648239Y-90509905D01*
X105649958Y-90505100D01*
X105652140Y-90500487D01*
X105654764Y-90496110D01*
X105657803Y-90492012D01*
X105661230Y-90488230D01*
X105665012Y-90484803D01*
X105669110Y-90481764D01*
X105673487Y-90479140D01*
X105678100Y-90476958D01*
X105682905Y-90475239D01*
X105687855Y-90473999D01*
X105692903Y-90473250D01*
X105698000Y-90473000D01*
X105802000Y-90473000D01*
X105807097Y-90473250D01*
X105807097Y-90473250D01*
G37*
D20*
X105750000Y-90785000D03*
D13*
G36*
X106307097Y-90473250D02*
X106312145Y-90473999D01*
X106317095Y-90475239D01*
X106321900Y-90476958D01*
X106326513Y-90479140D01*
X106330890Y-90481764D01*
X106334988Y-90484803D01*
X106338770Y-90488230D01*
X106342197Y-90492012D01*
X106345236Y-90496110D01*
X106347860Y-90500487D01*
X106350042Y-90505100D01*
X106351761Y-90509905D01*
X106353001Y-90514855D01*
X106353750Y-90519903D01*
X106354000Y-90525000D01*
X106354000Y-91045000D01*
X106353750Y-91050097D01*
X106353001Y-91055145D01*
X106351761Y-91060095D01*
X106350042Y-91064900D01*
X106347860Y-91069513D01*
X106345236Y-91073890D01*
X106342197Y-91077988D01*
X106338770Y-91081770D01*
X106334988Y-91085197D01*
X106330890Y-91088236D01*
X106326513Y-91090860D01*
X106321900Y-91093042D01*
X106317095Y-91094761D01*
X106312145Y-91096001D01*
X106307097Y-91096750D01*
X106302000Y-91097000D01*
X106198000Y-91097000D01*
X106192903Y-91096750D01*
X106187855Y-91096001D01*
X106182905Y-91094761D01*
X106178100Y-91093042D01*
X106173487Y-91090860D01*
X106169110Y-91088236D01*
X106165012Y-91085197D01*
X106161230Y-91081770D01*
X106157803Y-91077988D01*
X106154764Y-91073890D01*
X106152140Y-91069513D01*
X106149958Y-91064900D01*
X106148239Y-91060095D01*
X106146999Y-91055145D01*
X106146250Y-91050097D01*
X106146000Y-91045000D01*
X106146000Y-90525000D01*
X106146250Y-90519903D01*
X106146999Y-90514855D01*
X106148239Y-90509905D01*
X106149958Y-90505100D01*
X106152140Y-90500487D01*
X106154764Y-90496110D01*
X106157803Y-90492012D01*
X106161230Y-90488230D01*
X106165012Y-90484803D01*
X106169110Y-90481764D01*
X106173487Y-90479140D01*
X106178100Y-90476958D01*
X106182905Y-90475239D01*
X106187855Y-90473999D01*
X106192903Y-90473250D01*
X106198000Y-90473000D01*
X106302000Y-90473000D01*
X106307097Y-90473250D01*
X106307097Y-90473250D01*
G37*
D20*
X106250000Y-90785000D03*
D13*
G36*
X106807097Y-90473250D02*
X106812145Y-90473999D01*
X106817095Y-90475239D01*
X106821900Y-90476958D01*
X106826513Y-90479140D01*
X106830890Y-90481764D01*
X106834988Y-90484803D01*
X106838770Y-90488230D01*
X106842197Y-90492012D01*
X106845236Y-90496110D01*
X106847860Y-90500487D01*
X106850042Y-90505100D01*
X106851761Y-90509905D01*
X106853001Y-90514855D01*
X106853750Y-90519903D01*
X106854000Y-90525000D01*
X106854000Y-91045000D01*
X106853750Y-91050097D01*
X106853001Y-91055145D01*
X106851761Y-91060095D01*
X106850042Y-91064900D01*
X106847860Y-91069513D01*
X106845236Y-91073890D01*
X106842197Y-91077988D01*
X106838770Y-91081770D01*
X106834988Y-91085197D01*
X106830890Y-91088236D01*
X106826513Y-91090860D01*
X106821900Y-91093042D01*
X106817095Y-91094761D01*
X106812145Y-91096001D01*
X106807097Y-91096750D01*
X106802000Y-91097000D01*
X106698000Y-91097000D01*
X106692903Y-91096750D01*
X106687855Y-91096001D01*
X106682905Y-91094761D01*
X106678100Y-91093042D01*
X106673487Y-91090860D01*
X106669110Y-91088236D01*
X106665012Y-91085197D01*
X106661230Y-91081770D01*
X106657803Y-91077988D01*
X106654764Y-91073890D01*
X106652140Y-91069513D01*
X106649958Y-91064900D01*
X106648239Y-91060095D01*
X106646999Y-91055145D01*
X106646250Y-91050097D01*
X106646000Y-91045000D01*
X106646000Y-90525000D01*
X106646250Y-90519903D01*
X106646999Y-90514855D01*
X106648239Y-90509905D01*
X106649958Y-90505100D01*
X106652140Y-90500487D01*
X106654764Y-90496110D01*
X106657803Y-90492012D01*
X106661230Y-90488230D01*
X106665012Y-90484803D01*
X106669110Y-90481764D01*
X106673487Y-90479140D01*
X106678100Y-90476958D01*
X106682905Y-90475239D01*
X106687855Y-90473999D01*
X106692903Y-90473250D01*
X106698000Y-90473000D01*
X106802000Y-90473000D01*
X106807097Y-90473250D01*
X106807097Y-90473250D01*
G37*
D20*
X106750000Y-90785000D03*
D13*
G36*
X107307097Y-90473250D02*
X107312145Y-90473999D01*
X107317095Y-90475239D01*
X107321900Y-90476958D01*
X107326513Y-90479140D01*
X107330890Y-90481764D01*
X107334988Y-90484803D01*
X107338770Y-90488230D01*
X107342197Y-90492012D01*
X107345236Y-90496110D01*
X107347860Y-90500487D01*
X107350042Y-90505100D01*
X107351761Y-90509905D01*
X107353001Y-90514855D01*
X107353750Y-90519903D01*
X107354000Y-90525000D01*
X107354000Y-91045000D01*
X107353750Y-91050097D01*
X107353001Y-91055145D01*
X107351761Y-91060095D01*
X107350042Y-91064900D01*
X107347860Y-91069513D01*
X107345236Y-91073890D01*
X107342197Y-91077988D01*
X107338770Y-91081770D01*
X107334988Y-91085197D01*
X107330890Y-91088236D01*
X107326513Y-91090860D01*
X107321900Y-91093042D01*
X107317095Y-91094761D01*
X107312145Y-91096001D01*
X107307097Y-91096750D01*
X107302000Y-91097000D01*
X107198000Y-91097000D01*
X107192903Y-91096750D01*
X107187855Y-91096001D01*
X107182905Y-91094761D01*
X107178100Y-91093042D01*
X107173487Y-91090860D01*
X107169110Y-91088236D01*
X107165012Y-91085197D01*
X107161230Y-91081770D01*
X107157803Y-91077988D01*
X107154764Y-91073890D01*
X107152140Y-91069513D01*
X107149958Y-91064900D01*
X107148239Y-91060095D01*
X107146999Y-91055145D01*
X107146250Y-91050097D01*
X107146000Y-91045000D01*
X107146000Y-90525000D01*
X107146250Y-90519903D01*
X107146999Y-90514855D01*
X107148239Y-90509905D01*
X107149958Y-90505100D01*
X107152140Y-90500487D01*
X107154764Y-90496110D01*
X107157803Y-90492012D01*
X107161230Y-90488230D01*
X107165012Y-90484803D01*
X107169110Y-90481764D01*
X107173487Y-90479140D01*
X107178100Y-90476958D01*
X107182905Y-90475239D01*
X107187855Y-90473999D01*
X107192903Y-90473250D01*
X107198000Y-90473000D01*
X107302000Y-90473000D01*
X107307097Y-90473250D01*
X107307097Y-90473250D01*
G37*
D20*
X107250000Y-90785000D03*
D13*
G36*
X107807097Y-90473250D02*
X107812145Y-90473999D01*
X107817095Y-90475239D01*
X107821900Y-90476958D01*
X107826513Y-90479140D01*
X107830890Y-90481764D01*
X107834988Y-90484803D01*
X107838770Y-90488230D01*
X107842197Y-90492012D01*
X107845236Y-90496110D01*
X107847860Y-90500487D01*
X107850042Y-90505100D01*
X107851761Y-90509905D01*
X107853001Y-90514855D01*
X107853750Y-90519903D01*
X107854000Y-90525000D01*
X107854000Y-91045000D01*
X107853750Y-91050097D01*
X107853001Y-91055145D01*
X107851761Y-91060095D01*
X107850042Y-91064900D01*
X107847860Y-91069513D01*
X107845236Y-91073890D01*
X107842197Y-91077988D01*
X107838770Y-91081770D01*
X107834988Y-91085197D01*
X107830890Y-91088236D01*
X107826513Y-91090860D01*
X107821900Y-91093042D01*
X107817095Y-91094761D01*
X107812145Y-91096001D01*
X107807097Y-91096750D01*
X107802000Y-91097000D01*
X107698000Y-91097000D01*
X107692903Y-91096750D01*
X107687855Y-91096001D01*
X107682905Y-91094761D01*
X107678100Y-91093042D01*
X107673487Y-91090860D01*
X107669110Y-91088236D01*
X107665012Y-91085197D01*
X107661230Y-91081770D01*
X107657803Y-91077988D01*
X107654764Y-91073890D01*
X107652140Y-91069513D01*
X107649958Y-91064900D01*
X107648239Y-91060095D01*
X107646999Y-91055145D01*
X107646250Y-91050097D01*
X107646000Y-91045000D01*
X107646000Y-90525000D01*
X107646250Y-90519903D01*
X107646999Y-90514855D01*
X107648239Y-90509905D01*
X107649958Y-90505100D01*
X107652140Y-90500487D01*
X107654764Y-90496110D01*
X107657803Y-90492012D01*
X107661230Y-90488230D01*
X107665012Y-90484803D01*
X107669110Y-90481764D01*
X107673487Y-90479140D01*
X107678100Y-90476958D01*
X107682905Y-90475239D01*
X107687855Y-90473999D01*
X107692903Y-90473250D01*
X107698000Y-90473000D01*
X107802000Y-90473000D01*
X107807097Y-90473250D01*
X107807097Y-90473250D01*
G37*
D20*
X107750000Y-90785000D03*
D13*
G36*
X108650097Y-90046250D02*
X108655145Y-90046999D01*
X108660095Y-90048239D01*
X108664900Y-90049958D01*
X108669513Y-90052140D01*
X108673890Y-90054764D01*
X108677988Y-90057803D01*
X108681770Y-90061230D01*
X108685197Y-90065012D01*
X108688236Y-90069110D01*
X108690860Y-90073487D01*
X108693042Y-90078100D01*
X108694761Y-90082905D01*
X108696001Y-90087855D01*
X108696750Y-90092903D01*
X108697000Y-90098000D01*
X108697000Y-90202000D01*
X108696750Y-90207097D01*
X108696001Y-90212145D01*
X108694761Y-90217095D01*
X108693042Y-90221900D01*
X108690860Y-90226513D01*
X108688236Y-90230890D01*
X108685197Y-90234988D01*
X108681770Y-90238770D01*
X108677988Y-90242197D01*
X108673890Y-90245236D01*
X108669513Y-90247860D01*
X108664900Y-90250042D01*
X108660095Y-90251761D01*
X108655145Y-90253001D01*
X108650097Y-90253750D01*
X108645000Y-90254000D01*
X108125000Y-90254000D01*
X108119903Y-90253750D01*
X108114855Y-90253001D01*
X108109905Y-90251761D01*
X108105100Y-90250042D01*
X108100487Y-90247860D01*
X108096110Y-90245236D01*
X108092012Y-90242197D01*
X108088230Y-90238770D01*
X108084803Y-90234988D01*
X108081764Y-90230890D01*
X108079140Y-90226513D01*
X108076958Y-90221900D01*
X108075239Y-90217095D01*
X108073999Y-90212145D01*
X108073250Y-90207097D01*
X108073000Y-90202000D01*
X108073000Y-90098000D01*
X108073250Y-90092903D01*
X108073999Y-90087855D01*
X108075239Y-90082905D01*
X108076958Y-90078100D01*
X108079140Y-90073487D01*
X108081764Y-90069110D01*
X108084803Y-90065012D01*
X108088230Y-90061230D01*
X108092012Y-90057803D01*
X108096110Y-90054764D01*
X108100487Y-90052140D01*
X108105100Y-90049958D01*
X108109905Y-90048239D01*
X108114855Y-90046999D01*
X108119903Y-90046250D01*
X108125000Y-90046000D01*
X108645000Y-90046000D01*
X108650097Y-90046250D01*
X108650097Y-90046250D01*
G37*
D20*
X108385000Y-90150000D03*
D13*
G36*
X108650097Y-89546250D02*
X108655145Y-89546999D01*
X108660095Y-89548239D01*
X108664900Y-89549958D01*
X108669513Y-89552140D01*
X108673890Y-89554764D01*
X108677988Y-89557803D01*
X108681770Y-89561230D01*
X108685197Y-89565012D01*
X108688236Y-89569110D01*
X108690860Y-89573487D01*
X108693042Y-89578100D01*
X108694761Y-89582905D01*
X108696001Y-89587855D01*
X108696750Y-89592903D01*
X108697000Y-89598000D01*
X108697000Y-89702000D01*
X108696750Y-89707097D01*
X108696001Y-89712145D01*
X108694761Y-89717095D01*
X108693042Y-89721900D01*
X108690860Y-89726513D01*
X108688236Y-89730890D01*
X108685197Y-89734988D01*
X108681770Y-89738770D01*
X108677988Y-89742197D01*
X108673890Y-89745236D01*
X108669513Y-89747860D01*
X108664900Y-89750042D01*
X108660095Y-89751761D01*
X108655145Y-89753001D01*
X108650097Y-89753750D01*
X108645000Y-89754000D01*
X108125000Y-89754000D01*
X108119903Y-89753750D01*
X108114855Y-89753001D01*
X108109905Y-89751761D01*
X108105100Y-89750042D01*
X108100487Y-89747860D01*
X108096110Y-89745236D01*
X108092012Y-89742197D01*
X108088230Y-89738770D01*
X108084803Y-89734988D01*
X108081764Y-89730890D01*
X108079140Y-89726513D01*
X108076958Y-89721900D01*
X108075239Y-89717095D01*
X108073999Y-89712145D01*
X108073250Y-89707097D01*
X108073000Y-89702000D01*
X108073000Y-89598000D01*
X108073250Y-89592903D01*
X108073999Y-89587855D01*
X108075239Y-89582905D01*
X108076958Y-89578100D01*
X108079140Y-89573487D01*
X108081764Y-89569110D01*
X108084803Y-89565012D01*
X108088230Y-89561230D01*
X108092012Y-89557803D01*
X108096110Y-89554764D01*
X108100487Y-89552140D01*
X108105100Y-89549958D01*
X108109905Y-89548239D01*
X108114855Y-89546999D01*
X108119903Y-89546250D01*
X108125000Y-89546000D01*
X108645000Y-89546000D01*
X108650097Y-89546250D01*
X108650097Y-89546250D01*
G37*
D20*
X108385000Y-89650000D03*
D13*
G36*
X108650097Y-89046250D02*
X108655145Y-89046999D01*
X108660095Y-89048239D01*
X108664900Y-89049958D01*
X108669513Y-89052140D01*
X108673890Y-89054764D01*
X108677988Y-89057803D01*
X108681770Y-89061230D01*
X108685197Y-89065012D01*
X108688236Y-89069110D01*
X108690860Y-89073487D01*
X108693042Y-89078100D01*
X108694761Y-89082905D01*
X108696001Y-89087855D01*
X108696750Y-89092903D01*
X108697000Y-89098000D01*
X108697000Y-89202000D01*
X108696750Y-89207097D01*
X108696001Y-89212145D01*
X108694761Y-89217095D01*
X108693042Y-89221900D01*
X108690860Y-89226513D01*
X108688236Y-89230890D01*
X108685197Y-89234988D01*
X108681770Y-89238770D01*
X108677988Y-89242197D01*
X108673890Y-89245236D01*
X108669513Y-89247860D01*
X108664900Y-89250042D01*
X108660095Y-89251761D01*
X108655145Y-89253001D01*
X108650097Y-89253750D01*
X108645000Y-89254000D01*
X108125000Y-89254000D01*
X108119903Y-89253750D01*
X108114855Y-89253001D01*
X108109905Y-89251761D01*
X108105100Y-89250042D01*
X108100487Y-89247860D01*
X108096110Y-89245236D01*
X108092012Y-89242197D01*
X108088230Y-89238770D01*
X108084803Y-89234988D01*
X108081764Y-89230890D01*
X108079140Y-89226513D01*
X108076958Y-89221900D01*
X108075239Y-89217095D01*
X108073999Y-89212145D01*
X108073250Y-89207097D01*
X108073000Y-89202000D01*
X108073000Y-89098000D01*
X108073250Y-89092903D01*
X108073999Y-89087855D01*
X108075239Y-89082905D01*
X108076958Y-89078100D01*
X108079140Y-89073487D01*
X108081764Y-89069110D01*
X108084803Y-89065012D01*
X108088230Y-89061230D01*
X108092012Y-89057803D01*
X108096110Y-89054764D01*
X108100487Y-89052140D01*
X108105100Y-89049958D01*
X108109905Y-89048239D01*
X108114855Y-89046999D01*
X108119903Y-89046250D01*
X108125000Y-89046000D01*
X108645000Y-89046000D01*
X108650097Y-89046250D01*
X108650097Y-89046250D01*
G37*
D20*
X108385000Y-89150000D03*
D13*
G36*
X108650097Y-88546250D02*
X108655145Y-88546999D01*
X108660095Y-88548239D01*
X108664900Y-88549958D01*
X108669513Y-88552140D01*
X108673890Y-88554764D01*
X108677988Y-88557803D01*
X108681770Y-88561230D01*
X108685197Y-88565012D01*
X108688236Y-88569110D01*
X108690860Y-88573487D01*
X108693042Y-88578100D01*
X108694761Y-88582905D01*
X108696001Y-88587855D01*
X108696750Y-88592903D01*
X108697000Y-88598000D01*
X108697000Y-88702000D01*
X108696750Y-88707097D01*
X108696001Y-88712145D01*
X108694761Y-88717095D01*
X108693042Y-88721900D01*
X108690860Y-88726513D01*
X108688236Y-88730890D01*
X108685197Y-88734988D01*
X108681770Y-88738770D01*
X108677988Y-88742197D01*
X108673890Y-88745236D01*
X108669513Y-88747860D01*
X108664900Y-88750042D01*
X108660095Y-88751761D01*
X108655145Y-88753001D01*
X108650097Y-88753750D01*
X108645000Y-88754000D01*
X108125000Y-88754000D01*
X108119903Y-88753750D01*
X108114855Y-88753001D01*
X108109905Y-88751761D01*
X108105100Y-88750042D01*
X108100487Y-88747860D01*
X108096110Y-88745236D01*
X108092012Y-88742197D01*
X108088230Y-88738770D01*
X108084803Y-88734988D01*
X108081764Y-88730890D01*
X108079140Y-88726513D01*
X108076958Y-88721900D01*
X108075239Y-88717095D01*
X108073999Y-88712145D01*
X108073250Y-88707097D01*
X108073000Y-88702000D01*
X108073000Y-88598000D01*
X108073250Y-88592903D01*
X108073999Y-88587855D01*
X108075239Y-88582905D01*
X108076958Y-88578100D01*
X108079140Y-88573487D01*
X108081764Y-88569110D01*
X108084803Y-88565012D01*
X108088230Y-88561230D01*
X108092012Y-88557803D01*
X108096110Y-88554764D01*
X108100487Y-88552140D01*
X108105100Y-88549958D01*
X108109905Y-88548239D01*
X108114855Y-88546999D01*
X108119903Y-88546250D01*
X108125000Y-88546000D01*
X108645000Y-88546000D01*
X108650097Y-88546250D01*
X108650097Y-88546250D01*
G37*
D20*
X108385000Y-88650000D03*
D13*
G36*
X108650097Y-88046250D02*
X108655145Y-88046999D01*
X108660095Y-88048239D01*
X108664900Y-88049958D01*
X108669513Y-88052140D01*
X108673890Y-88054764D01*
X108677988Y-88057803D01*
X108681770Y-88061230D01*
X108685197Y-88065012D01*
X108688236Y-88069110D01*
X108690860Y-88073487D01*
X108693042Y-88078100D01*
X108694761Y-88082905D01*
X108696001Y-88087855D01*
X108696750Y-88092903D01*
X108697000Y-88098000D01*
X108697000Y-88202000D01*
X108696750Y-88207097D01*
X108696001Y-88212145D01*
X108694761Y-88217095D01*
X108693042Y-88221900D01*
X108690860Y-88226513D01*
X108688236Y-88230890D01*
X108685197Y-88234988D01*
X108681770Y-88238770D01*
X108677988Y-88242197D01*
X108673890Y-88245236D01*
X108669513Y-88247860D01*
X108664900Y-88250042D01*
X108660095Y-88251761D01*
X108655145Y-88253001D01*
X108650097Y-88253750D01*
X108645000Y-88254000D01*
X108125000Y-88254000D01*
X108119903Y-88253750D01*
X108114855Y-88253001D01*
X108109905Y-88251761D01*
X108105100Y-88250042D01*
X108100487Y-88247860D01*
X108096110Y-88245236D01*
X108092012Y-88242197D01*
X108088230Y-88238770D01*
X108084803Y-88234988D01*
X108081764Y-88230890D01*
X108079140Y-88226513D01*
X108076958Y-88221900D01*
X108075239Y-88217095D01*
X108073999Y-88212145D01*
X108073250Y-88207097D01*
X108073000Y-88202000D01*
X108073000Y-88098000D01*
X108073250Y-88092903D01*
X108073999Y-88087855D01*
X108075239Y-88082905D01*
X108076958Y-88078100D01*
X108079140Y-88073487D01*
X108081764Y-88069110D01*
X108084803Y-88065012D01*
X108088230Y-88061230D01*
X108092012Y-88057803D01*
X108096110Y-88054764D01*
X108100487Y-88052140D01*
X108105100Y-88049958D01*
X108109905Y-88048239D01*
X108114855Y-88046999D01*
X108119903Y-88046250D01*
X108125000Y-88046000D01*
X108645000Y-88046000D01*
X108650097Y-88046250D01*
X108650097Y-88046250D01*
G37*
D20*
X108385000Y-88150000D03*
D13*
G36*
X108650097Y-87546250D02*
X108655145Y-87546999D01*
X108660095Y-87548239D01*
X108664900Y-87549958D01*
X108669513Y-87552140D01*
X108673890Y-87554764D01*
X108677988Y-87557803D01*
X108681770Y-87561230D01*
X108685197Y-87565012D01*
X108688236Y-87569110D01*
X108690860Y-87573487D01*
X108693042Y-87578100D01*
X108694761Y-87582905D01*
X108696001Y-87587855D01*
X108696750Y-87592903D01*
X108697000Y-87598000D01*
X108697000Y-87702000D01*
X108696750Y-87707097D01*
X108696001Y-87712145D01*
X108694761Y-87717095D01*
X108693042Y-87721900D01*
X108690860Y-87726513D01*
X108688236Y-87730890D01*
X108685197Y-87734988D01*
X108681770Y-87738770D01*
X108677988Y-87742197D01*
X108673890Y-87745236D01*
X108669513Y-87747860D01*
X108664900Y-87750042D01*
X108660095Y-87751761D01*
X108655145Y-87753001D01*
X108650097Y-87753750D01*
X108645000Y-87754000D01*
X108125000Y-87754000D01*
X108119903Y-87753750D01*
X108114855Y-87753001D01*
X108109905Y-87751761D01*
X108105100Y-87750042D01*
X108100487Y-87747860D01*
X108096110Y-87745236D01*
X108092012Y-87742197D01*
X108088230Y-87738770D01*
X108084803Y-87734988D01*
X108081764Y-87730890D01*
X108079140Y-87726513D01*
X108076958Y-87721900D01*
X108075239Y-87717095D01*
X108073999Y-87712145D01*
X108073250Y-87707097D01*
X108073000Y-87702000D01*
X108073000Y-87598000D01*
X108073250Y-87592903D01*
X108073999Y-87587855D01*
X108075239Y-87582905D01*
X108076958Y-87578100D01*
X108079140Y-87573487D01*
X108081764Y-87569110D01*
X108084803Y-87565012D01*
X108088230Y-87561230D01*
X108092012Y-87557803D01*
X108096110Y-87554764D01*
X108100487Y-87552140D01*
X108105100Y-87549958D01*
X108109905Y-87548239D01*
X108114855Y-87546999D01*
X108119903Y-87546250D01*
X108125000Y-87546000D01*
X108645000Y-87546000D01*
X108650097Y-87546250D01*
X108650097Y-87546250D01*
G37*
D20*
X108385000Y-87650000D03*
D13*
G36*
X108650097Y-87046250D02*
X108655145Y-87046999D01*
X108660095Y-87048239D01*
X108664900Y-87049958D01*
X108669513Y-87052140D01*
X108673890Y-87054764D01*
X108677988Y-87057803D01*
X108681770Y-87061230D01*
X108685197Y-87065012D01*
X108688236Y-87069110D01*
X108690860Y-87073487D01*
X108693042Y-87078100D01*
X108694761Y-87082905D01*
X108696001Y-87087855D01*
X108696750Y-87092903D01*
X108697000Y-87098000D01*
X108697000Y-87202000D01*
X108696750Y-87207097D01*
X108696001Y-87212145D01*
X108694761Y-87217095D01*
X108693042Y-87221900D01*
X108690860Y-87226513D01*
X108688236Y-87230890D01*
X108685197Y-87234988D01*
X108681770Y-87238770D01*
X108677988Y-87242197D01*
X108673890Y-87245236D01*
X108669513Y-87247860D01*
X108664900Y-87250042D01*
X108660095Y-87251761D01*
X108655145Y-87253001D01*
X108650097Y-87253750D01*
X108645000Y-87254000D01*
X108125000Y-87254000D01*
X108119903Y-87253750D01*
X108114855Y-87253001D01*
X108109905Y-87251761D01*
X108105100Y-87250042D01*
X108100487Y-87247860D01*
X108096110Y-87245236D01*
X108092012Y-87242197D01*
X108088230Y-87238770D01*
X108084803Y-87234988D01*
X108081764Y-87230890D01*
X108079140Y-87226513D01*
X108076958Y-87221900D01*
X108075239Y-87217095D01*
X108073999Y-87212145D01*
X108073250Y-87207097D01*
X108073000Y-87202000D01*
X108073000Y-87098000D01*
X108073250Y-87092903D01*
X108073999Y-87087855D01*
X108075239Y-87082905D01*
X108076958Y-87078100D01*
X108079140Y-87073487D01*
X108081764Y-87069110D01*
X108084803Y-87065012D01*
X108088230Y-87061230D01*
X108092012Y-87057803D01*
X108096110Y-87054764D01*
X108100487Y-87052140D01*
X108105100Y-87049958D01*
X108109905Y-87048239D01*
X108114855Y-87046999D01*
X108119903Y-87046250D01*
X108125000Y-87046000D01*
X108645000Y-87046000D01*
X108650097Y-87046250D01*
X108650097Y-87046250D01*
G37*
D20*
X108385000Y-87150000D03*
D13*
G36*
X108650097Y-86546250D02*
X108655145Y-86546999D01*
X108660095Y-86548239D01*
X108664900Y-86549958D01*
X108669513Y-86552140D01*
X108673890Y-86554764D01*
X108677988Y-86557803D01*
X108681770Y-86561230D01*
X108685197Y-86565012D01*
X108688236Y-86569110D01*
X108690860Y-86573487D01*
X108693042Y-86578100D01*
X108694761Y-86582905D01*
X108696001Y-86587855D01*
X108696750Y-86592903D01*
X108697000Y-86598000D01*
X108697000Y-86702000D01*
X108696750Y-86707097D01*
X108696001Y-86712145D01*
X108694761Y-86717095D01*
X108693042Y-86721900D01*
X108690860Y-86726513D01*
X108688236Y-86730890D01*
X108685197Y-86734988D01*
X108681770Y-86738770D01*
X108677988Y-86742197D01*
X108673890Y-86745236D01*
X108669513Y-86747860D01*
X108664900Y-86750042D01*
X108660095Y-86751761D01*
X108655145Y-86753001D01*
X108650097Y-86753750D01*
X108645000Y-86754000D01*
X108125000Y-86754000D01*
X108119903Y-86753750D01*
X108114855Y-86753001D01*
X108109905Y-86751761D01*
X108105100Y-86750042D01*
X108100487Y-86747860D01*
X108096110Y-86745236D01*
X108092012Y-86742197D01*
X108088230Y-86738770D01*
X108084803Y-86734988D01*
X108081764Y-86730890D01*
X108079140Y-86726513D01*
X108076958Y-86721900D01*
X108075239Y-86717095D01*
X108073999Y-86712145D01*
X108073250Y-86707097D01*
X108073000Y-86702000D01*
X108073000Y-86598000D01*
X108073250Y-86592903D01*
X108073999Y-86587855D01*
X108075239Y-86582905D01*
X108076958Y-86578100D01*
X108079140Y-86573487D01*
X108081764Y-86569110D01*
X108084803Y-86565012D01*
X108088230Y-86561230D01*
X108092012Y-86557803D01*
X108096110Y-86554764D01*
X108100487Y-86552140D01*
X108105100Y-86549958D01*
X108109905Y-86548239D01*
X108114855Y-86546999D01*
X108119903Y-86546250D01*
X108125000Y-86546000D01*
X108645000Y-86546000D01*
X108650097Y-86546250D01*
X108650097Y-86546250D01*
G37*
D20*
X108385000Y-86650000D03*
D13*
G36*
X107807097Y-85703250D02*
X107812145Y-85703999D01*
X107817095Y-85705239D01*
X107821900Y-85706958D01*
X107826513Y-85709140D01*
X107830890Y-85711764D01*
X107834988Y-85714803D01*
X107838770Y-85718230D01*
X107842197Y-85722012D01*
X107845236Y-85726110D01*
X107847860Y-85730487D01*
X107850042Y-85735100D01*
X107851761Y-85739905D01*
X107853001Y-85744855D01*
X107853750Y-85749903D01*
X107854000Y-85755000D01*
X107854000Y-86275000D01*
X107853750Y-86280097D01*
X107853001Y-86285145D01*
X107851761Y-86290095D01*
X107850042Y-86294900D01*
X107847860Y-86299513D01*
X107845236Y-86303890D01*
X107842197Y-86307988D01*
X107838770Y-86311770D01*
X107834988Y-86315197D01*
X107830890Y-86318236D01*
X107826513Y-86320860D01*
X107821900Y-86323042D01*
X107817095Y-86324761D01*
X107812145Y-86326001D01*
X107807097Y-86326750D01*
X107802000Y-86327000D01*
X107698000Y-86327000D01*
X107692903Y-86326750D01*
X107687855Y-86326001D01*
X107682905Y-86324761D01*
X107678100Y-86323042D01*
X107673487Y-86320860D01*
X107669110Y-86318236D01*
X107665012Y-86315197D01*
X107661230Y-86311770D01*
X107657803Y-86307988D01*
X107654764Y-86303890D01*
X107652140Y-86299513D01*
X107649958Y-86294900D01*
X107648239Y-86290095D01*
X107646999Y-86285145D01*
X107646250Y-86280097D01*
X107646000Y-86275000D01*
X107646000Y-85755000D01*
X107646250Y-85749903D01*
X107646999Y-85744855D01*
X107648239Y-85739905D01*
X107649958Y-85735100D01*
X107652140Y-85730487D01*
X107654764Y-85726110D01*
X107657803Y-85722012D01*
X107661230Y-85718230D01*
X107665012Y-85714803D01*
X107669110Y-85711764D01*
X107673487Y-85709140D01*
X107678100Y-85706958D01*
X107682905Y-85705239D01*
X107687855Y-85703999D01*
X107692903Y-85703250D01*
X107698000Y-85703000D01*
X107802000Y-85703000D01*
X107807097Y-85703250D01*
X107807097Y-85703250D01*
G37*
D20*
X107750000Y-86015000D03*
D13*
G36*
X107307097Y-85703250D02*
X107312145Y-85703999D01*
X107317095Y-85705239D01*
X107321900Y-85706958D01*
X107326513Y-85709140D01*
X107330890Y-85711764D01*
X107334988Y-85714803D01*
X107338770Y-85718230D01*
X107342197Y-85722012D01*
X107345236Y-85726110D01*
X107347860Y-85730487D01*
X107350042Y-85735100D01*
X107351761Y-85739905D01*
X107353001Y-85744855D01*
X107353750Y-85749903D01*
X107354000Y-85755000D01*
X107354000Y-86275000D01*
X107353750Y-86280097D01*
X107353001Y-86285145D01*
X107351761Y-86290095D01*
X107350042Y-86294900D01*
X107347860Y-86299513D01*
X107345236Y-86303890D01*
X107342197Y-86307988D01*
X107338770Y-86311770D01*
X107334988Y-86315197D01*
X107330890Y-86318236D01*
X107326513Y-86320860D01*
X107321900Y-86323042D01*
X107317095Y-86324761D01*
X107312145Y-86326001D01*
X107307097Y-86326750D01*
X107302000Y-86327000D01*
X107198000Y-86327000D01*
X107192903Y-86326750D01*
X107187855Y-86326001D01*
X107182905Y-86324761D01*
X107178100Y-86323042D01*
X107173487Y-86320860D01*
X107169110Y-86318236D01*
X107165012Y-86315197D01*
X107161230Y-86311770D01*
X107157803Y-86307988D01*
X107154764Y-86303890D01*
X107152140Y-86299513D01*
X107149958Y-86294900D01*
X107148239Y-86290095D01*
X107146999Y-86285145D01*
X107146250Y-86280097D01*
X107146000Y-86275000D01*
X107146000Y-85755000D01*
X107146250Y-85749903D01*
X107146999Y-85744855D01*
X107148239Y-85739905D01*
X107149958Y-85735100D01*
X107152140Y-85730487D01*
X107154764Y-85726110D01*
X107157803Y-85722012D01*
X107161230Y-85718230D01*
X107165012Y-85714803D01*
X107169110Y-85711764D01*
X107173487Y-85709140D01*
X107178100Y-85706958D01*
X107182905Y-85705239D01*
X107187855Y-85703999D01*
X107192903Y-85703250D01*
X107198000Y-85703000D01*
X107302000Y-85703000D01*
X107307097Y-85703250D01*
X107307097Y-85703250D01*
G37*
D20*
X107250000Y-86015000D03*
D13*
G36*
X106807097Y-85703250D02*
X106812145Y-85703999D01*
X106817095Y-85705239D01*
X106821900Y-85706958D01*
X106826513Y-85709140D01*
X106830890Y-85711764D01*
X106834988Y-85714803D01*
X106838770Y-85718230D01*
X106842197Y-85722012D01*
X106845236Y-85726110D01*
X106847860Y-85730487D01*
X106850042Y-85735100D01*
X106851761Y-85739905D01*
X106853001Y-85744855D01*
X106853750Y-85749903D01*
X106854000Y-85755000D01*
X106854000Y-86275000D01*
X106853750Y-86280097D01*
X106853001Y-86285145D01*
X106851761Y-86290095D01*
X106850042Y-86294900D01*
X106847860Y-86299513D01*
X106845236Y-86303890D01*
X106842197Y-86307988D01*
X106838770Y-86311770D01*
X106834988Y-86315197D01*
X106830890Y-86318236D01*
X106826513Y-86320860D01*
X106821900Y-86323042D01*
X106817095Y-86324761D01*
X106812145Y-86326001D01*
X106807097Y-86326750D01*
X106802000Y-86327000D01*
X106698000Y-86327000D01*
X106692903Y-86326750D01*
X106687855Y-86326001D01*
X106682905Y-86324761D01*
X106678100Y-86323042D01*
X106673487Y-86320860D01*
X106669110Y-86318236D01*
X106665012Y-86315197D01*
X106661230Y-86311770D01*
X106657803Y-86307988D01*
X106654764Y-86303890D01*
X106652140Y-86299513D01*
X106649958Y-86294900D01*
X106648239Y-86290095D01*
X106646999Y-86285145D01*
X106646250Y-86280097D01*
X106646000Y-86275000D01*
X106646000Y-85755000D01*
X106646250Y-85749903D01*
X106646999Y-85744855D01*
X106648239Y-85739905D01*
X106649958Y-85735100D01*
X106652140Y-85730487D01*
X106654764Y-85726110D01*
X106657803Y-85722012D01*
X106661230Y-85718230D01*
X106665012Y-85714803D01*
X106669110Y-85711764D01*
X106673487Y-85709140D01*
X106678100Y-85706958D01*
X106682905Y-85705239D01*
X106687855Y-85703999D01*
X106692903Y-85703250D01*
X106698000Y-85703000D01*
X106802000Y-85703000D01*
X106807097Y-85703250D01*
X106807097Y-85703250D01*
G37*
D20*
X106750000Y-86015000D03*
D13*
G36*
X106307097Y-85703250D02*
X106312145Y-85703999D01*
X106317095Y-85705239D01*
X106321900Y-85706958D01*
X106326513Y-85709140D01*
X106330890Y-85711764D01*
X106334988Y-85714803D01*
X106338770Y-85718230D01*
X106342197Y-85722012D01*
X106345236Y-85726110D01*
X106347860Y-85730487D01*
X106350042Y-85735100D01*
X106351761Y-85739905D01*
X106353001Y-85744855D01*
X106353750Y-85749903D01*
X106354000Y-85755000D01*
X106354000Y-86275000D01*
X106353750Y-86280097D01*
X106353001Y-86285145D01*
X106351761Y-86290095D01*
X106350042Y-86294900D01*
X106347860Y-86299513D01*
X106345236Y-86303890D01*
X106342197Y-86307988D01*
X106338770Y-86311770D01*
X106334988Y-86315197D01*
X106330890Y-86318236D01*
X106326513Y-86320860D01*
X106321900Y-86323042D01*
X106317095Y-86324761D01*
X106312145Y-86326001D01*
X106307097Y-86326750D01*
X106302000Y-86327000D01*
X106198000Y-86327000D01*
X106192903Y-86326750D01*
X106187855Y-86326001D01*
X106182905Y-86324761D01*
X106178100Y-86323042D01*
X106173487Y-86320860D01*
X106169110Y-86318236D01*
X106165012Y-86315197D01*
X106161230Y-86311770D01*
X106157803Y-86307988D01*
X106154764Y-86303890D01*
X106152140Y-86299513D01*
X106149958Y-86294900D01*
X106148239Y-86290095D01*
X106146999Y-86285145D01*
X106146250Y-86280097D01*
X106146000Y-86275000D01*
X106146000Y-85755000D01*
X106146250Y-85749903D01*
X106146999Y-85744855D01*
X106148239Y-85739905D01*
X106149958Y-85735100D01*
X106152140Y-85730487D01*
X106154764Y-85726110D01*
X106157803Y-85722012D01*
X106161230Y-85718230D01*
X106165012Y-85714803D01*
X106169110Y-85711764D01*
X106173487Y-85709140D01*
X106178100Y-85706958D01*
X106182905Y-85705239D01*
X106187855Y-85703999D01*
X106192903Y-85703250D01*
X106198000Y-85703000D01*
X106302000Y-85703000D01*
X106307097Y-85703250D01*
X106307097Y-85703250D01*
G37*
D20*
X106250000Y-86015000D03*
D13*
G36*
X105807097Y-85703250D02*
X105812145Y-85703999D01*
X105817095Y-85705239D01*
X105821900Y-85706958D01*
X105826513Y-85709140D01*
X105830890Y-85711764D01*
X105834988Y-85714803D01*
X105838770Y-85718230D01*
X105842197Y-85722012D01*
X105845236Y-85726110D01*
X105847860Y-85730487D01*
X105850042Y-85735100D01*
X105851761Y-85739905D01*
X105853001Y-85744855D01*
X105853750Y-85749903D01*
X105854000Y-85755000D01*
X105854000Y-86275000D01*
X105853750Y-86280097D01*
X105853001Y-86285145D01*
X105851761Y-86290095D01*
X105850042Y-86294900D01*
X105847860Y-86299513D01*
X105845236Y-86303890D01*
X105842197Y-86307988D01*
X105838770Y-86311770D01*
X105834988Y-86315197D01*
X105830890Y-86318236D01*
X105826513Y-86320860D01*
X105821900Y-86323042D01*
X105817095Y-86324761D01*
X105812145Y-86326001D01*
X105807097Y-86326750D01*
X105802000Y-86327000D01*
X105698000Y-86327000D01*
X105692903Y-86326750D01*
X105687855Y-86326001D01*
X105682905Y-86324761D01*
X105678100Y-86323042D01*
X105673487Y-86320860D01*
X105669110Y-86318236D01*
X105665012Y-86315197D01*
X105661230Y-86311770D01*
X105657803Y-86307988D01*
X105654764Y-86303890D01*
X105652140Y-86299513D01*
X105649958Y-86294900D01*
X105648239Y-86290095D01*
X105646999Y-86285145D01*
X105646250Y-86280097D01*
X105646000Y-86275000D01*
X105646000Y-85755000D01*
X105646250Y-85749903D01*
X105646999Y-85744855D01*
X105648239Y-85739905D01*
X105649958Y-85735100D01*
X105652140Y-85730487D01*
X105654764Y-85726110D01*
X105657803Y-85722012D01*
X105661230Y-85718230D01*
X105665012Y-85714803D01*
X105669110Y-85711764D01*
X105673487Y-85709140D01*
X105678100Y-85706958D01*
X105682905Y-85705239D01*
X105687855Y-85703999D01*
X105692903Y-85703250D01*
X105698000Y-85703000D01*
X105802000Y-85703000D01*
X105807097Y-85703250D01*
X105807097Y-85703250D01*
G37*
D20*
X105750000Y-86015000D03*
D13*
G36*
X105307097Y-85703250D02*
X105312145Y-85703999D01*
X105317095Y-85705239D01*
X105321900Y-85706958D01*
X105326513Y-85709140D01*
X105330890Y-85711764D01*
X105334988Y-85714803D01*
X105338770Y-85718230D01*
X105342197Y-85722012D01*
X105345236Y-85726110D01*
X105347860Y-85730487D01*
X105350042Y-85735100D01*
X105351761Y-85739905D01*
X105353001Y-85744855D01*
X105353750Y-85749903D01*
X105354000Y-85755000D01*
X105354000Y-86275000D01*
X105353750Y-86280097D01*
X105353001Y-86285145D01*
X105351761Y-86290095D01*
X105350042Y-86294900D01*
X105347860Y-86299513D01*
X105345236Y-86303890D01*
X105342197Y-86307988D01*
X105338770Y-86311770D01*
X105334988Y-86315197D01*
X105330890Y-86318236D01*
X105326513Y-86320860D01*
X105321900Y-86323042D01*
X105317095Y-86324761D01*
X105312145Y-86326001D01*
X105307097Y-86326750D01*
X105302000Y-86327000D01*
X105198000Y-86327000D01*
X105192903Y-86326750D01*
X105187855Y-86326001D01*
X105182905Y-86324761D01*
X105178100Y-86323042D01*
X105173487Y-86320860D01*
X105169110Y-86318236D01*
X105165012Y-86315197D01*
X105161230Y-86311770D01*
X105157803Y-86307988D01*
X105154764Y-86303890D01*
X105152140Y-86299513D01*
X105149958Y-86294900D01*
X105148239Y-86290095D01*
X105146999Y-86285145D01*
X105146250Y-86280097D01*
X105146000Y-86275000D01*
X105146000Y-85755000D01*
X105146250Y-85749903D01*
X105146999Y-85744855D01*
X105148239Y-85739905D01*
X105149958Y-85735100D01*
X105152140Y-85730487D01*
X105154764Y-85726110D01*
X105157803Y-85722012D01*
X105161230Y-85718230D01*
X105165012Y-85714803D01*
X105169110Y-85711764D01*
X105173487Y-85709140D01*
X105178100Y-85706958D01*
X105182905Y-85705239D01*
X105187855Y-85703999D01*
X105192903Y-85703250D01*
X105198000Y-85703000D01*
X105302000Y-85703000D01*
X105307097Y-85703250D01*
X105307097Y-85703250D01*
G37*
D20*
X105250000Y-86015000D03*
D13*
G36*
X104807097Y-85703250D02*
X104812145Y-85703999D01*
X104817095Y-85705239D01*
X104821900Y-85706958D01*
X104826513Y-85709140D01*
X104830890Y-85711764D01*
X104834988Y-85714803D01*
X104838770Y-85718230D01*
X104842197Y-85722012D01*
X104845236Y-85726110D01*
X104847860Y-85730487D01*
X104850042Y-85735100D01*
X104851761Y-85739905D01*
X104853001Y-85744855D01*
X104853750Y-85749903D01*
X104854000Y-85755000D01*
X104854000Y-86275000D01*
X104853750Y-86280097D01*
X104853001Y-86285145D01*
X104851761Y-86290095D01*
X104850042Y-86294900D01*
X104847860Y-86299513D01*
X104845236Y-86303890D01*
X104842197Y-86307988D01*
X104838770Y-86311770D01*
X104834988Y-86315197D01*
X104830890Y-86318236D01*
X104826513Y-86320860D01*
X104821900Y-86323042D01*
X104817095Y-86324761D01*
X104812145Y-86326001D01*
X104807097Y-86326750D01*
X104802000Y-86327000D01*
X104698000Y-86327000D01*
X104692903Y-86326750D01*
X104687855Y-86326001D01*
X104682905Y-86324761D01*
X104678100Y-86323042D01*
X104673487Y-86320860D01*
X104669110Y-86318236D01*
X104665012Y-86315197D01*
X104661230Y-86311770D01*
X104657803Y-86307988D01*
X104654764Y-86303890D01*
X104652140Y-86299513D01*
X104649958Y-86294900D01*
X104648239Y-86290095D01*
X104646999Y-86285145D01*
X104646250Y-86280097D01*
X104646000Y-86275000D01*
X104646000Y-85755000D01*
X104646250Y-85749903D01*
X104646999Y-85744855D01*
X104648239Y-85739905D01*
X104649958Y-85735100D01*
X104652140Y-85730487D01*
X104654764Y-85726110D01*
X104657803Y-85722012D01*
X104661230Y-85718230D01*
X104665012Y-85714803D01*
X104669110Y-85711764D01*
X104673487Y-85709140D01*
X104678100Y-85706958D01*
X104682905Y-85705239D01*
X104687855Y-85703999D01*
X104692903Y-85703250D01*
X104698000Y-85703000D01*
X104802000Y-85703000D01*
X104807097Y-85703250D01*
X104807097Y-85703250D01*
G37*
D20*
X104750000Y-86015000D03*
D13*
G36*
X104307097Y-85703250D02*
X104312145Y-85703999D01*
X104317095Y-85705239D01*
X104321900Y-85706958D01*
X104326513Y-85709140D01*
X104330890Y-85711764D01*
X104334988Y-85714803D01*
X104338770Y-85718230D01*
X104342197Y-85722012D01*
X104345236Y-85726110D01*
X104347860Y-85730487D01*
X104350042Y-85735100D01*
X104351761Y-85739905D01*
X104353001Y-85744855D01*
X104353750Y-85749903D01*
X104354000Y-85755000D01*
X104354000Y-86275000D01*
X104353750Y-86280097D01*
X104353001Y-86285145D01*
X104351761Y-86290095D01*
X104350042Y-86294900D01*
X104347860Y-86299513D01*
X104345236Y-86303890D01*
X104342197Y-86307988D01*
X104338770Y-86311770D01*
X104334988Y-86315197D01*
X104330890Y-86318236D01*
X104326513Y-86320860D01*
X104321900Y-86323042D01*
X104317095Y-86324761D01*
X104312145Y-86326001D01*
X104307097Y-86326750D01*
X104302000Y-86327000D01*
X104198000Y-86327000D01*
X104192903Y-86326750D01*
X104187855Y-86326001D01*
X104182905Y-86324761D01*
X104178100Y-86323042D01*
X104173487Y-86320860D01*
X104169110Y-86318236D01*
X104165012Y-86315197D01*
X104161230Y-86311770D01*
X104157803Y-86307988D01*
X104154764Y-86303890D01*
X104152140Y-86299513D01*
X104149958Y-86294900D01*
X104148239Y-86290095D01*
X104146999Y-86285145D01*
X104146250Y-86280097D01*
X104146000Y-86275000D01*
X104146000Y-85755000D01*
X104146250Y-85749903D01*
X104146999Y-85744855D01*
X104148239Y-85739905D01*
X104149958Y-85735100D01*
X104152140Y-85730487D01*
X104154764Y-85726110D01*
X104157803Y-85722012D01*
X104161230Y-85718230D01*
X104165012Y-85714803D01*
X104169110Y-85711764D01*
X104173487Y-85709140D01*
X104178100Y-85706958D01*
X104182905Y-85705239D01*
X104187855Y-85703999D01*
X104192903Y-85703250D01*
X104198000Y-85703000D01*
X104302000Y-85703000D01*
X104307097Y-85703250D01*
X104307097Y-85703250D01*
G37*
D20*
X104250000Y-86015000D03*
D13*
G36*
X103880097Y-86546250D02*
X103885145Y-86546999D01*
X103890095Y-86548239D01*
X103894900Y-86549958D01*
X103899513Y-86552140D01*
X103903890Y-86554764D01*
X103907988Y-86557803D01*
X103911770Y-86561230D01*
X103915197Y-86565012D01*
X103918236Y-86569110D01*
X103920860Y-86573487D01*
X103923042Y-86578100D01*
X103924761Y-86582905D01*
X103926001Y-86587855D01*
X103926750Y-86592903D01*
X103927000Y-86598000D01*
X103927000Y-86702000D01*
X103926750Y-86707097D01*
X103926001Y-86712145D01*
X103924761Y-86717095D01*
X103923042Y-86721900D01*
X103920860Y-86726513D01*
X103918236Y-86730890D01*
X103915197Y-86734988D01*
X103911770Y-86738770D01*
X103907988Y-86742197D01*
X103903890Y-86745236D01*
X103899513Y-86747860D01*
X103894900Y-86750042D01*
X103890095Y-86751761D01*
X103885145Y-86753001D01*
X103880097Y-86753750D01*
X103875000Y-86754000D01*
X103355000Y-86754000D01*
X103349903Y-86753750D01*
X103344855Y-86753001D01*
X103339905Y-86751761D01*
X103335100Y-86750042D01*
X103330487Y-86747860D01*
X103326110Y-86745236D01*
X103322012Y-86742197D01*
X103318230Y-86738770D01*
X103314803Y-86734988D01*
X103311764Y-86730890D01*
X103309140Y-86726513D01*
X103306958Y-86721900D01*
X103305239Y-86717095D01*
X103303999Y-86712145D01*
X103303250Y-86707097D01*
X103303000Y-86702000D01*
X103303000Y-86598000D01*
X103303250Y-86592903D01*
X103303999Y-86587855D01*
X103305239Y-86582905D01*
X103306958Y-86578100D01*
X103309140Y-86573487D01*
X103311764Y-86569110D01*
X103314803Y-86565012D01*
X103318230Y-86561230D01*
X103322012Y-86557803D01*
X103326110Y-86554764D01*
X103330487Y-86552140D01*
X103335100Y-86549958D01*
X103339905Y-86548239D01*
X103344855Y-86546999D01*
X103349903Y-86546250D01*
X103355000Y-86546000D01*
X103875000Y-86546000D01*
X103880097Y-86546250D01*
X103880097Y-86546250D01*
G37*
D20*
X103615000Y-86650000D03*
D13*
G36*
X103880097Y-87046250D02*
X103885145Y-87046999D01*
X103890095Y-87048239D01*
X103894900Y-87049958D01*
X103899513Y-87052140D01*
X103903890Y-87054764D01*
X103907988Y-87057803D01*
X103911770Y-87061230D01*
X103915197Y-87065012D01*
X103918236Y-87069110D01*
X103920860Y-87073487D01*
X103923042Y-87078100D01*
X103924761Y-87082905D01*
X103926001Y-87087855D01*
X103926750Y-87092903D01*
X103927000Y-87098000D01*
X103927000Y-87202000D01*
X103926750Y-87207097D01*
X103926001Y-87212145D01*
X103924761Y-87217095D01*
X103923042Y-87221900D01*
X103920860Y-87226513D01*
X103918236Y-87230890D01*
X103915197Y-87234988D01*
X103911770Y-87238770D01*
X103907988Y-87242197D01*
X103903890Y-87245236D01*
X103899513Y-87247860D01*
X103894900Y-87250042D01*
X103890095Y-87251761D01*
X103885145Y-87253001D01*
X103880097Y-87253750D01*
X103875000Y-87254000D01*
X103355000Y-87254000D01*
X103349903Y-87253750D01*
X103344855Y-87253001D01*
X103339905Y-87251761D01*
X103335100Y-87250042D01*
X103330487Y-87247860D01*
X103326110Y-87245236D01*
X103322012Y-87242197D01*
X103318230Y-87238770D01*
X103314803Y-87234988D01*
X103311764Y-87230890D01*
X103309140Y-87226513D01*
X103306958Y-87221900D01*
X103305239Y-87217095D01*
X103303999Y-87212145D01*
X103303250Y-87207097D01*
X103303000Y-87202000D01*
X103303000Y-87098000D01*
X103303250Y-87092903D01*
X103303999Y-87087855D01*
X103305239Y-87082905D01*
X103306958Y-87078100D01*
X103309140Y-87073487D01*
X103311764Y-87069110D01*
X103314803Y-87065012D01*
X103318230Y-87061230D01*
X103322012Y-87057803D01*
X103326110Y-87054764D01*
X103330487Y-87052140D01*
X103335100Y-87049958D01*
X103339905Y-87048239D01*
X103344855Y-87046999D01*
X103349903Y-87046250D01*
X103355000Y-87046000D01*
X103875000Y-87046000D01*
X103880097Y-87046250D01*
X103880097Y-87046250D01*
G37*
D20*
X103615000Y-87150000D03*
D13*
G36*
X103880097Y-87546250D02*
X103885145Y-87546999D01*
X103890095Y-87548239D01*
X103894900Y-87549958D01*
X103899513Y-87552140D01*
X103903890Y-87554764D01*
X103907988Y-87557803D01*
X103911770Y-87561230D01*
X103915197Y-87565012D01*
X103918236Y-87569110D01*
X103920860Y-87573487D01*
X103923042Y-87578100D01*
X103924761Y-87582905D01*
X103926001Y-87587855D01*
X103926750Y-87592903D01*
X103927000Y-87598000D01*
X103927000Y-87702000D01*
X103926750Y-87707097D01*
X103926001Y-87712145D01*
X103924761Y-87717095D01*
X103923042Y-87721900D01*
X103920860Y-87726513D01*
X103918236Y-87730890D01*
X103915197Y-87734988D01*
X103911770Y-87738770D01*
X103907988Y-87742197D01*
X103903890Y-87745236D01*
X103899513Y-87747860D01*
X103894900Y-87750042D01*
X103890095Y-87751761D01*
X103885145Y-87753001D01*
X103880097Y-87753750D01*
X103875000Y-87754000D01*
X103355000Y-87754000D01*
X103349903Y-87753750D01*
X103344855Y-87753001D01*
X103339905Y-87751761D01*
X103335100Y-87750042D01*
X103330487Y-87747860D01*
X103326110Y-87745236D01*
X103322012Y-87742197D01*
X103318230Y-87738770D01*
X103314803Y-87734988D01*
X103311764Y-87730890D01*
X103309140Y-87726513D01*
X103306958Y-87721900D01*
X103305239Y-87717095D01*
X103303999Y-87712145D01*
X103303250Y-87707097D01*
X103303000Y-87702000D01*
X103303000Y-87598000D01*
X103303250Y-87592903D01*
X103303999Y-87587855D01*
X103305239Y-87582905D01*
X103306958Y-87578100D01*
X103309140Y-87573487D01*
X103311764Y-87569110D01*
X103314803Y-87565012D01*
X103318230Y-87561230D01*
X103322012Y-87557803D01*
X103326110Y-87554764D01*
X103330487Y-87552140D01*
X103335100Y-87549958D01*
X103339905Y-87548239D01*
X103344855Y-87546999D01*
X103349903Y-87546250D01*
X103355000Y-87546000D01*
X103875000Y-87546000D01*
X103880097Y-87546250D01*
X103880097Y-87546250D01*
G37*
D20*
X103615000Y-87650000D03*
D13*
G36*
X103880097Y-88046250D02*
X103885145Y-88046999D01*
X103890095Y-88048239D01*
X103894900Y-88049958D01*
X103899513Y-88052140D01*
X103903890Y-88054764D01*
X103907988Y-88057803D01*
X103911770Y-88061230D01*
X103915197Y-88065012D01*
X103918236Y-88069110D01*
X103920860Y-88073487D01*
X103923042Y-88078100D01*
X103924761Y-88082905D01*
X103926001Y-88087855D01*
X103926750Y-88092903D01*
X103927000Y-88098000D01*
X103927000Y-88202000D01*
X103926750Y-88207097D01*
X103926001Y-88212145D01*
X103924761Y-88217095D01*
X103923042Y-88221900D01*
X103920860Y-88226513D01*
X103918236Y-88230890D01*
X103915197Y-88234988D01*
X103911770Y-88238770D01*
X103907988Y-88242197D01*
X103903890Y-88245236D01*
X103899513Y-88247860D01*
X103894900Y-88250042D01*
X103890095Y-88251761D01*
X103885145Y-88253001D01*
X103880097Y-88253750D01*
X103875000Y-88254000D01*
X103355000Y-88254000D01*
X103349903Y-88253750D01*
X103344855Y-88253001D01*
X103339905Y-88251761D01*
X103335100Y-88250042D01*
X103330487Y-88247860D01*
X103326110Y-88245236D01*
X103322012Y-88242197D01*
X103318230Y-88238770D01*
X103314803Y-88234988D01*
X103311764Y-88230890D01*
X103309140Y-88226513D01*
X103306958Y-88221900D01*
X103305239Y-88217095D01*
X103303999Y-88212145D01*
X103303250Y-88207097D01*
X103303000Y-88202000D01*
X103303000Y-88098000D01*
X103303250Y-88092903D01*
X103303999Y-88087855D01*
X103305239Y-88082905D01*
X103306958Y-88078100D01*
X103309140Y-88073487D01*
X103311764Y-88069110D01*
X103314803Y-88065012D01*
X103318230Y-88061230D01*
X103322012Y-88057803D01*
X103326110Y-88054764D01*
X103330487Y-88052140D01*
X103335100Y-88049958D01*
X103339905Y-88048239D01*
X103344855Y-88046999D01*
X103349903Y-88046250D01*
X103355000Y-88046000D01*
X103875000Y-88046000D01*
X103880097Y-88046250D01*
X103880097Y-88046250D01*
G37*
D20*
X103615000Y-88150000D03*
D13*
G36*
X103880097Y-88546250D02*
X103885145Y-88546999D01*
X103890095Y-88548239D01*
X103894900Y-88549958D01*
X103899513Y-88552140D01*
X103903890Y-88554764D01*
X103907988Y-88557803D01*
X103911770Y-88561230D01*
X103915197Y-88565012D01*
X103918236Y-88569110D01*
X103920860Y-88573487D01*
X103923042Y-88578100D01*
X103924761Y-88582905D01*
X103926001Y-88587855D01*
X103926750Y-88592903D01*
X103927000Y-88598000D01*
X103927000Y-88702000D01*
X103926750Y-88707097D01*
X103926001Y-88712145D01*
X103924761Y-88717095D01*
X103923042Y-88721900D01*
X103920860Y-88726513D01*
X103918236Y-88730890D01*
X103915197Y-88734988D01*
X103911770Y-88738770D01*
X103907988Y-88742197D01*
X103903890Y-88745236D01*
X103899513Y-88747860D01*
X103894900Y-88750042D01*
X103890095Y-88751761D01*
X103885145Y-88753001D01*
X103880097Y-88753750D01*
X103875000Y-88754000D01*
X103355000Y-88754000D01*
X103349903Y-88753750D01*
X103344855Y-88753001D01*
X103339905Y-88751761D01*
X103335100Y-88750042D01*
X103330487Y-88747860D01*
X103326110Y-88745236D01*
X103322012Y-88742197D01*
X103318230Y-88738770D01*
X103314803Y-88734988D01*
X103311764Y-88730890D01*
X103309140Y-88726513D01*
X103306958Y-88721900D01*
X103305239Y-88717095D01*
X103303999Y-88712145D01*
X103303250Y-88707097D01*
X103303000Y-88702000D01*
X103303000Y-88598000D01*
X103303250Y-88592903D01*
X103303999Y-88587855D01*
X103305239Y-88582905D01*
X103306958Y-88578100D01*
X103309140Y-88573487D01*
X103311764Y-88569110D01*
X103314803Y-88565012D01*
X103318230Y-88561230D01*
X103322012Y-88557803D01*
X103326110Y-88554764D01*
X103330487Y-88552140D01*
X103335100Y-88549958D01*
X103339905Y-88548239D01*
X103344855Y-88546999D01*
X103349903Y-88546250D01*
X103355000Y-88546000D01*
X103875000Y-88546000D01*
X103880097Y-88546250D01*
X103880097Y-88546250D01*
G37*
D20*
X103615000Y-88650000D03*
D13*
G36*
X103880097Y-89046250D02*
X103885145Y-89046999D01*
X103890095Y-89048239D01*
X103894900Y-89049958D01*
X103899513Y-89052140D01*
X103903890Y-89054764D01*
X103907988Y-89057803D01*
X103911770Y-89061230D01*
X103915197Y-89065012D01*
X103918236Y-89069110D01*
X103920860Y-89073487D01*
X103923042Y-89078100D01*
X103924761Y-89082905D01*
X103926001Y-89087855D01*
X103926750Y-89092903D01*
X103927000Y-89098000D01*
X103927000Y-89202000D01*
X103926750Y-89207097D01*
X103926001Y-89212145D01*
X103924761Y-89217095D01*
X103923042Y-89221900D01*
X103920860Y-89226513D01*
X103918236Y-89230890D01*
X103915197Y-89234988D01*
X103911770Y-89238770D01*
X103907988Y-89242197D01*
X103903890Y-89245236D01*
X103899513Y-89247860D01*
X103894900Y-89250042D01*
X103890095Y-89251761D01*
X103885145Y-89253001D01*
X103880097Y-89253750D01*
X103875000Y-89254000D01*
X103355000Y-89254000D01*
X103349903Y-89253750D01*
X103344855Y-89253001D01*
X103339905Y-89251761D01*
X103335100Y-89250042D01*
X103330487Y-89247860D01*
X103326110Y-89245236D01*
X103322012Y-89242197D01*
X103318230Y-89238770D01*
X103314803Y-89234988D01*
X103311764Y-89230890D01*
X103309140Y-89226513D01*
X103306958Y-89221900D01*
X103305239Y-89217095D01*
X103303999Y-89212145D01*
X103303250Y-89207097D01*
X103303000Y-89202000D01*
X103303000Y-89098000D01*
X103303250Y-89092903D01*
X103303999Y-89087855D01*
X103305239Y-89082905D01*
X103306958Y-89078100D01*
X103309140Y-89073487D01*
X103311764Y-89069110D01*
X103314803Y-89065012D01*
X103318230Y-89061230D01*
X103322012Y-89057803D01*
X103326110Y-89054764D01*
X103330487Y-89052140D01*
X103335100Y-89049958D01*
X103339905Y-89048239D01*
X103344855Y-89046999D01*
X103349903Y-89046250D01*
X103355000Y-89046000D01*
X103875000Y-89046000D01*
X103880097Y-89046250D01*
X103880097Y-89046250D01*
G37*
D20*
X103615000Y-89150000D03*
D13*
G36*
X103880097Y-89546250D02*
X103885145Y-89546999D01*
X103890095Y-89548239D01*
X103894900Y-89549958D01*
X103899513Y-89552140D01*
X103903890Y-89554764D01*
X103907988Y-89557803D01*
X103911770Y-89561230D01*
X103915197Y-89565012D01*
X103918236Y-89569110D01*
X103920860Y-89573487D01*
X103923042Y-89578100D01*
X103924761Y-89582905D01*
X103926001Y-89587855D01*
X103926750Y-89592903D01*
X103927000Y-89598000D01*
X103927000Y-89702000D01*
X103926750Y-89707097D01*
X103926001Y-89712145D01*
X103924761Y-89717095D01*
X103923042Y-89721900D01*
X103920860Y-89726513D01*
X103918236Y-89730890D01*
X103915197Y-89734988D01*
X103911770Y-89738770D01*
X103907988Y-89742197D01*
X103903890Y-89745236D01*
X103899513Y-89747860D01*
X103894900Y-89750042D01*
X103890095Y-89751761D01*
X103885145Y-89753001D01*
X103880097Y-89753750D01*
X103875000Y-89754000D01*
X103355000Y-89754000D01*
X103349903Y-89753750D01*
X103344855Y-89753001D01*
X103339905Y-89751761D01*
X103335100Y-89750042D01*
X103330487Y-89747860D01*
X103326110Y-89745236D01*
X103322012Y-89742197D01*
X103318230Y-89738770D01*
X103314803Y-89734988D01*
X103311764Y-89730890D01*
X103309140Y-89726513D01*
X103306958Y-89721900D01*
X103305239Y-89717095D01*
X103303999Y-89712145D01*
X103303250Y-89707097D01*
X103303000Y-89702000D01*
X103303000Y-89598000D01*
X103303250Y-89592903D01*
X103303999Y-89587855D01*
X103305239Y-89582905D01*
X103306958Y-89578100D01*
X103309140Y-89573487D01*
X103311764Y-89569110D01*
X103314803Y-89565012D01*
X103318230Y-89561230D01*
X103322012Y-89557803D01*
X103326110Y-89554764D01*
X103330487Y-89552140D01*
X103335100Y-89549958D01*
X103339905Y-89548239D01*
X103344855Y-89546999D01*
X103349903Y-89546250D01*
X103355000Y-89546000D01*
X103875000Y-89546000D01*
X103880097Y-89546250D01*
X103880097Y-89546250D01*
G37*
D20*
X103615000Y-89650000D03*
D13*
G36*
X103880097Y-90046250D02*
X103885145Y-90046999D01*
X103890095Y-90048239D01*
X103894900Y-90049958D01*
X103899513Y-90052140D01*
X103903890Y-90054764D01*
X103907988Y-90057803D01*
X103911770Y-90061230D01*
X103915197Y-90065012D01*
X103918236Y-90069110D01*
X103920860Y-90073487D01*
X103923042Y-90078100D01*
X103924761Y-90082905D01*
X103926001Y-90087855D01*
X103926750Y-90092903D01*
X103927000Y-90098000D01*
X103927000Y-90202000D01*
X103926750Y-90207097D01*
X103926001Y-90212145D01*
X103924761Y-90217095D01*
X103923042Y-90221900D01*
X103920860Y-90226513D01*
X103918236Y-90230890D01*
X103915197Y-90234988D01*
X103911770Y-90238770D01*
X103907988Y-90242197D01*
X103903890Y-90245236D01*
X103899513Y-90247860D01*
X103894900Y-90250042D01*
X103890095Y-90251761D01*
X103885145Y-90253001D01*
X103880097Y-90253750D01*
X103875000Y-90254000D01*
X103355000Y-90254000D01*
X103349903Y-90253750D01*
X103344855Y-90253001D01*
X103339905Y-90251761D01*
X103335100Y-90250042D01*
X103330487Y-90247860D01*
X103326110Y-90245236D01*
X103322012Y-90242197D01*
X103318230Y-90238770D01*
X103314803Y-90234988D01*
X103311764Y-90230890D01*
X103309140Y-90226513D01*
X103306958Y-90221900D01*
X103305239Y-90217095D01*
X103303999Y-90212145D01*
X103303250Y-90207097D01*
X103303000Y-90202000D01*
X103303000Y-90098000D01*
X103303250Y-90092903D01*
X103303999Y-90087855D01*
X103305239Y-90082905D01*
X103306958Y-90078100D01*
X103309140Y-90073487D01*
X103311764Y-90069110D01*
X103314803Y-90065012D01*
X103318230Y-90061230D01*
X103322012Y-90057803D01*
X103326110Y-90054764D01*
X103330487Y-90052140D01*
X103335100Y-90049958D01*
X103339905Y-90048239D01*
X103344855Y-90046999D01*
X103349903Y-90046250D01*
X103355000Y-90046000D01*
X103875000Y-90046000D01*
X103880097Y-90046250D01*
X103880097Y-90046250D01*
G37*
D20*
X103615000Y-90150000D03*
D21*
X106780000Y-89180000D03*
X106780000Y-87620000D03*
X105220000Y-89180000D03*
X105220000Y-87620000D03*
D22*
X106780000Y-89180000D03*
X106780000Y-87620000D03*
X105220000Y-89180000D03*
X105220000Y-87620000D03*
G04 #@! TD*
M02*
