G04 #@! TF.GenerationSoftware,KiCad,Pcbnew,(5.0.1-3-g963ef8bb5)*
G04 #@! TF.CreationDate,2018-11-23T17:34:31+10:30*
G04 #@! TF.ProjectId,electric-greetings,656C6563747269632D6772656574696E,1.0.0*
G04 #@! TF.SameCoordinates,Original*
G04 #@! TF.FileFunction,Soldermask,Bot*
G04 #@! TF.FilePolarity,Negative*
%FSLAX46Y46*%
G04 Gerber Fmt 4.6, Leading zero omitted, Abs format (unit mm)*
G04 Created by KiCad (PCBNEW (5.0.1-3-g963ef8bb5)) date Friday, 23 November 2018 at 05:34:31 pm*
%MOMM*%
%LPD*%
G01*
G04 APERTURE LIST*
%ADD10C,0.150000*%
%ADD11C,0.230000*%
%ADD12C,0.010000*%
G04 APERTURE END LIST*
D10*
G36*
X99174500Y-98511500D02*
X104889500Y-98511500D01*
X104889500Y-100670500D01*
X99174500Y-100670500D01*
X99174500Y-98511500D01*
G37*
X99174500Y-98511500D02*
X104889500Y-98511500D01*
X104889500Y-100670500D01*
X99174500Y-100670500D01*
X99174500Y-98511500D01*
G36*
X107175500Y-98511500D02*
X112890500Y-98511500D01*
X112890500Y-100670500D01*
X107175500Y-100670500D01*
X107175500Y-98511500D01*
G37*
X107175500Y-98511500D02*
X112890500Y-98511500D01*
X112890500Y-100670500D01*
X107175500Y-100670500D01*
X107175500Y-98511500D01*
D11*
X108187857Y-96682642D02*
X108330714Y-96754071D01*
X108616428Y-96754071D01*
X108759285Y-96682642D01*
X108830714Y-96539785D01*
X108830714Y-95968357D01*
X108759285Y-95825500D01*
X108616428Y-95754071D01*
X108330714Y-95754071D01*
X108187857Y-95825500D01*
X108116428Y-95968357D01*
X108116428Y-96111214D01*
X108830714Y-96254071D01*
X106830714Y-95754071D02*
X106830714Y-96754071D01*
X107473571Y-95754071D02*
X107473571Y-96539785D01*
X107402142Y-96682642D01*
X107259285Y-96754071D01*
X107045000Y-96754071D01*
X106902142Y-96682642D01*
X106830714Y-96611214D01*
X106116428Y-96754071D02*
X106116428Y-95754071D01*
X106116428Y-95254071D02*
X106187857Y-95325500D01*
X106116428Y-95396928D01*
X106045000Y-95325500D01*
X106116428Y-95254071D01*
X106116428Y-95396928D01*
X105402142Y-96611214D02*
X105330714Y-96682642D01*
X105402142Y-96754071D01*
X105473571Y-96682642D01*
X105402142Y-96611214D01*
X105402142Y-96754071D01*
X104687857Y-96754071D02*
X104687857Y-95754071D01*
X104687857Y-95254071D02*
X104759285Y-95325500D01*
X104687857Y-95396928D01*
X104616428Y-95325500D01*
X104687857Y-95254071D01*
X104687857Y-95396928D01*
X103759285Y-96754071D02*
X103902142Y-96682642D01*
X103973571Y-96611214D01*
X104045000Y-96468357D01*
X104045000Y-96039785D01*
X103973571Y-95896928D01*
X103902142Y-95825500D01*
X103759285Y-95754071D01*
X103545000Y-95754071D01*
X103402142Y-95825500D01*
X103330714Y-95896928D01*
X103259285Y-96039785D01*
X103259285Y-96468357D01*
X103330714Y-96611214D01*
X103402142Y-96682642D01*
X103545000Y-96754071D01*
X103759285Y-96754071D01*
D12*
G04 #@! TO.C,LOGO1*
G36*
X104512988Y-84539032D02*
X104446567Y-84546473D01*
X104413451Y-84551891D01*
X104355831Y-84564325D01*
X104297855Y-84580698D01*
X104240672Y-84600628D01*
X104185431Y-84623733D01*
X104157162Y-84637221D01*
X104150941Y-84640474D01*
X104141011Y-84645862D01*
X104127588Y-84653262D01*
X104110889Y-84662550D01*
X104091130Y-84673602D01*
X104068526Y-84686296D01*
X104043296Y-84700507D01*
X104015654Y-84716112D01*
X103985818Y-84732988D01*
X103954003Y-84751010D01*
X103920427Y-84770055D01*
X103885305Y-84790000D01*
X103848853Y-84810721D01*
X103811289Y-84832094D01*
X103772829Y-84853997D01*
X103733688Y-84876304D01*
X103694083Y-84898894D01*
X103654232Y-84921641D01*
X103614349Y-84944424D01*
X103574651Y-84967117D01*
X103535355Y-84989598D01*
X103496677Y-85011742D01*
X103458834Y-85033427D01*
X103422041Y-85054529D01*
X103386515Y-85074924D01*
X103352473Y-85094489D01*
X103320131Y-85113099D01*
X103289705Y-85130632D01*
X103261411Y-85146964D01*
X103235467Y-85161972D01*
X103212088Y-85175531D01*
X103191490Y-85187518D01*
X103173890Y-85197810D01*
X103159505Y-85206283D01*
X103148551Y-85212814D01*
X103141243Y-85217278D01*
X103138874Y-85218797D01*
X103085055Y-85257312D01*
X103034100Y-85299286D01*
X102986212Y-85344515D01*
X102941595Y-85392796D01*
X102900452Y-85443925D01*
X102866586Y-85492167D01*
X102858642Y-85504168D01*
X102851251Y-85515146D01*
X102844886Y-85524408D01*
X102840026Y-85531264D01*
X102837144Y-85535020D01*
X102837025Y-85535153D01*
X102833650Y-85539386D01*
X102832243Y-85542227D01*
X102832243Y-85542229D01*
X102831245Y-85544747D01*
X102828461Y-85550677D01*
X102824213Y-85559365D01*
X102818820Y-85570157D01*
X102812602Y-85582402D01*
X102811831Y-85583909D01*
X102782750Y-85645292D01*
X102758162Y-85707255D01*
X102737995Y-85770065D01*
X102722176Y-85833989D01*
X102710632Y-85899292D01*
X102703291Y-85966243D01*
X102701845Y-85987581D01*
X102701603Y-85994098D01*
X102701372Y-86005050D01*
X102701151Y-86020293D01*
X102700941Y-86039686D01*
X102700743Y-86063087D01*
X102700558Y-86090352D01*
X102700385Y-86121341D01*
X102700226Y-86155910D01*
X102700081Y-86193917D01*
X102699951Y-86235221D01*
X102699836Y-86279678D01*
X102699737Y-86327146D01*
X102699654Y-86377484D01*
X102699589Y-86430548D01*
X102699540Y-86486197D01*
X102699510Y-86544288D01*
X102699501Y-86581392D01*
X102699414Y-87136302D01*
X102132580Y-87462383D01*
X102084977Y-87489771D01*
X102038187Y-87516697D01*
X101992382Y-87543062D01*
X101947732Y-87568769D01*
X101904408Y-87593719D01*
X101862578Y-87617813D01*
X101822415Y-87640954D01*
X101784089Y-87663043D01*
X101747770Y-87683981D01*
X101713628Y-87703672D01*
X101681834Y-87722015D01*
X101652558Y-87738914D01*
X101625971Y-87754269D01*
X101602243Y-87767982D01*
X101581545Y-87779955D01*
X101564047Y-87790090D01*
X101549919Y-87798289D01*
X101539332Y-87804452D01*
X101532457Y-87808483D01*
X101530453Y-87809674D01*
X101474213Y-87846115D01*
X101420853Y-87886073D01*
X101370500Y-87929408D01*
X101323283Y-87975978D01*
X101279330Y-88025644D01*
X101238767Y-88078266D01*
X101201724Y-88133702D01*
X101168329Y-88191813D01*
X101151241Y-88225527D01*
X101124061Y-88286743D01*
X101101298Y-88348864D01*
X101082893Y-88412111D01*
X101068789Y-88476703D01*
X101058929Y-88542859D01*
X101054340Y-88592798D01*
X101054094Y-88598743D01*
X101053858Y-88609150D01*
X101053632Y-88623905D01*
X101053419Y-88642893D01*
X101053217Y-88666001D01*
X101053027Y-88693114D01*
X101052851Y-88724117D01*
X101052688Y-88758896D01*
X101052538Y-88797337D01*
X101052403Y-88839326D01*
X101052282Y-88884747D01*
X101052176Y-88933488D01*
X101052086Y-88985432D01*
X101052012Y-89040467D01*
X101051955Y-89098478D01*
X101051914Y-89159350D01*
X101051895Y-89206059D01*
X101051880Y-89267741D01*
X101051870Y-89325018D01*
X101051869Y-89378061D01*
X101051876Y-89427040D01*
X101051893Y-89472128D01*
X101051920Y-89513495D01*
X101051959Y-89551313D01*
X101052010Y-89585752D01*
X101052074Y-89616985D01*
X101052153Y-89645181D01*
X101052247Y-89670513D01*
X101052357Y-89693151D01*
X101052485Y-89713267D01*
X101052630Y-89731032D01*
X101052795Y-89746616D01*
X101052980Y-89760192D01*
X101053186Y-89771931D01*
X101053413Y-89782003D01*
X101053664Y-89790580D01*
X101053938Y-89797832D01*
X101054237Y-89803932D01*
X101054562Y-89809051D01*
X101054914Y-89813358D01*
X101055293Y-89817027D01*
X101055294Y-89817032D01*
X101065264Y-89883854D01*
X101079561Y-89949368D01*
X101098138Y-90013414D01*
X101120948Y-90075833D01*
X101147944Y-90136467D01*
X101151782Y-90144257D01*
X101183670Y-90203205D01*
X101219248Y-90259536D01*
X101258386Y-90313102D01*
X101300953Y-90363756D01*
X101346820Y-90411349D01*
X101395857Y-90455734D01*
X101447933Y-90496762D01*
X101483297Y-90521524D01*
X101488505Y-90524817D01*
X101497534Y-90530301D01*
X101510236Y-90537891D01*
X101526464Y-90547500D01*
X101546068Y-90559042D01*
X101568902Y-90572432D01*
X101594816Y-90587584D01*
X101623663Y-90604410D01*
X101655294Y-90622826D01*
X101689563Y-90642744D01*
X101726319Y-90664080D01*
X101765416Y-90686746D01*
X101806705Y-90710658D01*
X101850038Y-90735728D01*
X101895267Y-90761871D01*
X101942244Y-90789000D01*
X101990820Y-90817030D01*
X102040848Y-90845875D01*
X102092180Y-90875448D01*
X102109716Y-90885546D01*
X102699523Y-91225124D01*
X102699556Y-91852290D01*
X102699562Y-91918321D01*
X102699574Y-91979946D01*
X102699593Y-92037333D01*
X102699622Y-92090652D01*
X102699663Y-92140074D01*
X102699717Y-92185767D01*
X102699786Y-92227901D01*
X102699872Y-92266646D01*
X102699978Y-92302172D01*
X102700104Y-92334648D01*
X102700253Y-92364244D01*
X102700427Y-92391130D01*
X102700628Y-92415475D01*
X102700856Y-92437448D01*
X102701116Y-92457220D01*
X102701407Y-92474960D01*
X102701733Y-92490838D01*
X102702094Y-92505024D01*
X102702493Y-92517686D01*
X102702933Y-92528995D01*
X102703413Y-92539120D01*
X102703938Y-92548232D01*
X102704507Y-92556499D01*
X102705124Y-92564091D01*
X102705791Y-92571178D01*
X102706508Y-92577930D01*
X102707278Y-92584515D01*
X102707727Y-92588149D01*
X102718293Y-92654299D01*
X102733138Y-92719148D01*
X102752141Y-92782507D01*
X102775185Y-92844190D01*
X102802151Y-92904009D01*
X102832918Y-92961776D01*
X102867369Y-93017304D01*
X102905384Y-93070405D01*
X102946845Y-93120893D01*
X102991632Y-93168578D01*
X103039627Y-93213275D01*
X103090710Y-93254795D01*
X103144762Y-93292951D01*
X103162025Y-93304018D01*
X103166803Y-93306896D01*
X103175294Y-93311880D01*
X103187267Y-93318836D01*
X103202491Y-93327634D01*
X103220735Y-93338143D01*
X103241768Y-93350230D01*
X103265358Y-93363764D01*
X103291276Y-93378615D01*
X103319290Y-93394649D01*
X103349168Y-93411736D01*
X103380681Y-93429744D01*
X103413597Y-93448542D01*
X103447685Y-93467998D01*
X103482714Y-93487980D01*
X103518454Y-93508358D01*
X103554672Y-93528999D01*
X103591139Y-93549771D01*
X103627624Y-93570545D01*
X103663894Y-93591187D01*
X103699720Y-93611566D01*
X103734871Y-93631552D01*
X103769115Y-93651011D01*
X103802221Y-93669814D01*
X103833959Y-93687828D01*
X103864097Y-93704921D01*
X103892405Y-93720963D01*
X103918652Y-93735821D01*
X103942606Y-93749364D01*
X103964037Y-93761461D01*
X103982714Y-93771981D01*
X103998405Y-93780790D01*
X104010881Y-93787759D01*
X104019909Y-93792755D01*
X104025259Y-93795647D01*
X104026057Y-93796058D01*
X104082969Y-93822132D01*
X104142578Y-93844805D01*
X104204354Y-93863918D01*
X104267763Y-93879312D01*
X104332275Y-93890830D01*
X104353955Y-93893783D01*
X104362989Y-93894638D01*
X104375750Y-93895456D01*
X104391474Y-93896219D01*
X104409396Y-93896911D01*
X104428753Y-93897513D01*
X104448779Y-93898011D01*
X104468711Y-93898385D01*
X104487783Y-93898620D01*
X104505231Y-93898698D01*
X104520292Y-93898602D01*
X104532199Y-93898315D01*
X104539306Y-93897906D01*
X104600926Y-93890917D01*
X104659818Y-93881013D01*
X104716813Y-93867963D01*
X104772741Y-93851537D01*
X104828433Y-93831504D01*
X104884719Y-93807634D01*
X104914017Y-93793862D01*
X104919462Y-93791039D01*
X104928720Y-93786010D01*
X104941640Y-93778862D01*
X104958073Y-93769679D01*
X104977869Y-93758547D01*
X105000878Y-93745551D01*
X105026950Y-93730776D01*
X105055935Y-93714309D01*
X105087685Y-93696234D01*
X105122048Y-93676637D01*
X105158876Y-93655602D01*
X105198018Y-93633217D01*
X105239325Y-93609565D01*
X105282646Y-93584732D01*
X105327833Y-93558804D01*
X105374735Y-93531866D01*
X105423202Y-93504004D01*
X105473085Y-93475302D01*
X105495684Y-93462291D01*
X106040163Y-93148751D01*
X106583190Y-93461406D01*
X106629748Y-93488203D01*
X106675484Y-93514510D01*
X106720226Y-93540227D01*
X106763799Y-93565256D01*
X106806031Y-93589497D01*
X106846746Y-93612851D01*
X106885772Y-93635218D01*
X106922934Y-93656500D01*
X106958060Y-93676596D01*
X106990976Y-93695409D01*
X107021507Y-93712837D01*
X107049480Y-93728784D01*
X107074722Y-93743148D01*
X107097059Y-93755831D01*
X107116318Y-93766734D01*
X107132323Y-93775757D01*
X107144903Y-93782801D01*
X107153883Y-93787767D01*
X107159090Y-93790555D01*
X107159397Y-93790711D01*
X107216227Y-93817113D01*
X107273785Y-93839569D01*
X107332616Y-93858241D01*
X107393268Y-93873288D01*
X107456290Y-93884872D01*
X107499207Y-93890671D01*
X107510458Y-93891637D01*
X107525922Y-93892417D01*
X107545240Y-93893000D01*
X107568053Y-93893376D01*
X107593999Y-93893536D01*
X107603324Y-93893539D01*
X107631861Y-93893376D01*
X107656746Y-93892896D01*
X107678898Y-93892022D01*
X107699235Y-93890678D01*
X107718677Y-93888788D01*
X107738141Y-93886274D01*
X107758548Y-93883060D01*
X107780814Y-93879069D01*
X107784099Y-93878450D01*
X107815021Y-93871905D01*
X107847733Y-93863724D01*
X107881288Y-93854217D01*
X107914744Y-93843689D01*
X107947153Y-93832451D01*
X107977571Y-93820809D01*
X108005054Y-93809071D01*
X108022363Y-93800799D01*
X108027639Y-93798000D01*
X108036607Y-93793074D01*
X108049039Y-93786152D01*
X108064707Y-93777365D01*
X108083385Y-93766842D01*
X108104846Y-93754713D01*
X108128862Y-93741108D01*
X108155205Y-93726158D01*
X108183650Y-93709993D01*
X108213968Y-93692742D01*
X108245932Y-93674536D01*
X108279315Y-93655504D01*
X108313889Y-93635778D01*
X108349429Y-93615486D01*
X108385705Y-93594759D01*
X108422492Y-93573727D01*
X108459561Y-93552521D01*
X108496686Y-93531269D01*
X108533639Y-93510103D01*
X108570193Y-93489152D01*
X108606122Y-93468546D01*
X108641196Y-93448416D01*
X108675191Y-93428891D01*
X108707877Y-93410102D01*
X108739028Y-93392178D01*
X108768417Y-93375250D01*
X108795816Y-93359448D01*
X108820999Y-93344902D01*
X108843737Y-93331741D01*
X108863804Y-93320097D01*
X108880973Y-93310098D01*
X108895016Y-93301876D01*
X108905706Y-93295560D01*
X108912815Y-93291280D01*
X108915658Y-93289487D01*
X108967733Y-93251918D01*
X109017663Y-93210470D01*
X109065152Y-93165450D01*
X109109905Y-93117164D01*
X109151628Y-93065920D01*
X109190026Y-93012024D01*
X109205579Y-92987889D01*
X109215330Y-92971577D01*
X109226169Y-92952257D01*
X109237586Y-92930936D01*
X109249070Y-92908623D01*
X109260110Y-92886325D01*
X109270196Y-92865051D01*
X109278818Y-92845808D01*
X109284595Y-92831852D01*
X109302649Y-92782637D01*
X109317705Y-92734426D01*
X109330000Y-92686176D01*
X109339769Y-92636844D01*
X109347248Y-92585389D01*
X109352632Y-92531273D01*
X109352996Y-92526257D01*
X109353334Y-92520560D01*
X109353647Y-92514017D01*
X109353937Y-92506461D01*
X109354205Y-92497723D01*
X109354451Y-92487638D01*
X109354675Y-92476038D01*
X109354880Y-92462757D01*
X109355066Y-92447626D01*
X109355234Y-92430481D01*
X109355384Y-92411152D01*
X109355518Y-92389474D01*
X109355636Y-92365280D01*
X109355739Y-92338402D01*
X109355829Y-92308674D01*
X109355906Y-92275928D01*
X109355970Y-92239997D01*
X109356024Y-92200715D01*
X109356067Y-92157915D01*
X109356101Y-92111429D01*
X109356126Y-92061091D01*
X109356144Y-92006733D01*
X109356155Y-91948189D01*
X109356160Y-91885292D01*
X109356161Y-91863093D01*
X109356168Y-91239203D01*
X109957840Y-90892887D01*
X110006704Y-90864753D01*
X110054662Y-90837121D01*
X110101555Y-90810086D01*
X110147223Y-90783739D01*
X110191505Y-90758174D01*
X110234243Y-90733483D01*
X110275275Y-90709759D01*
X110314443Y-90687094D01*
X110351586Y-90665583D01*
X110386544Y-90645316D01*
X110419157Y-90626388D01*
X110449266Y-90608890D01*
X110476711Y-90592916D01*
X110501330Y-90578559D01*
X110522966Y-90565911D01*
X110541457Y-90555064D01*
X110556645Y-90546113D01*
X110568368Y-90539149D01*
X110576466Y-90534265D01*
X110580781Y-90531554D01*
X110581097Y-90531337D01*
X110592787Y-90523107D01*
X110606029Y-90513817D01*
X110618699Y-90504957D01*
X110624044Y-90501230D01*
X110675874Y-90462420D01*
X110725019Y-90420106D01*
X110771248Y-90374569D01*
X110814329Y-90326085D01*
X110854031Y-90274934D01*
X110890123Y-90221394D01*
X110922374Y-90165742D01*
X110935427Y-90139114D01*
X110346982Y-90139114D01*
X110346184Y-90140995D01*
X110342731Y-90143935D01*
X110340137Y-90145507D01*
X110333811Y-90149224D01*
X110323958Y-90154969D01*
X110310784Y-90162624D01*
X110294495Y-90172068D01*
X110275296Y-90183186D01*
X110253392Y-90195857D01*
X110228989Y-90209964D01*
X110202293Y-90225388D01*
X110173508Y-90242011D01*
X110142840Y-90259715D01*
X110110495Y-90278381D01*
X110076677Y-90297891D01*
X110041594Y-90318127D01*
X110005449Y-90338969D01*
X109968448Y-90360301D01*
X109930798Y-90382003D01*
X109892702Y-90403957D01*
X109854368Y-90426045D01*
X109815999Y-90448148D01*
X109777802Y-90470148D01*
X109739982Y-90491927D01*
X109702745Y-90513367D01*
X109666295Y-90534348D01*
X109630839Y-90554753D01*
X109596581Y-90574463D01*
X109563728Y-90593360D01*
X109532484Y-90611326D01*
X109503056Y-90628242D01*
X109475648Y-90643989D01*
X109450465Y-90658451D01*
X109427715Y-90671507D01*
X109407601Y-90683040D01*
X109390330Y-90692931D01*
X109376106Y-90701063D01*
X109365135Y-90707316D01*
X109357624Y-90711573D01*
X109353776Y-90713714D01*
X109353293Y-90713957D01*
X109353141Y-90711708D01*
X109352992Y-90705077D01*
X109352847Y-90694255D01*
X109352708Y-90679438D01*
X109352573Y-90660818D01*
X109352445Y-90638589D01*
X109352323Y-90612944D01*
X109352208Y-90584077D01*
X109352101Y-90552182D01*
X109352002Y-90517451D01*
X109351912Y-90480078D01*
X109351831Y-90440258D01*
X109351761Y-90398182D01*
X109351701Y-90354045D01*
X109351652Y-90308041D01*
X109351615Y-90260362D01*
X109351590Y-90211202D01*
X109351578Y-90160755D01*
X109351577Y-90140580D01*
X109351578Y-90079894D01*
X109351583Y-90023620D01*
X109351594Y-89971593D01*
X109351610Y-89923650D01*
X109351632Y-89879625D01*
X109351663Y-89839353D01*
X109351704Y-89802671D01*
X109351754Y-89769413D01*
X109351815Y-89739415D01*
X109351889Y-89712513D01*
X109351977Y-89688541D01*
X109352079Y-89667336D01*
X109352196Y-89648733D01*
X109352330Y-89632567D01*
X109352482Y-89618674D01*
X109352653Y-89606888D01*
X109352843Y-89597046D01*
X109353055Y-89588984D01*
X109353289Y-89582535D01*
X109353546Y-89577536D01*
X109353827Y-89573823D01*
X109354133Y-89571230D01*
X109354466Y-89569593D01*
X109354826Y-89568748D01*
X109355214Y-89568530D01*
X109355323Y-89568556D01*
X109357568Y-89569792D01*
X109363568Y-89573192D01*
X109373119Y-89578637D01*
X109386013Y-89586009D01*
X109402046Y-89595190D01*
X109421012Y-89606061D01*
X109442705Y-89618504D01*
X109466921Y-89632402D01*
X109493452Y-89647635D01*
X109522094Y-89664085D01*
X109552641Y-89681634D01*
X109584887Y-89700164D01*
X109618627Y-89719557D01*
X109653656Y-89739694D01*
X109689767Y-89760456D01*
X109726755Y-89781726D01*
X109764415Y-89803386D01*
X109802540Y-89825316D01*
X109840926Y-89847399D01*
X109879366Y-89869517D01*
X109917655Y-89891550D01*
X109955588Y-89913382D01*
X109992959Y-89934893D01*
X110029562Y-89955965D01*
X110065192Y-89976481D01*
X110099642Y-89996321D01*
X110132709Y-90015367D01*
X110164185Y-90033501D01*
X110193865Y-90050606D01*
X110221545Y-90066561D01*
X110247017Y-90081250D01*
X110270077Y-90094554D01*
X110290519Y-90106355D01*
X110308137Y-90116534D01*
X110322725Y-90124973D01*
X110334079Y-90131553D01*
X110341993Y-90136158D01*
X110346260Y-90138667D01*
X110346982Y-90139114D01*
X110935427Y-90139114D01*
X110950553Y-90108259D01*
X110950829Y-90107641D01*
X110973009Y-90054090D01*
X110991772Y-90000314D01*
X111007295Y-89945612D01*
X111019749Y-89889281D01*
X111029311Y-89830620D01*
X111036154Y-89768928D01*
X111036798Y-89761322D01*
X111037230Y-89753651D01*
X111037638Y-89741667D01*
X111038021Y-89725627D01*
X111038379Y-89705784D01*
X111038713Y-89682396D01*
X111039021Y-89655717D01*
X111039305Y-89626004D01*
X111039563Y-89593512D01*
X111039797Y-89558497D01*
X111040006Y-89521214D01*
X111040190Y-89481919D01*
X111040348Y-89440869D01*
X111040483Y-89398318D01*
X111040592Y-89354522D01*
X111040677Y-89309736D01*
X111040736Y-89264218D01*
X111040771Y-89218221D01*
X111040780Y-89173775D01*
X110582676Y-89173775D01*
X110582676Y-89174495D01*
X110582674Y-89235602D01*
X110582666Y-89292293D01*
X110582653Y-89344729D01*
X110582632Y-89393071D01*
X110582603Y-89437479D01*
X110582566Y-89478114D01*
X110582518Y-89515136D01*
X110582460Y-89548707D01*
X110582389Y-89578987D01*
X110582306Y-89606137D01*
X110582210Y-89630318D01*
X110582098Y-89651689D01*
X110581971Y-89670413D01*
X110581828Y-89686649D01*
X110581667Y-89700559D01*
X110581487Y-89712303D01*
X110581288Y-89722041D01*
X110581069Y-89729935D01*
X110580829Y-89736146D01*
X110580566Y-89740833D01*
X110580280Y-89744158D01*
X110579970Y-89746281D01*
X110579635Y-89747364D01*
X110579295Y-89747575D01*
X110577148Y-89746374D01*
X110571136Y-89742946D01*
X110561357Y-89737350D01*
X110547911Y-89729641D01*
X110530898Y-89719878D01*
X110510418Y-89708119D01*
X110486570Y-89694420D01*
X110459455Y-89678839D01*
X110429171Y-89661433D01*
X110395820Y-89642260D01*
X110359500Y-89621377D01*
X110320311Y-89598842D01*
X110278353Y-89574711D01*
X110233725Y-89549042D01*
X110186529Y-89521893D01*
X110136862Y-89493321D01*
X110084826Y-89463384D01*
X110030519Y-89432138D01*
X109974042Y-89399642D01*
X109915494Y-89365951D01*
X109854975Y-89331125D01*
X109809477Y-89304941D01*
X108898521Y-89304941D01*
X108897910Y-90925378D01*
X108897299Y-92545816D01*
X108890927Y-92574419D01*
X108877651Y-92623926D01*
X108860400Y-92671254D01*
X108839253Y-92716280D01*
X108814291Y-92758879D01*
X108785594Y-92798925D01*
X108753242Y-92836295D01*
X108717315Y-92870863D01*
X108682171Y-92899342D01*
X108677259Y-92902658D01*
X108668717Y-92908020D01*
X108656896Y-92915219D01*
X108642147Y-92924049D01*
X108624825Y-92934303D01*
X108605281Y-92945772D01*
X108583866Y-92958249D01*
X108560935Y-92971527D01*
X108536838Y-92985398D01*
X108511929Y-92999654D01*
X108509487Y-93001047D01*
X108487178Y-93013770D01*
X108461344Y-93028501D01*
X108432435Y-93044983D01*
X108400901Y-93062961D01*
X108367193Y-93082176D01*
X108331763Y-93102373D01*
X108295060Y-93123293D01*
X108257535Y-93144681D01*
X108219639Y-93166279D01*
X108181823Y-93187831D01*
X108144537Y-93209079D01*
X108108232Y-93229767D01*
X108090730Y-93239740D01*
X107826433Y-93390336D01*
X107826047Y-92882171D01*
X107372207Y-92882171D01*
X107372207Y-92884482D01*
X107372203Y-92942942D01*
X107372188Y-92996977D01*
X107372163Y-93046740D01*
X107372127Y-93092384D01*
X107372078Y-93134060D01*
X107372016Y-93171922D01*
X107371940Y-93206120D01*
X107371848Y-93236808D01*
X107371741Y-93264138D01*
X107371617Y-93288262D01*
X107371476Y-93309333D01*
X107371316Y-93327502D01*
X107371137Y-93342923D01*
X107370938Y-93355747D01*
X107370717Y-93366126D01*
X107370475Y-93374214D01*
X107370210Y-93380162D01*
X107369921Y-93384122D01*
X107369608Y-93386248D01*
X107369347Y-93386729D01*
X107366268Y-93385675D01*
X107360144Y-93382844D01*
X107351926Y-93378696D01*
X107344443Y-93374716D01*
X107339223Y-93371814D01*
X107330449Y-93366858D01*
X107318342Y-93359973D01*
X107303124Y-93351289D01*
X107285016Y-93340932D01*
X107264240Y-93329030D01*
X107241017Y-93315712D01*
X107215567Y-93301103D01*
X107188114Y-93285333D01*
X107158877Y-93268528D01*
X107128078Y-93250817D01*
X107095939Y-93232326D01*
X107062680Y-93213184D01*
X107028524Y-93193518D01*
X106993691Y-93173456D01*
X106958404Y-93153125D01*
X106922882Y-93132652D01*
X106887348Y-93112167D01*
X106852023Y-93091795D01*
X106817128Y-93071665D01*
X106782884Y-93051904D01*
X106749514Y-93032640D01*
X106717238Y-93014001D01*
X106686277Y-92996113D01*
X106656853Y-92979106D01*
X106629188Y-92963106D01*
X106603502Y-92948240D01*
X106580017Y-92934637D01*
X106558954Y-92922425D01*
X106540535Y-92911729D01*
X106524981Y-92902680D01*
X106512513Y-92895403D01*
X106503353Y-92890027D01*
X106497722Y-92886679D01*
X106495841Y-92885488D01*
X106497784Y-92884232D01*
X106503478Y-92880823D01*
X106512705Y-92875389D01*
X106525247Y-92868054D01*
X106540884Y-92858944D01*
X106559399Y-92848185D01*
X106580573Y-92835903D01*
X106604188Y-92822223D01*
X106630025Y-92807272D01*
X106657866Y-92791174D01*
X106687493Y-92774056D01*
X106718687Y-92756044D01*
X106751230Y-92737263D01*
X106784904Y-92717838D01*
X106819489Y-92697896D01*
X106854768Y-92677563D01*
X106890523Y-92656964D01*
X106926534Y-92636224D01*
X106962584Y-92615470D01*
X106998454Y-92594828D01*
X107033926Y-92574423D01*
X107068781Y-92554380D01*
X107102801Y-92534826D01*
X107135767Y-92515887D01*
X107167462Y-92497687D01*
X107197667Y-92480353D01*
X107226163Y-92464011D01*
X107252732Y-92448786D01*
X107277156Y-92434804D01*
X107299215Y-92422191D01*
X107318693Y-92411073D01*
X107335371Y-92401574D01*
X107349029Y-92393822D01*
X107359450Y-92387941D01*
X107366415Y-92384058D01*
X107369707Y-92382298D01*
X107369943Y-92382203D01*
X107370230Y-92384487D01*
X107370498Y-92391321D01*
X107370748Y-92402678D01*
X107370978Y-92418533D01*
X107371188Y-92438858D01*
X107371380Y-92463628D01*
X107371552Y-92492815D01*
X107371704Y-92526393D01*
X107371836Y-92564336D01*
X107371948Y-92606617D01*
X107372041Y-92653210D01*
X107372113Y-92704089D01*
X107372165Y-92759226D01*
X107372196Y-92818595D01*
X107372207Y-92882171D01*
X107826047Y-92882171D01*
X107825717Y-92448635D01*
X107825675Y-92387958D01*
X107825641Y-92322968D01*
X107825613Y-92253926D01*
X107825591Y-92181094D01*
X107825575Y-92104736D01*
X107825566Y-92025113D01*
X107825562Y-91942488D01*
X107825565Y-91857122D01*
X107825573Y-91769280D01*
X107825587Y-91679223D01*
X107825607Y-91587213D01*
X107825632Y-91493512D01*
X107825663Y-91398384D01*
X107825699Y-91302091D01*
X107825740Y-91204894D01*
X107825769Y-91143498D01*
X107372207Y-91143498D01*
X107372207Y-91855172D01*
X106038707Y-92622964D01*
X105951186Y-92673356D01*
X105867544Y-92721515D01*
X105787691Y-92767492D01*
X105711540Y-92811337D01*
X105639003Y-92853101D01*
X105569991Y-92892834D01*
X105504418Y-92930588D01*
X105442194Y-92966412D01*
X105383232Y-93000358D01*
X105327443Y-93032475D01*
X105274740Y-93062815D01*
X105225034Y-93091428D01*
X105178238Y-93118365D01*
X105134263Y-93143676D01*
X105093021Y-93167412D01*
X105054424Y-93189624D01*
X105018384Y-93210362D01*
X104984813Y-93229676D01*
X104953623Y-93247618D01*
X104924726Y-93264238D01*
X104898033Y-93279587D01*
X104873458Y-93293714D01*
X104850911Y-93306672D01*
X104830304Y-93318510D01*
X104811550Y-93329279D01*
X104794561Y-93339029D01*
X104779247Y-93347812D01*
X104765523Y-93355678D01*
X104753298Y-93362677D01*
X104742485Y-93368860D01*
X104732997Y-93374278D01*
X104724744Y-93378981D01*
X104717640Y-93383020D01*
X104711595Y-93386446D01*
X104706522Y-93389308D01*
X104702333Y-93391658D01*
X104698940Y-93393547D01*
X104696254Y-93395025D01*
X104694187Y-93396142D01*
X104692653Y-93396949D01*
X104691561Y-93397497D01*
X104690825Y-93397836D01*
X104690356Y-93398017D01*
X104690066Y-93398091D01*
X104689867Y-93398108D01*
X104689758Y-93398111D01*
X104689621Y-93395860D01*
X104689491Y-93389207D01*
X104689367Y-93378329D01*
X104689251Y-93363401D01*
X104689143Y-93344598D01*
X104689042Y-93322096D01*
X104688949Y-93296071D01*
X104688864Y-93266698D01*
X104688788Y-93234152D01*
X104688721Y-93198609D01*
X104688663Y-93160245D01*
X104688614Y-93119235D01*
X104688575Y-93075755D01*
X104688547Y-93029980D01*
X104688528Y-92982085D01*
X104688520Y-92932246D01*
X104688523Y-92880639D01*
X104688538Y-92827439D01*
X104688564Y-92772822D01*
X104688601Y-92716963D01*
X104688614Y-92701257D01*
X104689189Y-92004311D01*
X105404279Y-91592426D01*
X105457478Y-91561787D01*
X105509744Y-91531692D01*
X105560933Y-91502223D01*
X105610901Y-91473464D01*
X105659503Y-91445497D01*
X105706595Y-91418404D01*
X105752033Y-91392270D01*
X105795672Y-91367177D01*
X105837368Y-91343208D01*
X105876977Y-91320446D01*
X105914354Y-91298973D01*
X105949354Y-91278873D01*
X105981834Y-91260229D01*
X106011650Y-91243123D01*
X106038656Y-91227639D01*
X106062708Y-91213859D01*
X106083662Y-91201866D01*
X106101374Y-91191744D01*
X106115699Y-91183575D01*
X106126493Y-91177441D01*
X106133611Y-91173427D01*
X106136910Y-91171615D01*
X106136918Y-91171610D01*
X106140302Y-91169756D01*
X106147494Y-91165707D01*
X106158336Y-91159553D01*
X106172670Y-91151385D01*
X106190340Y-91141293D01*
X106211187Y-91129367D01*
X106235055Y-91115699D01*
X106261786Y-91100377D01*
X106291222Y-91083494D01*
X106323206Y-91065138D01*
X106357580Y-91045401D01*
X106394188Y-91024373D01*
X106432871Y-91002144D01*
X106473473Y-90978804D01*
X106496821Y-90965378D01*
X105578610Y-90965378D01*
X105576796Y-90966626D01*
X105571229Y-90970031D01*
X105562126Y-90975466D01*
X105549704Y-90982808D01*
X105534177Y-90991931D01*
X105515763Y-91002711D01*
X105494677Y-91015023D01*
X105471135Y-91028742D01*
X105445353Y-91043743D01*
X105417547Y-91059902D01*
X105387934Y-91077095D01*
X105356728Y-91095195D01*
X105324147Y-91114078D01*
X105290406Y-91133621D01*
X105255721Y-91153697D01*
X105220308Y-91174182D01*
X105184383Y-91194952D01*
X105148163Y-91215881D01*
X105111863Y-91236845D01*
X105075699Y-91257719D01*
X105039887Y-91278379D01*
X105004643Y-91298699D01*
X104970184Y-91318555D01*
X104936725Y-91337821D01*
X104904482Y-91356375D01*
X104873671Y-91374089D01*
X104844508Y-91390841D01*
X104817210Y-91406504D01*
X104791992Y-91420955D01*
X104769070Y-91434068D01*
X104748661Y-91445719D01*
X104730979Y-91455782D01*
X104716242Y-91464134D01*
X104704665Y-91470650D01*
X104696465Y-91475204D01*
X104691857Y-91477672D01*
X104690906Y-91478099D01*
X104690576Y-91477320D01*
X104690271Y-91474828D01*
X104689990Y-91470472D01*
X104689732Y-91464101D01*
X104689496Y-91455565D01*
X104689281Y-91444712D01*
X104689087Y-91431392D01*
X104688913Y-91415454D01*
X104688757Y-91396747D01*
X104688620Y-91375121D01*
X104688499Y-91350425D01*
X104688395Y-91322507D01*
X104688306Y-91291218D01*
X104688232Y-91256405D01*
X104688171Y-91217920D01*
X104688123Y-91175610D01*
X104688088Y-91129325D01*
X104688064Y-91078915D01*
X104688050Y-91024228D01*
X104688050Y-91020998D01*
X104234964Y-91020998D01*
X104234964Y-91043554D01*
X104234963Y-91147118D01*
X104234959Y-91249569D01*
X104234954Y-91350812D01*
X104234945Y-91450751D01*
X104234935Y-91549290D01*
X104234923Y-91646334D01*
X104234908Y-91741787D01*
X104234891Y-91835554D01*
X104234873Y-91927538D01*
X104234852Y-92017645D01*
X104234830Y-92105778D01*
X104234805Y-92191842D01*
X104234779Y-92275742D01*
X104234751Y-92357380D01*
X104234722Y-92436663D01*
X104234690Y-92513495D01*
X104234657Y-92587779D01*
X104234623Y-92659420D01*
X104234587Y-92728322D01*
X104234550Y-92794390D01*
X104234511Y-92857528D01*
X104234471Y-92917641D01*
X104234429Y-92974633D01*
X104234387Y-93028407D01*
X104234343Y-93078870D01*
X104234298Y-93125924D01*
X104234252Y-93169474D01*
X104234204Y-93209425D01*
X104234156Y-93245681D01*
X104234107Y-93278147D01*
X104234057Y-93306726D01*
X104234006Y-93331323D01*
X104233954Y-93351842D01*
X104233902Y-93368188D01*
X104233849Y-93380265D01*
X104233795Y-93387978D01*
X104233741Y-93391231D01*
X104233729Y-93391338D01*
X104231118Y-93390387D01*
X104225973Y-93387986D01*
X104223358Y-93386678D01*
X104218972Y-93384317D01*
X104210893Y-93379836D01*
X104199351Y-93373367D01*
X104184581Y-93365043D01*
X104166813Y-93354997D01*
X104146282Y-93343361D01*
X104123219Y-93330270D01*
X104097856Y-93315855D01*
X104070427Y-93300249D01*
X104041163Y-93283586D01*
X104010297Y-93265997D01*
X103978062Y-93247618D01*
X103944689Y-93228579D01*
X103910412Y-93209014D01*
X103875463Y-93189055D01*
X103840074Y-93168837D01*
X103804478Y-93148491D01*
X103768907Y-93128150D01*
X103733594Y-93107948D01*
X103698771Y-93088018D01*
X103664670Y-93068491D01*
X103631524Y-93049501D01*
X103599566Y-93031182D01*
X103569027Y-93013665D01*
X103540141Y-92997084D01*
X103513140Y-92981572D01*
X103488256Y-92967261D01*
X103465721Y-92954284D01*
X103445769Y-92942775D01*
X103428631Y-92932866D01*
X103414541Y-92924690D01*
X103403729Y-92918380D01*
X103396430Y-92914069D01*
X103392875Y-92911889D01*
X103392874Y-92911889D01*
X103353878Y-92883226D01*
X103317480Y-92851027D01*
X103284113Y-92815730D01*
X103254210Y-92777773D01*
X103240396Y-92757476D01*
X103217808Y-92719429D01*
X103198781Y-92680547D01*
X103183063Y-92640148D01*
X103170402Y-92597546D01*
X103160548Y-92552060D01*
X103157034Y-92530942D01*
X103156799Y-92527127D01*
X103156565Y-92518837D01*
X103156331Y-92506172D01*
X103156097Y-92489233D01*
X103155866Y-92468121D01*
X103155635Y-92442936D01*
X103155406Y-92413780D01*
X103155180Y-92380753D01*
X103154955Y-92343956D01*
X103154733Y-92303490D01*
X103154514Y-92259456D01*
X103154298Y-92211955D01*
X103154085Y-92161087D01*
X103153875Y-92106953D01*
X103153670Y-92049655D01*
X103153468Y-91989293D01*
X103153271Y-91925967D01*
X103153079Y-91859779D01*
X103152891Y-91790830D01*
X103152709Y-91719220D01*
X103152532Y-91645050D01*
X103152361Y-91568422D01*
X103152195Y-91489435D01*
X103152036Y-91408191D01*
X103151883Y-91324791D01*
X103151738Y-91239335D01*
X103151599Y-91151924D01*
X103151467Y-91062659D01*
X103151343Y-90971641D01*
X103151227Y-90878971D01*
X103151119Y-90784750D01*
X103151019Y-90689078D01*
X103150928Y-90592056D01*
X103150845Y-90493786D01*
X103150772Y-90394367D01*
X103150708Y-90293902D01*
X103150654Y-90192490D01*
X103150632Y-90139436D01*
X102697234Y-90139436D01*
X102697230Y-90189666D01*
X102697215Y-90238683D01*
X102697192Y-90286291D01*
X102697160Y-90332293D01*
X102697120Y-90376494D01*
X102697072Y-90418698D01*
X102697017Y-90458708D01*
X102696955Y-90496329D01*
X102696886Y-90531364D01*
X102696811Y-90563617D01*
X102696731Y-90592892D01*
X102696646Y-90618994D01*
X102696555Y-90641725D01*
X102696461Y-90660890D01*
X102696362Y-90676294D01*
X102696260Y-90687738D01*
X102696155Y-90695029D01*
X102696047Y-90697969D01*
X102696030Y-90698023D01*
X102693965Y-90696897D01*
X102688108Y-90693586D01*
X102678632Y-90688189D01*
X102665712Y-90680806D01*
X102649521Y-90671536D01*
X102630231Y-90660480D01*
X102608017Y-90647737D01*
X102583053Y-90633407D01*
X102555511Y-90617588D01*
X102525565Y-90600382D01*
X102493388Y-90581887D01*
X102459155Y-90562203D01*
X102423038Y-90541431D01*
X102385211Y-90519669D01*
X102345848Y-90497017D01*
X102305122Y-90473575D01*
X102263206Y-90449442D01*
X102227503Y-90428882D01*
X102184512Y-90404118D01*
X102142456Y-90379883D01*
X102101515Y-90356282D01*
X102061870Y-90333419D01*
X102023702Y-90311399D01*
X101987192Y-90290326D01*
X101952520Y-90270304D01*
X101919867Y-90251440D01*
X101889415Y-90233836D01*
X101861344Y-90217598D01*
X101835835Y-90202830D01*
X101813068Y-90189636D01*
X101793225Y-90178122D01*
X101776487Y-90168392D01*
X101763034Y-90160550D01*
X101753048Y-90154701D01*
X101746708Y-90150950D01*
X101744428Y-90149559D01*
X101737027Y-90144399D01*
X101732192Y-90140249D01*
X101730554Y-90137669D01*
X101730702Y-90137352D01*
X101732822Y-90136059D01*
X101738701Y-90132604D01*
X101748129Y-90127107D01*
X101760898Y-90119688D01*
X101776801Y-90110468D01*
X101795627Y-90099565D01*
X101817170Y-90087102D01*
X101841219Y-90073197D01*
X101867568Y-90057971D01*
X101896006Y-90041545D01*
X101926326Y-90024037D01*
X101958320Y-90005570D01*
X101991778Y-89986261D01*
X102026493Y-89966233D01*
X102062255Y-89945605D01*
X102098856Y-89924496D01*
X102136088Y-89903029D01*
X102173742Y-89881321D01*
X102211610Y-89859495D01*
X102249483Y-89837669D01*
X102287152Y-89815964D01*
X102324410Y-89794500D01*
X102361047Y-89773398D01*
X102396856Y-89752777D01*
X102431627Y-89732759D01*
X102465152Y-89713461D01*
X102497223Y-89695007D01*
X102527630Y-89677514D01*
X102556167Y-89661103D01*
X102582623Y-89645896D01*
X102606791Y-89632011D01*
X102628462Y-89619569D01*
X102647428Y-89608690D01*
X102663479Y-89599494D01*
X102676408Y-89592102D01*
X102686006Y-89586633D01*
X102692065Y-89583208D01*
X102694374Y-89581948D01*
X102694690Y-89582623D01*
X102694983Y-89584999D01*
X102695255Y-89589218D01*
X102695505Y-89595425D01*
X102695735Y-89603766D01*
X102695945Y-89614384D01*
X102696136Y-89627425D01*
X102696309Y-89643031D01*
X102696464Y-89661349D01*
X102696603Y-89682523D01*
X102696725Y-89706696D01*
X102696833Y-89734014D01*
X102696926Y-89764621D01*
X102697005Y-89798661D01*
X102697071Y-89836280D01*
X102697124Y-89877621D01*
X102697167Y-89922829D01*
X102697198Y-89972049D01*
X102697219Y-90025425D01*
X102697231Y-90083102D01*
X102697234Y-90139436D01*
X103150632Y-90139436D01*
X103150611Y-90091449D01*
X103150315Y-89318974D01*
X103691524Y-89007372D01*
X103737592Y-88980851D01*
X103782625Y-88954930D01*
X103826462Y-88929702D01*
X103868943Y-88905259D01*
X103909905Y-88881694D01*
X103949189Y-88859100D01*
X103986632Y-88837568D01*
X104022073Y-88817193D01*
X104055352Y-88798065D01*
X104086308Y-88780279D01*
X104114779Y-88763926D01*
X104140604Y-88749098D01*
X104163621Y-88735890D01*
X104183671Y-88724392D01*
X104200592Y-88714699D01*
X104214222Y-88706901D01*
X104224400Y-88701093D01*
X104230966Y-88697365D01*
X104233758Y-88695812D01*
X104233849Y-88695771D01*
X104233898Y-88698043D01*
X104233947Y-88704796D01*
X104233995Y-88715935D01*
X104234042Y-88731363D01*
X104234089Y-88750985D01*
X104234135Y-88774706D01*
X104234180Y-88802429D01*
X104234225Y-88834059D01*
X104234269Y-88869501D01*
X104234311Y-88908659D01*
X104234353Y-88951437D01*
X104234394Y-88997739D01*
X104234434Y-89047470D01*
X104234473Y-89100534D01*
X104234511Y-89156836D01*
X104234547Y-89216280D01*
X104234582Y-89278770D01*
X104234616Y-89344210D01*
X104234649Y-89412506D01*
X104234681Y-89483561D01*
X104234711Y-89557280D01*
X104234739Y-89633567D01*
X104234766Y-89712326D01*
X104234792Y-89793462D01*
X104234816Y-89876879D01*
X104234838Y-89962482D01*
X104234859Y-90050174D01*
X104234878Y-90139861D01*
X104234895Y-90231446D01*
X104234910Y-90324834D01*
X104234924Y-90419929D01*
X104234936Y-90516636D01*
X104234945Y-90614859D01*
X104234953Y-90714503D01*
X104234959Y-90815471D01*
X104234963Y-90917668D01*
X104234964Y-91020998D01*
X104688050Y-91020998D01*
X104688045Y-90965753D01*
X104688050Y-90917660D01*
X104688065Y-90870789D01*
X104688089Y-90825344D01*
X104688122Y-90781531D01*
X104688163Y-90739553D01*
X104688212Y-90699616D01*
X104688268Y-90661924D01*
X104688332Y-90626682D01*
X104688402Y-90594094D01*
X104688478Y-90564366D01*
X104688559Y-90537702D01*
X104688646Y-90514306D01*
X104688737Y-90494384D01*
X104688833Y-90478139D01*
X104688933Y-90465778D01*
X104689036Y-90457503D01*
X104689141Y-90453521D01*
X104689183Y-90453176D01*
X104691248Y-90454299D01*
X104697060Y-90457583D01*
X104706403Y-90462905D01*
X104719061Y-90470139D01*
X104734817Y-90479161D01*
X104753454Y-90489846D01*
X104774755Y-90502069D01*
X104798505Y-90515705D01*
X104824485Y-90530630D01*
X104852481Y-90546719D01*
X104882274Y-90563848D01*
X104913649Y-90581890D01*
X104946388Y-90600723D01*
X104980276Y-90620220D01*
X105015095Y-90640258D01*
X105050630Y-90660711D01*
X105086662Y-90681454D01*
X105122976Y-90702364D01*
X105159355Y-90723315D01*
X105195583Y-90744182D01*
X105231442Y-90764841D01*
X105266717Y-90785166D01*
X105301190Y-90805034D01*
X105334644Y-90824320D01*
X105366864Y-90842897D01*
X105397633Y-90860643D01*
X105426734Y-90877432D01*
X105453950Y-90893140D01*
X105479064Y-90907641D01*
X105501861Y-90920811D01*
X105522124Y-90932525D01*
X105539635Y-90942659D01*
X105554178Y-90951087D01*
X105565537Y-90957685D01*
X105573495Y-90962328D01*
X105577835Y-90964892D01*
X105578610Y-90965378D01*
X106496821Y-90965378D01*
X106515835Y-90954445D01*
X106559800Y-90929156D01*
X106605212Y-90903028D01*
X106651911Y-90876151D01*
X106699742Y-90848615D01*
X106748546Y-90820512D01*
X106762448Y-90812505D01*
X106811298Y-90784371D01*
X106859121Y-90756831D01*
X106905764Y-90729974D01*
X106951076Y-90703887D01*
X106994905Y-90678657D01*
X107037098Y-90654371D01*
X107077505Y-90631118D01*
X107115972Y-90608983D01*
X107152349Y-90588055D01*
X107186483Y-90568421D01*
X107218223Y-90550168D01*
X107247416Y-90533384D01*
X107273910Y-90518156D01*
X107297555Y-90504571D01*
X107318197Y-90492717D01*
X107335686Y-90482680D01*
X107349868Y-90474550D01*
X107360593Y-90468411D01*
X107367708Y-90464353D01*
X107371061Y-90462463D01*
X107371318Y-90462329D01*
X107371390Y-90464588D01*
X107371460Y-90471248D01*
X107371528Y-90482134D01*
X107371595Y-90497069D01*
X107371659Y-90515878D01*
X107371721Y-90538386D01*
X107371780Y-90564416D01*
X107371836Y-90593794D01*
X107371890Y-90626344D01*
X107371940Y-90661890D01*
X107371986Y-90700256D01*
X107372029Y-90741267D01*
X107372067Y-90784747D01*
X107372102Y-90830521D01*
X107372132Y-90878414D01*
X107372157Y-90928248D01*
X107372177Y-90979849D01*
X107372193Y-91033042D01*
X107372203Y-91087650D01*
X107372207Y-91143498D01*
X107825769Y-91143498D01*
X107825787Y-91107057D01*
X107825839Y-91008842D01*
X107825895Y-90910511D01*
X107825957Y-90812327D01*
X107826023Y-90714551D01*
X107826094Y-90617447D01*
X107826170Y-90521277D01*
X107826250Y-90426302D01*
X107826335Y-90332787D01*
X107826423Y-90240992D01*
X107826516Y-90151181D01*
X107826574Y-90099063D01*
X107826698Y-89991138D01*
X107826825Y-89887386D01*
X107826954Y-89787825D01*
X107827086Y-89692470D01*
X107827221Y-89601338D01*
X107827358Y-89514446D01*
X107827497Y-89431811D01*
X107827639Y-89353450D01*
X107827783Y-89279378D01*
X107827930Y-89209614D01*
X107828079Y-89144172D01*
X107828230Y-89083071D01*
X107828383Y-89026326D01*
X107828538Y-88973955D01*
X107828695Y-88925973D01*
X107828855Y-88882399D01*
X107829016Y-88843247D01*
X107829179Y-88808536D01*
X107829344Y-88778282D01*
X107829511Y-88752501D01*
X107829680Y-88731209D01*
X107829850Y-88714425D01*
X107830022Y-88702164D01*
X107830196Y-88694443D01*
X107830371Y-88691279D01*
X107830405Y-88691194D01*
X107832557Y-88692321D01*
X107838510Y-88695640D01*
X107848103Y-88701058D01*
X107861173Y-88708481D01*
X107877556Y-88717816D01*
X107897091Y-88728970D01*
X107919614Y-88741849D01*
X107944962Y-88756360D01*
X107972973Y-88772409D01*
X108003484Y-88789903D01*
X108036332Y-88808750D01*
X108071354Y-88828855D01*
X108108388Y-88850125D01*
X108147270Y-88872466D01*
X108187838Y-88895787D01*
X108229929Y-88919992D01*
X108273380Y-88944989D01*
X108318029Y-88970684D01*
X108363712Y-88996985D01*
X108365593Y-88998067D01*
X108898521Y-89304941D01*
X109809477Y-89304941D01*
X109792585Y-89295220D01*
X109728423Y-89258294D01*
X109662590Y-89220404D01*
X109595184Y-89181607D01*
X109526307Y-89141962D01*
X109456057Y-89101524D01*
X109384534Y-89060352D01*
X109311838Y-89018503D01*
X109238069Y-88976034D01*
X109163327Y-88933004D01*
X109162272Y-88932396D01*
X109087445Y-88889314D01*
X109013567Y-88846775D01*
X108940738Y-88804837D01*
X108869058Y-88763557D01*
X108798629Y-88722994D01*
X108729551Y-88683206D01*
X108661925Y-88644251D01*
X108595850Y-88606186D01*
X108531429Y-88569071D01*
X108468761Y-88532962D01*
X108407948Y-88497919D01*
X108349089Y-88463998D01*
X108292286Y-88431259D01*
X108280834Y-88424657D01*
X107373352Y-88424657D01*
X107373352Y-89936419D01*
X106708604Y-90319336D01*
X106657483Y-90348779D01*
X106607373Y-90377631D01*
X106558418Y-90405809D01*
X106510766Y-90433229D01*
X106464560Y-90459807D01*
X106419948Y-90485460D01*
X106377075Y-90510104D01*
X106336088Y-90533655D01*
X106297130Y-90556031D01*
X106260350Y-90577146D01*
X106225891Y-90596918D01*
X106193901Y-90615263D01*
X106164524Y-90632097D01*
X106137907Y-90647337D01*
X106114196Y-90660898D01*
X106093536Y-90672698D01*
X106076073Y-90682652D01*
X106061953Y-90690677D01*
X106051321Y-90696690D01*
X106044324Y-90700606D01*
X106041107Y-90702343D01*
X106040906Y-90702427D01*
X106038720Y-90701311D01*
X106032714Y-90697993D01*
X106023033Y-90692556D01*
X106009821Y-90685083D01*
X105993225Y-90675656D01*
X105973387Y-90664360D01*
X105950454Y-90651276D01*
X105924571Y-90636488D01*
X105895882Y-90620079D01*
X105864532Y-90602133D01*
X105830667Y-90582731D01*
X105794431Y-90561958D01*
X105755969Y-90539896D01*
X105715427Y-90516628D01*
X105672948Y-90492237D01*
X105628678Y-90466807D01*
X105582763Y-90440420D01*
X105535346Y-90413159D01*
X105486573Y-90385109D01*
X105436589Y-90356350D01*
X105385538Y-90326967D01*
X105365289Y-90315310D01*
X104692622Y-89928021D01*
X104692622Y-88433065D01*
X105366420Y-88045124D01*
X106040219Y-87657183D01*
X106706785Y-88040920D01*
X107373352Y-88424657D01*
X108280834Y-88424657D01*
X108237639Y-88399758D01*
X108185248Y-88369555D01*
X108135215Y-88340706D01*
X108087640Y-88313271D01*
X108042624Y-88287307D01*
X108000267Y-88262872D01*
X107960670Y-88240024D01*
X107923933Y-88218822D01*
X107890158Y-88199323D01*
X107859444Y-88181585D01*
X107831893Y-88165666D01*
X107807605Y-88151625D01*
X107786681Y-88139519D01*
X107769221Y-88129406D01*
X107755326Y-88121345D01*
X107745097Y-88115393D01*
X107738634Y-88111609D01*
X107736045Y-88110055D01*
X107733039Y-88108225D01*
X107726228Y-88104210D01*
X107715777Y-88098103D01*
X107701849Y-88089999D01*
X107684609Y-88079992D01*
X107664219Y-88068176D01*
X107640844Y-88054646D01*
X107614647Y-88039497D01*
X107585793Y-88022822D01*
X107554445Y-88004715D01*
X107520767Y-87985271D01*
X107484923Y-87964585D01*
X107447077Y-87942750D01*
X107407392Y-87919861D01*
X107366033Y-87896013D01*
X107323162Y-87871298D01*
X107278945Y-87845813D01*
X107233545Y-87819651D01*
X107187125Y-87792906D01*
X107139849Y-87765672D01*
X107091882Y-87738045D01*
X107043387Y-87710118D01*
X106994528Y-87681986D01*
X106945468Y-87653742D01*
X106896372Y-87625482D01*
X106847404Y-87597299D01*
X106798726Y-87569288D01*
X106750504Y-87541544D01*
X106702900Y-87514159D01*
X106656079Y-87487229D01*
X106610205Y-87460849D01*
X106565441Y-87435111D01*
X106521951Y-87410112D01*
X106499090Y-87396973D01*
X105576570Y-87396973D01*
X105576475Y-87397165D01*
X105574096Y-87398576D01*
X105567882Y-87402194D01*
X105557957Y-87407947D01*
X105544444Y-87415762D01*
X105527469Y-87425569D01*
X105507156Y-87437296D01*
X105483630Y-87450871D01*
X105457014Y-87466222D01*
X105427434Y-87483279D01*
X105395013Y-87501969D01*
X105359876Y-87522220D01*
X105322148Y-87543962D01*
X105281953Y-87567123D01*
X105239415Y-87591630D01*
X105194659Y-87617412D01*
X105147810Y-87644399D01*
X105098991Y-87672517D01*
X105048327Y-87701696D01*
X104995942Y-87731864D01*
X104941962Y-87762949D01*
X104886509Y-87794879D01*
X104829710Y-87827584D01*
X104771688Y-87860991D01*
X104712567Y-87895029D01*
X104652473Y-87929626D01*
X104591529Y-87964710D01*
X104529859Y-88000211D01*
X104467590Y-88036056D01*
X104404843Y-88072173D01*
X104341746Y-88108492D01*
X104278420Y-88144940D01*
X104214992Y-88181446D01*
X104151585Y-88217939D01*
X104088324Y-88254346D01*
X104025334Y-88290596D01*
X103962738Y-88326618D01*
X103900661Y-88362339D01*
X103839228Y-88397689D01*
X103778563Y-88432595D01*
X103718791Y-88466987D01*
X103660035Y-88500791D01*
X103602420Y-88533938D01*
X103546072Y-88566355D01*
X103491113Y-88597970D01*
X103437669Y-88628712D01*
X103385864Y-88658510D01*
X103335822Y-88687291D01*
X103287668Y-88714984D01*
X103241527Y-88741518D01*
X103197522Y-88766821D01*
X103155778Y-88790821D01*
X103116420Y-88813446D01*
X103079572Y-88834626D01*
X103045358Y-88854288D01*
X103013903Y-88872361D01*
X102985331Y-88888773D01*
X102959767Y-88903453D01*
X102937335Y-88916329D01*
X102918159Y-88927329D01*
X102902365Y-88936382D01*
X102890075Y-88943416D01*
X102881416Y-88948360D01*
X102876511Y-88951141D01*
X102875377Y-88951764D01*
X102870991Y-88953314D01*
X102863425Y-88955826D01*
X102853873Y-88958910D01*
X102846665Y-88961191D01*
X102822368Y-88970646D01*
X102799692Y-88983414D01*
X102777771Y-89000015D01*
X102769315Y-89007568D01*
X102767446Y-89009260D01*
X102765338Y-89011049D01*
X102762859Y-89013013D01*
X102759875Y-89015231D01*
X102756253Y-89017779D01*
X102751861Y-89020736D01*
X102746567Y-89024180D01*
X102740236Y-89028188D01*
X102732737Y-89032838D01*
X102723937Y-89038208D01*
X102713702Y-89044376D01*
X102701900Y-89051419D01*
X102688398Y-89059416D01*
X102673063Y-89068445D01*
X102655763Y-89078582D01*
X102636364Y-89089907D01*
X102614734Y-89102496D01*
X102590740Y-89116427D01*
X102564249Y-89131780D01*
X102535128Y-89148630D01*
X102503245Y-89167056D01*
X102468466Y-89187137D01*
X102430659Y-89208949D01*
X102389691Y-89232570D01*
X102345430Y-89258079D01*
X102297741Y-89285553D01*
X102246493Y-89315070D01*
X102191552Y-89346708D01*
X102132787Y-89380544D01*
X102128595Y-89382958D01*
X101506180Y-89741317D01*
X101505558Y-89687071D01*
X101505502Y-89679613D01*
X101505454Y-89667813D01*
X101505414Y-89651906D01*
X101505381Y-89632126D01*
X101505356Y-89608707D01*
X101505339Y-89581885D01*
X101505329Y-89551894D01*
X101505327Y-89518969D01*
X101505333Y-89483343D01*
X101505346Y-89445252D01*
X101505366Y-89404931D01*
X101505393Y-89362613D01*
X101505429Y-89318534D01*
X101505471Y-89272928D01*
X101505521Y-89226029D01*
X101505577Y-89178073D01*
X101505642Y-89129293D01*
X101505654Y-89120248D01*
X101505733Y-89062578D01*
X101505803Y-89009293D01*
X101505870Y-88960205D01*
X101505937Y-88915121D01*
X101506009Y-88873853D01*
X101506090Y-88836208D01*
X101506185Y-88801998D01*
X101506297Y-88771031D01*
X101506431Y-88743117D01*
X101506592Y-88718066D01*
X101506783Y-88695687D01*
X101507009Y-88675790D01*
X101507274Y-88658184D01*
X101507583Y-88642678D01*
X101507940Y-88629084D01*
X101508349Y-88617209D01*
X101508814Y-88606863D01*
X101509339Y-88597857D01*
X101509930Y-88590000D01*
X101510590Y-88583100D01*
X101511324Y-88576969D01*
X101512135Y-88571414D01*
X101513029Y-88566247D01*
X101514009Y-88561276D01*
X101515080Y-88556311D01*
X101516246Y-88551161D01*
X101517511Y-88545637D01*
X101518743Y-88540167D01*
X101527187Y-88508307D01*
X101538561Y-88474841D01*
X101552296Y-88441115D01*
X101567825Y-88408475D01*
X101584580Y-88378267D01*
X101592088Y-88366257D01*
X101620176Y-88327150D01*
X101651952Y-88290372D01*
X101686895Y-88256449D01*
X101724487Y-88225907D01*
X101745306Y-88211269D01*
X101748622Y-88209238D01*
X101755753Y-88205013D01*
X101766545Y-88198684D01*
X101780846Y-88190338D01*
X101798503Y-88180063D01*
X101819363Y-88167949D01*
X101843274Y-88154083D01*
X101870082Y-88138553D01*
X101899636Y-88121449D01*
X101931781Y-88102857D01*
X101966366Y-88082868D01*
X102003237Y-88061568D01*
X102042242Y-88039046D01*
X102083228Y-88015391D01*
X102126042Y-87990691D01*
X102170532Y-87965034D01*
X102216543Y-87938509D01*
X102263925Y-87911204D01*
X102312523Y-87883206D01*
X102362186Y-87854605D01*
X102405478Y-87829681D01*
X102455876Y-87800665D01*
X102505316Y-87772192D01*
X102553646Y-87744351D01*
X102600713Y-87717227D01*
X102646368Y-87690910D01*
X102690459Y-87665486D01*
X102732834Y-87641043D01*
X102773342Y-87617668D01*
X102811831Y-87595449D01*
X102848151Y-87574473D01*
X102882150Y-87554828D01*
X102913675Y-87536601D01*
X102942577Y-87519879D01*
X102968704Y-87504751D01*
X102991904Y-87491303D01*
X103012026Y-87479623D01*
X103028918Y-87469798D01*
X103042430Y-87461917D01*
X103052409Y-87456066D01*
X103058705Y-87452333D01*
X103061072Y-87450873D01*
X103064559Y-87448696D01*
X103071774Y-87444384D01*
X103082540Y-87438040D01*
X103096675Y-87429768D01*
X103114002Y-87419670D01*
X103134340Y-87407849D01*
X103157512Y-87394408D01*
X103183337Y-87379450D01*
X103211637Y-87363078D01*
X103242232Y-87345396D01*
X103274943Y-87326505D01*
X103309592Y-87306510D01*
X103345998Y-87285512D01*
X103383982Y-87263615D01*
X103423366Y-87240922D01*
X103463970Y-87217536D01*
X103505616Y-87193560D01*
X103548123Y-87169097D01*
X103591313Y-87144249D01*
X103635006Y-87119120D01*
X103679024Y-87093813D01*
X103723187Y-87068430D01*
X103767316Y-87043075D01*
X103811232Y-87017851D01*
X103854755Y-86992860D01*
X103897707Y-86968206D01*
X103939908Y-86943991D01*
X103981179Y-86920319D01*
X104021341Y-86897292D01*
X104060215Y-86875014D01*
X104097622Y-86853587D01*
X104133382Y-86833114D01*
X104167316Y-86813698D01*
X104199245Y-86795443D01*
X104228989Y-86778451D01*
X104256371Y-86762825D01*
X104281210Y-86748669D01*
X104303327Y-86736084D01*
X104322544Y-86725175D01*
X104338680Y-86716044D01*
X104351557Y-86708794D01*
X104360996Y-86703527D01*
X104366817Y-86700348D01*
X104368829Y-86699355D01*
X104371158Y-86700477D01*
X104377298Y-86703798D01*
X104387095Y-86709231D01*
X104400395Y-86716687D01*
X104417045Y-86726080D01*
X104436891Y-86737320D01*
X104459779Y-86750321D01*
X104485556Y-86764994D01*
X104514069Y-86781252D01*
X104545163Y-86799007D01*
X104578685Y-86818171D01*
X104614482Y-86838657D01*
X104652399Y-86860376D01*
X104692284Y-86883241D01*
X104733982Y-86907164D01*
X104777340Y-86932057D01*
X104822205Y-86957833D01*
X104868422Y-86984404D01*
X104915839Y-87011681D01*
X104964301Y-87039578D01*
X104976943Y-87046858D01*
X105035751Y-87080730D01*
X105090712Y-87112394D01*
X105141951Y-87141924D01*
X105189591Y-87169390D01*
X105233754Y-87194865D01*
X105274564Y-87218420D01*
X105312143Y-87240128D01*
X105346616Y-87260061D01*
X105378105Y-87278290D01*
X105406733Y-87294888D01*
X105432623Y-87309925D01*
X105455899Y-87323476D01*
X105476683Y-87335610D01*
X105495099Y-87346400D01*
X105511270Y-87355919D01*
X105525318Y-87364237D01*
X105537368Y-87371428D01*
X105547541Y-87377562D01*
X105555962Y-87382712D01*
X105562753Y-87386950D01*
X105568037Y-87390348D01*
X105571938Y-87392977D01*
X105574578Y-87394909D01*
X105576081Y-87396218D01*
X105576570Y-87396973D01*
X106499090Y-87396973D01*
X106479899Y-87385944D01*
X106439449Y-87362702D01*
X106400764Y-87340481D01*
X106364009Y-87319375D01*
X106329347Y-87299478D01*
X106296942Y-87280884D01*
X106266957Y-87263688D01*
X106239558Y-87247985D01*
X106214907Y-87233867D01*
X106193169Y-87221430D01*
X106174506Y-87210768D01*
X106159084Y-87201976D01*
X106147065Y-87195146D01*
X106138614Y-87190375D01*
X106133895Y-87187756D01*
X106133099Y-87187337D01*
X106130438Y-87185861D01*
X106123950Y-87182180D01*
X106113757Y-87176365D01*
X106099983Y-87168487D01*
X106082752Y-87158617D01*
X106062186Y-87146825D01*
X106038408Y-87133183D01*
X106011543Y-87117762D01*
X105981714Y-87100632D01*
X105949043Y-87081866D01*
X105913654Y-87061533D01*
X105875670Y-87039704D01*
X105835215Y-87016451D01*
X105792412Y-86991845D01*
X105747384Y-86965956D01*
X105700254Y-86938855D01*
X105651147Y-86910615D01*
X105600184Y-86881304D01*
X105547489Y-86850995D01*
X105493187Y-86819759D01*
X105437399Y-86787665D01*
X105380249Y-86754786D01*
X105321861Y-86721193D01*
X105262358Y-86686956D01*
X105201862Y-86652145D01*
X105140499Y-86616834D01*
X105078389Y-86581091D01*
X105015658Y-86544988D01*
X104952428Y-86508597D01*
X104888823Y-86471988D01*
X104826051Y-86435857D01*
X103910028Y-86435857D01*
X103907858Y-86437202D01*
X103901962Y-86440692D01*
X103892576Y-86446188D01*
X103879935Y-86453557D01*
X103864275Y-86462662D01*
X103845830Y-86473367D01*
X103824837Y-86485537D01*
X103801530Y-86499035D01*
X103776145Y-86513727D01*
X103748917Y-86529475D01*
X103720081Y-86546146D01*
X103689874Y-86563602D01*
X103658529Y-86581708D01*
X103626283Y-86600329D01*
X103593371Y-86619328D01*
X103560028Y-86638569D01*
X103526490Y-86657918D01*
X103492991Y-86677238D01*
X103459768Y-86696394D01*
X103427055Y-86715249D01*
X103395088Y-86733668D01*
X103364103Y-86751516D01*
X103334333Y-86768656D01*
X103306016Y-86784952D01*
X103279386Y-86800270D01*
X103254679Y-86814473D01*
X103232129Y-86827425D01*
X103211973Y-86838991D01*
X103194445Y-86849035D01*
X103179781Y-86857421D01*
X103168217Y-86864013D01*
X103159987Y-86868676D01*
X103155327Y-86871274D01*
X103154320Y-86871792D01*
X103154141Y-86869564D01*
X103153967Y-86862987D01*
X103153800Y-86852289D01*
X103153640Y-86837698D01*
X103153488Y-86819441D01*
X103153344Y-86797746D01*
X103153211Y-86772841D01*
X103153089Y-86744953D01*
X103152979Y-86714310D01*
X103152881Y-86681141D01*
X103152797Y-86645671D01*
X103152728Y-86608130D01*
X103152675Y-86568745D01*
X103152638Y-86527744D01*
X103152618Y-86485354D01*
X103152616Y-86458397D01*
X103152625Y-86414873D01*
X103152650Y-86372372D01*
X103152690Y-86331139D01*
X103152744Y-86291418D01*
X103152812Y-86253454D01*
X103152892Y-86217491D01*
X103152983Y-86183775D01*
X103153085Y-86152549D01*
X103153197Y-86124059D01*
X103153318Y-86098549D01*
X103153447Y-86076263D01*
X103153584Y-86057447D01*
X103153727Y-86042345D01*
X103153875Y-86031201D01*
X103154029Y-86024260D01*
X103154111Y-86022378D01*
X103155038Y-86011282D01*
X103156114Y-86004313D01*
X103157431Y-86001021D01*
X103158458Y-86000639D01*
X103160704Y-86001833D01*
X103166720Y-86005201D01*
X103176310Y-86010631D01*
X103189281Y-86018013D01*
X103205438Y-86027233D01*
X103224585Y-86038181D01*
X103246527Y-86050745D01*
X103271071Y-86064812D01*
X103298021Y-86080272D01*
X103327182Y-86097012D01*
X103358360Y-86114921D01*
X103391359Y-86133887D01*
X103425985Y-86153798D01*
X103462043Y-86174543D01*
X103499338Y-86196010D01*
X103536721Y-86217537D01*
X103581045Y-86243085D01*
X103623130Y-86267376D01*
X103662851Y-86290338D01*
X103700083Y-86311899D01*
X103734705Y-86331986D01*
X103766591Y-86350527D01*
X103795617Y-86367449D01*
X103821661Y-86382680D01*
X103844597Y-86396147D01*
X103864302Y-86407779D01*
X103880652Y-86417501D01*
X103893524Y-86425243D01*
X103902793Y-86430931D01*
X103908335Y-86434494D01*
X103910028Y-86435857D01*
X104826051Y-86435857D01*
X104824965Y-86435232D01*
X104760979Y-86398400D01*
X104696986Y-86361562D01*
X104633112Y-86324791D01*
X104569479Y-86288157D01*
X104506210Y-86251731D01*
X104443428Y-86215584D01*
X104381258Y-86179786D01*
X104319821Y-86144410D01*
X104259242Y-86109525D01*
X104199644Y-86075203D01*
X104141150Y-86041515D01*
X104083883Y-86008531D01*
X104027967Y-85976324D01*
X103973524Y-85944963D01*
X103920679Y-85914519D01*
X103869555Y-85885064D01*
X103820274Y-85856669D01*
X103772960Y-85829405D01*
X103727737Y-85803342D01*
X103684727Y-85778551D01*
X103644055Y-85755104D01*
X103605842Y-85733071D01*
X103570213Y-85712524D01*
X103537291Y-85693533D01*
X103507199Y-85676170D01*
X103480061Y-85660505D01*
X103455999Y-85646609D01*
X103435137Y-85634553D01*
X103417598Y-85624409D01*
X103403506Y-85616247D01*
X103392984Y-85610138D01*
X103386155Y-85606154D01*
X103383143Y-85604364D01*
X103383004Y-85604272D01*
X103383973Y-85602429D01*
X103388109Y-85598833D01*
X103394659Y-85594096D01*
X103399022Y-85591224D01*
X103402739Y-85588987D01*
X103410238Y-85584597D01*
X103421326Y-85578166D01*
X103435809Y-85569804D01*
X103453491Y-85559624D01*
X103474178Y-85547736D01*
X103497677Y-85534251D01*
X103523792Y-85519281D01*
X103552329Y-85502938D01*
X103583095Y-85485332D01*
X103615895Y-85466575D01*
X103650533Y-85446778D01*
X103686817Y-85426053D01*
X103724552Y-85404511D01*
X103763542Y-85382263D01*
X103803595Y-85359420D01*
X103834514Y-85341794D01*
X103875766Y-85318282D01*
X103916399Y-85295123D01*
X103956198Y-85272439D01*
X103994946Y-85250354D01*
X104032431Y-85228989D01*
X104068435Y-85208468D01*
X104102744Y-85188912D01*
X104135144Y-85170445D01*
X104165419Y-85153190D01*
X104193354Y-85137267D01*
X104218733Y-85122802D01*
X104241343Y-85109915D01*
X104260967Y-85098729D01*
X104277391Y-85089367D01*
X104290400Y-85081952D01*
X104299779Y-85076606D01*
X104303613Y-85074421D01*
X104327843Y-85060826D01*
X104349086Y-85049426D01*
X104368141Y-85039847D01*
X104385810Y-85031714D01*
X104402891Y-85024653D01*
X104420186Y-85018289D01*
X104432212Y-85014255D01*
X104470248Y-85003305D01*
X104507452Y-84995567D01*
X104545255Y-84990817D01*
X104585086Y-84988834D01*
X104596306Y-84988744D01*
X104645072Y-84990928D01*
X104692830Y-84997513D01*
X104739797Y-85008544D01*
X104786187Y-85024070D01*
X104816151Y-85036601D01*
X104819637Y-85038420D01*
X104826965Y-85042456D01*
X104838015Y-85048639D01*
X104852663Y-85056898D01*
X104870789Y-85067165D01*
X104892270Y-85079368D01*
X104916985Y-85093440D01*
X104944811Y-85109308D01*
X104975627Y-85126905D01*
X105009312Y-85146160D01*
X105045742Y-85167002D01*
X105084797Y-85189363D01*
X105126354Y-85213173D01*
X105170293Y-85238361D01*
X105216490Y-85264858D01*
X105264824Y-85292595D01*
X105315173Y-85321500D01*
X105367416Y-85351505D01*
X105421430Y-85382539D01*
X105477094Y-85414533D01*
X105534286Y-85447417D01*
X105592884Y-85481121D01*
X105652766Y-85515575D01*
X105713811Y-85550710D01*
X105775896Y-85586455D01*
X105838900Y-85622742D01*
X105842487Y-85624807D01*
X105895454Y-85655318D01*
X105952216Y-85688013D01*
X106012604Y-85722796D01*
X106076446Y-85759567D01*
X106143571Y-85798228D01*
X106213810Y-85838682D01*
X106286990Y-85880829D01*
X106362943Y-85924572D01*
X106441496Y-85969812D01*
X106522479Y-86016450D01*
X106605722Y-86064390D01*
X106691054Y-86113532D01*
X106778305Y-86163778D01*
X106867303Y-86215029D01*
X106957877Y-86267189D01*
X107049859Y-86320157D01*
X107143075Y-86373837D01*
X107237357Y-86428129D01*
X107332533Y-86482936D01*
X107428433Y-86538158D01*
X107524886Y-86593699D01*
X107621721Y-86649459D01*
X107718768Y-86705341D01*
X107815856Y-86761246D01*
X107912814Y-86817075D01*
X108009471Y-86872731D01*
X108105658Y-86928115D01*
X108201203Y-86983129D01*
X108295936Y-87037675D01*
X108389686Y-87091654D01*
X108482282Y-87144968D01*
X108573554Y-87197519D01*
X108611315Y-87219261D01*
X108722330Y-87283182D01*
X108829970Y-87345168D01*
X108934213Y-87405207D01*
X109035041Y-87463287D01*
X109132433Y-87519397D01*
X109226369Y-87573525D01*
X109316829Y-87625659D01*
X109403792Y-87675787D01*
X109487239Y-87723899D01*
X109567150Y-87769983D01*
X109643504Y-87814026D01*
X109716282Y-87856018D01*
X109785463Y-87895947D01*
X109851027Y-87933800D01*
X109912953Y-87969567D01*
X109971223Y-88003236D01*
X110025816Y-88034795D01*
X110076711Y-88064232D01*
X110123888Y-88091537D01*
X110167329Y-88116696D01*
X110207011Y-88139700D01*
X110242916Y-88160536D01*
X110275022Y-88179192D01*
X110303311Y-88195657D01*
X110327762Y-88209919D01*
X110348354Y-88221967D01*
X110365068Y-88231788D01*
X110377884Y-88239373D01*
X110386781Y-88244708D01*
X110391739Y-88247782D01*
X110392748Y-88248477D01*
X110404717Y-88258902D01*
X110418490Y-88272007D01*
X110433129Y-88286806D01*
X110447699Y-88302315D01*
X110461262Y-88317549D01*
X110472882Y-88331522D01*
X110477871Y-88337997D01*
X110505950Y-88379510D01*
X110529850Y-88422888D01*
X110549573Y-88468135D01*
X110565122Y-88515257D01*
X110576499Y-88564261D01*
X110578057Y-88573003D01*
X110578544Y-88575925D01*
X110578995Y-88578878D01*
X110579413Y-88582036D01*
X110579797Y-88585574D01*
X110580150Y-88589666D01*
X110580473Y-88594488D01*
X110580768Y-88600214D01*
X110581034Y-88607019D01*
X110581275Y-88615078D01*
X110581491Y-88624565D01*
X110581684Y-88635656D01*
X110581854Y-88648524D01*
X110582004Y-88663346D01*
X110582134Y-88680295D01*
X110582247Y-88699547D01*
X110582342Y-88721275D01*
X110582422Y-88745656D01*
X110582489Y-88772864D01*
X110582542Y-88803073D01*
X110582585Y-88836458D01*
X110582617Y-88873195D01*
X110582640Y-88913457D01*
X110582657Y-88957420D01*
X110582667Y-89005259D01*
X110582673Y-89057148D01*
X110582675Y-89113262D01*
X110582676Y-89173775D01*
X111040780Y-89173775D01*
X111040781Y-89172003D01*
X111040766Y-89125818D01*
X111040726Y-89079922D01*
X111040662Y-89034571D01*
X111040572Y-88990021D01*
X111040457Y-88946527D01*
X111040319Y-88904344D01*
X111040155Y-88863730D01*
X111039965Y-88824938D01*
X111039751Y-88788226D01*
X111039512Y-88753848D01*
X111039248Y-88722060D01*
X111038959Y-88693119D01*
X111038646Y-88667279D01*
X111038307Y-88644796D01*
X111037943Y-88625926D01*
X111037555Y-88610925D01*
X111037141Y-88600048D01*
X111036807Y-88594652D01*
X111032089Y-88547022D01*
X111026171Y-88502871D01*
X111018858Y-88461215D01*
X111009953Y-88421068D01*
X110999261Y-88381444D01*
X110986583Y-88341357D01*
X110986104Y-88339942D01*
X110962340Y-88276904D01*
X110934631Y-88216160D01*
X110903039Y-88157787D01*
X110867624Y-88101863D01*
X110828447Y-88048467D01*
X110785568Y-87997675D01*
X110739047Y-87949567D01*
X110688947Y-87904221D01*
X110635326Y-87861713D01*
X110589732Y-87829669D01*
X110585876Y-87827286D01*
X110578206Y-87822724D01*
X110566885Y-87816075D01*
X110552071Y-87807431D01*
X110533926Y-87796886D01*
X110512609Y-87784531D01*
X110488282Y-87770459D01*
X110461103Y-87754761D01*
X110431235Y-87737531D01*
X110398836Y-87718861D01*
X110364068Y-87698842D01*
X110327090Y-87677568D01*
X110288064Y-87655131D01*
X110247148Y-87631623D01*
X110204505Y-87607136D01*
X110160294Y-87581764D01*
X110114675Y-87555597D01*
X110067809Y-87528729D01*
X110019856Y-87501252D01*
X109970977Y-87473258D01*
X109961915Y-87468069D01*
X109357297Y-87121915D01*
X109356023Y-86554748D01*
X109355887Y-86494001D01*
X109355759Y-86437643D01*
X109355753Y-86434713D01*
X108898496Y-86434713D01*
X108898496Y-86860267D01*
X108844093Y-86828951D01*
X108835892Y-86824231D01*
X108823988Y-86817377D01*
X108808642Y-86808543D01*
X108790118Y-86797879D01*
X108768679Y-86785536D01*
X108744585Y-86771665D01*
X108718101Y-86756418D01*
X108689489Y-86739945D01*
X108659011Y-86722398D01*
X108626931Y-86703929D01*
X108593509Y-86684687D01*
X108559010Y-86664825D01*
X108523696Y-86644493D01*
X108487828Y-86623843D01*
X108475700Y-86616861D01*
X108440739Y-86596720D01*
X108406877Y-86577188D01*
X108374326Y-86558387D01*
X108343294Y-86540441D01*
X108313995Y-86523471D01*
X108286637Y-86507600D01*
X108261432Y-86492951D01*
X108238590Y-86479647D01*
X108218323Y-86467811D01*
X108200840Y-86457564D01*
X108186353Y-86449030D01*
X108175073Y-86442332D01*
X108167209Y-86437591D01*
X108162972Y-86434931D01*
X108162260Y-86434381D01*
X108164239Y-86433149D01*
X108169946Y-86429770D01*
X108179141Y-86424380D01*
X108191586Y-86417119D01*
X108207044Y-86408122D01*
X108225276Y-86397529D01*
X108246044Y-86385476D01*
X108269110Y-86372102D01*
X108294234Y-86357543D01*
X108321181Y-86341938D01*
X108349710Y-86325424D01*
X108379584Y-86308138D01*
X108410564Y-86290220D01*
X108442413Y-86271805D01*
X108474891Y-86253031D01*
X108507762Y-86234037D01*
X108540786Y-86214960D01*
X108573725Y-86195938D01*
X108606342Y-86177107D01*
X108638398Y-86158607D01*
X108669654Y-86140573D01*
X108699873Y-86123145D01*
X108728815Y-86106460D01*
X108756244Y-86090654D01*
X108781921Y-86075867D01*
X108805607Y-86062235D01*
X108827065Y-86049897D01*
X108846056Y-86038989D01*
X108862341Y-86029650D01*
X108875684Y-86022016D01*
X108885844Y-86016227D01*
X108892585Y-86012418D01*
X108894491Y-86011359D01*
X108894979Y-86011248D01*
X108895426Y-86011602D01*
X108895833Y-86012614D01*
X108896203Y-86014474D01*
X108896537Y-86017376D01*
X108896837Y-86021510D01*
X108897105Y-86027069D01*
X108897342Y-86034244D01*
X108897551Y-86043228D01*
X108897733Y-86054211D01*
X108897890Y-86067387D01*
X108898025Y-86082946D01*
X108898137Y-86101081D01*
X108898231Y-86121983D01*
X108898307Y-86145845D01*
X108898367Y-86172857D01*
X108898413Y-86203213D01*
X108898446Y-86237104D01*
X108898470Y-86274721D01*
X108898484Y-86316257D01*
X108898492Y-86361903D01*
X108898495Y-86411851D01*
X108898496Y-86434713D01*
X109355753Y-86434713D01*
X109355637Y-86385490D01*
X109355517Y-86337354D01*
X109355396Y-86293048D01*
X109355270Y-86252387D01*
X109355137Y-86215184D01*
X109354993Y-86181253D01*
X109354834Y-86150407D01*
X109354659Y-86122460D01*
X109354462Y-86097226D01*
X109354242Y-86074517D01*
X109353994Y-86054148D01*
X109353716Y-86035932D01*
X109353404Y-86019683D01*
X109353055Y-86005214D01*
X109352666Y-85992339D01*
X109352234Y-85980871D01*
X109351754Y-85970625D01*
X109351225Y-85961413D01*
X109350642Y-85953050D01*
X109350003Y-85945348D01*
X109349304Y-85938122D01*
X109348541Y-85931185D01*
X109347713Y-85924350D01*
X109346815Y-85917432D01*
X109345844Y-85910243D01*
X109344797Y-85902598D01*
X109344591Y-85901098D01*
X109333264Y-85834868D01*
X109317601Y-85770038D01*
X109297666Y-85706749D01*
X109273526Y-85645142D01*
X109259071Y-85614587D01*
X108671421Y-85614587D01*
X108669616Y-85615814D01*
X108664045Y-85619191D01*
X108654913Y-85624600D01*
X108642429Y-85631922D01*
X108626799Y-85641038D01*
X108608231Y-85651829D01*
X108586931Y-85664176D01*
X108563107Y-85677961D01*
X108536967Y-85693065D01*
X108508716Y-85709368D01*
X108478563Y-85726753D01*
X108446714Y-85745100D01*
X108413377Y-85764290D01*
X108378759Y-85784205D01*
X108343067Y-85804726D01*
X108306509Y-85825733D01*
X108269290Y-85847109D01*
X108231620Y-85868733D01*
X108193703Y-85890489D01*
X108155749Y-85912255D01*
X108117964Y-85933915D01*
X108080555Y-85955348D01*
X108043730Y-85976437D01*
X108007695Y-85997062D01*
X107972657Y-86017104D01*
X107938825Y-86036444D01*
X107906405Y-86054965D01*
X107875604Y-86072546D01*
X107846629Y-86089070D01*
X107819688Y-86104417D01*
X107794987Y-86118468D01*
X107772735Y-86131105D01*
X107753138Y-86142209D01*
X107736402Y-86151660D01*
X107722737Y-86159341D01*
X107712347Y-86165132D01*
X107705442Y-86168915D01*
X107702227Y-86170570D01*
X107702017Y-86170636D01*
X107699801Y-86169410D01*
X107693772Y-86165989D01*
X107684084Y-86160461D01*
X107670891Y-86152914D01*
X107654345Y-86143438D01*
X107634600Y-86132119D01*
X107611810Y-86119045D01*
X107586129Y-86104307D01*
X107557709Y-86087990D01*
X107526705Y-86070184D01*
X107493270Y-86050977D01*
X107457558Y-86030457D01*
X107419721Y-86008711D01*
X107379915Y-85985830D01*
X107338291Y-85961899D01*
X107295004Y-85937009D01*
X107250207Y-85911246D01*
X107204055Y-85884699D01*
X107156699Y-85857457D01*
X107108295Y-85829607D01*
X107097432Y-85823357D01*
X107048845Y-85795395D01*
X107001291Y-85768019D01*
X106954924Y-85741317D01*
X106909895Y-85715377D01*
X106866358Y-85690287D01*
X106824465Y-85666136D01*
X106784368Y-85643011D01*
X106746220Y-85621002D01*
X106710174Y-85600195D01*
X106676382Y-85580679D01*
X106644996Y-85562543D01*
X106616170Y-85545874D01*
X106590057Y-85530760D01*
X106566807Y-85517290D01*
X106546575Y-85505552D01*
X106529512Y-85495634D01*
X106515772Y-85487624D01*
X106505506Y-85481611D01*
X106498868Y-85477682D01*
X106496009Y-85475925D01*
X106495903Y-85475837D01*
X106497834Y-85474529D01*
X106503501Y-85471083D01*
X106512667Y-85465636D01*
X106525093Y-85458324D01*
X106540545Y-85449285D01*
X106558784Y-85438653D01*
X106579574Y-85426566D01*
X106602678Y-85413159D01*
X106627859Y-85398569D01*
X106654881Y-85382932D01*
X106683506Y-85366385D01*
X106713498Y-85349064D01*
X106744620Y-85331104D01*
X106776635Y-85312644D01*
X106809306Y-85293817D01*
X106842397Y-85274762D01*
X106875670Y-85255614D01*
X106908889Y-85236510D01*
X106941817Y-85217585D01*
X106974217Y-85198977D01*
X107005852Y-85180821D01*
X107036485Y-85163254D01*
X107065880Y-85146412D01*
X107093800Y-85130431D01*
X107120008Y-85115448D01*
X107144266Y-85101599D01*
X107166339Y-85089020D01*
X107185989Y-85077848D01*
X107202980Y-85068219D01*
X107217074Y-85060268D01*
X107228035Y-85054133D01*
X107235627Y-85049950D01*
X107239479Y-85047919D01*
X107277160Y-85031409D01*
X107316884Y-85017765D01*
X107359471Y-85006720D01*
X107376784Y-85003107D01*
X107386504Y-85001263D01*
X107395064Y-84999833D01*
X107403270Y-84998762D01*
X107411931Y-84997997D01*
X107421853Y-84997484D01*
X107433844Y-84997168D01*
X107448712Y-84996996D01*
X107467265Y-84996913D01*
X107469460Y-84996907D01*
X107488748Y-84996896D01*
X107504272Y-84997001D01*
X107516844Y-84997267D01*
X107527275Y-84997740D01*
X107536376Y-84998468D01*
X107544961Y-84999496D01*
X107553840Y-85000871D01*
X107560991Y-85002123D01*
X107583691Y-85006756D01*
X107607399Y-85012549D01*
X107630530Y-85019068D01*
X107651504Y-85025883D01*
X107661018Y-85029396D01*
X107664527Y-85031141D01*
X107671827Y-85035102D01*
X107682754Y-85041184D01*
X107697146Y-85049294D01*
X107714841Y-85059340D01*
X107735678Y-85071226D01*
X107759493Y-85084861D01*
X107786125Y-85100151D01*
X107815411Y-85117002D01*
X107847190Y-85135321D01*
X107881300Y-85155015D01*
X107917577Y-85175990D01*
X107955861Y-85198152D01*
X107995988Y-85221409D01*
X108037797Y-85245667D01*
X108081126Y-85270832D01*
X108125812Y-85296812D01*
X108171693Y-85323513D01*
X108174252Y-85325003D01*
X108218294Y-85350647D01*
X108261294Y-85375685D01*
X108303085Y-85400020D01*
X108343499Y-85423554D01*
X108382370Y-85446190D01*
X108419530Y-85467831D01*
X108454812Y-85488379D01*
X108488047Y-85507736D01*
X108519070Y-85525805D01*
X108547712Y-85542488D01*
X108573806Y-85557688D01*
X108597185Y-85571308D01*
X108617682Y-85583250D01*
X108635129Y-85593417D01*
X108649358Y-85601710D01*
X108660203Y-85608034D01*
X108667496Y-85612289D01*
X108671070Y-85614379D01*
X108671421Y-85614587D01*
X109259071Y-85614587D01*
X109245243Y-85585359D01*
X109212882Y-85527540D01*
X109176509Y-85471827D01*
X109136187Y-85418361D01*
X109109675Y-85386906D01*
X109076422Y-85351170D01*
X109039782Y-85315625D01*
X109000836Y-85281206D01*
X108960664Y-85248849D01*
X108920347Y-85219490D01*
X108902585Y-85207595D01*
X108898798Y-85205291D01*
X108891251Y-85200845D01*
X108880160Y-85194381D01*
X108865741Y-85186024D01*
X108848210Y-85175896D01*
X108827783Y-85164121D01*
X108804678Y-85150824D01*
X108779110Y-85136127D01*
X108751295Y-85120154D01*
X108721450Y-85103029D01*
X108689791Y-85084876D01*
X108656534Y-85065817D01*
X108621897Y-85045977D01*
X108586094Y-85025480D01*
X108549343Y-85004448D01*
X108511859Y-84983006D01*
X108473859Y-84961277D01*
X108435560Y-84939384D01*
X108397177Y-84917452D01*
X108358927Y-84895604D01*
X108321026Y-84873963D01*
X108283691Y-84852654D01*
X108247137Y-84831799D01*
X108211581Y-84811523D01*
X108177240Y-84791949D01*
X108144330Y-84773201D01*
X108113066Y-84755402D01*
X108083666Y-84738675D01*
X108056346Y-84723145D01*
X108031321Y-84708936D01*
X108008808Y-84696170D01*
X107989025Y-84684971D01*
X107972185Y-84675464D01*
X107958507Y-84667770D01*
X107948207Y-84662016D01*
X107941500Y-84658323D01*
X107940847Y-84657970D01*
X107927567Y-84651175D01*
X107911067Y-84643274D01*
X107892420Y-84634742D01*
X107872700Y-84626056D01*
X107852980Y-84617693D01*
X107834335Y-84610129D01*
X107824492Y-84606317D01*
X107774084Y-84588735D01*
X107722984Y-84574021D01*
X107670173Y-84561923D01*
X107614634Y-84552190D01*
X107594171Y-84549270D01*
X107577029Y-84547381D01*
X107556304Y-84545779D01*
X107532979Y-84544487D01*
X107508042Y-84543527D01*
X107482476Y-84542923D01*
X107457268Y-84542697D01*
X107433402Y-84542871D01*
X107411863Y-84543469D01*
X107393638Y-84544512D01*
X107392255Y-84544623D01*
X107325037Y-84552377D01*
X107259154Y-84564363D01*
X107194807Y-84580529D01*
X107132193Y-84600819D01*
X107071510Y-84625180D01*
X107033541Y-84643000D01*
X107028319Y-84645752D01*
X107019321Y-84650685D01*
X107006736Y-84657690D01*
X106990752Y-84666661D01*
X106971557Y-84677490D01*
X106949339Y-84690070D01*
X106924287Y-84704293D01*
X106896590Y-84720053D01*
X106866434Y-84737240D01*
X106834008Y-84755750D01*
X106799502Y-84775473D01*
X106763102Y-84796302D01*
X106724997Y-84818131D01*
X106685376Y-84840851D01*
X106644426Y-84864356D01*
X106602336Y-84888538D01*
X106559295Y-84913290D01*
X106520410Y-84935670D01*
X106477143Y-84960577D01*
X106434910Y-84984877D01*
X106393883Y-85008472D01*
X106354234Y-85031263D01*
X106316134Y-85053152D01*
X106279757Y-85074040D01*
X106245274Y-85093828D01*
X106212857Y-85112417D01*
X106182679Y-85129710D01*
X106154913Y-85145607D01*
X106129729Y-85160010D01*
X106107301Y-85172820D01*
X106087800Y-85183938D01*
X106071398Y-85193267D01*
X106058269Y-85200706D01*
X106048584Y-85206159D01*
X106042515Y-85209525D01*
X106040235Y-85210707D01*
X106040228Y-85210708D01*
X106038044Y-85209581D01*
X106032066Y-85206269D01*
X106022467Y-85200868D01*
X106009418Y-85193477D01*
X105993090Y-85184195D01*
X105973657Y-85173120D01*
X105951289Y-85160351D01*
X105926159Y-85145985D01*
X105898438Y-85130121D01*
X105868299Y-85112858D01*
X105835912Y-85094293D01*
X105801451Y-85074526D01*
X105765086Y-85053655D01*
X105726989Y-85031777D01*
X105687333Y-85008993D01*
X105646289Y-84985399D01*
X105604030Y-84961094D01*
X105560726Y-84936177D01*
X105557954Y-84934581D01*
X105504760Y-84903968D01*
X105455363Y-84875549D01*
X105409597Y-84849231D01*
X105367294Y-84824923D01*
X105328287Y-84802532D01*
X105292409Y-84781965D01*
X105259492Y-84763130D01*
X105229369Y-84745935D01*
X105201874Y-84730288D01*
X105176840Y-84716095D01*
X105154098Y-84703265D01*
X105133482Y-84691706D01*
X105114824Y-84681324D01*
X105097959Y-84672028D01*
X105082717Y-84663725D01*
X105068933Y-84656323D01*
X105056439Y-84649729D01*
X105045068Y-84643851D01*
X105034653Y-84638597D01*
X105025026Y-84633874D01*
X105016021Y-84629590D01*
X105007470Y-84625653D01*
X104999206Y-84621970D01*
X104991063Y-84618449D01*
X104982872Y-84614997D01*
X104974467Y-84611522D01*
X104970229Y-84609786D01*
X104907777Y-84586730D01*
X104843882Y-84567939D01*
X104778837Y-84553444D01*
X104712934Y-84543276D01*
X104646463Y-84537464D01*
X104579717Y-84536039D01*
X104512988Y-84539032D01*
X104512988Y-84539032D01*
G37*
X104512988Y-84539032D02*
X104446567Y-84546473D01*
X104413451Y-84551891D01*
X104355831Y-84564325D01*
X104297855Y-84580698D01*
X104240672Y-84600628D01*
X104185431Y-84623733D01*
X104157162Y-84637221D01*
X104150941Y-84640474D01*
X104141011Y-84645862D01*
X104127588Y-84653262D01*
X104110889Y-84662550D01*
X104091130Y-84673602D01*
X104068526Y-84686296D01*
X104043296Y-84700507D01*
X104015654Y-84716112D01*
X103985818Y-84732988D01*
X103954003Y-84751010D01*
X103920427Y-84770055D01*
X103885305Y-84790000D01*
X103848853Y-84810721D01*
X103811289Y-84832094D01*
X103772829Y-84853997D01*
X103733688Y-84876304D01*
X103694083Y-84898894D01*
X103654232Y-84921641D01*
X103614349Y-84944424D01*
X103574651Y-84967117D01*
X103535355Y-84989598D01*
X103496677Y-85011742D01*
X103458834Y-85033427D01*
X103422041Y-85054529D01*
X103386515Y-85074924D01*
X103352473Y-85094489D01*
X103320131Y-85113099D01*
X103289705Y-85130632D01*
X103261411Y-85146964D01*
X103235467Y-85161972D01*
X103212088Y-85175531D01*
X103191490Y-85187518D01*
X103173890Y-85197810D01*
X103159505Y-85206283D01*
X103148551Y-85212814D01*
X103141243Y-85217278D01*
X103138874Y-85218797D01*
X103085055Y-85257312D01*
X103034100Y-85299286D01*
X102986212Y-85344515D01*
X102941595Y-85392796D01*
X102900452Y-85443925D01*
X102866586Y-85492167D01*
X102858642Y-85504168D01*
X102851251Y-85515146D01*
X102844886Y-85524408D01*
X102840026Y-85531264D01*
X102837144Y-85535020D01*
X102837025Y-85535153D01*
X102833650Y-85539386D01*
X102832243Y-85542227D01*
X102832243Y-85542229D01*
X102831245Y-85544747D01*
X102828461Y-85550677D01*
X102824213Y-85559365D01*
X102818820Y-85570157D01*
X102812602Y-85582402D01*
X102811831Y-85583909D01*
X102782750Y-85645292D01*
X102758162Y-85707255D01*
X102737995Y-85770065D01*
X102722176Y-85833989D01*
X102710632Y-85899292D01*
X102703291Y-85966243D01*
X102701845Y-85987581D01*
X102701603Y-85994098D01*
X102701372Y-86005050D01*
X102701151Y-86020293D01*
X102700941Y-86039686D01*
X102700743Y-86063087D01*
X102700558Y-86090352D01*
X102700385Y-86121341D01*
X102700226Y-86155910D01*
X102700081Y-86193917D01*
X102699951Y-86235221D01*
X102699836Y-86279678D01*
X102699737Y-86327146D01*
X102699654Y-86377484D01*
X102699589Y-86430548D01*
X102699540Y-86486197D01*
X102699510Y-86544288D01*
X102699501Y-86581392D01*
X102699414Y-87136302D01*
X102132580Y-87462383D01*
X102084977Y-87489771D01*
X102038187Y-87516697D01*
X101992382Y-87543062D01*
X101947732Y-87568769D01*
X101904408Y-87593719D01*
X101862578Y-87617813D01*
X101822415Y-87640954D01*
X101784089Y-87663043D01*
X101747770Y-87683981D01*
X101713628Y-87703672D01*
X101681834Y-87722015D01*
X101652558Y-87738914D01*
X101625971Y-87754269D01*
X101602243Y-87767982D01*
X101581545Y-87779955D01*
X101564047Y-87790090D01*
X101549919Y-87798289D01*
X101539332Y-87804452D01*
X101532457Y-87808483D01*
X101530453Y-87809674D01*
X101474213Y-87846115D01*
X101420853Y-87886073D01*
X101370500Y-87929408D01*
X101323283Y-87975978D01*
X101279330Y-88025644D01*
X101238767Y-88078266D01*
X101201724Y-88133702D01*
X101168329Y-88191813D01*
X101151241Y-88225527D01*
X101124061Y-88286743D01*
X101101298Y-88348864D01*
X101082893Y-88412111D01*
X101068789Y-88476703D01*
X101058929Y-88542859D01*
X101054340Y-88592798D01*
X101054094Y-88598743D01*
X101053858Y-88609150D01*
X101053632Y-88623905D01*
X101053419Y-88642893D01*
X101053217Y-88666001D01*
X101053027Y-88693114D01*
X101052851Y-88724117D01*
X101052688Y-88758896D01*
X101052538Y-88797337D01*
X101052403Y-88839326D01*
X101052282Y-88884747D01*
X101052176Y-88933488D01*
X101052086Y-88985432D01*
X101052012Y-89040467D01*
X101051955Y-89098478D01*
X101051914Y-89159350D01*
X101051895Y-89206059D01*
X101051880Y-89267741D01*
X101051870Y-89325018D01*
X101051869Y-89378061D01*
X101051876Y-89427040D01*
X101051893Y-89472128D01*
X101051920Y-89513495D01*
X101051959Y-89551313D01*
X101052010Y-89585752D01*
X101052074Y-89616985D01*
X101052153Y-89645181D01*
X101052247Y-89670513D01*
X101052357Y-89693151D01*
X101052485Y-89713267D01*
X101052630Y-89731032D01*
X101052795Y-89746616D01*
X101052980Y-89760192D01*
X101053186Y-89771931D01*
X101053413Y-89782003D01*
X101053664Y-89790580D01*
X101053938Y-89797832D01*
X101054237Y-89803932D01*
X101054562Y-89809051D01*
X101054914Y-89813358D01*
X101055293Y-89817027D01*
X101055294Y-89817032D01*
X101065264Y-89883854D01*
X101079561Y-89949368D01*
X101098138Y-90013414D01*
X101120948Y-90075833D01*
X101147944Y-90136467D01*
X101151782Y-90144257D01*
X101183670Y-90203205D01*
X101219248Y-90259536D01*
X101258386Y-90313102D01*
X101300953Y-90363756D01*
X101346820Y-90411349D01*
X101395857Y-90455734D01*
X101447933Y-90496762D01*
X101483297Y-90521524D01*
X101488505Y-90524817D01*
X101497534Y-90530301D01*
X101510236Y-90537891D01*
X101526464Y-90547500D01*
X101546068Y-90559042D01*
X101568902Y-90572432D01*
X101594816Y-90587584D01*
X101623663Y-90604410D01*
X101655294Y-90622826D01*
X101689563Y-90642744D01*
X101726319Y-90664080D01*
X101765416Y-90686746D01*
X101806705Y-90710658D01*
X101850038Y-90735728D01*
X101895267Y-90761871D01*
X101942244Y-90789000D01*
X101990820Y-90817030D01*
X102040848Y-90845875D01*
X102092180Y-90875448D01*
X102109716Y-90885546D01*
X102699523Y-91225124D01*
X102699556Y-91852290D01*
X102699562Y-91918321D01*
X102699574Y-91979946D01*
X102699593Y-92037333D01*
X102699622Y-92090652D01*
X102699663Y-92140074D01*
X102699717Y-92185767D01*
X102699786Y-92227901D01*
X102699872Y-92266646D01*
X102699978Y-92302172D01*
X102700104Y-92334648D01*
X102700253Y-92364244D01*
X102700427Y-92391130D01*
X102700628Y-92415475D01*
X102700856Y-92437448D01*
X102701116Y-92457220D01*
X102701407Y-92474960D01*
X102701733Y-92490838D01*
X102702094Y-92505024D01*
X102702493Y-92517686D01*
X102702933Y-92528995D01*
X102703413Y-92539120D01*
X102703938Y-92548232D01*
X102704507Y-92556499D01*
X102705124Y-92564091D01*
X102705791Y-92571178D01*
X102706508Y-92577930D01*
X102707278Y-92584515D01*
X102707727Y-92588149D01*
X102718293Y-92654299D01*
X102733138Y-92719148D01*
X102752141Y-92782507D01*
X102775185Y-92844190D01*
X102802151Y-92904009D01*
X102832918Y-92961776D01*
X102867369Y-93017304D01*
X102905384Y-93070405D01*
X102946845Y-93120893D01*
X102991632Y-93168578D01*
X103039627Y-93213275D01*
X103090710Y-93254795D01*
X103144762Y-93292951D01*
X103162025Y-93304018D01*
X103166803Y-93306896D01*
X103175294Y-93311880D01*
X103187267Y-93318836D01*
X103202491Y-93327634D01*
X103220735Y-93338143D01*
X103241768Y-93350230D01*
X103265358Y-93363764D01*
X103291276Y-93378615D01*
X103319290Y-93394649D01*
X103349168Y-93411736D01*
X103380681Y-93429744D01*
X103413597Y-93448542D01*
X103447685Y-93467998D01*
X103482714Y-93487980D01*
X103518454Y-93508358D01*
X103554672Y-93528999D01*
X103591139Y-93549771D01*
X103627624Y-93570545D01*
X103663894Y-93591187D01*
X103699720Y-93611566D01*
X103734871Y-93631552D01*
X103769115Y-93651011D01*
X103802221Y-93669814D01*
X103833959Y-93687828D01*
X103864097Y-93704921D01*
X103892405Y-93720963D01*
X103918652Y-93735821D01*
X103942606Y-93749364D01*
X103964037Y-93761461D01*
X103982714Y-93771981D01*
X103998405Y-93780790D01*
X104010881Y-93787759D01*
X104019909Y-93792755D01*
X104025259Y-93795647D01*
X104026057Y-93796058D01*
X104082969Y-93822132D01*
X104142578Y-93844805D01*
X104204354Y-93863918D01*
X104267763Y-93879312D01*
X104332275Y-93890830D01*
X104353955Y-93893783D01*
X104362989Y-93894638D01*
X104375750Y-93895456D01*
X104391474Y-93896219D01*
X104409396Y-93896911D01*
X104428753Y-93897513D01*
X104448779Y-93898011D01*
X104468711Y-93898385D01*
X104487783Y-93898620D01*
X104505231Y-93898698D01*
X104520292Y-93898602D01*
X104532199Y-93898315D01*
X104539306Y-93897906D01*
X104600926Y-93890917D01*
X104659818Y-93881013D01*
X104716813Y-93867963D01*
X104772741Y-93851537D01*
X104828433Y-93831504D01*
X104884719Y-93807634D01*
X104914017Y-93793862D01*
X104919462Y-93791039D01*
X104928720Y-93786010D01*
X104941640Y-93778862D01*
X104958073Y-93769679D01*
X104977869Y-93758547D01*
X105000878Y-93745551D01*
X105026950Y-93730776D01*
X105055935Y-93714309D01*
X105087685Y-93696234D01*
X105122048Y-93676637D01*
X105158876Y-93655602D01*
X105198018Y-93633217D01*
X105239325Y-93609565D01*
X105282646Y-93584732D01*
X105327833Y-93558804D01*
X105374735Y-93531866D01*
X105423202Y-93504004D01*
X105473085Y-93475302D01*
X105495684Y-93462291D01*
X106040163Y-93148751D01*
X106583190Y-93461406D01*
X106629748Y-93488203D01*
X106675484Y-93514510D01*
X106720226Y-93540227D01*
X106763799Y-93565256D01*
X106806031Y-93589497D01*
X106846746Y-93612851D01*
X106885772Y-93635218D01*
X106922934Y-93656500D01*
X106958060Y-93676596D01*
X106990976Y-93695409D01*
X107021507Y-93712837D01*
X107049480Y-93728784D01*
X107074722Y-93743148D01*
X107097059Y-93755831D01*
X107116318Y-93766734D01*
X107132323Y-93775757D01*
X107144903Y-93782801D01*
X107153883Y-93787767D01*
X107159090Y-93790555D01*
X107159397Y-93790711D01*
X107216227Y-93817113D01*
X107273785Y-93839569D01*
X107332616Y-93858241D01*
X107393268Y-93873288D01*
X107456290Y-93884872D01*
X107499207Y-93890671D01*
X107510458Y-93891637D01*
X107525922Y-93892417D01*
X107545240Y-93893000D01*
X107568053Y-93893376D01*
X107593999Y-93893536D01*
X107603324Y-93893539D01*
X107631861Y-93893376D01*
X107656746Y-93892896D01*
X107678898Y-93892022D01*
X107699235Y-93890678D01*
X107718677Y-93888788D01*
X107738141Y-93886274D01*
X107758548Y-93883060D01*
X107780814Y-93879069D01*
X107784099Y-93878450D01*
X107815021Y-93871905D01*
X107847733Y-93863724D01*
X107881288Y-93854217D01*
X107914744Y-93843689D01*
X107947153Y-93832451D01*
X107977571Y-93820809D01*
X108005054Y-93809071D01*
X108022363Y-93800799D01*
X108027639Y-93798000D01*
X108036607Y-93793074D01*
X108049039Y-93786152D01*
X108064707Y-93777365D01*
X108083385Y-93766842D01*
X108104846Y-93754713D01*
X108128862Y-93741108D01*
X108155205Y-93726158D01*
X108183650Y-93709993D01*
X108213968Y-93692742D01*
X108245932Y-93674536D01*
X108279315Y-93655504D01*
X108313889Y-93635778D01*
X108349429Y-93615486D01*
X108385705Y-93594759D01*
X108422492Y-93573727D01*
X108459561Y-93552521D01*
X108496686Y-93531269D01*
X108533639Y-93510103D01*
X108570193Y-93489152D01*
X108606122Y-93468546D01*
X108641196Y-93448416D01*
X108675191Y-93428891D01*
X108707877Y-93410102D01*
X108739028Y-93392178D01*
X108768417Y-93375250D01*
X108795816Y-93359448D01*
X108820999Y-93344902D01*
X108843737Y-93331741D01*
X108863804Y-93320097D01*
X108880973Y-93310098D01*
X108895016Y-93301876D01*
X108905706Y-93295560D01*
X108912815Y-93291280D01*
X108915658Y-93289487D01*
X108967733Y-93251918D01*
X109017663Y-93210470D01*
X109065152Y-93165450D01*
X109109905Y-93117164D01*
X109151628Y-93065920D01*
X109190026Y-93012024D01*
X109205579Y-92987889D01*
X109215330Y-92971577D01*
X109226169Y-92952257D01*
X109237586Y-92930936D01*
X109249070Y-92908623D01*
X109260110Y-92886325D01*
X109270196Y-92865051D01*
X109278818Y-92845808D01*
X109284595Y-92831852D01*
X109302649Y-92782637D01*
X109317705Y-92734426D01*
X109330000Y-92686176D01*
X109339769Y-92636844D01*
X109347248Y-92585389D01*
X109352632Y-92531273D01*
X109352996Y-92526257D01*
X109353334Y-92520560D01*
X109353647Y-92514017D01*
X109353937Y-92506461D01*
X109354205Y-92497723D01*
X109354451Y-92487638D01*
X109354675Y-92476038D01*
X109354880Y-92462757D01*
X109355066Y-92447626D01*
X109355234Y-92430481D01*
X109355384Y-92411152D01*
X109355518Y-92389474D01*
X109355636Y-92365280D01*
X109355739Y-92338402D01*
X109355829Y-92308674D01*
X109355906Y-92275928D01*
X109355970Y-92239997D01*
X109356024Y-92200715D01*
X109356067Y-92157915D01*
X109356101Y-92111429D01*
X109356126Y-92061091D01*
X109356144Y-92006733D01*
X109356155Y-91948189D01*
X109356160Y-91885292D01*
X109356161Y-91863093D01*
X109356168Y-91239203D01*
X109957840Y-90892887D01*
X110006704Y-90864753D01*
X110054662Y-90837121D01*
X110101555Y-90810086D01*
X110147223Y-90783739D01*
X110191505Y-90758174D01*
X110234243Y-90733483D01*
X110275275Y-90709759D01*
X110314443Y-90687094D01*
X110351586Y-90665583D01*
X110386544Y-90645316D01*
X110419157Y-90626388D01*
X110449266Y-90608890D01*
X110476711Y-90592916D01*
X110501330Y-90578559D01*
X110522966Y-90565911D01*
X110541457Y-90555064D01*
X110556645Y-90546113D01*
X110568368Y-90539149D01*
X110576466Y-90534265D01*
X110580781Y-90531554D01*
X110581097Y-90531337D01*
X110592787Y-90523107D01*
X110606029Y-90513817D01*
X110618699Y-90504957D01*
X110624044Y-90501230D01*
X110675874Y-90462420D01*
X110725019Y-90420106D01*
X110771248Y-90374569D01*
X110814329Y-90326085D01*
X110854031Y-90274934D01*
X110890123Y-90221394D01*
X110922374Y-90165742D01*
X110935427Y-90139114D01*
X110346982Y-90139114D01*
X110346184Y-90140995D01*
X110342731Y-90143935D01*
X110340137Y-90145507D01*
X110333811Y-90149224D01*
X110323958Y-90154969D01*
X110310784Y-90162624D01*
X110294495Y-90172068D01*
X110275296Y-90183186D01*
X110253392Y-90195857D01*
X110228989Y-90209964D01*
X110202293Y-90225388D01*
X110173508Y-90242011D01*
X110142840Y-90259715D01*
X110110495Y-90278381D01*
X110076677Y-90297891D01*
X110041594Y-90318127D01*
X110005449Y-90338969D01*
X109968448Y-90360301D01*
X109930798Y-90382003D01*
X109892702Y-90403957D01*
X109854368Y-90426045D01*
X109815999Y-90448148D01*
X109777802Y-90470148D01*
X109739982Y-90491927D01*
X109702745Y-90513367D01*
X109666295Y-90534348D01*
X109630839Y-90554753D01*
X109596581Y-90574463D01*
X109563728Y-90593360D01*
X109532484Y-90611326D01*
X109503056Y-90628242D01*
X109475648Y-90643989D01*
X109450465Y-90658451D01*
X109427715Y-90671507D01*
X109407601Y-90683040D01*
X109390330Y-90692931D01*
X109376106Y-90701063D01*
X109365135Y-90707316D01*
X109357624Y-90711573D01*
X109353776Y-90713714D01*
X109353293Y-90713957D01*
X109353141Y-90711708D01*
X109352992Y-90705077D01*
X109352847Y-90694255D01*
X109352708Y-90679438D01*
X109352573Y-90660818D01*
X109352445Y-90638589D01*
X109352323Y-90612944D01*
X109352208Y-90584077D01*
X109352101Y-90552182D01*
X109352002Y-90517451D01*
X109351912Y-90480078D01*
X109351831Y-90440258D01*
X109351761Y-90398182D01*
X109351701Y-90354045D01*
X109351652Y-90308041D01*
X109351615Y-90260362D01*
X109351590Y-90211202D01*
X109351578Y-90160755D01*
X109351577Y-90140580D01*
X109351578Y-90079894D01*
X109351583Y-90023620D01*
X109351594Y-89971593D01*
X109351610Y-89923650D01*
X109351632Y-89879625D01*
X109351663Y-89839353D01*
X109351704Y-89802671D01*
X109351754Y-89769413D01*
X109351815Y-89739415D01*
X109351889Y-89712513D01*
X109351977Y-89688541D01*
X109352079Y-89667336D01*
X109352196Y-89648733D01*
X109352330Y-89632567D01*
X109352482Y-89618674D01*
X109352653Y-89606888D01*
X109352843Y-89597046D01*
X109353055Y-89588984D01*
X109353289Y-89582535D01*
X109353546Y-89577536D01*
X109353827Y-89573823D01*
X109354133Y-89571230D01*
X109354466Y-89569593D01*
X109354826Y-89568748D01*
X109355214Y-89568530D01*
X109355323Y-89568556D01*
X109357568Y-89569792D01*
X109363568Y-89573192D01*
X109373119Y-89578637D01*
X109386013Y-89586009D01*
X109402046Y-89595190D01*
X109421012Y-89606061D01*
X109442705Y-89618504D01*
X109466921Y-89632402D01*
X109493452Y-89647635D01*
X109522094Y-89664085D01*
X109552641Y-89681634D01*
X109584887Y-89700164D01*
X109618627Y-89719557D01*
X109653656Y-89739694D01*
X109689767Y-89760456D01*
X109726755Y-89781726D01*
X109764415Y-89803386D01*
X109802540Y-89825316D01*
X109840926Y-89847399D01*
X109879366Y-89869517D01*
X109917655Y-89891550D01*
X109955588Y-89913382D01*
X109992959Y-89934893D01*
X110029562Y-89955965D01*
X110065192Y-89976481D01*
X110099642Y-89996321D01*
X110132709Y-90015367D01*
X110164185Y-90033501D01*
X110193865Y-90050606D01*
X110221545Y-90066561D01*
X110247017Y-90081250D01*
X110270077Y-90094554D01*
X110290519Y-90106355D01*
X110308137Y-90116534D01*
X110322725Y-90124973D01*
X110334079Y-90131553D01*
X110341993Y-90136158D01*
X110346260Y-90138667D01*
X110346982Y-90139114D01*
X110935427Y-90139114D01*
X110950553Y-90108259D01*
X110950829Y-90107641D01*
X110973009Y-90054090D01*
X110991772Y-90000314D01*
X111007295Y-89945612D01*
X111019749Y-89889281D01*
X111029311Y-89830620D01*
X111036154Y-89768928D01*
X111036798Y-89761322D01*
X111037230Y-89753651D01*
X111037638Y-89741667D01*
X111038021Y-89725627D01*
X111038379Y-89705784D01*
X111038713Y-89682396D01*
X111039021Y-89655717D01*
X111039305Y-89626004D01*
X111039563Y-89593512D01*
X111039797Y-89558497D01*
X111040006Y-89521214D01*
X111040190Y-89481919D01*
X111040348Y-89440869D01*
X111040483Y-89398318D01*
X111040592Y-89354522D01*
X111040677Y-89309736D01*
X111040736Y-89264218D01*
X111040771Y-89218221D01*
X111040780Y-89173775D01*
X110582676Y-89173775D01*
X110582676Y-89174495D01*
X110582674Y-89235602D01*
X110582666Y-89292293D01*
X110582653Y-89344729D01*
X110582632Y-89393071D01*
X110582603Y-89437479D01*
X110582566Y-89478114D01*
X110582518Y-89515136D01*
X110582460Y-89548707D01*
X110582389Y-89578987D01*
X110582306Y-89606137D01*
X110582210Y-89630318D01*
X110582098Y-89651689D01*
X110581971Y-89670413D01*
X110581828Y-89686649D01*
X110581667Y-89700559D01*
X110581487Y-89712303D01*
X110581288Y-89722041D01*
X110581069Y-89729935D01*
X110580829Y-89736146D01*
X110580566Y-89740833D01*
X110580280Y-89744158D01*
X110579970Y-89746281D01*
X110579635Y-89747364D01*
X110579295Y-89747575D01*
X110577148Y-89746374D01*
X110571136Y-89742946D01*
X110561357Y-89737350D01*
X110547911Y-89729641D01*
X110530898Y-89719878D01*
X110510418Y-89708119D01*
X110486570Y-89694420D01*
X110459455Y-89678839D01*
X110429171Y-89661433D01*
X110395820Y-89642260D01*
X110359500Y-89621377D01*
X110320311Y-89598842D01*
X110278353Y-89574711D01*
X110233725Y-89549042D01*
X110186529Y-89521893D01*
X110136862Y-89493321D01*
X110084826Y-89463384D01*
X110030519Y-89432138D01*
X109974042Y-89399642D01*
X109915494Y-89365951D01*
X109854975Y-89331125D01*
X109809477Y-89304941D01*
X108898521Y-89304941D01*
X108897910Y-90925378D01*
X108897299Y-92545816D01*
X108890927Y-92574419D01*
X108877651Y-92623926D01*
X108860400Y-92671254D01*
X108839253Y-92716280D01*
X108814291Y-92758879D01*
X108785594Y-92798925D01*
X108753242Y-92836295D01*
X108717315Y-92870863D01*
X108682171Y-92899342D01*
X108677259Y-92902658D01*
X108668717Y-92908020D01*
X108656896Y-92915219D01*
X108642147Y-92924049D01*
X108624825Y-92934303D01*
X108605281Y-92945772D01*
X108583866Y-92958249D01*
X108560935Y-92971527D01*
X108536838Y-92985398D01*
X108511929Y-92999654D01*
X108509487Y-93001047D01*
X108487178Y-93013770D01*
X108461344Y-93028501D01*
X108432435Y-93044983D01*
X108400901Y-93062961D01*
X108367193Y-93082176D01*
X108331763Y-93102373D01*
X108295060Y-93123293D01*
X108257535Y-93144681D01*
X108219639Y-93166279D01*
X108181823Y-93187831D01*
X108144537Y-93209079D01*
X108108232Y-93229767D01*
X108090730Y-93239740D01*
X107826433Y-93390336D01*
X107826047Y-92882171D01*
X107372207Y-92882171D01*
X107372207Y-92884482D01*
X107372203Y-92942942D01*
X107372188Y-92996977D01*
X107372163Y-93046740D01*
X107372127Y-93092384D01*
X107372078Y-93134060D01*
X107372016Y-93171922D01*
X107371940Y-93206120D01*
X107371848Y-93236808D01*
X107371741Y-93264138D01*
X107371617Y-93288262D01*
X107371476Y-93309333D01*
X107371316Y-93327502D01*
X107371137Y-93342923D01*
X107370938Y-93355747D01*
X107370717Y-93366126D01*
X107370475Y-93374214D01*
X107370210Y-93380162D01*
X107369921Y-93384122D01*
X107369608Y-93386248D01*
X107369347Y-93386729D01*
X107366268Y-93385675D01*
X107360144Y-93382844D01*
X107351926Y-93378696D01*
X107344443Y-93374716D01*
X107339223Y-93371814D01*
X107330449Y-93366858D01*
X107318342Y-93359973D01*
X107303124Y-93351289D01*
X107285016Y-93340932D01*
X107264240Y-93329030D01*
X107241017Y-93315712D01*
X107215567Y-93301103D01*
X107188114Y-93285333D01*
X107158877Y-93268528D01*
X107128078Y-93250817D01*
X107095939Y-93232326D01*
X107062680Y-93213184D01*
X107028524Y-93193518D01*
X106993691Y-93173456D01*
X106958404Y-93153125D01*
X106922882Y-93132652D01*
X106887348Y-93112167D01*
X106852023Y-93091795D01*
X106817128Y-93071665D01*
X106782884Y-93051904D01*
X106749514Y-93032640D01*
X106717238Y-93014001D01*
X106686277Y-92996113D01*
X106656853Y-92979106D01*
X106629188Y-92963106D01*
X106603502Y-92948240D01*
X106580017Y-92934637D01*
X106558954Y-92922425D01*
X106540535Y-92911729D01*
X106524981Y-92902680D01*
X106512513Y-92895403D01*
X106503353Y-92890027D01*
X106497722Y-92886679D01*
X106495841Y-92885488D01*
X106497784Y-92884232D01*
X106503478Y-92880823D01*
X106512705Y-92875389D01*
X106525247Y-92868054D01*
X106540884Y-92858944D01*
X106559399Y-92848185D01*
X106580573Y-92835903D01*
X106604188Y-92822223D01*
X106630025Y-92807272D01*
X106657866Y-92791174D01*
X106687493Y-92774056D01*
X106718687Y-92756044D01*
X106751230Y-92737263D01*
X106784904Y-92717838D01*
X106819489Y-92697896D01*
X106854768Y-92677563D01*
X106890523Y-92656964D01*
X106926534Y-92636224D01*
X106962584Y-92615470D01*
X106998454Y-92594828D01*
X107033926Y-92574423D01*
X107068781Y-92554380D01*
X107102801Y-92534826D01*
X107135767Y-92515887D01*
X107167462Y-92497687D01*
X107197667Y-92480353D01*
X107226163Y-92464011D01*
X107252732Y-92448786D01*
X107277156Y-92434804D01*
X107299215Y-92422191D01*
X107318693Y-92411073D01*
X107335371Y-92401574D01*
X107349029Y-92393822D01*
X107359450Y-92387941D01*
X107366415Y-92384058D01*
X107369707Y-92382298D01*
X107369943Y-92382203D01*
X107370230Y-92384487D01*
X107370498Y-92391321D01*
X107370748Y-92402678D01*
X107370978Y-92418533D01*
X107371188Y-92438858D01*
X107371380Y-92463628D01*
X107371552Y-92492815D01*
X107371704Y-92526393D01*
X107371836Y-92564336D01*
X107371948Y-92606617D01*
X107372041Y-92653210D01*
X107372113Y-92704089D01*
X107372165Y-92759226D01*
X107372196Y-92818595D01*
X107372207Y-92882171D01*
X107826047Y-92882171D01*
X107825717Y-92448635D01*
X107825675Y-92387958D01*
X107825641Y-92322968D01*
X107825613Y-92253926D01*
X107825591Y-92181094D01*
X107825575Y-92104736D01*
X107825566Y-92025113D01*
X107825562Y-91942488D01*
X107825565Y-91857122D01*
X107825573Y-91769280D01*
X107825587Y-91679223D01*
X107825607Y-91587213D01*
X107825632Y-91493512D01*
X107825663Y-91398384D01*
X107825699Y-91302091D01*
X107825740Y-91204894D01*
X107825769Y-91143498D01*
X107372207Y-91143498D01*
X107372207Y-91855172D01*
X106038707Y-92622964D01*
X105951186Y-92673356D01*
X105867544Y-92721515D01*
X105787691Y-92767492D01*
X105711540Y-92811337D01*
X105639003Y-92853101D01*
X105569991Y-92892834D01*
X105504418Y-92930588D01*
X105442194Y-92966412D01*
X105383232Y-93000358D01*
X105327443Y-93032475D01*
X105274740Y-93062815D01*
X105225034Y-93091428D01*
X105178238Y-93118365D01*
X105134263Y-93143676D01*
X105093021Y-93167412D01*
X105054424Y-93189624D01*
X105018384Y-93210362D01*
X104984813Y-93229676D01*
X104953623Y-93247618D01*
X104924726Y-93264238D01*
X104898033Y-93279587D01*
X104873458Y-93293714D01*
X104850911Y-93306672D01*
X104830304Y-93318510D01*
X104811550Y-93329279D01*
X104794561Y-93339029D01*
X104779247Y-93347812D01*
X104765523Y-93355678D01*
X104753298Y-93362677D01*
X104742485Y-93368860D01*
X104732997Y-93374278D01*
X104724744Y-93378981D01*
X104717640Y-93383020D01*
X104711595Y-93386446D01*
X104706522Y-93389308D01*
X104702333Y-93391658D01*
X104698940Y-93393547D01*
X104696254Y-93395025D01*
X104694187Y-93396142D01*
X104692653Y-93396949D01*
X104691561Y-93397497D01*
X104690825Y-93397836D01*
X104690356Y-93398017D01*
X104690066Y-93398091D01*
X104689867Y-93398108D01*
X104689758Y-93398111D01*
X104689621Y-93395860D01*
X104689491Y-93389207D01*
X104689367Y-93378329D01*
X104689251Y-93363401D01*
X104689143Y-93344598D01*
X104689042Y-93322096D01*
X104688949Y-93296071D01*
X104688864Y-93266698D01*
X104688788Y-93234152D01*
X104688721Y-93198609D01*
X104688663Y-93160245D01*
X104688614Y-93119235D01*
X104688575Y-93075755D01*
X104688547Y-93029980D01*
X104688528Y-92982085D01*
X104688520Y-92932246D01*
X104688523Y-92880639D01*
X104688538Y-92827439D01*
X104688564Y-92772822D01*
X104688601Y-92716963D01*
X104688614Y-92701257D01*
X104689189Y-92004311D01*
X105404279Y-91592426D01*
X105457478Y-91561787D01*
X105509744Y-91531692D01*
X105560933Y-91502223D01*
X105610901Y-91473464D01*
X105659503Y-91445497D01*
X105706595Y-91418404D01*
X105752033Y-91392270D01*
X105795672Y-91367177D01*
X105837368Y-91343208D01*
X105876977Y-91320446D01*
X105914354Y-91298973D01*
X105949354Y-91278873D01*
X105981834Y-91260229D01*
X106011650Y-91243123D01*
X106038656Y-91227639D01*
X106062708Y-91213859D01*
X106083662Y-91201866D01*
X106101374Y-91191744D01*
X106115699Y-91183575D01*
X106126493Y-91177441D01*
X106133611Y-91173427D01*
X106136910Y-91171615D01*
X106136918Y-91171610D01*
X106140302Y-91169756D01*
X106147494Y-91165707D01*
X106158336Y-91159553D01*
X106172670Y-91151385D01*
X106190340Y-91141293D01*
X106211187Y-91129367D01*
X106235055Y-91115699D01*
X106261786Y-91100377D01*
X106291222Y-91083494D01*
X106323206Y-91065138D01*
X106357580Y-91045401D01*
X106394188Y-91024373D01*
X106432871Y-91002144D01*
X106473473Y-90978804D01*
X106496821Y-90965378D01*
X105578610Y-90965378D01*
X105576796Y-90966626D01*
X105571229Y-90970031D01*
X105562126Y-90975466D01*
X105549704Y-90982808D01*
X105534177Y-90991931D01*
X105515763Y-91002711D01*
X105494677Y-91015023D01*
X105471135Y-91028742D01*
X105445353Y-91043743D01*
X105417547Y-91059902D01*
X105387934Y-91077095D01*
X105356728Y-91095195D01*
X105324147Y-91114078D01*
X105290406Y-91133621D01*
X105255721Y-91153697D01*
X105220308Y-91174182D01*
X105184383Y-91194952D01*
X105148163Y-91215881D01*
X105111863Y-91236845D01*
X105075699Y-91257719D01*
X105039887Y-91278379D01*
X105004643Y-91298699D01*
X104970184Y-91318555D01*
X104936725Y-91337821D01*
X104904482Y-91356375D01*
X104873671Y-91374089D01*
X104844508Y-91390841D01*
X104817210Y-91406504D01*
X104791992Y-91420955D01*
X104769070Y-91434068D01*
X104748661Y-91445719D01*
X104730979Y-91455782D01*
X104716242Y-91464134D01*
X104704665Y-91470650D01*
X104696465Y-91475204D01*
X104691857Y-91477672D01*
X104690906Y-91478099D01*
X104690576Y-91477320D01*
X104690271Y-91474828D01*
X104689990Y-91470472D01*
X104689732Y-91464101D01*
X104689496Y-91455565D01*
X104689281Y-91444712D01*
X104689087Y-91431392D01*
X104688913Y-91415454D01*
X104688757Y-91396747D01*
X104688620Y-91375121D01*
X104688499Y-91350425D01*
X104688395Y-91322507D01*
X104688306Y-91291218D01*
X104688232Y-91256405D01*
X104688171Y-91217920D01*
X104688123Y-91175610D01*
X104688088Y-91129325D01*
X104688064Y-91078915D01*
X104688050Y-91024228D01*
X104688050Y-91020998D01*
X104234964Y-91020998D01*
X104234964Y-91043554D01*
X104234963Y-91147118D01*
X104234959Y-91249569D01*
X104234954Y-91350812D01*
X104234945Y-91450751D01*
X104234935Y-91549290D01*
X104234923Y-91646334D01*
X104234908Y-91741787D01*
X104234891Y-91835554D01*
X104234873Y-91927538D01*
X104234852Y-92017645D01*
X104234830Y-92105778D01*
X104234805Y-92191842D01*
X104234779Y-92275742D01*
X104234751Y-92357380D01*
X104234722Y-92436663D01*
X104234690Y-92513495D01*
X104234657Y-92587779D01*
X104234623Y-92659420D01*
X104234587Y-92728322D01*
X104234550Y-92794390D01*
X104234511Y-92857528D01*
X104234471Y-92917641D01*
X104234429Y-92974633D01*
X104234387Y-93028407D01*
X104234343Y-93078870D01*
X104234298Y-93125924D01*
X104234252Y-93169474D01*
X104234204Y-93209425D01*
X104234156Y-93245681D01*
X104234107Y-93278147D01*
X104234057Y-93306726D01*
X104234006Y-93331323D01*
X104233954Y-93351842D01*
X104233902Y-93368188D01*
X104233849Y-93380265D01*
X104233795Y-93387978D01*
X104233741Y-93391231D01*
X104233729Y-93391338D01*
X104231118Y-93390387D01*
X104225973Y-93387986D01*
X104223358Y-93386678D01*
X104218972Y-93384317D01*
X104210893Y-93379836D01*
X104199351Y-93373367D01*
X104184581Y-93365043D01*
X104166813Y-93354997D01*
X104146282Y-93343361D01*
X104123219Y-93330270D01*
X104097856Y-93315855D01*
X104070427Y-93300249D01*
X104041163Y-93283586D01*
X104010297Y-93265997D01*
X103978062Y-93247618D01*
X103944689Y-93228579D01*
X103910412Y-93209014D01*
X103875463Y-93189055D01*
X103840074Y-93168837D01*
X103804478Y-93148491D01*
X103768907Y-93128150D01*
X103733594Y-93107948D01*
X103698771Y-93088018D01*
X103664670Y-93068491D01*
X103631524Y-93049501D01*
X103599566Y-93031182D01*
X103569027Y-93013665D01*
X103540141Y-92997084D01*
X103513140Y-92981572D01*
X103488256Y-92967261D01*
X103465721Y-92954284D01*
X103445769Y-92942775D01*
X103428631Y-92932866D01*
X103414541Y-92924690D01*
X103403729Y-92918380D01*
X103396430Y-92914069D01*
X103392875Y-92911889D01*
X103392874Y-92911889D01*
X103353878Y-92883226D01*
X103317480Y-92851027D01*
X103284113Y-92815730D01*
X103254210Y-92777773D01*
X103240396Y-92757476D01*
X103217808Y-92719429D01*
X103198781Y-92680547D01*
X103183063Y-92640148D01*
X103170402Y-92597546D01*
X103160548Y-92552060D01*
X103157034Y-92530942D01*
X103156799Y-92527127D01*
X103156565Y-92518837D01*
X103156331Y-92506172D01*
X103156097Y-92489233D01*
X103155866Y-92468121D01*
X103155635Y-92442936D01*
X103155406Y-92413780D01*
X103155180Y-92380753D01*
X103154955Y-92343956D01*
X103154733Y-92303490D01*
X103154514Y-92259456D01*
X103154298Y-92211955D01*
X103154085Y-92161087D01*
X103153875Y-92106953D01*
X103153670Y-92049655D01*
X103153468Y-91989293D01*
X103153271Y-91925967D01*
X103153079Y-91859779D01*
X103152891Y-91790830D01*
X103152709Y-91719220D01*
X103152532Y-91645050D01*
X103152361Y-91568422D01*
X103152195Y-91489435D01*
X103152036Y-91408191D01*
X103151883Y-91324791D01*
X103151738Y-91239335D01*
X103151599Y-91151924D01*
X103151467Y-91062659D01*
X103151343Y-90971641D01*
X103151227Y-90878971D01*
X103151119Y-90784750D01*
X103151019Y-90689078D01*
X103150928Y-90592056D01*
X103150845Y-90493786D01*
X103150772Y-90394367D01*
X103150708Y-90293902D01*
X103150654Y-90192490D01*
X103150632Y-90139436D01*
X102697234Y-90139436D01*
X102697230Y-90189666D01*
X102697215Y-90238683D01*
X102697192Y-90286291D01*
X102697160Y-90332293D01*
X102697120Y-90376494D01*
X102697072Y-90418698D01*
X102697017Y-90458708D01*
X102696955Y-90496329D01*
X102696886Y-90531364D01*
X102696811Y-90563617D01*
X102696731Y-90592892D01*
X102696646Y-90618994D01*
X102696555Y-90641725D01*
X102696461Y-90660890D01*
X102696362Y-90676294D01*
X102696260Y-90687738D01*
X102696155Y-90695029D01*
X102696047Y-90697969D01*
X102696030Y-90698023D01*
X102693965Y-90696897D01*
X102688108Y-90693586D01*
X102678632Y-90688189D01*
X102665712Y-90680806D01*
X102649521Y-90671536D01*
X102630231Y-90660480D01*
X102608017Y-90647737D01*
X102583053Y-90633407D01*
X102555511Y-90617588D01*
X102525565Y-90600382D01*
X102493388Y-90581887D01*
X102459155Y-90562203D01*
X102423038Y-90541431D01*
X102385211Y-90519669D01*
X102345848Y-90497017D01*
X102305122Y-90473575D01*
X102263206Y-90449442D01*
X102227503Y-90428882D01*
X102184512Y-90404118D01*
X102142456Y-90379883D01*
X102101515Y-90356282D01*
X102061870Y-90333419D01*
X102023702Y-90311399D01*
X101987192Y-90290326D01*
X101952520Y-90270304D01*
X101919867Y-90251440D01*
X101889415Y-90233836D01*
X101861344Y-90217598D01*
X101835835Y-90202830D01*
X101813068Y-90189636D01*
X101793225Y-90178122D01*
X101776487Y-90168392D01*
X101763034Y-90160550D01*
X101753048Y-90154701D01*
X101746708Y-90150950D01*
X101744428Y-90149559D01*
X101737027Y-90144399D01*
X101732192Y-90140249D01*
X101730554Y-90137669D01*
X101730702Y-90137352D01*
X101732822Y-90136059D01*
X101738701Y-90132604D01*
X101748129Y-90127107D01*
X101760898Y-90119688D01*
X101776801Y-90110468D01*
X101795627Y-90099565D01*
X101817170Y-90087102D01*
X101841219Y-90073197D01*
X101867568Y-90057971D01*
X101896006Y-90041545D01*
X101926326Y-90024037D01*
X101958320Y-90005570D01*
X101991778Y-89986261D01*
X102026493Y-89966233D01*
X102062255Y-89945605D01*
X102098856Y-89924496D01*
X102136088Y-89903029D01*
X102173742Y-89881321D01*
X102211610Y-89859495D01*
X102249483Y-89837669D01*
X102287152Y-89815964D01*
X102324410Y-89794500D01*
X102361047Y-89773398D01*
X102396856Y-89752777D01*
X102431627Y-89732759D01*
X102465152Y-89713461D01*
X102497223Y-89695007D01*
X102527630Y-89677514D01*
X102556167Y-89661103D01*
X102582623Y-89645896D01*
X102606791Y-89632011D01*
X102628462Y-89619569D01*
X102647428Y-89608690D01*
X102663479Y-89599494D01*
X102676408Y-89592102D01*
X102686006Y-89586633D01*
X102692065Y-89583208D01*
X102694374Y-89581948D01*
X102694690Y-89582623D01*
X102694983Y-89584999D01*
X102695255Y-89589218D01*
X102695505Y-89595425D01*
X102695735Y-89603766D01*
X102695945Y-89614384D01*
X102696136Y-89627425D01*
X102696309Y-89643031D01*
X102696464Y-89661349D01*
X102696603Y-89682523D01*
X102696725Y-89706696D01*
X102696833Y-89734014D01*
X102696926Y-89764621D01*
X102697005Y-89798661D01*
X102697071Y-89836280D01*
X102697124Y-89877621D01*
X102697167Y-89922829D01*
X102697198Y-89972049D01*
X102697219Y-90025425D01*
X102697231Y-90083102D01*
X102697234Y-90139436D01*
X103150632Y-90139436D01*
X103150611Y-90091449D01*
X103150315Y-89318974D01*
X103691524Y-89007372D01*
X103737592Y-88980851D01*
X103782625Y-88954930D01*
X103826462Y-88929702D01*
X103868943Y-88905259D01*
X103909905Y-88881694D01*
X103949189Y-88859100D01*
X103986632Y-88837568D01*
X104022073Y-88817193D01*
X104055352Y-88798065D01*
X104086308Y-88780279D01*
X104114779Y-88763926D01*
X104140604Y-88749098D01*
X104163621Y-88735890D01*
X104183671Y-88724392D01*
X104200592Y-88714699D01*
X104214222Y-88706901D01*
X104224400Y-88701093D01*
X104230966Y-88697365D01*
X104233758Y-88695812D01*
X104233849Y-88695771D01*
X104233898Y-88698043D01*
X104233947Y-88704796D01*
X104233995Y-88715935D01*
X104234042Y-88731363D01*
X104234089Y-88750985D01*
X104234135Y-88774706D01*
X104234180Y-88802429D01*
X104234225Y-88834059D01*
X104234269Y-88869501D01*
X104234311Y-88908659D01*
X104234353Y-88951437D01*
X104234394Y-88997739D01*
X104234434Y-89047470D01*
X104234473Y-89100534D01*
X104234511Y-89156836D01*
X104234547Y-89216280D01*
X104234582Y-89278770D01*
X104234616Y-89344210D01*
X104234649Y-89412506D01*
X104234681Y-89483561D01*
X104234711Y-89557280D01*
X104234739Y-89633567D01*
X104234766Y-89712326D01*
X104234792Y-89793462D01*
X104234816Y-89876879D01*
X104234838Y-89962482D01*
X104234859Y-90050174D01*
X104234878Y-90139861D01*
X104234895Y-90231446D01*
X104234910Y-90324834D01*
X104234924Y-90419929D01*
X104234936Y-90516636D01*
X104234945Y-90614859D01*
X104234953Y-90714503D01*
X104234959Y-90815471D01*
X104234963Y-90917668D01*
X104234964Y-91020998D01*
X104688050Y-91020998D01*
X104688045Y-90965753D01*
X104688050Y-90917660D01*
X104688065Y-90870789D01*
X104688089Y-90825344D01*
X104688122Y-90781531D01*
X104688163Y-90739553D01*
X104688212Y-90699616D01*
X104688268Y-90661924D01*
X104688332Y-90626682D01*
X104688402Y-90594094D01*
X104688478Y-90564366D01*
X104688559Y-90537702D01*
X104688646Y-90514306D01*
X104688737Y-90494384D01*
X104688833Y-90478139D01*
X104688933Y-90465778D01*
X104689036Y-90457503D01*
X104689141Y-90453521D01*
X104689183Y-90453176D01*
X104691248Y-90454299D01*
X104697060Y-90457583D01*
X104706403Y-90462905D01*
X104719061Y-90470139D01*
X104734817Y-90479161D01*
X104753454Y-90489846D01*
X104774755Y-90502069D01*
X104798505Y-90515705D01*
X104824485Y-90530630D01*
X104852481Y-90546719D01*
X104882274Y-90563848D01*
X104913649Y-90581890D01*
X104946388Y-90600723D01*
X104980276Y-90620220D01*
X105015095Y-90640258D01*
X105050630Y-90660711D01*
X105086662Y-90681454D01*
X105122976Y-90702364D01*
X105159355Y-90723315D01*
X105195583Y-90744182D01*
X105231442Y-90764841D01*
X105266717Y-90785166D01*
X105301190Y-90805034D01*
X105334644Y-90824320D01*
X105366864Y-90842897D01*
X105397633Y-90860643D01*
X105426734Y-90877432D01*
X105453950Y-90893140D01*
X105479064Y-90907641D01*
X105501861Y-90920811D01*
X105522124Y-90932525D01*
X105539635Y-90942659D01*
X105554178Y-90951087D01*
X105565537Y-90957685D01*
X105573495Y-90962328D01*
X105577835Y-90964892D01*
X105578610Y-90965378D01*
X106496821Y-90965378D01*
X106515835Y-90954445D01*
X106559800Y-90929156D01*
X106605212Y-90903028D01*
X106651911Y-90876151D01*
X106699742Y-90848615D01*
X106748546Y-90820512D01*
X106762448Y-90812505D01*
X106811298Y-90784371D01*
X106859121Y-90756831D01*
X106905764Y-90729974D01*
X106951076Y-90703887D01*
X106994905Y-90678657D01*
X107037098Y-90654371D01*
X107077505Y-90631118D01*
X107115972Y-90608983D01*
X107152349Y-90588055D01*
X107186483Y-90568421D01*
X107218223Y-90550168D01*
X107247416Y-90533384D01*
X107273910Y-90518156D01*
X107297555Y-90504571D01*
X107318197Y-90492717D01*
X107335686Y-90482680D01*
X107349868Y-90474550D01*
X107360593Y-90468411D01*
X107367708Y-90464353D01*
X107371061Y-90462463D01*
X107371318Y-90462329D01*
X107371390Y-90464588D01*
X107371460Y-90471248D01*
X107371528Y-90482134D01*
X107371595Y-90497069D01*
X107371659Y-90515878D01*
X107371721Y-90538386D01*
X107371780Y-90564416D01*
X107371836Y-90593794D01*
X107371890Y-90626344D01*
X107371940Y-90661890D01*
X107371986Y-90700256D01*
X107372029Y-90741267D01*
X107372067Y-90784747D01*
X107372102Y-90830521D01*
X107372132Y-90878414D01*
X107372157Y-90928248D01*
X107372177Y-90979849D01*
X107372193Y-91033042D01*
X107372203Y-91087650D01*
X107372207Y-91143498D01*
X107825769Y-91143498D01*
X107825787Y-91107057D01*
X107825839Y-91008842D01*
X107825895Y-90910511D01*
X107825957Y-90812327D01*
X107826023Y-90714551D01*
X107826094Y-90617447D01*
X107826170Y-90521277D01*
X107826250Y-90426302D01*
X107826335Y-90332787D01*
X107826423Y-90240992D01*
X107826516Y-90151181D01*
X107826574Y-90099063D01*
X107826698Y-89991138D01*
X107826825Y-89887386D01*
X107826954Y-89787825D01*
X107827086Y-89692470D01*
X107827221Y-89601338D01*
X107827358Y-89514446D01*
X107827497Y-89431811D01*
X107827639Y-89353450D01*
X107827783Y-89279378D01*
X107827930Y-89209614D01*
X107828079Y-89144172D01*
X107828230Y-89083071D01*
X107828383Y-89026326D01*
X107828538Y-88973955D01*
X107828695Y-88925973D01*
X107828855Y-88882399D01*
X107829016Y-88843247D01*
X107829179Y-88808536D01*
X107829344Y-88778282D01*
X107829511Y-88752501D01*
X107829680Y-88731209D01*
X107829850Y-88714425D01*
X107830022Y-88702164D01*
X107830196Y-88694443D01*
X107830371Y-88691279D01*
X107830405Y-88691194D01*
X107832557Y-88692321D01*
X107838510Y-88695640D01*
X107848103Y-88701058D01*
X107861173Y-88708481D01*
X107877556Y-88717816D01*
X107897091Y-88728970D01*
X107919614Y-88741849D01*
X107944962Y-88756360D01*
X107972973Y-88772409D01*
X108003484Y-88789903D01*
X108036332Y-88808750D01*
X108071354Y-88828855D01*
X108108388Y-88850125D01*
X108147270Y-88872466D01*
X108187838Y-88895787D01*
X108229929Y-88919992D01*
X108273380Y-88944989D01*
X108318029Y-88970684D01*
X108363712Y-88996985D01*
X108365593Y-88998067D01*
X108898521Y-89304941D01*
X109809477Y-89304941D01*
X109792585Y-89295220D01*
X109728423Y-89258294D01*
X109662590Y-89220404D01*
X109595184Y-89181607D01*
X109526307Y-89141962D01*
X109456057Y-89101524D01*
X109384534Y-89060352D01*
X109311838Y-89018503D01*
X109238069Y-88976034D01*
X109163327Y-88933004D01*
X109162272Y-88932396D01*
X109087445Y-88889314D01*
X109013567Y-88846775D01*
X108940738Y-88804837D01*
X108869058Y-88763557D01*
X108798629Y-88722994D01*
X108729551Y-88683206D01*
X108661925Y-88644251D01*
X108595850Y-88606186D01*
X108531429Y-88569071D01*
X108468761Y-88532962D01*
X108407948Y-88497919D01*
X108349089Y-88463998D01*
X108292286Y-88431259D01*
X108280834Y-88424657D01*
X107373352Y-88424657D01*
X107373352Y-89936419D01*
X106708604Y-90319336D01*
X106657483Y-90348779D01*
X106607373Y-90377631D01*
X106558418Y-90405809D01*
X106510766Y-90433229D01*
X106464560Y-90459807D01*
X106419948Y-90485460D01*
X106377075Y-90510104D01*
X106336088Y-90533655D01*
X106297130Y-90556031D01*
X106260350Y-90577146D01*
X106225891Y-90596918D01*
X106193901Y-90615263D01*
X106164524Y-90632097D01*
X106137907Y-90647337D01*
X106114196Y-90660898D01*
X106093536Y-90672698D01*
X106076073Y-90682652D01*
X106061953Y-90690677D01*
X106051321Y-90696690D01*
X106044324Y-90700606D01*
X106041107Y-90702343D01*
X106040906Y-90702427D01*
X106038720Y-90701311D01*
X106032714Y-90697993D01*
X106023033Y-90692556D01*
X106009821Y-90685083D01*
X105993225Y-90675656D01*
X105973387Y-90664360D01*
X105950454Y-90651276D01*
X105924571Y-90636488D01*
X105895882Y-90620079D01*
X105864532Y-90602133D01*
X105830667Y-90582731D01*
X105794431Y-90561958D01*
X105755969Y-90539896D01*
X105715427Y-90516628D01*
X105672948Y-90492237D01*
X105628678Y-90466807D01*
X105582763Y-90440420D01*
X105535346Y-90413159D01*
X105486573Y-90385109D01*
X105436589Y-90356350D01*
X105385538Y-90326967D01*
X105365289Y-90315310D01*
X104692622Y-89928021D01*
X104692622Y-88433065D01*
X105366420Y-88045124D01*
X106040219Y-87657183D01*
X106706785Y-88040920D01*
X107373352Y-88424657D01*
X108280834Y-88424657D01*
X108237639Y-88399758D01*
X108185248Y-88369555D01*
X108135215Y-88340706D01*
X108087640Y-88313271D01*
X108042624Y-88287307D01*
X108000267Y-88262872D01*
X107960670Y-88240024D01*
X107923933Y-88218822D01*
X107890158Y-88199323D01*
X107859444Y-88181585D01*
X107831893Y-88165666D01*
X107807605Y-88151625D01*
X107786681Y-88139519D01*
X107769221Y-88129406D01*
X107755326Y-88121345D01*
X107745097Y-88115393D01*
X107738634Y-88111609D01*
X107736045Y-88110055D01*
X107733039Y-88108225D01*
X107726228Y-88104210D01*
X107715777Y-88098103D01*
X107701849Y-88089999D01*
X107684609Y-88079992D01*
X107664219Y-88068176D01*
X107640844Y-88054646D01*
X107614647Y-88039497D01*
X107585793Y-88022822D01*
X107554445Y-88004715D01*
X107520767Y-87985271D01*
X107484923Y-87964585D01*
X107447077Y-87942750D01*
X107407392Y-87919861D01*
X107366033Y-87896013D01*
X107323162Y-87871298D01*
X107278945Y-87845813D01*
X107233545Y-87819651D01*
X107187125Y-87792906D01*
X107139849Y-87765672D01*
X107091882Y-87738045D01*
X107043387Y-87710118D01*
X106994528Y-87681986D01*
X106945468Y-87653742D01*
X106896372Y-87625482D01*
X106847404Y-87597299D01*
X106798726Y-87569288D01*
X106750504Y-87541544D01*
X106702900Y-87514159D01*
X106656079Y-87487229D01*
X106610205Y-87460849D01*
X106565441Y-87435111D01*
X106521951Y-87410112D01*
X106499090Y-87396973D01*
X105576570Y-87396973D01*
X105576475Y-87397165D01*
X105574096Y-87398576D01*
X105567882Y-87402194D01*
X105557957Y-87407947D01*
X105544444Y-87415762D01*
X105527469Y-87425569D01*
X105507156Y-87437296D01*
X105483630Y-87450871D01*
X105457014Y-87466222D01*
X105427434Y-87483279D01*
X105395013Y-87501969D01*
X105359876Y-87522220D01*
X105322148Y-87543962D01*
X105281953Y-87567123D01*
X105239415Y-87591630D01*
X105194659Y-87617412D01*
X105147810Y-87644399D01*
X105098991Y-87672517D01*
X105048327Y-87701696D01*
X104995942Y-87731864D01*
X104941962Y-87762949D01*
X104886509Y-87794879D01*
X104829710Y-87827584D01*
X104771688Y-87860991D01*
X104712567Y-87895029D01*
X104652473Y-87929626D01*
X104591529Y-87964710D01*
X104529859Y-88000211D01*
X104467590Y-88036056D01*
X104404843Y-88072173D01*
X104341746Y-88108492D01*
X104278420Y-88144940D01*
X104214992Y-88181446D01*
X104151585Y-88217939D01*
X104088324Y-88254346D01*
X104025334Y-88290596D01*
X103962738Y-88326618D01*
X103900661Y-88362339D01*
X103839228Y-88397689D01*
X103778563Y-88432595D01*
X103718791Y-88466987D01*
X103660035Y-88500791D01*
X103602420Y-88533938D01*
X103546072Y-88566355D01*
X103491113Y-88597970D01*
X103437669Y-88628712D01*
X103385864Y-88658510D01*
X103335822Y-88687291D01*
X103287668Y-88714984D01*
X103241527Y-88741518D01*
X103197522Y-88766821D01*
X103155778Y-88790821D01*
X103116420Y-88813446D01*
X103079572Y-88834626D01*
X103045358Y-88854288D01*
X103013903Y-88872361D01*
X102985331Y-88888773D01*
X102959767Y-88903453D01*
X102937335Y-88916329D01*
X102918159Y-88927329D01*
X102902365Y-88936382D01*
X102890075Y-88943416D01*
X102881416Y-88948360D01*
X102876511Y-88951141D01*
X102875377Y-88951764D01*
X102870991Y-88953314D01*
X102863425Y-88955826D01*
X102853873Y-88958910D01*
X102846665Y-88961191D01*
X102822368Y-88970646D01*
X102799692Y-88983414D01*
X102777771Y-89000015D01*
X102769315Y-89007568D01*
X102767446Y-89009260D01*
X102765338Y-89011049D01*
X102762859Y-89013013D01*
X102759875Y-89015231D01*
X102756253Y-89017779D01*
X102751861Y-89020736D01*
X102746567Y-89024180D01*
X102740236Y-89028188D01*
X102732737Y-89032838D01*
X102723937Y-89038208D01*
X102713702Y-89044376D01*
X102701900Y-89051419D01*
X102688398Y-89059416D01*
X102673063Y-89068445D01*
X102655763Y-89078582D01*
X102636364Y-89089907D01*
X102614734Y-89102496D01*
X102590740Y-89116427D01*
X102564249Y-89131780D01*
X102535128Y-89148630D01*
X102503245Y-89167056D01*
X102468466Y-89187137D01*
X102430659Y-89208949D01*
X102389691Y-89232570D01*
X102345430Y-89258079D01*
X102297741Y-89285553D01*
X102246493Y-89315070D01*
X102191552Y-89346708D01*
X102132787Y-89380544D01*
X102128595Y-89382958D01*
X101506180Y-89741317D01*
X101505558Y-89687071D01*
X101505502Y-89679613D01*
X101505454Y-89667813D01*
X101505414Y-89651906D01*
X101505381Y-89632126D01*
X101505356Y-89608707D01*
X101505339Y-89581885D01*
X101505329Y-89551894D01*
X101505327Y-89518969D01*
X101505333Y-89483343D01*
X101505346Y-89445252D01*
X101505366Y-89404931D01*
X101505393Y-89362613D01*
X101505429Y-89318534D01*
X101505471Y-89272928D01*
X101505521Y-89226029D01*
X101505577Y-89178073D01*
X101505642Y-89129293D01*
X101505654Y-89120248D01*
X101505733Y-89062578D01*
X101505803Y-89009293D01*
X101505870Y-88960205D01*
X101505937Y-88915121D01*
X101506009Y-88873853D01*
X101506090Y-88836208D01*
X101506185Y-88801998D01*
X101506297Y-88771031D01*
X101506431Y-88743117D01*
X101506592Y-88718066D01*
X101506783Y-88695687D01*
X101507009Y-88675790D01*
X101507274Y-88658184D01*
X101507583Y-88642678D01*
X101507940Y-88629084D01*
X101508349Y-88617209D01*
X101508814Y-88606863D01*
X101509339Y-88597857D01*
X101509930Y-88590000D01*
X101510590Y-88583100D01*
X101511324Y-88576969D01*
X101512135Y-88571414D01*
X101513029Y-88566247D01*
X101514009Y-88561276D01*
X101515080Y-88556311D01*
X101516246Y-88551161D01*
X101517511Y-88545637D01*
X101518743Y-88540167D01*
X101527187Y-88508307D01*
X101538561Y-88474841D01*
X101552296Y-88441115D01*
X101567825Y-88408475D01*
X101584580Y-88378267D01*
X101592088Y-88366257D01*
X101620176Y-88327150D01*
X101651952Y-88290372D01*
X101686895Y-88256449D01*
X101724487Y-88225907D01*
X101745306Y-88211269D01*
X101748622Y-88209238D01*
X101755753Y-88205013D01*
X101766545Y-88198684D01*
X101780846Y-88190338D01*
X101798503Y-88180063D01*
X101819363Y-88167949D01*
X101843274Y-88154083D01*
X101870082Y-88138553D01*
X101899636Y-88121449D01*
X101931781Y-88102857D01*
X101966366Y-88082868D01*
X102003237Y-88061568D01*
X102042242Y-88039046D01*
X102083228Y-88015391D01*
X102126042Y-87990691D01*
X102170532Y-87965034D01*
X102216543Y-87938509D01*
X102263925Y-87911204D01*
X102312523Y-87883206D01*
X102362186Y-87854605D01*
X102405478Y-87829681D01*
X102455876Y-87800665D01*
X102505316Y-87772192D01*
X102553646Y-87744351D01*
X102600713Y-87717227D01*
X102646368Y-87690910D01*
X102690459Y-87665486D01*
X102732834Y-87641043D01*
X102773342Y-87617668D01*
X102811831Y-87595449D01*
X102848151Y-87574473D01*
X102882150Y-87554828D01*
X102913675Y-87536601D01*
X102942577Y-87519879D01*
X102968704Y-87504751D01*
X102991904Y-87491303D01*
X103012026Y-87479623D01*
X103028918Y-87469798D01*
X103042430Y-87461917D01*
X103052409Y-87456066D01*
X103058705Y-87452333D01*
X103061072Y-87450873D01*
X103064559Y-87448696D01*
X103071774Y-87444384D01*
X103082540Y-87438040D01*
X103096675Y-87429768D01*
X103114002Y-87419670D01*
X103134340Y-87407849D01*
X103157512Y-87394408D01*
X103183337Y-87379450D01*
X103211637Y-87363078D01*
X103242232Y-87345396D01*
X103274943Y-87326505D01*
X103309592Y-87306510D01*
X103345998Y-87285512D01*
X103383982Y-87263615D01*
X103423366Y-87240922D01*
X103463970Y-87217536D01*
X103505616Y-87193560D01*
X103548123Y-87169097D01*
X103591313Y-87144249D01*
X103635006Y-87119120D01*
X103679024Y-87093813D01*
X103723187Y-87068430D01*
X103767316Y-87043075D01*
X103811232Y-87017851D01*
X103854755Y-86992860D01*
X103897707Y-86968206D01*
X103939908Y-86943991D01*
X103981179Y-86920319D01*
X104021341Y-86897292D01*
X104060215Y-86875014D01*
X104097622Y-86853587D01*
X104133382Y-86833114D01*
X104167316Y-86813698D01*
X104199245Y-86795443D01*
X104228989Y-86778451D01*
X104256371Y-86762825D01*
X104281210Y-86748669D01*
X104303327Y-86736084D01*
X104322544Y-86725175D01*
X104338680Y-86716044D01*
X104351557Y-86708794D01*
X104360996Y-86703527D01*
X104366817Y-86700348D01*
X104368829Y-86699355D01*
X104371158Y-86700477D01*
X104377298Y-86703798D01*
X104387095Y-86709231D01*
X104400395Y-86716687D01*
X104417045Y-86726080D01*
X104436891Y-86737320D01*
X104459779Y-86750321D01*
X104485556Y-86764994D01*
X104514069Y-86781252D01*
X104545163Y-86799007D01*
X104578685Y-86818171D01*
X104614482Y-86838657D01*
X104652399Y-86860376D01*
X104692284Y-86883241D01*
X104733982Y-86907164D01*
X104777340Y-86932057D01*
X104822205Y-86957833D01*
X104868422Y-86984404D01*
X104915839Y-87011681D01*
X104964301Y-87039578D01*
X104976943Y-87046858D01*
X105035751Y-87080730D01*
X105090712Y-87112394D01*
X105141951Y-87141924D01*
X105189591Y-87169390D01*
X105233754Y-87194865D01*
X105274564Y-87218420D01*
X105312143Y-87240128D01*
X105346616Y-87260061D01*
X105378105Y-87278290D01*
X105406733Y-87294888D01*
X105432623Y-87309925D01*
X105455899Y-87323476D01*
X105476683Y-87335610D01*
X105495099Y-87346400D01*
X105511270Y-87355919D01*
X105525318Y-87364237D01*
X105537368Y-87371428D01*
X105547541Y-87377562D01*
X105555962Y-87382712D01*
X105562753Y-87386950D01*
X105568037Y-87390348D01*
X105571938Y-87392977D01*
X105574578Y-87394909D01*
X105576081Y-87396218D01*
X105576570Y-87396973D01*
X106499090Y-87396973D01*
X106479899Y-87385944D01*
X106439449Y-87362702D01*
X106400764Y-87340481D01*
X106364009Y-87319375D01*
X106329347Y-87299478D01*
X106296942Y-87280884D01*
X106266957Y-87263688D01*
X106239558Y-87247985D01*
X106214907Y-87233867D01*
X106193169Y-87221430D01*
X106174506Y-87210768D01*
X106159084Y-87201976D01*
X106147065Y-87195146D01*
X106138614Y-87190375D01*
X106133895Y-87187756D01*
X106133099Y-87187337D01*
X106130438Y-87185861D01*
X106123950Y-87182180D01*
X106113757Y-87176365D01*
X106099983Y-87168487D01*
X106082752Y-87158617D01*
X106062186Y-87146825D01*
X106038408Y-87133183D01*
X106011543Y-87117762D01*
X105981714Y-87100632D01*
X105949043Y-87081866D01*
X105913654Y-87061533D01*
X105875670Y-87039704D01*
X105835215Y-87016451D01*
X105792412Y-86991845D01*
X105747384Y-86965956D01*
X105700254Y-86938855D01*
X105651147Y-86910615D01*
X105600184Y-86881304D01*
X105547489Y-86850995D01*
X105493187Y-86819759D01*
X105437399Y-86787665D01*
X105380249Y-86754786D01*
X105321861Y-86721193D01*
X105262358Y-86686956D01*
X105201862Y-86652145D01*
X105140499Y-86616834D01*
X105078389Y-86581091D01*
X105015658Y-86544988D01*
X104952428Y-86508597D01*
X104888823Y-86471988D01*
X104826051Y-86435857D01*
X103910028Y-86435857D01*
X103907858Y-86437202D01*
X103901962Y-86440692D01*
X103892576Y-86446188D01*
X103879935Y-86453557D01*
X103864275Y-86462662D01*
X103845830Y-86473367D01*
X103824837Y-86485537D01*
X103801530Y-86499035D01*
X103776145Y-86513727D01*
X103748917Y-86529475D01*
X103720081Y-86546146D01*
X103689874Y-86563602D01*
X103658529Y-86581708D01*
X103626283Y-86600329D01*
X103593371Y-86619328D01*
X103560028Y-86638569D01*
X103526490Y-86657918D01*
X103492991Y-86677238D01*
X103459768Y-86696394D01*
X103427055Y-86715249D01*
X103395088Y-86733668D01*
X103364103Y-86751516D01*
X103334333Y-86768656D01*
X103306016Y-86784952D01*
X103279386Y-86800270D01*
X103254679Y-86814473D01*
X103232129Y-86827425D01*
X103211973Y-86838991D01*
X103194445Y-86849035D01*
X103179781Y-86857421D01*
X103168217Y-86864013D01*
X103159987Y-86868676D01*
X103155327Y-86871274D01*
X103154320Y-86871792D01*
X103154141Y-86869564D01*
X103153967Y-86862987D01*
X103153800Y-86852289D01*
X103153640Y-86837698D01*
X103153488Y-86819441D01*
X103153344Y-86797746D01*
X103153211Y-86772841D01*
X103153089Y-86744953D01*
X103152979Y-86714310D01*
X103152881Y-86681141D01*
X103152797Y-86645671D01*
X103152728Y-86608130D01*
X103152675Y-86568745D01*
X103152638Y-86527744D01*
X103152618Y-86485354D01*
X103152616Y-86458397D01*
X103152625Y-86414873D01*
X103152650Y-86372372D01*
X103152690Y-86331139D01*
X103152744Y-86291418D01*
X103152812Y-86253454D01*
X103152892Y-86217491D01*
X103152983Y-86183775D01*
X103153085Y-86152549D01*
X103153197Y-86124059D01*
X103153318Y-86098549D01*
X103153447Y-86076263D01*
X103153584Y-86057447D01*
X103153727Y-86042345D01*
X103153875Y-86031201D01*
X103154029Y-86024260D01*
X103154111Y-86022378D01*
X103155038Y-86011282D01*
X103156114Y-86004313D01*
X103157431Y-86001021D01*
X103158458Y-86000639D01*
X103160704Y-86001833D01*
X103166720Y-86005201D01*
X103176310Y-86010631D01*
X103189281Y-86018013D01*
X103205438Y-86027233D01*
X103224585Y-86038181D01*
X103246527Y-86050745D01*
X103271071Y-86064812D01*
X103298021Y-86080272D01*
X103327182Y-86097012D01*
X103358360Y-86114921D01*
X103391359Y-86133887D01*
X103425985Y-86153798D01*
X103462043Y-86174543D01*
X103499338Y-86196010D01*
X103536721Y-86217537D01*
X103581045Y-86243085D01*
X103623130Y-86267376D01*
X103662851Y-86290338D01*
X103700083Y-86311899D01*
X103734705Y-86331986D01*
X103766591Y-86350527D01*
X103795617Y-86367449D01*
X103821661Y-86382680D01*
X103844597Y-86396147D01*
X103864302Y-86407779D01*
X103880652Y-86417501D01*
X103893524Y-86425243D01*
X103902793Y-86430931D01*
X103908335Y-86434494D01*
X103910028Y-86435857D01*
X104826051Y-86435857D01*
X104824965Y-86435232D01*
X104760979Y-86398400D01*
X104696986Y-86361562D01*
X104633112Y-86324791D01*
X104569479Y-86288157D01*
X104506210Y-86251731D01*
X104443428Y-86215584D01*
X104381258Y-86179786D01*
X104319821Y-86144410D01*
X104259242Y-86109525D01*
X104199644Y-86075203D01*
X104141150Y-86041515D01*
X104083883Y-86008531D01*
X104027967Y-85976324D01*
X103973524Y-85944963D01*
X103920679Y-85914519D01*
X103869555Y-85885064D01*
X103820274Y-85856669D01*
X103772960Y-85829405D01*
X103727737Y-85803342D01*
X103684727Y-85778551D01*
X103644055Y-85755104D01*
X103605842Y-85733071D01*
X103570213Y-85712524D01*
X103537291Y-85693533D01*
X103507199Y-85676170D01*
X103480061Y-85660505D01*
X103455999Y-85646609D01*
X103435137Y-85634553D01*
X103417598Y-85624409D01*
X103403506Y-85616247D01*
X103392984Y-85610138D01*
X103386155Y-85606154D01*
X103383143Y-85604364D01*
X103383004Y-85604272D01*
X103383973Y-85602429D01*
X103388109Y-85598833D01*
X103394659Y-85594096D01*
X103399022Y-85591224D01*
X103402739Y-85588987D01*
X103410238Y-85584597D01*
X103421326Y-85578166D01*
X103435809Y-85569804D01*
X103453491Y-85559624D01*
X103474178Y-85547736D01*
X103497677Y-85534251D01*
X103523792Y-85519281D01*
X103552329Y-85502938D01*
X103583095Y-85485332D01*
X103615895Y-85466575D01*
X103650533Y-85446778D01*
X103686817Y-85426053D01*
X103724552Y-85404511D01*
X103763542Y-85382263D01*
X103803595Y-85359420D01*
X103834514Y-85341794D01*
X103875766Y-85318282D01*
X103916399Y-85295123D01*
X103956198Y-85272439D01*
X103994946Y-85250354D01*
X104032431Y-85228989D01*
X104068435Y-85208468D01*
X104102744Y-85188912D01*
X104135144Y-85170445D01*
X104165419Y-85153190D01*
X104193354Y-85137267D01*
X104218733Y-85122802D01*
X104241343Y-85109915D01*
X104260967Y-85098729D01*
X104277391Y-85089367D01*
X104290400Y-85081952D01*
X104299779Y-85076606D01*
X104303613Y-85074421D01*
X104327843Y-85060826D01*
X104349086Y-85049426D01*
X104368141Y-85039847D01*
X104385810Y-85031714D01*
X104402891Y-85024653D01*
X104420186Y-85018289D01*
X104432212Y-85014255D01*
X104470248Y-85003305D01*
X104507452Y-84995567D01*
X104545255Y-84990817D01*
X104585086Y-84988834D01*
X104596306Y-84988744D01*
X104645072Y-84990928D01*
X104692830Y-84997513D01*
X104739797Y-85008544D01*
X104786187Y-85024070D01*
X104816151Y-85036601D01*
X104819637Y-85038420D01*
X104826965Y-85042456D01*
X104838015Y-85048639D01*
X104852663Y-85056898D01*
X104870789Y-85067165D01*
X104892270Y-85079368D01*
X104916985Y-85093440D01*
X104944811Y-85109308D01*
X104975627Y-85126905D01*
X105009312Y-85146160D01*
X105045742Y-85167002D01*
X105084797Y-85189363D01*
X105126354Y-85213173D01*
X105170293Y-85238361D01*
X105216490Y-85264858D01*
X105264824Y-85292595D01*
X105315173Y-85321500D01*
X105367416Y-85351505D01*
X105421430Y-85382539D01*
X105477094Y-85414533D01*
X105534286Y-85447417D01*
X105592884Y-85481121D01*
X105652766Y-85515575D01*
X105713811Y-85550710D01*
X105775896Y-85586455D01*
X105838900Y-85622742D01*
X105842487Y-85624807D01*
X105895454Y-85655318D01*
X105952216Y-85688013D01*
X106012604Y-85722796D01*
X106076446Y-85759567D01*
X106143571Y-85798228D01*
X106213810Y-85838682D01*
X106286990Y-85880829D01*
X106362943Y-85924572D01*
X106441496Y-85969812D01*
X106522479Y-86016450D01*
X106605722Y-86064390D01*
X106691054Y-86113532D01*
X106778305Y-86163778D01*
X106867303Y-86215029D01*
X106957877Y-86267189D01*
X107049859Y-86320157D01*
X107143075Y-86373837D01*
X107237357Y-86428129D01*
X107332533Y-86482936D01*
X107428433Y-86538158D01*
X107524886Y-86593699D01*
X107621721Y-86649459D01*
X107718768Y-86705341D01*
X107815856Y-86761246D01*
X107912814Y-86817075D01*
X108009471Y-86872731D01*
X108105658Y-86928115D01*
X108201203Y-86983129D01*
X108295936Y-87037675D01*
X108389686Y-87091654D01*
X108482282Y-87144968D01*
X108573554Y-87197519D01*
X108611315Y-87219261D01*
X108722330Y-87283182D01*
X108829970Y-87345168D01*
X108934213Y-87405207D01*
X109035041Y-87463287D01*
X109132433Y-87519397D01*
X109226369Y-87573525D01*
X109316829Y-87625659D01*
X109403792Y-87675787D01*
X109487239Y-87723899D01*
X109567150Y-87769983D01*
X109643504Y-87814026D01*
X109716282Y-87856018D01*
X109785463Y-87895947D01*
X109851027Y-87933800D01*
X109912953Y-87969567D01*
X109971223Y-88003236D01*
X110025816Y-88034795D01*
X110076711Y-88064232D01*
X110123888Y-88091537D01*
X110167329Y-88116696D01*
X110207011Y-88139700D01*
X110242916Y-88160536D01*
X110275022Y-88179192D01*
X110303311Y-88195657D01*
X110327762Y-88209919D01*
X110348354Y-88221967D01*
X110365068Y-88231788D01*
X110377884Y-88239373D01*
X110386781Y-88244708D01*
X110391739Y-88247782D01*
X110392748Y-88248477D01*
X110404717Y-88258902D01*
X110418490Y-88272007D01*
X110433129Y-88286806D01*
X110447699Y-88302315D01*
X110461262Y-88317549D01*
X110472882Y-88331522D01*
X110477871Y-88337997D01*
X110505950Y-88379510D01*
X110529850Y-88422888D01*
X110549573Y-88468135D01*
X110565122Y-88515257D01*
X110576499Y-88564261D01*
X110578057Y-88573003D01*
X110578544Y-88575925D01*
X110578995Y-88578878D01*
X110579413Y-88582036D01*
X110579797Y-88585574D01*
X110580150Y-88589666D01*
X110580473Y-88594488D01*
X110580768Y-88600214D01*
X110581034Y-88607019D01*
X110581275Y-88615078D01*
X110581491Y-88624565D01*
X110581684Y-88635656D01*
X110581854Y-88648524D01*
X110582004Y-88663346D01*
X110582134Y-88680295D01*
X110582247Y-88699547D01*
X110582342Y-88721275D01*
X110582422Y-88745656D01*
X110582489Y-88772864D01*
X110582542Y-88803073D01*
X110582585Y-88836458D01*
X110582617Y-88873195D01*
X110582640Y-88913457D01*
X110582657Y-88957420D01*
X110582667Y-89005259D01*
X110582673Y-89057148D01*
X110582675Y-89113262D01*
X110582676Y-89173775D01*
X111040780Y-89173775D01*
X111040781Y-89172003D01*
X111040766Y-89125818D01*
X111040726Y-89079922D01*
X111040662Y-89034571D01*
X111040572Y-88990021D01*
X111040457Y-88946527D01*
X111040319Y-88904344D01*
X111040155Y-88863730D01*
X111039965Y-88824938D01*
X111039751Y-88788226D01*
X111039512Y-88753848D01*
X111039248Y-88722060D01*
X111038959Y-88693119D01*
X111038646Y-88667279D01*
X111038307Y-88644796D01*
X111037943Y-88625926D01*
X111037555Y-88610925D01*
X111037141Y-88600048D01*
X111036807Y-88594652D01*
X111032089Y-88547022D01*
X111026171Y-88502871D01*
X111018858Y-88461215D01*
X111009953Y-88421068D01*
X110999261Y-88381444D01*
X110986583Y-88341357D01*
X110986104Y-88339942D01*
X110962340Y-88276904D01*
X110934631Y-88216160D01*
X110903039Y-88157787D01*
X110867624Y-88101863D01*
X110828447Y-88048467D01*
X110785568Y-87997675D01*
X110739047Y-87949567D01*
X110688947Y-87904221D01*
X110635326Y-87861713D01*
X110589732Y-87829669D01*
X110585876Y-87827286D01*
X110578206Y-87822724D01*
X110566885Y-87816075D01*
X110552071Y-87807431D01*
X110533926Y-87796886D01*
X110512609Y-87784531D01*
X110488282Y-87770459D01*
X110461103Y-87754761D01*
X110431235Y-87737531D01*
X110398836Y-87718861D01*
X110364068Y-87698842D01*
X110327090Y-87677568D01*
X110288064Y-87655131D01*
X110247148Y-87631623D01*
X110204505Y-87607136D01*
X110160294Y-87581764D01*
X110114675Y-87555597D01*
X110067809Y-87528729D01*
X110019856Y-87501252D01*
X109970977Y-87473258D01*
X109961915Y-87468069D01*
X109357297Y-87121915D01*
X109356023Y-86554748D01*
X109355887Y-86494001D01*
X109355759Y-86437643D01*
X109355753Y-86434713D01*
X108898496Y-86434713D01*
X108898496Y-86860267D01*
X108844093Y-86828951D01*
X108835892Y-86824231D01*
X108823988Y-86817377D01*
X108808642Y-86808543D01*
X108790118Y-86797879D01*
X108768679Y-86785536D01*
X108744585Y-86771665D01*
X108718101Y-86756418D01*
X108689489Y-86739945D01*
X108659011Y-86722398D01*
X108626931Y-86703929D01*
X108593509Y-86684687D01*
X108559010Y-86664825D01*
X108523696Y-86644493D01*
X108487828Y-86623843D01*
X108475700Y-86616861D01*
X108440739Y-86596720D01*
X108406877Y-86577188D01*
X108374326Y-86558387D01*
X108343294Y-86540441D01*
X108313995Y-86523471D01*
X108286637Y-86507600D01*
X108261432Y-86492951D01*
X108238590Y-86479647D01*
X108218323Y-86467811D01*
X108200840Y-86457564D01*
X108186353Y-86449030D01*
X108175073Y-86442332D01*
X108167209Y-86437591D01*
X108162972Y-86434931D01*
X108162260Y-86434381D01*
X108164239Y-86433149D01*
X108169946Y-86429770D01*
X108179141Y-86424380D01*
X108191586Y-86417119D01*
X108207044Y-86408122D01*
X108225276Y-86397529D01*
X108246044Y-86385476D01*
X108269110Y-86372102D01*
X108294234Y-86357543D01*
X108321181Y-86341938D01*
X108349710Y-86325424D01*
X108379584Y-86308138D01*
X108410564Y-86290220D01*
X108442413Y-86271805D01*
X108474891Y-86253031D01*
X108507762Y-86234037D01*
X108540786Y-86214960D01*
X108573725Y-86195938D01*
X108606342Y-86177107D01*
X108638398Y-86158607D01*
X108669654Y-86140573D01*
X108699873Y-86123145D01*
X108728815Y-86106460D01*
X108756244Y-86090654D01*
X108781921Y-86075867D01*
X108805607Y-86062235D01*
X108827065Y-86049897D01*
X108846056Y-86038989D01*
X108862341Y-86029650D01*
X108875684Y-86022016D01*
X108885844Y-86016227D01*
X108892585Y-86012418D01*
X108894491Y-86011359D01*
X108894979Y-86011248D01*
X108895426Y-86011602D01*
X108895833Y-86012614D01*
X108896203Y-86014474D01*
X108896537Y-86017376D01*
X108896837Y-86021510D01*
X108897105Y-86027069D01*
X108897342Y-86034244D01*
X108897551Y-86043228D01*
X108897733Y-86054211D01*
X108897890Y-86067387D01*
X108898025Y-86082946D01*
X108898137Y-86101081D01*
X108898231Y-86121983D01*
X108898307Y-86145845D01*
X108898367Y-86172857D01*
X108898413Y-86203213D01*
X108898446Y-86237104D01*
X108898470Y-86274721D01*
X108898484Y-86316257D01*
X108898492Y-86361903D01*
X108898495Y-86411851D01*
X108898496Y-86434713D01*
X109355753Y-86434713D01*
X109355637Y-86385490D01*
X109355517Y-86337354D01*
X109355396Y-86293048D01*
X109355270Y-86252387D01*
X109355137Y-86215184D01*
X109354993Y-86181253D01*
X109354834Y-86150407D01*
X109354659Y-86122460D01*
X109354462Y-86097226D01*
X109354242Y-86074517D01*
X109353994Y-86054148D01*
X109353716Y-86035932D01*
X109353404Y-86019683D01*
X109353055Y-86005214D01*
X109352666Y-85992339D01*
X109352234Y-85980871D01*
X109351754Y-85970625D01*
X109351225Y-85961413D01*
X109350642Y-85953050D01*
X109350003Y-85945348D01*
X109349304Y-85938122D01*
X109348541Y-85931185D01*
X109347713Y-85924350D01*
X109346815Y-85917432D01*
X109345844Y-85910243D01*
X109344797Y-85902598D01*
X109344591Y-85901098D01*
X109333264Y-85834868D01*
X109317601Y-85770038D01*
X109297666Y-85706749D01*
X109273526Y-85645142D01*
X109259071Y-85614587D01*
X108671421Y-85614587D01*
X108669616Y-85615814D01*
X108664045Y-85619191D01*
X108654913Y-85624600D01*
X108642429Y-85631922D01*
X108626799Y-85641038D01*
X108608231Y-85651829D01*
X108586931Y-85664176D01*
X108563107Y-85677961D01*
X108536967Y-85693065D01*
X108508716Y-85709368D01*
X108478563Y-85726753D01*
X108446714Y-85745100D01*
X108413377Y-85764290D01*
X108378759Y-85784205D01*
X108343067Y-85804726D01*
X108306509Y-85825733D01*
X108269290Y-85847109D01*
X108231620Y-85868733D01*
X108193703Y-85890489D01*
X108155749Y-85912255D01*
X108117964Y-85933915D01*
X108080555Y-85955348D01*
X108043730Y-85976437D01*
X108007695Y-85997062D01*
X107972657Y-86017104D01*
X107938825Y-86036444D01*
X107906405Y-86054965D01*
X107875604Y-86072546D01*
X107846629Y-86089070D01*
X107819688Y-86104417D01*
X107794987Y-86118468D01*
X107772735Y-86131105D01*
X107753138Y-86142209D01*
X107736402Y-86151660D01*
X107722737Y-86159341D01*
X107712347Y-86165132D01*
X107705442Y-86168915D01*
X107702227Y-86170570D01*
X107702017Y-86170636D01*
X107699801Y-86169410D01*
X107693772Y-86165989D01*
X107684084Y-86160461D01*
X107670891Y-86152914D01*
X107654345Y-86143438D01*
X107634600Y-86132119D01*
X107611810Y-86119045D01*
X107586129Y-86104307D01*
X107557709Y-86087990D01*
X107526705Y-86070184D01*
X107493270Y-86050977D01*
X107457558Y-86030457D01*
X107419721Y-86008711D01*
X107379915Y-85985830D01*
X107338291Y-85961899D01*
X107295004Y-85937009D01*
X107250207Y-85911246D01*
X107204055Y-85884699D01*
X107156699Y-85857457D01*
X107108295Y-85829607D01*
X107097432Y-85823357D01*
X107048845Y-85795395D01*
X107001291Y-85768019D01*
X106954924Y-85741317D01*
X106909895Y-85715377D01*
X106866358Y-85690287D01*
X106824465Y-85666136D01*
X106784368Y-85643011D01*
X106746220Y-85621002D01*
X106710174Y-85600195D01*
X106676382Y-85580679D01*
X106644996Y-85562543D01*
X106616170Y-85545874D01*
X106590057Y-85530760D01*
X106566807Y-85517290D01*
X106546575Y-85505552D01*
X106529512Y-85495634D01*
X106515772Y-85487624D01*
X106505506Y-85481611D01*
X106498868Y-85477682D01*
X106496009Y-85475925D01*
X106495903Y-85475837D01*
X106497834Y-85474529D01*
X106503501Y-85471083D01*
X106512667Y-85465636D01*
X106525093Y-85458324D01*
X106540545Y-85449285D01*
X106558784Y-85438653D01*
X106579574Y-85426566D01*
X106602678Y-85413159D01*
X106627859Y-85398569D01*
X106654881Y-85382932D01*
X106683506Y-85366385D01*
X106713498Y-85349064D01*
X106744620Y-85331104D01*
X106776635Y-85312644D01*
X106809306Y-85293817D01*
X106842397Y-85274762D01*
X106875670Y-85255614D01*
X106908889Y-85236510D01*
X106941817Y-85217585D01*
X106974217Y-85198977D01*
X107005852Y-85180821D01*
X107036485Y-85163254D01*
X107065880Y-85146412D01*
X107093800Y-85130431D01*
X107120008Y-85115448D01*
X107144266Y-85101599D01*
X107166339Y-85089020D01*
X107185989Y-85077848D01*
X107202980Y-85068219D01*
X107217074Y-85060268D01*
X107228035Y-85054133D01*
X107235627Y-85049950D01*
X107239479Y-85047919D01*
X107277160Y-85031409D01*
X107316884Y-85017765D01*
X107359471Y-85006720D01*
X107376784Y-85003107D01*
X107386504Y-85001263D01*
X107395064Y-84999833D01*
X107403270Y-84998762D01*
X107411931Y-84997997D01*
X107421853Y-84997484D01*
X107433844Y-84997168D01*
X107448712Y-84996996D01*
X107467265Y-84996913D01*
X107469460Y-84996907D01*
X107488748Y-84996896D01*
X107504272Y-84997001D01*
X107516844Y-84997267D01*
X107527275Y-84997740D01*
X107536376Y-84998468D01*
X107544961Y-84999496D01*
X107553840Y-85000871D01*
X107560991Y-85002123D01*
X107583691Y-85006756D01*
X107607399Y-85012549D01*
X107630530Y-85019068D01*
X107651504Y-85025883D01*
X107661018Y-85029396D01*
X107664527Y-85031141D01*
X107671827Y-85035102D01*
X107682754Y-85041184D01*
X107697146Y-85049294D01*
X107714841Y-85059340D01*
X107735678Y-85071226D01*
X107759493Y-85084861D01*
X107786125Y-85100151D01*
X107815411Y-85117002D01*
X107847190Y-85135321D01*
X107881300Y-85155015D01*
X107917577Y-85175990D01*
X107955861Y-85198152D01*
X107995988Y-85221409D01*
X108037797Y-85245667D01*
X108081126Y-85270832D01*
X108125812Y-85296812D01*
X108171693Y-85323513D01*
X108174252Y-85325003D01*
X108218294Y-85350647D01*
X108261294Y-85375685D01*
X108303085Y-85400020D01*
X108343499Y-85423554D01*
X108382370Y-85446190D01*
X108419530Y-85467831D01*
X108454812Y-85488379D01*
X108488047Y-85507736D01*
X108519070Y-85525805D01*
X108547712Y-85542488D01*
X108573806Y-85557688D01*
X108597185Y-85571308D01*
X108617682Y-85583250D01*
X108635129Y-85593417D01*
X108649358Y-85601710D01*
X108660203Y-85608034D01*
X108667496Y-85612289D01*
X108671070Y-85614379D01*
X108671421Y-85614587D01*
X109259071Y-85614587D01*
X109245243Y-85585359D01*
X109212882Y-85527540D01*
X109176509Y-85471827D01*
X109136187Y-85418361D01*
X109109675Y-85386906D01*
X109076422Y-85351170D01*
X109039782Y-85315625D01*
X109000836Y-85281206D01*
X108960664Y-85248849D01*
X108920347Y-85219490D01*
X108902585Y-85207595D01*
X108898798Y-85205291D01*
X108891251Y-85200845D01*
X108880160Y-85194381D01*
X108865741Y-85186024D01*
X108848210Y-85175896D01*
X108827783Y-85164121D01*
X108804678Y-85150824D01*
X108779110Y-85136127D01*
X108751295Y-85120154D01*
X108721450Y-85103029D01*
X108689791Y-85084876D01*
X108656534Y-85065817D01*
X108621897Y-85045977D01*
X108586094Y-85025480D01*
X108549343Y-85004448D01*
X108511859Y-84983006D01*
X108473859Y-84961277D01*
X108435560Y-84939384D01*
X108397177Y-84917452D01*
X108358927Y-84895604D01*
X108321026Y-84873963D01*
X108283691Y-84852654D01*
X108247137Y-84831799D01*
X108211581Y-84811523D01*
X108177240Y-84791949D01*
X108144330Y-84773201D01*
X108113066Y-84755402D01*
X108083666Y-84738675D01*
X108056346Y-84723145D01*
X108031321Y-84708936D01*
X108008808Y-84696170D01*
X107989025Y-84684971D01*
X107972185Y-84675464D01*
X107958507Y-84667770D01*
X107948207Y-84662016D01*
X107941500Y-84658323D01*
X107940847Y-84657970D01*
X107927567Y-84651175D01*
X107911067Y-84643274D01*
X107892420Y-84634742D01*
X107872700Y-84626056D01*
X107852980Y-84617693D01*
X107834335Y-84610129D01*
X107824492Y-84606317D01*
X107774084Y-84588735D01*
X107722984Y-84574021D01*
X107670173Y-84561923D01*
X107614634Y-84552190D01*
X107594171Y-84549270D01*
X107577029Y-84547381D01*
X107556304Y-84545779D01*
X107532979Y-84544487D01*
X107508042Y-84543527D01*
X107482476Y-84542923D01*
X107457268Y-84542697D01*
X107433402Y-84542871D01*
X107411863Y-84543469D01*
X107393638Y-84544512D01*
X107392255Y-84544623D01*
X107325037Y-84552377D01*
X107259154Y-84564363D01*
X107194807Y-84580529D01*
X107132193Y-84600819D01*
X107071510Y-84625180D01*
X107033541Y-84643000D01*
X107028319Y-84645752D01*
X107019321Y-84650685D01*
X107006736Y-84657690D01*
X106990752Y-84666661D01*
X106971557Y-84677490D01*
X106949339Y-84690070D01*
X106924287Y-84704293D01*
X106896590Y-84720053D01*
X106866434Y-84737240D01*
X106834008Y-84755750D01*
X106799502Y-84775473D01*
X106763102Y-84796302D01*
X106724997Y-84818131D01*
X106685376Y-84840851D01*
X106644426Y-84864356D01*
X106602336Y-84888538D01*
X106559295Y-84913290D01*
X106520410Y-84935670D01*
X106477143Y-84960577D01*
X106434910Y-84984877D01*
X106393883Y-85008472D01*
X106354234Y-85031263D01*
X106316134Y-85053152D01*
X106279757Y-85074040D01*
X106245274Y-85093828D01*
X106212857Y-85112417D01*
X106182679Y-85129710D01*
X106154913Y-85145607D01*
X106129729Y-85160010D01*
X106107301Y-85172820D01*
X106087800Y-85183938D01*
X106071398Y-85193267D01*
X106058269Y-85200706D01*
X106048584Y-85206159D01*
X106042515Y-85209525D01*
X106040235Y-85210707D01*
X106040228Y-85210708D01*
X106038044Y-85209581D01*
X106032066Y-85206269D01*
X106022467Y-85200868D01*
X106009418Y-85193477D01*
X105993090Y-85184195D01*
X105973657Y-85173120D01*
X105951289Y-85160351D01*
X105926159Y-85145985D01*
X105898438Y-85130121D01*
X105868299Y-85112858D01*
X105835912Y-85094293D01*
X105801451Y-85074526D01*
X105765086Y-85053655D01*
X105726989Y-85031777D01*
X105687333Y-85008993D01*
X105646289Y-84985399D01*
X105604030Y-84961094D01*
X105560726Y-84936177D01*
X105557954Y-84934581D01*
X105504760Y-84903968D01*
X105455363Y-84875549D01*
X105409597Y-84849231D01*
X105367294Y-84824923D01*
X105328287Y-84802532D01*
X105292409Y-84781965D01*
X105259492Y-84763130D01*
X105229369Y-84745935D01*
X105201874Y-84730288D01*
X105176840Y-84716095D01*
X105154098Y-84703265D01*
X105133482Y-84691706D01*
X105114824Y-84681324D01*
X105097959Y-84672028D01*
X105082717Y-84663725D01*
X105068933Y-84656323D01*
X105056439Y-84649729D01*
X105045068Y-84643851D01*
X105034653Y-84638597D01*
X105025026Y-84633874D01*
X105016021Y-84629590D01*
X105007470Y-84625653D01*
X104999206Y-84621970D01*
X104991063Y-84618449D01*
X104982872Y-84614997D01*
X104974467Y-84611522D01*
X104970229Y-84609786D01*
X104907777Y-84586730D01*
X104843882Y-84567939D01*
X104778837Y-84553444D01*
X104712934Y-84543276D01*
X104646463Y-84537464D01*
X104579717Y-84536039D01*
X104512988Y-84539032D01*
M02*
