G04 #@! TF.GenerationSoftware,KiCad,Pcbnew,(5.0.1-3-g963ef8bb5)*
G04 #@! TF.CreationDate,2018-11-23T17:34:31+10:30*
G04 #@! TF.ProjectId,electric-greetings,656C6563747269632D6772656574696E,1.0.0*
G04 #@! TF.SameCoordinates,Original*
G04 #@! TF.FileFunction,Copper,L1,Top,Signal*
G04 #@! TF.FilePolarity,Positive*
%FSLAX46Y46*%
G04 Gerber Fmt 4.6, Leading zero omitted, Abs format (unit mm)*
G04 Created by KiCad (PCBNEW (5.0.1-3-g963ef8bb5)) date Friday, 23 November 2018 at 05:34:31 pm*
%MOMM*%
%LPD*%
G01*
G04 APERTURE LIST*
G04 #@! TA.AperFunction,BGAPad,CuDef*
%ADD10C,1.000000*%
G04 #@! TD*
G04 #@! TA.AperFunction,SMDPad,CuDef*
%ADD11R,0.500000X0.800000*%
G04 #@! TD*
G04 #@! TA.AperFunction,SMDPad,CuDef*
%ADD12R,0.300000X0.800000*%
G04 #@! TD*
G04 #@! TA.AperFunction,Conductor*
%ADD13C,0.100000*%
G04 #@! TD*
G04 #@! TA.AperFunction,SMDPad,CuDef*
%ADD14C,0.500000*%
G04 #@! TD*
G04 #@! TA.AperFunction,SMDPad,CuDef*
%ADD15C,1.000000*%
G04 #@! TD*
G04 #@! TA.AperFunction,SMDPad,CuDef*
%ADD16R,1.250000X0.800000*%
G04 #@! TD*
G04 #@! TA.AperFunction,SMDPad,CuDef*
%ADD17C,1.160000*%
G04 #@! TD*
G04 #@! TA.AperFunction,SMDPad,CuDef*
%ADD18C,0.510000*%
G04 #@! TD*
G04 #@! TA.AperFunction,SMDPad,CuDef*
%ADD19C,0.710000*%
G04 #@! TD*
G04 #@! TA.AperFunction,SMDPad,CuDef*
%ADD20C,0.420000*%
G04 #@! TD*
G04 #@! TA.AperFunction,SMDPad,CuDef*
%ADD21C,0.590000*%
G04 #@! TD*
G04 #@! TA.AperFunction,ConnectorPad*
%ADD22C,1.900000*%
G04 #@! TD*
G04 #@! TA.AperFunction,ConnectorPad*
%ADD23C,2.000000*%
G04 #@! TD*
G04 #@! TA.AperFunction,SMDPad,CuDef*
%ADD24C,0.800000*%
G04 #@! TD*
G04 #@! TA.AperFunction,SMDPad,CuDef*
%ADD25C,0.260000*%
G04 #@! TD*
G04 #@! TA.AperFunction,SMDPad,CuDef*
%ADD26R,1.720000X1.720000*%
G04 #@! TD*
G04 #@! TA.AperFunction,ViaPad*
%ADD27C,0.700000*%
G04 #@! TD*
G04 #@! TA.AperFunction,ViaPad*
%ADD28C,0.800000*%
G04 #@! TD*
G04 #@! TA.AperFunction,Conductor*
%ADD29C,0.250000*%
G04 #@! TD*
G04 #@! TA.AperFunction,Conductor*
%ADD30C,0.400000*%
G04 #@! TD*
G04 #@! TA.AperFunction,Conductor*
%ADD31C,0.350000*%
G04 #@! TD*
G04 #@! TA.AperFunction,Conductor*
%ADD32C,0.030000*%
G04 #@! TD*
G04 #@! TA.AperFunction,Conductor*
%ADD33C,0.254000*%
G04 #@! TD*
G04 APERTURE END LIST*
D10*
G04 #@! TO.P,TEST2,1*
G04 #@! TO.N,SWD_IO*
X102997000Y-92583000D03*
G04 #@! TD*
G04 #@! TO.P,TEST1,1*
G04 #@! TO.N,SWD_CLK*
X101790500Y-91376500D03*
G04 #@! TD*
D11*
G04 #@! TO.P,U3,1*
G04 #@! TO.N,Net-(U3-Pad1)*
X103836500Y-95850000D03*
D12*
G04 #@! TO.P,U3,6*
G04 #@! TO.N,Net-(U3-Pad6)*
X102936500Y-95850000D03*
D11*
G04 #@! TO.P,U3,5*
G04 #@! TO.N,+3.3V*
X102036500Y-95850000D03*
G04 #@! TO.P,U3,4*
G04 #@! TO.N,GND*
X102036500Y-94150000D03*
D12*
G04 #@! TO.P,U3,3*
G04 #@! TO.N,LED_CLK*
X102936500Y-94150000D03*
D11*
G04 #@! TO.P,U3,2*
G04 #@! TO.N,LED_DATA*
X103836500Y-94150000D03*
G04 #@! TD*
D13*
G04 #@! TO.N,GND*
G04 #@! TO.C,SL1*
G36*
X102753252Y-85501602D02*
X102765386Y-85503402D01*
X102777286Y-85506382D01*
X102788835Y-85510515D01*
X102799925Y-85515760D01*
X102810446Y-85522066D01*
X102820299Y-85529374D01*
X102829388Y-85537612D01*
X102837626Y-85546701D01*
X102844934Y-85556554D01*
X102851240Y-85567075D01*
X102856485Y-85578165D01*
X102860618Y-85589714D01*
X102863598Y-85601614D01*
X102865398Y-85613748D01*
X102866000Y-85626000D01*
X102866000Y-85886000D01*
X102865398Y-85898252D01*
X102863598Y-85910386D01*
X102860618Y-85922286D01*
X102856485Y-85933835D01*
X102851240Y-85944925D01*
X102844934Y-85955446D01*
X102837626Y-85965299D01*
X102829388Y-85974388D01*
X102820299Y-85982626D01*
X102810446Y-85989934D01*
X102799925Y-85996240D01*
X102788835Y-86001485D01*
X102777286Y-86005618D01*
X102765386Y-86008598D01*
X102753252Y-86010398D01*
X102741000Y-86011000D01*
X102491000Y-86011000D01*
X102478748Y-86010398D01*
X102466614Y-86008598D01*
X102454714Y-86005618D01*
X102443165Y-86001485D01*
X102432075Y-85996240D01*
X102421554Y-85989934D01*
X102411701Y-85982626D01*
X102402612Y-85974388D01*
X102394374Y-85965299D01*
X102387066Y-85955446D01*
X102380760Y-85944925D01*
X102375515Y-85933835D01*
X102371382Y-85922286D01*
X102368402Y-85910386D01*
X102366602Y-85898252D01*
X102366000Y-85886000D01*
X102366000Y-85626000D01*
X102366602Y-85613748D01*
X102368402Y-85601614D01*
X102371382Y-85589714D01*
X102375515Y-85578165D01*
X102380760Y-85567075D01*
X102387066Y-85556554D01*
X102394374Y-85546701D01*
X102402612Y-85537612D01*
X102411701Y-85529374D01*
X102421554Y-85522066D01*
X102432075Y-85515760D01*
X102443165Y-85510515D01*
X102454714Y-85506382D01*
X102466614Y-85503402D01*
X102478748Y-85501602D01*
X102491000Y-85501000D01*
X102741000Y-85501000D01*
X102753252Y-85501602D01*
X102753252Y-85501602D01*
G37*
D14*
G04 #@! TD*
G04 #@! TO.P,SL1,1*
G04 #@! TO.N,GND*
X102616000Y-85756000D03*
D13*
G04 #@! TO.N,RESET*
G04 #@! TO.C,SL1*
G36*
X102753252Y-86201602D02*
X102765386Y-86203402D01*
X102777286Y-86206382D01*
X102788835Y-86210515D01*
X102799925Y-86215760D01*
X102810446Y-86222066D01*
X102820299Y-86229374D01*
X102829388Y-86237612D01*
X102837626Y-86246701D01*
X102844934Y-86256554D01*
X102851240Y-86267075D01*
X102856485Y-86278165D01*
X102860618Y-86289714D01*
X102863598Y-86301614D01*
X102865398Y-86313748D01*
X102866000Y-86326000D01*
X102866000Y-86586000D01*
X102865398Y-86598252D01*
X102863598Y-86610386D01*
X102860618Y-86622286D01*
X102856485Y-86633835D01*
X102851240Y-86644925D01*
X102844934Y-86655446D01*
X102837626Y-86665299D01*
X102829388Y-86674388D01*
X102820299Y-86682626D01*
X102810446Y-86689934D01*
X102799925Y-86696240D01*
X102788835Y-86701485D01*
X102777286Y-86705618D01*
X102765386Y-86708598D01*
X102753252Y-86710398D01*
X102741000Y-86711000D01*
X102491000Y-86711000D01*
X102478748Y-86710398D01*
X102466614Y-86708598D01*
X102454714Y-86705618D01*
X102443165Y-86701485D01*
X102432075Y-86696240D01*
X102421554Y-86689934D01*
X102411701Y-86682626D01*
X102402612Y-86674388D01*
X102394374Y-86665299D01*
X102387066Y-86655446D01*
X102380760Y-86644925D01*
X102375515Y-86633835D01*
X102371382Y-86622286D01*
X102368402Y-86610386D01*
X102366602Y-86598252D01*
X102366000Y-86586000D01*
X102366000Y-86326000D01*
X102366602Y-86313748D01*
X102368402Y-86301614D01*
X102371382Y-86289714D01*
X102375515Y-86278165D01*
X102380760Y-86267075D01*
X102387066Y-86256554D01*
X102394374Y-86246701D01*
X102402612Y-86237612D01*
X102411701Y-86229374D01*
X102421554Y-86222066D01*
X102432075Y-86215760D01*
X102443165Y-86210515D01*
X102454714Y-86206382D01*
X102466614Y-86203402D01*
X102478748Y-86201602D01*
X102491000Y-86201000D01*
X102741000Y-86201000D01*
X102753252Y-86201602D01*
X102753252Y-86201602D01*
G37*
D14*
G04 #@! TD*
G04 #@! TO.P,SL1,2*
G04 #@! TO.N,RESET*
X102616000Y-86456000D03*
D13*
G04 #@! TO.N,TOUCH_B*
G04 #@! TO.C,P2*
G36*
X110299504Y-98711204D02*
X110323773Y-98714804D01*
X110347571Y-98720765D01*
X110370671Y-98729030D01*
X110392849Y-98739520D01*
X110413893Y-98752133D01*
X110433598Y-98766747D01*
X110451777Y-98783223D01*
X110468253Y-98801402D01*
X110482867Y-98821107D01*
X110495480Y-98842151D01*
X110505970Y-98864329D01*
X110514235Y-98887429D01*
X110520196Y-98911227D01*
X110523796Y-98935496D01*
X110525000Y-98960000D01*
X110525000Y-99460000D01*
X110523796Y-99484504D01*
X110520196Y-99508773D01*
X110514235Y-99532571D01*
X110505970Y-99555671D01*
X110495480Y-99577849D01*
X110482867Y-99598893D01*
X110468253Y-99618598D01*
X110451777Y-99636777D01*
X110433598Y-99653253D01*
X110413893Y-99667867D01*
X110392849Y-99680480D01*
X110370671Y-99690970D01*
X110347571Y-99699235D01*
X110323773Y-99705196D01*
X110299504Y-99708796D01*
X110275000Y-99710000D01*
X108775000Y-99710000D01*
X108750496Y-99708796D01*
X108726227Y-99705196D01*
X108702429Y-99699235D01*
X108679329Y-99690970D01*
X108657151Y-99680480D01*
X108636107Y-99667867D01*
X108616402Y-99653253D01*
X108598223Y-99636777D01*
X108581747Y-99618598D01*
X108567133Y-99598893D01*
X108554520Y-99577849D01*
X108544030Y-99555671D01*
X108535765Y-99532571D01*
X108529804Y-99508773D01*
X108526204Y-99484504D01*
X108525000Y-99460000D01*
X108525000Y-98960000D01*
X108526204Y-98935496D01*
X108529804Y-98911227D01*
X108535765Y-98887429D01*
X108544030Y-98864329D01*
X108554520Y-98842151D01*
X108567133Y-98821107D01*
X108581747Y-98801402D01*
X108598223Y-98783223D01*
X108616402Y-98766747D01*
X108636107Y-98752133D01*
X108657151Y-98739520D01*
X108679329Y-98729030D01*
X108702429Y-98720765D01*
X108726227Y-98714804D01*
X108750496Y-98711204D01*
X108775000Y-98710000D01*
X110275000Y-98710000D01*
X110299504Y-98711204D01*
X110299504Y-98711204D01*
G37*
D15*
G04 #@! TD*
G04 #@! TO.P,P2,1*
G04 #@! TO.N,TOUCH_B*
X109525000Y-99210000D03*
D13*
G04 #@! TO.N,TOUCH_A*
G04 #@! TO.C,P1*
G36*
X103314504Y-98647704D02*
X103338773Y-98651304D01*
X103362571Y-98657265D01*
X103385671Y-98665530D01*
X103407849Y-98676020D01*
X103428893Y-98688633D01*
X103448598Y-98703247D01*
X103466777Y-98719723D01*
X103483253Y-98737902D01*
X103497867Y-98757607D01*
X103510480Y-98778651D01*
X103520970Y-98800829D01*
X103529235Y-98823929D01*
X103535196Y-98847727D01*
X103538796Y-98871996D01*
X103540000Y-98896500D01*
X103540000Y-99396500D01*
X103538796Y-99421004D01*
X103535196Y-99445273D01*
X103529235Y-99469071D01*
X103520970Y-99492171D01*
X103510480Y-99514349D01*
X103497867Y-99535393D01*
X103483253Y-99555098D01*
X103466777Y-99573277D01*
X103448598Y-99589753D01*
X103428893Y-99604367D01*
X103407849Y-99616980D01*
X103385671Y-99627470D01*
X103362571Y-99635735D01*
X103338773Y-99641696D01*
X103314504Y-99645296D01*
X103290000Y-99646500D01*
X101790000Y-99646500D01*
X101765496Y-99645296D01*
X101741227Y-99641696D01*
X101717429Y-99635735D01*
X101694329Y-99627470D01*
X101672151Y-99616980D01*
X101651107Y-99604367D01*
X101631402Y-99589753D01*
X101613223Y-99573277D01*
X101596747Y-99555098D01*
X101582133Y-99535393D01*
X101569520Y-99514349D01*
X101559030Y-99492171D01*
X101550765Y-99469071D01*
X101544804Y-99445273D01*
X101541204Y-99421004D01*
X101540000Y-99396500D01*
X101540000Y-98896500D01*
X101541204Y-98871996D01*
X101544804Y-98847727D01*
X101550765Y-98823929D01*
X101559030Y-98800829D01*
X101569520Y-98778651D01*
X101582133Y-98757607D01*
X101596747Y-98737902D01*
X101613223Y-98719723D01*
X101631402Y-98703247D01*
X101651107Y-98688633D01*
X101672151Y-98676020D01*
X101694329Y-98665530D01*
X101717429Y-98657265D01*
X101741227Y-98651304D01*
X101765496Y-98647704D01*
X101790000Y-98646500D01*
X103290000Y-98646500D01*
X103314504Y-98647704D01*
X103314504Y-98647704D01*
G37*
D15*
G04 #@! TD*
G04 #@! TO.P,P1,1*
G04 #@! TO.N,TOUCH_A*
X102540000Y-99146500D03*
D16*
G04 #@! TO.P,Q1,E*
G04 #@! TO.N,PHOTOSENSOR*
X108775500Y-94196000D03*
G04 #@! TO.P,Q1,C*
G04 #@! TO.N,+3.3V*
X108775500Y-95796000D03*
G04 #@! TD*
D13*
G04 #@! TO.N,GND*
G04 #@! TO.C,C4*
G36*
X108923425Y-83796396D02*
X108951576Y-83800572D01*
X108979183Y-83807487D01*
X109005978Y-83817075D01*
X109031705Y-83829243D01*
X109056115Y-83843874D01*
X109078974Y-83860827D01*
X109100061Y-83879939D01*
X109119173Y-83901026D01*
X109136126Y-83923885D01*
X109150757Y-83948295D01*
X109162925Y-83974022D01*
X109172513Y-84000817D01*
X109179428Y-84028424D01*
X109183604Y-84056575D01*
X109185000Y-84085000D01*
X109185000Y-84665000D01*
X109183604Y-84693425D01*
X109179428Y-84721576D01*
X109172513Y-84749183D01*
X109162925Y-84775978D01*
X109150757Y-84801705D01*
X109136126Y-84826115D01*
X109119173Y-84848974D01*
X109100061Y-84870061D01*
X109078974Y-84889173D01*
X109056115Y-84906126D01*
X109031705Y-84920757D01*
X109005978Y-84932925D01*
X108979183Y-84942513D01*
X108951576Y-84949428D01*
X108923425Y-84953604D01*
X108895000Y-84955000D01*
X108005000Y-84955000D01*
X107976575Y-84953604D01*
X107948424Y-84949428D01*
X107920817Y-84942513D01*
X107894022Y-84932925D01*
X107868295Y-84920757D01*
X107843885Y-84906126D01*
X107821026Y-84889173D01*
X107799939Y-84870061D01*
X107780827Y-84848974D01*
X107763874Y-84826115D01*
X107749243Y-84801705D01*
X107737075Y-84775978D01*
X107727487Y-84749183D01*
X107720572Y-84721576D01*
X107716396Y-84693425D01*
X107715000Y-84665000D01*
X107715000Y-84085000D01*
X107716396Y-84056575D01*
X107720572Y-84028424D01*
X107727487Y-84000817D01*
X107737075Y-83974022D01*
X107749243Y-83948295D01*
X107763874Y-83923885D01*
X107780827Y-83901026D01*
X107799939Y-83879939D01*
X107821026Y-83860827D01*
X107843885Y-83843874D01*
X107868295Y-83829243D01*
X107894022Y-83817075D01*
X107920817Y-83807487D01*
X107948424Y-83800572D01*
X107976575Y-83796396D01*
X108005000Y-83795000D01*
X108895000Y-83795000D01*
X108923425Y-83796396D01*
X108923425Y-83796396D01*
G37*
D17*
G04 #@! TD*
G04 #@! TO.P,C4,2*
G04 #@! TO.N,GND*
X108450000Y-84375000D03*
D13*
G04 #@! TO.N,+3.3V*
G04 #@! TO.C,C4*
G36*
X108923425Y-82046396D02*
X108951576Y-82050572D01*
X108979183Y-82057487D01*
X109005978Y-82067075D01*
X109031705Y-82079243D01*
X109056115Y-82093874D01*
X109078974Y-82110827D01*
X109100061Y-82129939D01*
X109119173Y-82151026D01*
X109136126Y-82173885D01*
X109150757Y-82198295D01*
X109162925Y-82224022D01*
X109172513Y-82250817D01*
X109179428Y-82278424D01*
X109183604Y-82306575D01*
X109185000Y-82335000D01*
X109185000Y-82915000D01*
X109183604Y-82943425D01*
X109179428Y-82971576D01*
X109172513Y-82999183D01*
X109162925Y-83025978D01*
X109150757Y-83051705D01*
X109136126Y-83076115D01*
X109119173Y-83098974D01*
X109100061Y-83120061D01*
X109078974Y-83139173D01*
X109056115Y-83156126D01*
X109031705Y-83170757D01*
X109005978Y-83182925D01*
X108979183Y-83192513D01*
X108951576Y-83199428D01*
X108923425Y-83203604D01*
X108895000Y-83205000D01*
X108005000Y-83205000D01*
X107976575Y-83203604D01*
X107948424Y-83199428D01*
X107920817Y-83192513D01*
X107894022Y-83182925D01*
X107868295Y-83170757D01*
X107843885Y-83156126D01*
X107821026Y-83139173D01*
X107799939Y-83120061D01*
X107780827Y-83098974D01*
X107763874Y-83076115D01*
X107749243Y-83051705D01*
X107737075Y-83025978D01*
X107727487Y-82999183D01*
X107720572Y-82971576D01*
X107716396Y-82943425D01*
X107715000Y-82915000D01*
X107715000Y-82335000D01*
X107716396Y-82306575D01*
X107720572Y-82278424D01*
X107727487Y-82250817D01*
X107737075Y-82224022D01*
X107749243Y-82198295D01*
X107763874Y-82173885D01*
X107780827Y-82151026D01*
X107799939Y-82129939D01*
X107821026Y-82110827D01*
X107843885Y-82093874D01*
X107868295Y-82079243D01*
X107894022Y-82067075D01*
X107920817Y-82057487D01*
X107948424Y-82050572D01*
X107976575Y-82046396D01*
X108005000Y-82045000D01*
X108895000Y-82045000D01*
X108923425Y-82046396D01*
X108923425Y-82046396D01*
G37*
D17*
G04 #@! TD*
G04 #@! TO.P,C4,1*
G04 #@! TO.N,+3.3V*
X108450000Y-82625000D03*
D13*
G04 #@! TO.N,GND*
G04 #@! TO.C,C3*
G36*
X102673425Y-83796396D02*
X102701576Y-83800572D01*
X102729183Y-83807487D01*
X102755978Y-83817075D01*
X102781705Y-83829243D01*
X102806115Y-83843874D01*
X102828974Y-83860827D01*
X102850061Y-83879939D01*
X102869173Y-83901026D01*
X102886126Y-83923885D01*
X102900757Y-83948295D01*
X102912925Y-83974022D01*
X102922513Y-84000817D01*
X102929428Y-84028424D01*
X102933604Y-84056575D01*
X102935000Y-84085000D01*
X102935000Y-84665000D01*
X102933604Y-84693425D01*
X102929428Y-84721576D01*
X102922513Y-84749183D01*
X102912925Y-84775978D01*
X102900757Y-84801705D01*
X102886126Y-84826115D01*
X102869173Y-84848974D01*
X102850061Y-84870061D01*
X102828974Y-84889173D01*
X102806115Y-84906126D01*
X102781705Y-84920757D01*
X102755978Y-84932925D01*
X102729183Y-84942513D01*
X102701576Y-84949428D01*
X102673425Y-84953604D01*
X102645000Y-84955000D01*
X101755000Y-84955000D01*
X101726575Y-84953604D01*
X101698424Y-84949428D01*
X101670817Y-84942513D01*
X101644022Y-84932925D01*
X101618295Y-84920757D01*
X101593885Y-84906126D01*
X101571026Y-84889173D01*
X101549939Y-84870061D01*
X101530827Y-84848974D01*
X101513874Y-84826115D01*
X101499243Y-84801705D01*
X101487075Y-84775978D01*
X101477487Y-84749183D01*
X101470572Y-84721576D01*
X101466396Y-84693425D01*
X101465000Y-84665000D01*
X101465000Y-84085000D01*
X101466396Y-84056575D01*
X101470572Y-84028424D01*
X101477487Y-84000817D01*
X101487075Y-83974022D01*
X101499243Y-83948295D01*
X101513874Y-83923885D01*
X101530827Y-83901026D01*
X101549939Y-83879939D01*
X101571026Y-83860827D01*
X101593885Y-83843874D01*
X101618295Y-83829243D01*
X101644022Y-83817075D01*
X101670817Y-83807487D01*
X101698424Y-83800572D01*
X101726575Y-83796396D01*
X101755000Y-83795000D01*
X102645000Y-83795000D01*
X102673425Y-83796396D01*
X102673425Y-83796396D01*
G37*
D17*
G04 #@! TD*
G04 #@! TO.P,C3,1*
G04 #@! TO.N,GND*
X102200000Y-84375000D03*
D13*
G04 #@! TO.N,VCC*
G04 #@! TO.C,C3*
G36*
X102673425Y-82046396D02*
X102701576Y-82050572D01*
X102729183Y-82057487D01*
X102755978Y-82067075D01*
X102781705Y-82079243D01*
X102806115Y-82093874D01*
X102828974Y-82110827D01*
X102850061Y-82129939D01*
X102869173Y-82151026D01*
X102886126Y-82173885D01*
X102900757Y-82198295D01*
X102912925Y-82224022D01*
X102922513Y-82250817D01*
X102929428Y-82278424D01*
X102933604Y-82306575D01*
X102935000Y-82335000D01*
X102935000Y-82915000D01*
X102933604Y-82943425D01*
X102929428Y-82971576D01*
X102922513Y-82999183D01*
X102912925Y-83025978D01*
X102900757Y-83051705D01*
X102886126Y-83076115D01*
X102869173Y-83098974D01*
X102850061Y-83120061D01*
X102828974Y-83139173D01*
X102806115Y-83156126D01*
X102781705Y-83170757D01*
X102755978Y-83182925D01*
X102729183Y-83192513D01*
X102701576Y-83199428D01*
X102673425Y-83203604D01*
X102645000Y-83205000D01*
X101755000Y-83205000D01*
X101726575Y-83203604D01*
X101698424Y-83199428D01*
X101670817Y-83192513D01*
X101644022Y-83182925D01*
X101618295Y-83170757D01*
X101593885Y-83156126D01*
X101571026Y-83139173D01*
X101549939Y-83120061D01*
X101530827Y-83098974D01*
X101513874Y-83076115D01*
X101499243Y-83051705D01*
X101487075Y-83025978D01*
X101477487Y-82999183D01*
X101470572Y-82971576D01*
X101466396Y-82943425D01*
X101465000Y-82915000D01*
X101465000Y-82335000D01*
X101466396Y-82306575D01*
X101470572Y-82278424D01*
X101477487Y-82250817D01*
X101487075Y-82224022D01*
X101499243Y-82198295D01*
X101513874Y-82173885D01*
X101530827Y-82151026D01*
X101549939Y-82129939D01*
X101571026Y-82110827D01*
X101593885Y-82093874D01*
X101618295Y-82079243D01*
X101644022Y-82067075D01*
X101670817Y-82057487D01*
X101698424Y-82050572D01*
X101726575Y-82046396D01*
X101755000Y-82045000D01*
X102645000Y-82045000D01*
X102673425Y-82046396D01*
X102673425Y-82046396D01*
G37*
D17*
G04 #@! TD*
G04 #@! TO.P,C3,2*
G04 #@! TO.N,VCC*
X102200000Y-82625000D03*
D13*
G04 #@! TO.N,PHOTOSENSOR*
G04 #@! TO.C,R2*
G36*
X110757497Y-89235614D02*
X110769874Y-89237450D01*
X110782011Y-89240490D01*
X110793792Y-89244705D01*
X110805103Y-89250055D01*
X110815835Y-89256488D01*
X110825885Y-89263941D01*
X110835156Y-89272344D01*
X110843559Y-89281615D01*
X110851012Y-89291665D01*
X110857445Y-89302397D01*
X110862795Y-89313708D01*
X110867010Y-89325489D01*
X110870050Y-89337626D01*
X110871886Y-89350003D01*
X110872500Y-89362500D01*
X110872500Y-89707500D01*
X110871886Y-89719997D01*
X110870050Y-89732374D01*
X110867010Y-89744511D01*
X110862795Y-89756292D01*
X110857445Y-89767603D01*
X110851012Y-89778335D01*
X110843559Y-89788385D01*
X110835156Y-89797656D01*
X110825885Y-89806059D01*
X110815835Y-89813512D01*
X110805103Y-89819945D01*
X110793792Y-89825295D01*
X110782011Y-89829510D01*
X110769874Y-89832550D01*
X110757497Y-89834386D01*
X110745000Y-89835000D01*
X110490000Y-89835000D01*
X110477503Y-89834386D01*
X110465126Y-89832550D01*
X110452989Y-89829510D01*
X110441208Y-89825295D01*
X110429897Y-89819945D01*
X110419165Y-89813512D01*
X110409115Y-89806059D01*
X110399844Y-89797656D01*
X110391441Y-89788385D01*
X110383988Y-89778335D01*
X110377555Y-89767603D01*
X110372205Y-89756292D01*
X110367990Y-89744511D01*
X110364950Y-89732374D01*
X110363114Y-89719997D01*
X110362500Y-89707500D01*
X110362500Y-89362500D01*
X110363114Y-89350003D01*
X110364950Y-89337626D01*
X110367990Y-89325489D01*
X110372205Y-89313708D01*
X110377555Y-89302397D01*
X110383988Y-89291665D01*
X110391441Y-89281615D01*
X110399844Y-89272344D01*
X110409115Y-89263941D01*
X110419165Y-89256488D01*
X110429897Y-89250055D01*
X110441208Y-89244705D01*
X110452989Y-89240490D01*
X110465126Y-89237450D01*
X110477503Y-89235614D01*
X110490000Y-89235000D01*
X110745000Y-89235000D01*
X110757497Y-89235614D01*
X110757497Y-89235614D01*
G37*
D18*
G04 #@! TD*
G04 #@! TO.P,R2,1*
G04 #@! TO.N,PHOTOSENSOR*
X110617500Y-89535000D03*
D13*
G04 #@! TO.N,GND*
G04 #@! TO.C,R2*
G36*
X109867497Y-89235614D02*
X109879874Y-89237450D01*
X109892011Y-89240490D01*
X109903792Y-89244705D01*
X109915103Y-89250055D01*
X109925835Y-89256488D01*
X109935885Y-89263941D01*
X109945156Y-89272344D01*
X109953559Y-89281615D01*
X109961012Y-89291665D01*
X109967445Y-89302397D01*
X109972795Y-89313708D01*
X109977010Y-89325489D01*
X109980050Y-89337626D01*
X109981886Y-89350003D01*
X109982500Y-89362500D01*
X109982500Y-89707500D01*
X109981886Y-89719997D01*
X109980050Y-89732374D01*
X109977010Y-89744511D01*
X109972795Y-89756292D01*
X109967445Y-89767603D01*
X109961012Y-89778335D01*
X109953559Y-89788385D01*
X109945156Y-89797656D01*
X109935885Y-89806059D01*
X109925835Y-89813512D01*
X109915103Y-89819945D01*
X109903792Y-89825295D01*
X109892011Y-89829510D01*
X109879874Y-89832550D01*
X109867497Y-89834386D01*
X109855000Y-89835000D01*
X109600000Y-89835000D01*
X109587503Y-89834386D01*
X109575126Y-89832550D01*
X109562989Y-89829510D01*
X109551208Y-89825295D01*
X109539897Y-89819945D01*
X109529165Y-89813512D01*
X109519115Y-89806059D01*
X109509844Y-89797656D01*
X109501441Y-89788385D01*
X109493988Y-89778335D01*
X109487555Y-89767603D01*
X109482205Y-89756292D01*
X109477990Y-89744511D01*
X109474950Y-89732374D01*
X109473114Y-89719997D01*
X109472500Y-89707500D01*
X109472500Y-89362500D01*
X109473114Y-89350003D01*
X109474950Y-89337626D01*
X109477990Y-89325489D01*
X109482205Y-89313708D01*
X109487555Y-89302397D01*
X109493988Y-89291665D01*
X109501441Y-89281615D01*
X109509844Y-89272344D01*
X109519115Y-89263941D01*
X109529165Y-89256488D01*
X109539897Y-89250055D01*
X109551208Y-89244705D01*
X109562989Y-89240490D01*
X109575126Y-89237450D01*
X109587503Y-89235614D01*
X109600000Y-89235000D01*
X109855000Y-89235000D01*
X109867497Y-89235614D01*
X109867497Y-89235614D01*
G37*
D18*
G04 #@! TD*
G04 #@! TO.P,R2,2*
G04 #@! TO.N,GND*
X109727500Y-89535000D03*
D13*
G04 #@! TO.N,GND*
G04 #@! TO.C,D1*
G36*
X110604898Y-82485855D02*
X110622129Y-82488411D01*
X110639026Y-82492643D01*
X110655426Y-82498511D01*
X110671173Y-82505959D01*
X110686114Y-82514914D01*
X110700105Y-82525291D01*
X110713011Y-82536989D01*
X110724709Y-82549895D01*
X110735086Y-82563886D01*
X110744041Y-82578827D01*
X110751489Y-82594574D01*
X110757357Y-82610974D01*
X110761589Y-82627871D01*
X110764145Y-82645102D01*
X110765000Y-82662500D01*
X110765000Y-83017500D01*
X110764145Y-83034898D01*
X110761589Y-83052129D01*
X110757357Y-83069026D01*
X110751489Y-83085426D01*
X110744041Y-83101173D01*
X110735086Y-83116114D01*
X110724709Y-83130105D01*
X110713011Y-83143011D01*
X110700105Y-83154709D01*
X110686114Y-83165086D01*
X110671173Y-83174041D01*
X110655426Y-83181489D01*
X110639026Y-83187357D01*
X110622129Y-83191589D01*
X110604898Y-83194145D01*
X110587500Y-83195000D01*
X110112500Y-83195000D01*
X110095102Y-83194145D01*
X110077871Y-83191589D01*
X110060974Y-83187357D01*
X110044574Y-83181489D01*
X110028827Y-83174041D01*
X110013886Y-83165086D01*
X109999895Y-83154709D01*
X109986989Y-83143011D01*
X109975291Y-83130105D01*
X109964914Y-83116114D01*
X109955959Y-83101173D01*
X109948511Y-83085426D01*
X109942643Y-83069026D01*
X109938411Y-83052129D01*
X109935855Y-83034898D01*
X109935000Y-83017500D01*
X109935000Y-82662500D01*
X109935855Y-82645102D01*
X109938411Y-82627871D01*
X109942643Y-82610974D01*
X109948511Y-82594574D01*
X109955959Y-82578827D01*
X109964914Y-82563886D01*
X109975291Y-82549895D01*
X109986989Y-82536989D01*
X109999895Y-82525291D01*
X110013886Y-82514914D01*
X110028827Y-82505959D01*
X110044574Y-82498511D01*
X110060974Y-82492643D01*
X110077871Y-82488411D01*
X110095102Y-82485855D01*
X110112500Y-82485000D01*
X110587500Y-82485000D01*
X110604898Y-82485855D01*
X110604898Y-82485855D01*
G37*
D19*
G04 #@! TD*
G04 #@! TO.P,D1,C*
G04 #@! TO.N,GND*
X110350000Y-82840000D03*
D13*
G04 #@! TO.N,Net-(D1-PadA)*
G04 #@! TO.C,D1*
G36*
X110604898Y-83805855D02*
X110622129Y-83808411D01*
X110639026Y-83812643D01*
X110655426Y-83818511D01*
X110671173Y-83825959D01*
X110686114Y-83834914D01*
X110700105Y-83845291D01*
X110713011Y-83856989D01*
X110724709Y-83869895D01*
X110735086Y-83883886D01*
X110744041Y-83898827D01*
X110751489Y-83914574D01*
X110757357Y-83930974D01*
X110761589Y-83947871D01*
X110764145Y-83965102D01*
X110765000Y-83982500D01*
X110765000Y-84337500D01*
X110764145Y-84354898D01*
X110761589Y-84372129D01*
X110757357Y-84389026D01*
X110751489Y-84405426D01*
X110744041Y-84421173D01*
X110735086Y-84436114D01*
X110724709Y-84450105D01*
X110713011Y-84463011D01*
X110700105Y-84474709D01*
X110686114Y-84485086D01*
X110671173Y-84494041D01*
X110655426Y-84501489D01*
X110639026Y-84507357D01*
X110622129Y-84511589D01*
X110604898Y-84514145D01*
X110587500Y-84515000D01*
X110112500Y-84515000D01*
X110095102Y-84514145D01*
X110077871Y-84511589D01*
X110060974Y-84507357D01*
X110044574Y-84501489D01*
X110028827Y-84494041D01*
X110013886Y-84485086D01*
X109999895Y-84474709D01*
X109986989Y-84463011D01*
X109975291Y-84450105D01*
X109964914Y-84436114D01*
X109955959Y-84421173D01*
X109948511Y-84405426D01*
X109942643Y-84389026D01*
X109938411Y-84372129D01*
X109935855Y-84354898D01*
X109935000Y-84337500D01*
X109935000Y-83982500D01*
X109935855Y-83965102D01*
X109938411Y-83947871D01*
X109942643Y-83930974D01*
X109948511Y-83914574D01*
X109955959Y-83898827D01*
X109964914Y-83883886D01*
X109975291Y-83869895D01*
X109986989Y-83856989D01*
X109999895Y-83845291D01*
X110013886Y-83834914D01*
X110028827Y-83825959D01*
X110044574Y-83818511D01*
X110060974Y-83812643D01*
X110077871Y-83808411D01*
X110095102Y-83805855D01*
X110112500Y-83805000D01*
X110587500Y-83805000D01*
X110604898Y-83805855D01*
X110604898Y-83805855D01*
G37*
D19*
G04 #@! TD*
G04 #@! TO.P,D1,A*
G04 #@! TO.N,Net-(D1-PadA)*
X110350000Y-84160000D03*
D13*
G04 #@! TO.N,VCC*
G04 #@! TO.C,U2*
G36*
X104466792Y-82277006D02*
X104476984Y-82278518D01*
X104486980Y-82281021D01*
X104496682Y-82284493D01*
X104505997Y-82288898D01*
X104514835Y-82294196D01*
X104523111Y-82300334D01*
X104530746Y-82307254D01*
X104537666Y-82314889D01*
X104543804Y-82323165D01*
X104549102Y-82332003D01*
X104553507Y-82341318D01*
X104556979Y-82351020D01*
X104559482Y-82361016D01*
X104560994Y-82371208D01*
X104561500Y-82381500D01*
X104561500Y-82591500D01*
X104560994Y-82601792D01*
X104559482Y-82611984D01*
X104556979Y-82621980D01*
X104553507Y-82631682D01*
X104549102Y-82640997D01*
X104543804Y-82649835D01*
X104537666Y-82658111D01*
X104530746Y-82665746D01*
X104523111Y-82672666D01*
X104514835Y-82678804D01*
X104505997Y-82684102D01*
X104496682Y-82688507D01*
X104486980Y-82691979D01*
X104476984Y-82694482D01*
X104466792Y-82695994D01*
X104456500Y-82696500D01*
X103816500Y-82696500D01*
X103806208Y-82695994D01*
X103796016Y-82694482D01*
X103786020Y-82691979D01*
X103776318Y-82688507D01*
X103767003Y-82684102D01*
X103758165Y-82678804D01*
X103749889Y-82672666D01*
X103742254Y-82665746D01*
X103735334Y-82658111D01*
X103729196Y-82649835D01*
X103723898Y-82640997D01*
X103719493Y-82631682D01*
X103716021Y-82621980D01*
X103713518Y-82611984D01*
X103712006Y-82601792D01*
X103711500Y-82591500D01*
X103711500Y-82381500D01*
X103712006Y-82371208D01*
X103713518Y-82361016D01*
X103716021Y-82351020D01*
X103719493Y-82341318D01*
X103723898Y-82332003D01*
X103729196Y-82323165D01*
X103735334Y-82314889D01*
X103742254Y-82307254D01*
X103749889Y-82300334D01*
X103758165Y-82294196D01*
X103767003Y-82288898D01*
X103776318Y-82284493D01*
X103786020Y-82281021D01*
X103796016Y-82278518D01*
X103806208Y-82277006D01*
X103816500Y-82276500D01*
X104456500Y-82276500D01*
X104466792Y-82277006D01*
X104466792Y-82277006D01*
G37*
D20*
G04 #@! TD*
G04 #@! TO.P,U2,1*
G04 #@! TO.N,VCC*
X104136500Y-82486500D03*
D13*
G04 #@! TO.N,GND*
G04 #@! TO.C,U2*
G36*
X104466792Y-83227006D02*
X104476984Y-83228518D01*
X104486980Y-83231021D01*
X104496682Y-83234493D01*
X104505997Y-83238898D01*
X104514835Y-83244196D01*
X104523111Y-83250334D01*
X104530746Y-83257254D01*
X104537666Y-83264889D01*
X104543804Y-83273165D01*
X104549102Y-83282003D01*
X104553507Y-83291318D01*
X104556979Y-83301020D01*
X104559482Y-83311016D01*
X104560994Y-83321208D01*
X104561500Y-83331500D01*
X104561500Y-83541500D01*
X104560994Y-83551792D01*
X104559482Y-83561984D01*
X104556979Y-83571980D01*
X104553507Y-83581682D01*
X104549102Y-83590997D01*
X104543804Y-83599835D01*
X104537666Y-83608111D01*
X104530746Y-83615746D01*
X104523111Y-83622666D01*
X104514835Y-83628804D01*
X104505997Y-83634102D01*
X104496682Y-83638507D01*
X104486980Y-83641979D01*
X104476984Y-83644482D01*
X104466792Y-83645994D01*
X104456500Y-83646500D01*
X103816500Y-83646500D01*
X103806208Y-83645994D01*
X103796016Y-83644482D01*
X103786020Y-83641979D01*
X103776318Y-83638507D01*
X103767003Y-83634102D01*
X103758165Y-83628804D01*
X103749889Y-83622666D01*
X103742254Y-83615746D01*
X103735334Y-83608111D01*
X103729196Y-83599835D01*
X103723898Y-83590997D01*
X103719493Y-83581682D01*
X103716021Y-83571980D01*
X103713518Y-83561984D01*
X103712006Y-83551792D01*
X103711500Y-83541500D01*
X103711500Y-83331500D01*
X103712006Y-83321208D01*
X103713518Y-83311016D01*
X103716021Y-83301020D01*
X103719493Y-83291318D01*
X103723898Y-83282003D01*
X103729196Y-83273165D01*
X103735334Y-83264889D01*
X103742254Y-83257254D01*
X103749889Y-83250334D01*
X103758165Y-83244196D01*
X103767003Y-83238898D01*
X103776318Y-83234493D01*
X103786020Y-83231021D01*
X103796016Y-83228518D01*
X103806208Y-83227006D01*
X103816500Y-83226500D01*
X104456500Y-83226500D01*
X104466792Y-83227006D01*
X104466792Y-83227006D01*
G37*
D20*
G04 #@! TD*
G04 #@! TO.P,U2,2*
G04 #@! TO.N,GND*
X104136500Y-83436500D03*
D13*
G04 #@! TO.N,VCC*
G04 #@! TO.C,U2*
G36*
X104466792Y-84177006D02*
X104476984Y-84178518D01*
X104486980Y-84181021D01*
X104496682Y-84184493D01*
X104505997Y-84188898D01*
X104514835Y-84194196D01*
X104523111Y-84200334D01*
X104530746Y-84207254D01*
X104537666Y-84214889D01*
X104543804Y-84223165D01*
X104549102Y-84232003D01*
X104553507Y-84241318D01*
X104556979Y-84251020D01*
X104559482Y-84261016D01*
X104560994Y-84271208D01*
X104561500Y-84281500D01*
X104561500Y-84491500D01*
X104560994Y-84501792D01*
X104559482Y-84511984D01*
X104556979Y-84521980D01*
X104553507Y-84531682D01*
X104549102Y-84540997D01*
X104543804Y-84549835D01*
X104537666Y-84558111D01*
X104530746Y-84565746D01*
X104523111Y-84572666D01*
X104514835Y-84578804D01*
X104505997Y-84584102D01*
X104496682Y-84588507D01*
X104486980Y-84591979D01*
X104476984Y-84594482D01*
X104466792Y-84595994D01*
X104456500Y-84596500D01*
X103816500Y-84596500D01*
X103806208Y-84595994D01*
X103796016Y-84594482D01*
X103786020Y-84591979D01*
X103776318Y-84588507D01*
X103767003Y-84584102D01*
X103758165Y-84578804D01*
X103749889Y-84572666D01*
X103742254Y-84565746D01*
X103735334Y-84558111D01*
X103729196Y-84549835D01*
X103723898Y-84540997D01*
X103719493Y-84531682D01*
X103716021Y-84521980D01*
X103713518Y-84511984D01*
X103712006Y-84501792D01*
X103711500Y-84491500D01*
X103711500Y-84281500D01*
X103712006Y-84271208D01*
X103713518Y-84261016D01*
X103716021Y-84251020D01*
X103719493Y-84241318D01*
X103723898Y-84232003D01*
X103729196Y-84223165D01*
X103735334Y-84214889D01*
X103742254Y-84207254D01*
X103749889Y-84200334D01*
X103758165Y-84194196D01*
X103767003Y-84188898D01*
X103776318Y-84184493D01*
X103786020Y-84181021D01*
X103796016Y-84178518D01*
X103806208Y-84177006D01*
X103816500Y-84176500D01*
X104456500Y-84176500D01*
X104466792Y-84177006D01*
X104466792Y-84177006D01*
G37*
D20*
G04 #@! TD*
G04 #@! TO.P,U2,3*
G04 #@! TO.N,VCC*
X104136500Y-84386500D03*
D13*
G04 #@! TO.N,Net-(U2-Pad4)*
G04 #@! TO.C,U2*
G36*
X106866792Y-84177006D02*
X106876984Y-84178518D01*
X106886980Y-84181021D01*
X106896682Y-84184493D01*
X106905997Y-84188898D01*
X106914835Y-84194196D01*
X106923111Y-84200334D01*
X106930746Y-84207254D01*
X106937666Y-84214889D01*
X106943804Y-84223165D01*
X106949102Y-84232003D01*
X106953507Y-84241318D01*
X106956979Y-84251020D01*
X106959482Y-84261016D01*
X106960994Y-84271208D01*
X106961500Y-84281500D01*
X106961500Y-84491500D01*
X106960994Y-84501792D01*
X106959482Y-84511984D01*
X106956979Y-84521980D01*
X106953507Y-84531682D01*
X106949102Y-84540997D01*
X106943804Y-84549835D01*
X106937666Y-84558111D01*
X106930746Y-84565746D01*
X106923111Y-84572666D01*
X106914835Y-84578804D01*
X106905997Y-84584102D01*
X106896682Y-84588507D01*
X106886980Y-84591979D01*
X106876984Y-84594482D01*
X106866792Y-84595994D01*
X106856500Y-84596500D01*
X106216500Y-84596500D01*
X106206208Y-84595994D01*
X106196016Y-84594482D01*
X106186020Y-84591979D01*
X106176318Y-84588507D01*
X106167003Y-84584102D01*
X106158165Y-84578804D01*
X106149889Y-84572666D01*
X106142254Y-84565746D01*
X106135334Y-84558111D01*
X106129196Y-84549835D01*
X106123898Y-84540997D01*
X106119493Y-84531682D01*
X106116021Y-84521980D01*
X106113518Y-84511984D01*
X106112006Y-84501792D01*
X106111500Y-84491500D01*
X106111500Y-84281500D01*
X106112006Y-84271208D01*
X106113518Y-84261016D01*
X106116021Y-84251020D01*
X106119493Y-84241318D01*
X106123898Y-84232003D01*
X106129196Y-84223165D01*
X106135334Y-84214889D01*
X106142254Y-84207254D01*
X106149889Y-84200334D01*
X106158165Y-84194196D01*
X106167003Y-84188898D01*
X106176318Y-84184493D01*
X106186020Y-84181021D01*
X106196016Y-84178518D01*
X106206208Y-84177006D01*
X106216500Y-84176500D01*
X106856500Y-84176500D01*
X106866792Y-84177006D01*
X106866792Y-84177006D01*
G37*
D20*
G04 #@! TD*
G04 #@! TO.P,U2,4*
G04 #@! TO.N,Net-(U2-Pad4)*
X106536500Y-84386500D03*
D13*
G04 #@! TO.N,+3.3V*
G04 #@! TO.C,U2*
G36*
X106866792Y-82277006D02*
X106876984Y-82278518D01*
X106886980Y-82281021D01*
X106896682Y-82284493D01*
X106905997Y-82288898D01*
X106914835Y-82294196D01*
X106923111Y-82300334D01*
X106930746Y-82307254D01*
X106937666Y-82314889D01*
X106943804Y-82323165D01*
X106949102Y-82332003D01*
X106953507Y-82341318D01*
X106956979Y-82351020D01*
X106959482Y-82361016D01*
X106960994Y-82371208D01*
X106961500Y-82381500D01*
X106961500Y-82591500D01*
X106960994Y-82601792D01*
X106959482Y-82611984D01*
X106956979Y-82621980D01*
X106953507Y-82631682D01*
X106949102Y-82640997D01*
X106943804Y-82649835D01*
X106937666Y-82658111D01*
X106930746Y-82665746D01*
X106923111Y-82672666D01*
X106914835Y-82678804D01*
X106905997Y-82684102D01*
X106896682Y-82688507D01*
X106886980Y-82691979D01*
X106876984Y-82694482D01*
X106866792Y-82695994D01*
X106856500Y-82696500D01*
X106216500Y-82696500D01*
X106206208Y-82695994D01*
X106196016Y-82694482D01*
X106186020Y-82691979D01*
X106176318Y-82688507D01*
X106167003Y-82684102D01*
X106158165Y-82678804D01*
X106149889Y-82672666D01*
X106142254Y-82665746D01*
X106135334Y-82658111D01*
X106129196Y-82649835D01*
X106123898Y-82640997D01*
X106119493Y-82631682D01*
X106116021Y-82621980D01*
X106113518Y-82611984D01*
X106112006Y-82601792D01*
X106111500Y-82591500D01*
X106111500Y-82381500D01*
X106112006Y-82371208D01*
X106113518Y-82361016D01*
X106116021Y-82351020D01*
X106119493Y-82341318D01*
X106123898Y-82332003D01*
X106129196Y-82323165D01*
X106135334Y-82314889D01*
X106142254Y-82307254D01*
X106149889Y-82300334D01*
X106158165Y-82294196D01*
X106167003Y-82288898D01*
X106176318Y-82284493D01*
X106186020Y-82281021D01*
X106196016Y-82278518D01*
X106206208Y-82277006D01*
X106216500Y-82276500D01*
X106856500Y-82276500D01*
X106866792Y-82277006D01*
X106866792Y-82277006D01*
G37*
D20*
G04 #@! TD*
G04 #@! TO.P,U2,5*
G04 #@! TO.N,+3.3V*
X106536500Y-82486500D03*
D13*
G04 #@! TO.N,+3.3V*
G04 #@! TO.C,C1*
G36*
X102416958Y-89200710D02*
X102431276Y-89202834D01*
X102445317Y-89206351D01*
X102458946Y-89211228D01*
X102472031Y-89217417D01*
X102484447Y-89224858D01*
X102496073Y-89233481D01*
X102506798Y-89243202D01*
X102516519Y-89253927D01*
X102525142Y-89265553D01*
X102532583Y-89277969D01*
X102538772Y-89291054D01*
X102543649Y-89304683D01*
X102547166Y-89318724D01*
X102549290Y-89333042D01*
X102550000Y-89347500D01*
X102550000Y-89652500D01*
X102549290Y-89666958D01*
X102547166Y-89681276D01*
X102543649Y-89695317D01*
X102538772Y-89708946D01*
X102532583Y-89722031D01*
X102525142Y-89734447D01*
X102516519Y-89746073D01*
X102506798Y-89756798D01*
X102496073Y-89766519D01*
X102484447Y-89775142D01*
X102472031Y-89782583D01*
X102458946Y-89788772D01*
X102445317Y-89793649D01*
X102431276Y-89797166D01*
X102416958Y-89799290D01*
X102402500Y-89800000D01*
X102107500Y-89800000D01*
X102093042Y-89799290D01*
X102078724Y-89797166D01*
X102064683Y-89793649D01*
X102051054Y-89788772D01*
X102037969Y-89782583D01*
X102025553Y-89775142D01*
X102013927Y-89766519D01*
X102003202Y-89756798D01*
X101993481Y-89746073D01*
X101984858Y-89734447D01*
X101977417Y-89722031D01*
X101971228Y-89708946D01*
X101966351Y-89695317D01*
X101962834Y-89681276D01*
X101960710Y-89666958D01*
X101960000Y-89652500D01*
X101960000Y-89347500D01*
X101960710Y-89333042D01*
X101962834Y-89318724D01*
X101966351Y-89304683D01*
X101971228Y-89291054D01*
X101977417Y-89277969D01*
X101984858Y-89265553D01*
X101993481Y-89253927D01*
X102003202Y-89243202D01*
X102013927Y-89233481D01*
X102025553Y-89224858D01*
X102037969Y-89217417D01*
X102051054Y-89211228D01*
X102064683Y-89206351D01*
X102078724Y-89202834D01*
X102093042Y-89200710D01*
X102107500Y-89200000D01*
X102402500Y-89200000D01*
X102416958Y-89200710D01*
X102416958Y-89200710D01*
G37*
D21*
G04 #@! TD*
G04 #@! TO.P,C1,1*
G04 #@! TO.N,+3.3V*
X102255000Y-89500000D03*
D13*
G04 #@! TO.N,GND*
G04 #@! TO.C,C1*
G36*
X101606958Y-89200710D02*
X101621276Y-89202834D01*
X101635317Y-89206351D01*
X101648946Y-89211228D01*
X101662031Y-89217417D01*
X101674447Y-89224858D01*
X101686073Y-89233481D01*
X101696798Y-89243202D01*
X101706519Y-89253927D01*
X101715142Y-89265553D01*
X101722583Y-89277969D01*
X101728772Y-89291054D01*
X101733649Y-89304683D01*
X101737166Y-89318724D01*
X101739290Y-89333042D01*
X101740000Y-89347500D01*
X101740000Y-89652500D01*
X101739290Y-89666958D01*
X101737166Y-89681276D01*
X101733649Y-89695317D01*
X101728772Y-89708946D01*
X101722583Y-89722031D01*
X101715142Y-89734447D01*
X101706519Y-89746073D01*
X101696798Y-89756798D01*
X101686073Y-89766519D01*
X101674447Y-89775142D01*
X101662031Y-89782583D01*
X101648946Y-89788772D01*
X101635317Y-89793649D01*
X101621276Y-89797166D01*
X101606958Y-89799290D01*
X101592500Y-89800000D01*
X101297500Y-89800000D01*
X101283042Y-89799290D01*
X101268724Y-89797166D01*
X101254683Y-89793649D01*
X101241054Y-89788772D01*
X101227969Y-89782583D01*
X101215553Y-89775142D01*
X101203927Y-89766519D01*
X101193202Y-89756798D01*
X101183481Y-89746073D01*
X101174858Y-89734447D01*
X101167417Y-89722031D01*
X101161228Y-89708946D01*
X101156351Y-89695317D01*
X101152834Y-89681276D01*
X101150710Y-89666958D01*
X101150000Y-89652500D01*
X101150000Y-89347500D01*
X101150710Y-89333042D01*
X101152834Y-89318724D01*
X101156351Y-89304683D01*
X101161228Y-89291054D01*
X101167417Y-89277969D01*
X101174858Y-89265553D01*
X101183481Y-89253927D01*
X101193202Y-89243202D01*
X101203927Y-89233481D01*
X101215553Y-89224858D01*
X101227969Y-89217417D01*
X101241054Y-89211228D01*
X101254683Y-89206351D01*
X101268724Y-89202834D01*
X101283042Y-89200710D01*
X101297500Y-89200000D01*
X101592500Y-89200000D01*
X101606958Y-89200710D01*
X101606958Y-89200710D01*
G37*
D21*
G04 #@! TD*
G04 #@! TO.P,C1,2*
G04 #@! TO.N,GND*
X101445000Y-89500000D03*
D13*
G04 #@! TO.N,GND*
G04 #@! TO.C,C2*
G36*
X101606958Y-87902210D02*
X101621276Y-87904334D01*
X101635317Y-87907851D01*
X101648946Y-87912728D01*
X101662031Y-87918917D01*
X101674447Y-87926358D01*
X101686073Y-87934981D01*
X101696798Y-87944702D01*
X101706519Y-87955427D01*
X101715142Y-87967053D01*
X101722583Y-87979469D01*
X101728772Y-87992554D01*
X101733649Y-88006183D01*
X101737166Y-88020224D01*
X101739290Y-88034542D01*
X101740000Y-88049000D01*
X101740000Y-88354000D01*
X101739290Y-88368458D01*
X101737166Y-88382776D01*
X101733649Y-88396817D01*
X101728772Y-88410446D01*
X101722583Y-88423531D01*
X101715142Y-88435947D01*
X101706519Y-88447573D01*
X101696798Y-88458298D01*
X101686073Y-88468019D01*
X101674447Y-88476642D01*
X101662031Y-88484083D01*
X101648946Y-88490272D01*
X101635317Y-88495149D01*
X101621276Y-88498666D01*
X101606958Y-88500790D01*
X101592500Y-88501500D01*
X101297500Y-88501500D01*
X101283042Y-88500790D01*
X101268724Y-88498666D01*
X101254683Y-88495149D01*
X101241054Y-88490272D01*
X101227969Y-88484083D01*
X101215553Y-88476642D01*
X101203927Y-88468019D01*
X101193202Y-88458298D01*
X101183481Y-88447573D01*
X101174858Y-88435947D01*
X101167417Y-88423531D01*
X101161228Y-88410446D01*
X101156351Y-88396817D01*
X101152834Y-88382776D01*
X101150710Y-88368458D01*
X101150000Y-88354000D01*
X101150000Y-88049000D01*
X101150710Y-88034542D01*
X101152834Y-88020224D01*
X101156351Y-88006183D01*
X101161228Y-87992554D01*
X101167417Y-87979469D01*
X101174858Y-87967053D01*
X101183481Y-87955427D01*
X101193202Y-87944702D01*
X101203927Y-87934981D01*
X101215553Y-87926358D01*
X101227969Y-87918917D01*
X101241054Y-87912728D01*
X101254683Y-87907851D01*
X101268724Y-87904334D01*
X101283042Y-87902210D01*
X101297500Y-87901500D01*
X101592500Y-87901500D01*
X101606958Y-87902210D01*
X101606958Y-87902210D01*
G37*
D21*
G04 #@! TD*
G04 #@! TO.P,C2,2*
G04 #@! TO.N,GND*
X101445000Y-88201500D03*
D13*
G04 #@! TO.N,Net-(C2-Pad1)*
G04 #@! TO.C,C2*
G36*
X102416958Y-87902210D02*
X102431276Y-87904334D01*
X102445317Y-87907851D01*
X102458946Y-87912728D01*
X102472031Y-87918917D01*
X102484447Y-87926358D01*
X102496073Y-87934981D01*
X102506798Y-87944702D01*
X102516519Y-87955427D01*
X102525142Y-87967053D01*
X102532583Y-87979469D01*
X102538772Y-87992554D01*
X102543649Y-88006183D01*
X102547166Y-88020224D01*
X102549290Y-88034542D01*
X102550000Y-88049000D01*
X102550000Y-88354000D01*
X102549290Y-88368458D01*
X102547166Y-88382776D01*
X102543649Y-88396817D01*
X102538772Y-88410446D01*
X102532583Y-88423531D01*
X102525142Y-88435947D01*
X102516519Y-88447573D01*
X102506798Y-88458298D01*
X102496073Y-88468019D01*
X102484447Y-88476642D01*
X102472031Y-88484083D01*
X102458946Y-88490272D01*
X102445317Y-88495149D01*
X102431276Y-88498666D01*
X102416958Y-88500790D01*
X102402500Y-88501500D01*
X102107500Y-88501500D01*
X102093042Y-88500790D01*
X102078724Y-88498666D01*
X102064683Y-88495149D01*
X102051054Y-88490272D01*
X102037969Y-88484083D01*
X102025553Y-88476642D01*
X102013927Y-88468019D01*
X102003202Y-88458298D01*
X101993481Y-88447573D01*
X101984858Y-88435947D01*
X101977417Y-88423531D01*
X101971228Y-88410446D01*
X101966351Y-88396817D01*
X101962834Y-88382776D01*
X101960710Y-88368458D01*
X101960000Y-88354000D01*
X101960000Y-88049000D01*
X101960710Y-88034542D01*
X101962834Y-88020224D01*
X101966351Y-88006183D01*
X101971228Y-87992554D01*
X101977417Y-87979469D01*
X101984858Y-87967053D01*
X101993481Y-87955427D01*
X102003202Y-87944702D01*
X102013927Y-87934981D01*
X102025553Y-87926358D01*
X102037969Y-87918917D01*
X102051054Y-87912728D01*
X102064683Y-87907851D01*
X102078724Y-87904334D01*
X102093042Y-87902210D01*
X102107500Y-87901500D01*
X102402500Y-87901500D01*
X102416958Y-87902210D01*
X102416958Y-87902210D01*
G37*
D21*
G04 #@! TD*
G04 #@! TO.P,C2,1*
G04 #@! TO.N,Net-(C2-Pad1)*
X102255000Y-88201500D03*
D13*
G04 #@! TO.N,VCC*
G04 #@! TO.C,J?1*
G36*
X102711558Y-70802287D02*
X102757668Y-70809127D01*
X102802885Y-70820453D01*
X102846775Y-70836157D01*
X102888913Y-70856087D01*
X102928896Y-70880052D01*
X102966337Y-70907820D01*
X103000876Y-70939124D01*
X103032180Y-70973663D01*
X103059948Y-71011104D01*
X103083913Y-71051087D01*
X103103843Y-71093225D01*
X103119547Y-71137115D01*
X103130873Y-71182332D01*
X103137713Y-71228442D01*
X103140000Y-71275000D01*
X103140000Y-78325000D01*
X103137713Y-78371558D01*
X103130873Y-78417668D01*
X103119547Y-78462885D01*
X103103843Y-78506775D01*
X103083913Y-78548913D01*
X103059948Y-78588896D01*
X103032180Y-78626337D01*
X103000876Y-78660876D01*
X102966337Y-78692180D01*
X102928896Y-78719948D01*
X102888913Y-78743913D01*
X102846775Y-78763843D01*
X102802885Y-78779547D01*
X102757668Y-78790873D01*
X102711558Y-78797713D01*
X102665000Y-78800000D01*
X101715000Y-78800000D01*
X101668442Y-78797713D01*
X101622332Y-78790873D01*
X101577115Y-78779547D01*
X101533225Y-78763843D01*
X101491087Y-78743913D01*
X101451104Y-78719948D01*
X101413663Y-78692180D01*
X101379124Y-78660876D01*
X101347820Y-78626337D01*
X101320052Y-78588896D01*
X101296087Y-78548913D01*
X101276157Y-78506775D01*
X101260453Y-78462885D01*
X101249127Y-78417668D01*
X101242287Y-78371558D01*
X101240000Y-78325000D01*
X101240000Y-71275000D01*
X101242287Y-71228442D01*
X101249127Y-71182332D01*
X101260453Y-71137115D01*
X101276157Y-71093225D01*
X101296087Y-71051087D01*
X101320052Y-71011104D01*
X101347820Y-70973663D01*
X101379124Y-70939124D01*
X101413663Y-70907820D01*
X101451104Y-70880052D01*
X101491087Y-70856087D01*
X101533225Y-70836157D01*
X101577115Y-70820453D01*
X101622332Y-70809127D01*
X101668442Y-70802287D01*
X101715000Y-70800000D01*
X102665000Y-70800000D01*
X102711558Y-70802287D01*
X102711558Y-70802287D01*
G37*
D22*
G04 #@! TD*
G04 #@! TO.P,J?1,1*
G04 #@! TO.N,VCC*
X102190000Y-74800000D03*
D13*
G04 #@! TO.N,GND*
G04 #@! TO.C,J?1*
G36*
X110331558Y-70802287D02*
X110377668Y-70809127D01*
X110422885Y-70820453D01*
X110466775Y-70836157D01*
X110508913Y-70856087D01*
X110548896Y-70880052D01*
X110586337Y-70907820D01*
X110620876Y-70939124D01*
X110652180Y-70973663D01*
X110679948Y-71011104D01*
X110703913Y-71051087D01*
X110723843Y-71093225D01*
X110739547Y-71137115D01*
X110750873Y-71182332D01*
X110757713Y-71228442D01*
X110760000Y-71275000D01*
X110760000Y-78325000D01*
X110757713Y-78371558D01*
X110750873Y-78417668D01*
X110739547Y-78462885D01*
X110723843Y-78506775D01*
X110703913Y-78548913D01*
X110679948Y-78588896D01*
X110652180Y-78626337D01*
X110620876Y-78660876D01*
X110586337Y-78692180D01*
X110548896Y-78719948D01*
X110508913Y-78743913D01*
X110466775Y-78763843D01*
X110422885Y-78779547D01*
X110377668Y-78790873D01*
X110331558Y-78797713D01*
X110285000Y-78800000D01*
X109335000Y-78800000D01*
X109288442Y-78797713D01*
X109242332Y-78790873D01*
X109197115Y-78779547D01*
X109153225Y-78763843D01*
X109111087Y-78743913D01*
X109071104Y-78719948D01*
X109033663Y-78692180D01*
X108999124Y-78660876D01*
X108967820Y-78626337D01*
X108940052Y-78588896D01*
X108916087Y-78548913D01*
X108896157Y-78506775D01*
X108880453Y-78462885D01*
X108869127Y-78417668D01*
X108862287Y-78371558D01*
X108860000Y-78325000D01*
X108860000Y-71275000D01*
X108862287Y-71228442D01*
X108869127Y-71182332D01*
X108880453Y-71137115D01*
X108896157Y-71093225D01*
X108916087Y-71051087D01*
X108940052Y-71011104D01*
X108967820Y-70973663D01*
X108999124Y-70939124D01*
X109033663Y-70907820D01*
X109071104Y-70880052D01*
X109111087Y-70856087D01*
X109153225Y-70836157D01*
X109197115Y-70820453D01*
X109242332Y-70809127D01*
X109288442Y-70802287D01*
X109335000Y-70800000D01*
X110285000Y-70800000D01*
X110331558Y-70802287D01*
X110331558Y-70802287D01*
G37*
D22*
G04 #@! TD*
G04 #@! TO.P,J?1,4*
G04 #@! TO.N,GND*
X109810000Y-74800000D03*
D13*
G04 #@! TO.N,USB_D+*
G04 #@! TO.C,J?1*
G36*
X107849009Y-71302408D02*
X107897545Y-71309607D01*
X107945142Y-71321530D01*
X107991342Y-71338060D01*
X108035698Y-71359039D01*
X108077785Y-71384265D01*
X108117197Y-71413495D01*
X108153553Y-71446447D01*
X108186505Y-71482803D01*
X108215735Y-71522215D01*
X108240961Y-71564302D01*
X108261940Y-71608658D01*
X108278470Y-71654858D01*
X108290393Y-71702455D01*
X108297592Y-71750991D01*
X108300000Y-71800000D01*
X108300000Y-78300000D01*
X108297592Y-78349009D01*
X108290393Y-78397545D01*
X108278470Y-78445142D01*
X108261940Y-78491342D01*
X108240961Y-78535698D01*
X108215735Y-78577785D01*
X108186505Y-78617197D01*
X108153553Y-78653553D01*
X108117197Y-78686505D01*
X108077785Y-78715735D01*
X108035698Y-78740961D01*
X107991342Y-78761940D01*
X107945142Y-78778470D01*
X107897545Y-78790393D01*
X107849009Y-78797592D01*
X107800000Y-78800000D01*
X106800000Y-78800000D01*
X106750991Y-78797592D01*
X106702455Y-78790393D01*
X106654858Y-78778470D01*
X106608658Y-78761940D01*
X106564302Y-78740961D01*
X106522215Y-78715735D01*
X106482803Y-78686505D01*
X106446447Y-78653553D01*
X106413495Y-78617197D01*
X106384265Y-78577785D01*
X106359039Y-78535698D01*
X106338060Y-78491342D01*
X106321530Y-78445142D01*
X106309607Y-78397545D01*
X106302408Y-78349009D01*
X106300000Y-78300000D01*
X106300000Y-71800000D01*
X106302408Y-71750991D01*
X106309607Y-71702455D01*
X106321530Y-71654858D01*
X106338060Y-71608658D01*
X106359039Y-71564302D01*
X106384265Y-71522215D01*
X106413495Y-71482803D01*
X106446447Y-71446447D01*
X106482803Y-71413495D01*
X106522215Y-71384265D01*
X106564302Y-71359039D01*
X106608658Y-71338060D01*
X106654858Y-71321530D01*
X106702455Y-71309607D01*
X106750991Y-71302408D01*
X106800000Y-71300000D01*
X107800000Y-71300000D01*
X107849009Y-71302408D01*
X107849009Y-71302408D01*
G37*
D23*
G04 #@! TD*
G04 #@! TO.P,J?1,3*
G04 #@! TO.N,USB_D+*
X107300000Y-75050000D03*
D13*
G04 #@! TO.N,USB_D-*
G04 #@! TO.C,J?1*
G36*
X105249009Y-71302408D02*
X105297545Y-71309607D01*
X105345142Y-71321530D01*
X105391342Y-71338060D01*
X105435698Y-71359039D01*
X105477785Y-71384265D01*
X105517197Y-71413495D01*
X105553553Y-71446447D01*
X105586505Y-71482803D01*
X105615735Y-71522215D01*
X105640961Y-71564302D01*
X105661940Y-71608658D01*
X105678470Y-71654858D01*
X105690393Y-71702455D01*
X105697592Y-71750991D01*
X105700000Y-71800000D01*
X105700000Y-78300000D01*
X105697592Y-78349009D01*
X105690393Y-78397545D01*
X105678470Y-78445142D01*
X105661940Y-78491342D01*
X105640961Y-78535698D01*
X105615735Y-78577785D01*
X105586505Y-78617197D01*
X105553553Y-78653553D01*
X105517197Y-78686505D01*
X105477785Y-78715735D01*
X105435698Y-78740961D01*
X105391342Y-78761940D01*
X105345142Y-78778470D01*
X105297545Y-78790393D01*
X105249009Y-78797592D01*
X105200000Y-78800000D01*
X104200000Y-78800000D01*
X104150991Y-78797592D01*
X104102455Y-78790393D01*
X104054858Y-78778470D01*
X104008658Y-78761940D01*
X103964302Y-78740961D01*
X103922215Y-78715735D01*
X103882803Y-78686505D01*
X103846447Y-78653553D01*
X103813495Y-78617197D01*
X103784265Y-78577785D01*
X103759039Y-78535698D01*
X103738060Y-78491342D01*
X103721530Y-78445142D01*
X103709607Y-78397545D01*
X103702408Y-78349009D01*
X103700000Y-78300000D01*
X103700000Y-71800000D01*
X103702408Y-71750991D01*
X103709607Y-71702455D01*
X103721530Y-71654858D01*
X103738060Y-71608658D01*
X103759039Y-71564302D01*
X103784265Y-71522215D01*
X103813495Y-71482803D01*
X103846447Y-71446447D01*
X103882803Y-71413495D01*
X103922215Y-71384265D01*
X103964302Y-71359039D01*
X104008658Y-71338060D01*
X104054858Y-71321530D01*
X104102455Y-71309607D01*
X104150991Y-71302408D01*
X104200000Y-71300000D01*
X105200000Y-71300000D01*
X105249009Y-71302408D01*
X105249009Y-71302408D01*
G37*
D23*
G04 #@! TD*
G04 #@! TO.P,J?1,2*
G04 #@! TO.N,USB_D-*
X104700000Y-75050000D03*
D13*
G04 #@! TO.N,Net-(D1-PadA)*
G04 #@! TO.C,R1*
G36*
X110734997Y-87902114D02*
X110747374Y-87903950D01*
X110759511Y-87906990D01*
X110771292Y-87911205D01*
X110782603Y-87916555D01*
X110793335Y-87922988D01*
X110803385Y-87930441D01*
X110812656Y-87938844D01*
X110821059Y-87948115D01*
X110828512Y-87958165D01*
X110834945Y-87968897D01*
X110840295Y-87980208D01*
X110844510Y-87991989D01*
X110847550Y-88004126D01*
X110849386Y-88016503D01*
X110850000Y-88029000D01*
X110850000Y-88374000D01*
X110849386Y-88386497D01*
X110847550Y-88398874D01*
X110844510Y-88411011D01*
X110840295Y-88422792D01*
X110834945Y-88434103D01*
X110828512Y-88444835D01*
X110821059Y-88454885D01*
X110812656Y-88464156D01*
X110803385Y-88472559D01*
X110793335Y-88480012D01*
X110782603Y-88486445D01*
X110771292Y-88491795D01*
X110759511Y-88496010D01*
X110747374Y-88499050D01*
X110734997Y-88500886D01*
X110722500Y-88501500D01*
X110467500Y-88501500D01*
X110455003Y-88500886D01*
X110442626Y-88499050D01*
X110430489Y-88496010D01*
X110418708Y-88491795D01*
X110407397Y-88486445D01*
X110396665Y-88480012D01*
X110386615Y-88472559D01*
X110377344Y-88464156D01*
X110368941Y-88454885D01*
X110361488Y-88444835D01*
X110355055Y-88434103D01*
X110349705Y-88422792D01*
X110345490Y-88411011D01*
X110342450Y-88398874D01*
X110340614Y-88386497D01*
X110340000Y-88374000D01*
X110340000Y-88029000D01*
X110340614Y-88016503D01*
X110342450Y-88004126D01*
X110345490Y-87991989D01*
X110349705Y-87980208D01*
X110355055Y-87968897D01*
X110361488Y-87958165D01*
X110368941Y-87948115D01*
X110377344Y-87938844D01*
X110386615Y-87930441D01*
X110396665Y-87922988D01*
X110407397Y-87916555D01*
X110418708Y-87911205D01*
X110430489Y-87906990D01*
X110442626Y-87903950D01*
X110455003Y-87902114D01*
X110467500Y-87901500D01*
X110722500Y-87901500D01*
X110734997Y-87902114D01*
X110734997Y-87902114D01*
G37*
D18*
G04 #@! TD*
G04 #@! TO.P,R1,1*
G04 #@! TO.N,Net-(D1-PadA)*
X110595000Y-88201500D03*
D13*
G04 #@! TO.N,STATUS_LED*
G04 #@! TO.C,R1*
G36*
X109844997Y-87902114D02*
X109857374Y-87903950D01*
X109869511Y-87906990D01*
X109881292Y-87911205D01*
X109892603Y-87916555D01*
X109903335Y-87922988D01*
X109913385Y-87930441D01*
X109922656Y-87938844D01*
X109931059Y-87948115D01*
X109938512Y-87958165D01*
X109944945Y-87968897D01*
X109950295Y-87980208D01*
X109954510Y-87991989D01*
X109957550Y-88004126D01*
X109959386Y-88016503D01*
X109960000Y-88029000D01*
X109960000Y-88374000D01*
X109959386Y-88386497D01*
X109957550Y-88398874D01*
X109954510Y-88411011D01*
X109950295Y-88422792D01*
X109944945Y-88434103D01*
X109938512Y-88444835D01*
X109931059Y-88454885D01*
X109922656Y-88464156D01*
X109913385Y-88472559D01*
X109903335Y-88480012D01*
X109892603Y-88486445D01*
X109881292Y-88491795D01*
X109869511Y-88496010D01*
X109857374Y-88499050D01*
X109844997Y-88500886D01*
X109832500Y-88501500D01*
X109577500Y-88501500D01*
X109565003Y-88500886D01*
X109552626Y-88499050D01*
X109540489Y-88496010D01*
X109528708Y-88491795D01*
X109517397Y-88486445D01*
X109506665Y-88480012D01*
X109496615Y-88472559D01*
X109487344Y-88464156D01*
X109478941Y-88454885D01*
X109471488Y-88444835D01*
X109465055Y-88434103D01*
X109459705Y-88422792D01*
X109455490Y-88411011D01*
X109452450Y-88398874D01*
X109450614Y-88386497D01*
X109450000Y-88374000D01*
X109450000Y-88029000D01*
X109450614Y-88016503D01*
X109452450Y-88004126D01*
X109455490Y-87991989D01*
X109459705Y-87980208D01*
X109465055Y-87968897D01*
X109471488Y-87958165D01*
X109478941Y-87948115D01*
X109487344Y-87938844D01*
X109496615Y-87930441D01*
X109506665Y-87922988D01*
X109517397Y-87916555D01*
X109528708Y-87911205D01*
X109540489Y-87906990D01*
X109552626Y-87903950D01*
X109565003Y-87902114D01*
X109577500Y-87901500D01*
X109832500Y-87901500D01*
X109844997Y-87902114D01*
X109844997Y-87902114D01*
G37*
D18*
G04 #@! TD*
G04 #@! TO.P,R1,2*
G04 #@! TO.N,STATUS_LED*
X109705000Y-88201500D03*
D13*
G04 #@! TO.N,GND*
G04 #@! TO.C,SW1*
G36*
X106778103Y-96487463D02*
X106797518Y-96490343D01*
X106816557Y-96495112D01*
X106835037Y-96501724D01*
X106852779Y-96510116D01*
X106869614Y-96520206D01*
X106885379Y-96531898D01*
X106899921Y-96545079D01*
X106913102Y-96559621D01*
X106924794Y-96575386D01*
X106934884Y-96592221D01*
X106943276Y-96609963D01*
X106949888Y-96628443D01*
X106954657Y-96647482D01*
X106957537Y-96666897D01*
X106958500Y-96686500D01*
X106958500Y-97086500D01*
X106957537Y-97106103D01*
X106954657Y-97125518D01*
X106949888Y-97144557D01*
X106943276Y-97163037D01*
X106934884Y-97180779D01*
X106924794Y-97197614D01*
X106913102Y-97213379D01*
X106899921Y-97227921D01*
X106885379Y-97241102D01*
X106869614Y-97252794D01*
X106852779Y-97262884D01*
X106835037Y-97271276D01*
X106816557Y-97277888D01*
X106797518Y-97282657D01*
X106778103Y-97285537D01*
X106758500Y-97286500D01*
X105458500Y-97286500D01*
X105438897Y-97285537D01*
X105419482Y-97282657D01*
X105400443Y-97277888D01*
X105381963Y-97271276D01*
X105364221Y-97262884D01*
X105347386Y-97252794D01*
X105331621Y-97241102D01*
X105317079Y-97227921D01*
X105303898Y-97213379D01*
X105292206Y-97197614D01*
X105282116Y-97180779D01*
X105273724Y-97163037D01*
X105267112Y-97144557D01*
X105262343Y-97125518D01*
X105259463Y-97106103D01*
X105258500Y-97086500D01*
X105258500Y-96686500D01*
X105259463Y-96666897D01*
X105262343Y-96647482D01*
X105267112Y-96628443D01*
X105273724Y-96609963D01*
X105282116Y-96592221D01*
X105292206Y-96575386D01*
X105303898Y-96559621D01*
X105317079Y-96545079D01*
X105331621Y-96531898D01*
X105347386Y-96520206D01*
X105364221Y-96510116D01*
X105381963Y-96501724D01*
X105400443Y-96495112D01*
X105419482Y-96490343D01*
X105438897Y-96487463D01*
X105458500Y-96486500D01*
X106758500Y-96486500D01*
X106778103Y-96487463D01*
X106778103Y-96487463D01*
G37*
D24*
G04 #@! TD*
G04 #@! TO.P,SW1,1*
G04 #@! TO.N,GND*
X106108500Y-96886500D03*
D13*
G04 #@! TO.N,USER_BUTTON*
G04 #@! TO.C,SW1*
G36*
X106778103Y-93087463D02*
X106797518Y-93090343D01*
X106816557Y-93095112D01*
X106835037Y-93101724D01*
X106852779Y-93110116D01*
X106869614Y-93120206D01*
X106885379Y-93131898D01*
X106899921Y-93145079D01*
X106913102Y-93159621D01*
X106924794Y-93175386D01*
X106934884Y-93192221D01*
X106943276Y-93209963D01*
X106949888Y-93228443D01*
X106954657Y-93247482D01*
X106957537Y-93266897D01*
X106958500Y-93286500D01*
X106958500Y-93686500D01*
X106957537Y-93706103D01*
X106954657Y-93725518D01*
X106949888Y-93744557D01*
X106943276Y-93763037D01*
X106934884Y-93780779D01*
X106924794Y-93797614D01*
X106913102Y-93813379D01*
X106899921Y-93827921D01*
X106885379Y-93841102D01*
X106869614Y-93852794D01*
X106852779Y-93862884D01*
X106835037Y-93871276D01*
X106816557Y-93877888D01*
X106797518Y-93882657D01*
X106778103Y-93885537D01*
X106758500Y-93886500D01*
X105458500Y-93886500D01*
X105438897Y-93885537D01*
X105419482Y-93882657D01*
X105400443Y-93877888D01*
X105381963Y-93871276D01*
X105364221Y-93862884D01*
X105347386Y-93852794D01*
X105331621Y-93841102D01*
X105317079Y-93827921D01*
X105303898Y-93813379D01*
X105292206Y-93797614D01*
X105282116Y-93780779D01*
X105273724Y-93763037D01*
X105267112Y-93744557D01*
X105262343Y-93725518D01*
X105259463Y-93706103D01*
X105258500Y-93686500D01*
X105258500Y-93286500D01*
X105259463Y-93266897D01*
X105262343Y-93247482D01*
X105267112Y-93228443D01*
X105273724Y-93209963D01*
X105282116Y-93192221D01*
X105292206Y-93175386D01*
X105303898Y-93159621D01*
X105317079Y-93145079D01*
X105331621Y-93131898D01*
X105347386Y-93120206D01*
X105364221Y-93110116D01*
X105381963Y-93101724D01*
X105400443Y-93095112D01*
X105419482Y-93090343D01*
X105438897Y-93087463D01*
X105458500Y-93086500D01*
X106758500Y-93086500D01*
X106778103Y-93087463D01*
X106778103Y-93087463D01*
G37*
D24*
G04 #@! TD*
G04 #@! TO.P,SW1,2*
G04 #@! TO.N,USER_BUTTON*
X106108500Y-93486500D03*
D13*
G04 #@! TO.N,LED_DATA*
G04 #@! TO.C,U1*
G36*
X104321371Y-90395313D02*
X104327681Y-90396249D01*
X104333869Y-90397799D01*
X104339874Y-90399948D01*
X104345641Y-90402675D01*
X104351112Y-90405954D01*
X104356236Y-90409754D01*
X104360962Y-90414038D01*
X104365246Y-90418764D01*
X104369046Y-90423888D01*
X104372325Y-90429359D01*
X104375052Y-90435126D01*
X104377201Y-90441131D01*
X104378751Y-90447319D01*
X104379687Y-90453629D01*
X104380000Y-90460000D01*
X104380000Y-91110000D01*
X104379687Y-91116371D01*
X104378751Y-91122681D01*
X104377201Y-91128869D01*
X104375052Y-91134874D01*
X104372325Y-91140641D01*
X104369046Y-91146112D01*
X104365246Y-91151236D01*
X104360962Y-91155962D01*
X104356236Y-91160246D01*
X104351112Y-91164046D01*
X104345641Y-91167325D01*
X104339874Y-91170052D01*
X104333869Y-91172201D01*
X104327681Y-91173751D01*
X104321371Y-91174687D01*
X104315000Y-91175000D01*
X104185000Y-91175000D01*
X104178629Y-91174687D01*
X104172319Y-91173751D01*
X104166131Y-91172201D01*
X104160126Y-91170052D01*
X104154359Y-91167325D01*
X104148888Y-91164046D01*
X104143764Y-91160246D01*
X104139038Y-91155962D01*
X104134754Y-91151236D01*
X104130954Y-91146112D01*
X104127675Y-91140641D01*
X104124948Y-91134874D01*
X104122799Y-91128869D01*
X104121249Y-91122681D01*
X104120313Y-91116371D01*
X104120000Y-91110000D01*
X104120000Y-90460000D01*
X104120313Y-90453629D01*
X104121249Y-90447319D01*
X104122799Y-90441131D01*
X104124948Y-90435126D01*
X104127675Y-90429359D01*
X104130954Y-90423888D01*
X104134754Y-90418764D01*
X104139038Y-90414038D01*
X104143764Y-90409754D01*
X104148888Y-90405954D01*
X104154359Y-90402675D01*
X104160126Y-90399948D01*
X104166131Y-90397799D01*
X104172319Y-90396249D01*
X104178629Y-90395313D01*
X104185000Y-90395000D01*
X104315000Y-90395000D01*
X104321371Y-90395313D01*
X104321371Y-90395313D01*
G37*
D25*
G04 #@! TD*
G04 #@! TO.P,U1,1*
G04 #@! TO.N,LED_DATA*
X104250000Y-90785000D03*
D13*
G04 #@! TO.N,LED_CLK*
G04 #@! TO.C,U1*
G36*
X104821371Y-90395313D02*
X104827681Y-90396249D01*
X104833869Y-90397799D01*
X104839874Y-90399948D01*
X104845641Y-90402675D01*
X104851112Y-90405954D01*
X104856236Y-90409754D01*
X104860962Y-90414038D01*
X104865246Y-90418764D01*
X104869046Y-90423888D01*
X104872325Y-90429359D01*
X104875052Y-90435126D01*
X104877201Y-90441131D01*
X104878751Y-90447319D01*
X104879687Y-90453629D01*
X104880000Y-90460000D01*
X104880000Y-91110000D01*
X104879687Y-91116371D01*
X104878751Y-91122681D01*
X104877201Y-91128869D01*
X104875052Y-91134874D01*
X104872325Y-91140641D01*
X104869046Y-91146112D01*
X104865246Y-91151236D01*
X104860962Y-91155962D01*
X104856236Y-91160246D01*
X104851112Y-91164046D01*
X104845641Y-91167325D01*
X104839874Y-91170052D01*
X104833869Y-91172201D01*
X104827681Y-91173751D01*
X104821371Y-91174687D01*
X104815000Y-91175000D01*
X104685000Y-91175000D01*
X104678629Y-91174687D01*
X104672319Y-91173751D01*
X104666131Y-91172201D01*
X104660126Y-91170052D01*
X104654359Y-91167325D01*
X104648888Y-91164046D01*
X104643764Y-91160246D01*
X104639038Y-91155962D01*
X104634754Y-91151236D01*
X104630954Y-91146112D01*
X104627675Y-91140641D01*
X104624948Y-91134874D01*
X104622799Y-91128869D01*
X104621249Y-91122681D01*
X104620313Y-91116371D01*
X104620000Y-91110000D01*
X104620000Y-90460000D01*
X104620313Y-90453629D01*
X104621249Y-90447319D01*
X104622799Y-90441131D01*
X104624948Y-90435126D01*
X104627675Y-90429359D01*
X104630954Y-90423888D01*
X104634754Y-90418764D01*
X104639038Y-90414038D01*
X104643764Y-90409754D01*
X104648888Y-90405954D01*
X104654359Y-90402675D01*
X104660126Y-90399948D01*
X104666131Y-90397799D01*
X104672319Y-90396249D01*
X104678629Y-90395313D01*
X104685000Y-90395000D01*
X104815000Y-90395000D01*
X104821371Y-90395313D01*
X104821371Y-90395313D01*
G37*
D25*
G04 #@! TD*
G04 #@! TO.P,U1,2*
G04 #@! TO.N,LED_CLK*
X104750000Y-90785000D03*
D13*
G04 #@! TO.N,TOUCH_A*
G04 #@! TO.C,U1*
G36*
X105321371Y-90395313D02*
X105327681Y-90396249D01*
X105333869Y-90397799D01*
X105339874Y-90399948D01*
X105345641Y-90402675D01*
X105351112Y-90405954D01*
X105356236Y-90409754D01*
X105360962Y-90414038D01*
X105365246Y-90418764D01*
X105369046Y-90423888D01*
X105372325Y-90429359D01*
X105375052Y-90435126D01*
X105377201Y-90441131D01*
X105378751Y-90447319D01*
X105379687Y-90453629D01*
X105380000Y-90460000D01*
X105380000Y-91110000D01*
X105379687Y-91116371D01*
X105378751Y-91122681D01*
X105377201Y-91128869D01*
X105375052Y-91134874D01*
X105372325Y-91140641D01*
X105369046Y-91146112D01*
X105365246Y-91151236D01*
X105360962Y-91155962D01*
X105356236Y-91160246D01*
X105351112Y-91164046D01*
X105345641Y-91167325D01*
X105339874Y-91170052D01*
X105333869Y-91172201D01*
X105327681Y-91173751D01*
X105321371Y-91174687D01*
X105315000Y-91175000D01*
X105185000Y-91175000D01*
X105178629Y-91174687D01*
X105172319Y-91173751D01*
X105166131Y-91172201D01*
X105160126Y-91170052D01*
X105154359Y-91167325D01*
X105148888Y-91164046D01*
X105143764Y-91160246D01*
X105139038Y-91155962D01*
X105134754Y-91151236D01*
X105130954Y-91146112D01*
X105127675Y-91140641D01*
X105124948Y-91134874D01*
X105122799Y-91128869D01*
X105121249Y-91122681D01*
X105120313Y-91116371D01*
X105120000Y-91110000D01*
X105120000Y-90460000D01*
X105120313Y-90453629D01*
X105121249Y-90447319D01*
X105122799Y-90441131D01*
X105124948Y-90435126D01*
X105127675Y-90429359D01*
X105130954Y-90423888D01*
X105134754Y-90418764D01*
X105139038Y-90414038D01*
X105143764Y-90409754D01*
X105148888Y-90405954D01*
X105154359Y-90402675D01*
X105160126Y-90399948D01*
X105166131Y-90397799D01*
X105172319Y-90396249D01*
X105178629Y-90395313D01*
X105185000Y-90395000D01*
X105315000Y-90395000D01*
X105321371Y-90395313D01*
X105321371Y-90395313D01*
G37*
D25*
G04 #@! TD*
G04 #@! TO.P,U1,3*
G04 #@! TO.N,TOUCH_A*
X105250000Y-90785000D03*
D13*
G04 #@! TO.N,Net-(U1-Pad4)*
G04 #@! TO.C,U1*
G36*
X105821371Y-90395313D02*
X105827681Y-90396249D01*
X105833869Y-90397799D01*
X105839874Y-90399948D01*
X105845641Y-90402675D01*
X105851112Y-90405954D01*
X105856236Y-90409754D01*
X105860962Y-90414038D01*
X105865246Y-90418764D01*
X105869046Y-90423888D01*
X105872325Y-90429359D01*
X105875052Y-90435126D01*
X105877201Y-90441131D01*
X105878751Y-90447319D01*
X105879687Y-90453629D01*
X105880000Y-90460000D01*
X105880000Y-91110000D01*
X105879687Y-91116371D01*
X105878751Y-91122681D01*
X105877201Y-91128869D01*
X105875052Y-91134874D01*
X105872325Y-91140641D01*
X105869046Y-91146112D01*
X105865246Y-91151236D01*
X105860962Y-91155962D01*
X105856236Y-91160246D01*
X105851112Y-91164046D01*
X105845641Y-91167325D01*
X105839874Y-91170052D01*
X105833869Y-91172201D01*
X105827681Y-91173751D01*
X105821371Y-91174687D01*
X105815000Y-91175000D01*
X105685000Y-91175000D01*
X105678629Y-91174687D01*
X105672319Y-91173751D01*
X105666131Y-91172201D01*
X105660126Y-91170052D01*
X105654359Y-91167325D01*
X105648888Y-91164046D01*
X105643764Y-91160246D01*
X105639038Y-91155962D01*
X105634754Y-91151236D01*
X105630954Y-91146112D01*
X105627675Y-91140641D01*
X105624948Y-91134874D01*
X105622799Y-91128869D01*
X105621249Y-91122681D01*
X105620313Y-91116371D01*
X105620000Y-91110000D01*
X105620000Y-90460000D01*
X105620313Y-90453629D01*
X105621249Y-90447319D01*
X105622799Y-90441131D01*
X105624948Y-90435126D01*
X105627675Y-90429359D01*
X105630954Y-90423888D01*
X105634754Y-90418764D01*
X105639038Y-90414038D01*
X105643764Y-90409754D01*
X105648888Y-90405954D01*
X105654359Y-90402675D01*
X105660126Y-90399948D01*
X105666131Y-90397799D01*
X105672319Y-90396249D01*
X105678629Y-90395313D01*
X105685000Y-90395000D01*
X105815000Y-90395000D01*
X105821371Y-90395313D01*
X105821371Y-90395313D01*
G37*
D25*
G04 #@! TD*
G04 #@! TO.P,U1,4*
G04 #@! TO.N,Net-(U1-Pad4)*
X105750000Y-90785000D03*
D13*
G04 #@! TO.N,Net-(U1-Pad5)*
G04 #@! TO.C,U1*
G36*
X106321371Y-90395313D02*
X106327681Y-90396249D01*
X106333869Y-90397799D01*
X106339874Y-90399948D01*
X106345641Y-90402675D01*
X106351112Y-90405954D01*
X106356236Y-90409754D01*
X106360962Y-90414038D01*
X106365246Y-90418764D01*
X106369046Y-90423888D01*
X106372325Y-90429359D01*
X106375052Y-90435126D01*
X106377201Y-90441131D01*
X106378751Y-90447319D01*
X106379687Y-90453629D01*
X106380000Y-90460000D01*
X106380000Y-91110000D01*
X106379687Y-91116371D01*
X106378751Y-91122681D01*
X106377201Y-91128869D01*
X106375052Y-91134874D01*
X106372325Y-91140641D01*
X106369046Y-91146112D01*
X106365246Y-91151236D01*
X106360962Y-91155962D01*
X106356236Y-91160246D01*
X106351112Y-91164046D01*
X106345641Y-91167325D01*
X106339874Y-91170052D01*
X106333869Y-91172201D01*
X106327681Y-91173751D01*
X106321371Y-91174687D01*
X106315000Y-91175000D01*
X106185000Y-91175000D01*
X106178629Y-91174687D01*
X106172319Y-91173751D01*
X106166131Y-91172201D01*
X106160126Y-91170052D01*
X106154359Y-91167325D01*
X106148888Y-91164046D01*
X106143764Y-91160246D01*
X106139038Y-91155962D01*
X106134754Y-91151236D01*
X106130954Y-91146112D01*
X106127675Y-91140641D01*
X106124948Y-91134874D01*
X106122799Y-91128869D01*
X106121249Y-91122681D01*
X106120313Y-91116371D01*
X106120000Y-91110000D01*
X106120000Y-90460000D01*
X106120313Y-90453629D01*
X106121249Y-90447319D01*
X106122799Y-90441131D01*
X106124948Y-90435126D01*
X106127675Y-90429359D01*
X106130954Y-90423888D01*
X106134754Y-90418764D01*
X106139038Y-90414038D01*
X106143764Y-90409754D01*
X106148888Y-90405954D01*
X106154359Y-90402675D01*
X106160126Y-90399948D01*
X106166131Y-90397799D01*
X106172319Y-90396249D01*
X106178629Y-90395313D01*
X106185000Y-90395000D01*
X106315000Y-90395000D01*
X106321371Y-90395313D01*
X106321371Y-90395313D01*
G37*
D25*
G04 #@! TD*
G04 #@! TO.P,U1,5*
G04 #@! TO.N,Net-(U1-Pad5)*
X106250000Y-90785000D03*
D13*
G04 #@! TO.N,Net-(U1-Pad6)*
G04 #@! TO.C,U1*
G36*
X106821371Y-90395313D02*
X106827681Y-90396249D01*
X106833869Y-90397799D01*
X106839874Y-90399948D01*
X106845641Y-90402675D01*
X106851112Y-90405954D01*
X106856236Y-90409754D01*
X106860962Y-90414038D01*
X106865246Y-90418764D01*
X106869046Y-90423888D01*
X106872325Y-90429359D01*
X106875052Y-90435126D01*
X106877201Y-90441131D01*
X106878751Y-90447319D01*
X106879687Y-90453629D01*
X106880000Y-90460000D01*
X106880000Y-91110000D01*
X106879687Y-91116371D01*
X106878751Y-91122681D01*
X106877201Y-91128869D01*
X106875052Y-91134874D01*
X106872325Y-91140641D01*
X106869046Y-91146112D01*
X106865246Y-91151236D01*
X106860962Y-91155962D01*
X106856236Y-91160246D01*
X106851112Y-91164046D01*
X106845641Y-91167325D01*
X106839874Y-91170052D01*
X106833869Y-91172201D01*
X106827681Y-91173751D01*
X106821371Y-91174687D01*
X106815000Y-91175000D01*
X106685000Y-91175000D01*
X106678629Y-91174687D01*
X106672319Y-91173751D01*
X106666131Y-91172201D01*
X106660126Y-91170052D01*
X106654359Y-91167325D01*
X106648888Y-91164046D01*
X106643764Y-91160246D01*
X106639038Y-91155962D01*
X106634754Y-91151236D01*
X106630954Y-91146112D01*
X106627675Y-91140641D01*
X106624948Y-91134874D01*
X106622799Y-91128869D01*
X106621249Y-91122681D01*
X106620313Y-91116371D01*
X106620000Y-91110000D01*
X106620000Y-90460000D01*
X106620313Y-90453629D01*
X106621249Y-90447319D01*
X106622799Y-90441131D01*
X106624948Y-90435126D01*
X106627675Y-90429359D01*
X106630954Y-90423888D01*
X106634754Y-90418764D01*
X106639038Y-90414038D01*
X106643764Y-90409754D01*
X106648888Y-90405954D01*
X106654359Y-90402675D01*
X106660126Y-90399948D01*
X106666131Y-90397799D01*
X106672319Y-90396249D01*
X106678629Y-90395313D01*
X106685000Y-90395000D01*
X106815000Y-90395000D01*
X106821371Y-90395313D01*
X106821371Y-90395313D01*
G37*
D25*
G04 #@! TD*
G04 #@! TO.P,U1,6*
G04 #@! TO.N,Net-(U1-Pad6)*
X106750000Y-90785000D03*
D13*
G04 #@! TO.N,USER_BUTTON*
G04 #@! TO.C,U1*
G36*
X107321371Y-90395313D02*
X107327681Y-90396249D01*
X107333869Y-90397799D01*
X107339874Y-90399948D01*
X107345641Y-90402675D01*
X107351112Y-90405954D01*
X107356236Y-90409754D01*
X107360962Y-90414038D01*
X107365246Y-90418764D01*
X107369046Y-90423888D01*
X107372325Y-90429359D01*
X107375052Y-90435126D01*
X107377201Y-90441131D01*
X107378751Y-90447319D01*
X107379687Y-90453629D01*
X107380000Y-90460000D01*
X107380000Y-91110000D01*
X107379687Y-91116371D01*
X107378751Y-91122681D01*
X107377201Y-91128869D01*
X107375052Y-91134874D01*
X107372325Y-91140641D01*
X107369046Y-91146112D01*
X107365246Y-91151236D01*
X107360962Y-91155962D01*
X107356236Y-91160246D01*
X107351112Y-91164046D01*
X107345641Y-91167325D01*
X107339874Y-91170052D01*
X107333869Y-91172201D01*
X107327681Y-91173751D01*
X107321371Y-91174687D01*
X107315000Y-91175000D01*
X107185000Y-91175000D01*
X107178629Y-91174687D01*
X107172319Y-91173751D01*
X107166131Y-91172201D01*
X107160126Y-91170052D01*
X107154359Y-91167325D01*
X107148888Y-91164046D01*
X107143764Y-91160246D01*
X107139038Y-91155962D01*
X107134754Y-91151236D01*
X107130954Y-91146112D01*
X107127675Y-91140641D01*
X107124948Y-91134874D01*
X107122799Y-91128869D01*
X107121249Y-91122681D01*
X107120313Y-91116371D01*
X107120000Y-91110000D01*
X107120000Y-90460000D01*
X107120313Y-90453629D01*
X107121249Y-90447319D01*
X107122799Y-90441131D01*
X107124948Y-90435126D01*
X107127675Y-90429359D01*
X107130954Y-90423888D01*
X107134754Y-90418764D01*
X107139038Y-90414038D01*
X107143764Y-90409754D01*
X107148888Y-90405954D01*
X107154359Y-90402675D01*
X107160126Y-90399948D01*
X107166131Y-90397799D01*
X107172319Y-90396249D01*
X107178629Y-90395313D01*
X107185000Y-90395000D01*
X107315000Y-90395000D01*
X107321371Y-90395313D01*
X107321371Y-90395313D01*
G37*
D25*
G04 #@! TD*
G04 #@! TO.P,U1,7*
G04 #@! TO.N,USER_BUTTON*
X107250000Y-90785000D03*
D13*
G04 #@! TO.N,TOUCH_B*
G04 #@! TO.C,U1*
G36*
X107821371Y-90395313D02*
X107827681Y-90396249D01*
X107833869Y-90397799D01*
X107839874Y-90399948D01*
X107845641Y-90402675D01*
X107851112Y-90405954D01*
X107856236Y-90409754D01*
X107860962Y-90414038D01*
X107865246Y-90418764D01*
X107869046Y-90423888D01*
X107872325Y-90429359D01*
X107875052Y-90435126D01*
X107877201Y-90441131D01*
X107878751Y-90447319D01*
X107879687Y-90453629D01*
X107880000Y-90460000D01*
X107880000Y-91110000D01*
X107879687Y-91116371D01*
X107878751Y-91122681D01*
X107877201Y-91128869D01*
X107875052Y-91134874D01*
X107872325Y-91140641D01*
X107869046Y-91146112D01*
X107865246Y-91151236D01*
X107860962Y-91155962D01*
X107856236Y-91160246D01*
X107851112Y-91164046D01*
X107845641Y-91167325D01*
X107839874Y-91170052D01*
X107833869Y-91172201D01*
X107827681Y-91173751D01*
X107821371Y-91174687D01*
X107815000Y-91175000D01*
X107685000Y-91175000D01*
X107678629Y-91174687D01*
X107672319Y-91173751D01*
X107666131Y-91172201D01*
X107660126Y-91170052D01*
X107654359Y-91167325D01*
X107648888Y-91164046D01*
X107643764Y-91160246D01*
X107639038Y-91155962D01*
X107634754Y-91151236D01*
X107630954Y-91146112D01*
X107627675Y-91140641D01*
X107624948Y-91134874D01*
X107622799Y-91128869D01*
X107621249Y-91122681D01*
X107620313Y-91116371D01*
X107620000Y-91110000D01*
X107620000Y-90460000D01*
X107620313Y-90453629D01*
X107621249Y-90447319D01*
X107622799Y-90441131D01*
X107624948Y-90435126D01*
X107627675Y-90429359D01*
X107630954Y-90423888D01*
X107634754Y-90418764D01*
X107639038Y-90414038D01*
X107643764Y-90409754D01*
X107648888Y-90405954D01*
X107654359Y-90402675D01*
X107660126Y-90399948D01*
X107666131Y-90397799D01*
X107672319Y-90396249D01*
X107678629Y-90395313D01*
X107685000Y-90395000D01*
X107815000Y-90395000D01*
X107821371Y-90395313D01*
X107821371Y-90395313D01*
G37*
D25*
G04 #@! TD*
G04 #@! TO.P,U1,8*
G04 #@! TO.N,TOUCH_B*
X107750000Y-90785000D03*
D13*
G04 #@! TO.N,+3.3V*
G04 #@! TO.C,U1*
G36*
X108716371Y-90020313D02*
X108722681Y-90021249D01*
X108728869Y-90022799D01*
X108734874Y-90024948D01*
X108740641Y-90027675D01*
X108746112Y-90030954D01*
X108751236Y-90034754D01*
X108755962Y-90039038D01*
X108760246Y-90043764D01*
X108764046Y-90048888D01*
X108767325Y-90054359D01*
X108770052Y-90060126D01*
X108772201Y-90066131D01*
X108773751Y-90072319D01*
X108774687Y-90078629D01*
X108775000Y-90085000D01*
X108775000Y-90215000D01*
X108774687Y-90221371D01*
X108773751Y-90227681D01*
X108772201Y-90233869D01*
X108770052Y-90239874D01*
X108767325Y-90245641D01*
X108764046Y-90251112D01*
X108760246Y-90256236D01*
X108755962Y-90260962D01*
X108751236Y-90265246D01*
X108746112Y-90269046D01*
X108740641Y-90272325D01*
X108734874Y-90275052D01*
X108728869Y-90277201D01*
X108722681Y-90278751D01*
X108716371Y-90279687D01*
X108710000Y-90280000D01*
X108060000Y-90280000D01*
X108053629Y-90279687D01*
X108047319Y-90278751D01*
X108041131Y-90277201D01*
X108035126Y-90275052D01*
X108029359Y-90272325D01*
X108023888Y-90269046D01*
X108018764Y-90265246D01*
X108014038Y-90260962D01*
X108009754Y-90256236D01*
X108005954Y-90251112D01*
X108002675Y-90245641D01*
X107999948Y-90239874D01*
X107997799Y-90233869D01*
X107996249Y-90227681D01*
X107995313Y-90221371D01*
X107995000Y-90215000D01*
X107995000Y-90085000D01*
X107995313Y-90078629D01*
X107996249Y-90072319D01*
X107997799Y-90066131D01*
X107999948Y-90060126D01*
X108002675Y-90054359D01*
X108005954Y-90048888D01*
X108009754Y-90043764D01*
X108014038Y-90039038D01*
X108018764Y-90034754D01*
X108023888Y-90030954D01*
X108029359Y-90027675D01*
X108035126Y-90024948D01*
X108041131Y-90022799D01*
X108047319Y-90021249D01*
X108053629Y-90020313D01*
X108060000Y-90020000D01*
X108710000Y-90020000D01*
X108716371Y-90020313D01*
X108716371Y-90020313D01*
G37*
D25*
G04 #@! TD*
G04 #@! TO.P,U1,9*
G04 #@! TO.N,+3.3V*
X108385000Y-90150000D03*
D13*
G04 #@! TO.N,GND*
G04 #@! TO.C,U1*
G36*
X108716371Y-89520313D02*
X108722681Y-89521249D01*
X108728869Y-89522799D01*
X108734874Y-89524948D01*
X108740641Y-89527675D01*
X108746112Y-89530954D01*
X108751236Y-89534754D01*
X108755962Y-89539038D01*
X108760246Y-89543764D01*
X108764046Y-89548888D01*
X108767325Y-89554359D01*
X108770052Y-89560126D01*
X108772201Y-89566131D01*
X108773751Y-89572319D01*
X108774687Y-89578629D01*
X108775000Y-89585000D01*
X108775000Y-89715000D01*
X108774687Y-89721371D01*
X108773751Y-89727681D01*
X108772201Y-89733869D01*
X108770052Y-89739874D01*
X108767325Y-89745641D01*
X108764046Y-89751112D01*
X108760246Y-89756236D01*
X108755962Y-89760962D01*
X108751236Y-89765246D01*
X108746112Y-89769046D01*
X108740641Y-89772325D01*
X108734874Y-89775052D01*
X108728869Y-89777201D01*
X108722681Y-89778751D01*
X108716371Y-89779687D01*
X108710000Y-89780000D01*
X108060000Y-89780000D01*
X108053629Y-89779687D01*
X108047319Y-89778751D01*
X108041131Y-89777201D01*
X108035126Y-89775052D01*
X108029359Y-89772325D01*
X108023888Y-89769046D01*
X108018764Y-89765246D01*
X108014038Y-89760962D01*
X108009754Y-89756236D01*
X108005954Y-89751112D01*
X108002675Y-89745641D01*
X107999948Y-89739874D01*
X107997799Y-89733869D01*
X107996249Y-89727681D01*
X107995313Y-89721371D01*
X107995000Y-89715000D01*
X107995000Y-89585000D01*
X107995313Y-89578629D01*
X107996249Y-89572319D01*
X107997799Y-89566131D01*
X107999948Y-89560126D01*
X108002675Y-89554359D01*
X108005954Y-89548888D01*
X108009754Y-89543764D01*
X108014038Y-89539038D01*
X108018764Y-89534754D01*
X108023888Y-89530954D01*
X108029359Y-89527675D01*
X108035126Y-89524948D01*
X108041131Y-89522799D01*
X108047319Y-89521249D01*
X108053629Y-89520313D01*
X108060000Y-89520000D01*
X108710000Y-89520000D01*
X108716371Y-89520313D01*
X108716371Y-89520313D01*
G37*
D25*
G04 #@! TD*
G04 #@! TO.P,U1,10*
G04 #@! TO.N,GND*
X108385000Y-89650000D03*
D13*
G04 #@! TO.N,PHOTOSENSOR*
G04 #@! TO.C,U1*
G36*
X108716371Y-89020313D02*
X108722681Y-89021249D01*
X108728869Y-89022799D01*
X108734874Y-89024948D01*
X108740641Y-89027675D01*
X108746112Y-89030954D01*
X108751236Y-89034754D01*
X108755962Y-89039038D01*
X108760246Y-89043764D01*
X108764046Y-89048888D01*
X108767325Y-89054359D01*
X108770052Y-89060126D01*
X108772201Y-89066131D01*
X108773751Y-89072319D01*
X108774687Y-89078629D01*
X108775000Y-89085000D01*
X108775000Y-89215000D01*
X108774687Y-89221371D01*
X108773751Y-89227681D01*
X108772201Y-89233869D01*
X108770052Y-89239874D01*
X108767325Y-89245641D01*
X108764046Y-89251112D01*
X108760246Y-89256236D01*
X108755962Y-89260962D01*
X108751236Y-89265246D01*
X108746112Y-89269046D01*
X108740641Y-89272325D01*
X108734874Y-89275052D01*
X108728869Y-89277201D01*
X108722681Y-89278751D01*
X108716371Y-89279687D01*
X108710000Y-89280000D01*
X108060000Y-89280000D01*
X108053629Y-89279687D01*
X108047319Y-89278751D01*
X108041131Y-89277201D01*
X108035126Y-89275052D01*
X108029359Y-89272325D01*
X108023888Y-89269046D01*
X108018764Y-89265246D01*
X108014038Y-89260962D01*
X108009754Y-89256236D01*
X108005954Y-89251112D01*
X108002675Y-89245641D01*
X107999948Y-89239874D01*
X107997799Y-89233869D01*
X107996249Y-89227681D01*
X107995313Y-89221371D01*
X107995000Y-89215000D01*
X107995000Y-89085000D01*
X107995313Y-89078629D01*
X107996249Y-89072319D01*
X107997799Y-89066131D01*
X107999948Y-89060126D01*
X108002675Y-89054359D01*
X108005954Y-89048888D01*
X108009754Y-89043764D01*
X108014038Y-89039038D01*
X108018764Y-89034754D01*
X108023888Y-89030954D01*
X108029359Y-89027675D01*
X108035126Y-89024948D01*
X108041131Y-89022799D01*
X108047319Y-89021249D01*
X108053629Y-89020313D01*
X108060000Y-89020000D01*
X108710000Y-89020000D01*
X108716371Y-89020313D01*
X108716371Y-89020313D01*
G37*
D25*
G04 #@! TD*
G04 #@! TO.P,U1,11*
G04 #@! TO.N,PHOTOSENSOR*
X108385000Y-89150000D03*
D13*
G04 #@! TO.N,Net-(U1-Pad12)*
G04 #@! TO.C,U1*
G36*
X108716371Y-88520313D02*
X108722681Y-88521249D01*
X108728869Y-88522799D01*
X108734874Y-88524948D01*
X108740641Y-88527675D01*
X108746112Y-88530954D01*
X108751236Y-88534754D01*
X108755962Y-88539038D01*
X108760246Y-88543764D01*
X108764046Y-88548888D01*
X108767325Y-88554359D01*
X108770052Y-88560126D01*
X108772201Y-88566131D01*
X108773751Y-88572319D01*
X108774687Y-88578629D01*
X108775000Y-88585000D01*
X108775000Y-88715000D01*
X108774687Y-88721371D01*
X108773751Y-88727681D01*
X108772201Y-88733869D01*
X108770052Y-88739874D01*
X108767325Y-88745641D01*
X108764046Y-88751112D01*
X108760246Y-88756236D01*
X108755962Y-88760962D01*
X108751236Y-88765246D01*
X108746112Y-88769046D01*
X108740641Y-88772325D01*
X108734874Y-88775052D01*
X108728869Y-88777201D01*
X108722681Y-88778751D01*
X108716371Y-88779687D01*
X108710000Y-88780000D01*
X108060000Y-88780000D01*
X108053629Y-88779687D01*
X108047319Y-88778751D01*
X108041131Y-88777201D01*
X108035126Y-88775052D01*
X108029359Y-88772325D01*
X108023888Y-88769046D01*
X108018764Y-88765246D01*
X108014038Y-88760962D01*
X108009754Y-88756236D01*
X108005954Y-88751112D01*
X108002675Y-88745641D01*
X107999948Y-88739874D01*
X107997799Y-88733869D01*
X107996249Y-88727681D01*
X107995313Y-88721371D01*
X107995000Y-88715000D01*
X107995000Y-88585000D01*
X107995313Y-88578629D01*
X107996249Y-88572319D01*
X107997799Y-88566131D01*
X107999948Y-88560126D01*
X108002675Y-88554359D01*
X108005954Y-88548888D01*
X108009754Y-88543764D01*
X108014038Y-88539038D01*
X108018764Y-88534754D01*
X108023888Y-88530954D01*
X108029359Y-88527675D01*
X108035126Y-88524948D01*
X108041131Y-88522799D01*
X108047319Y-88521249D01*
X108053629Y-88520313D01*
X108060000Y-88520000D01*
X108710000Y-88520000D01*
X108716371Y-88520313D01*
X108716371Y-88520313D01*
G37*
D25*
G04 #@! TD*
G04 #@! TO.P,U1,12*
G04 #@! TO.N,Net-(U1-Pad12)*
X108385000Y-88650000D03*
D13*
G04 #@! TO.N,STATUS_LED*
G04 #@! TO.C,U1*
G36*
X108716371Y-88020313D02*
X108722681Y-88021249D01*
X108728869Y-88022799D01*
X108734874Y-88024948D01*
X108740641Y-88027675D01*
X108746112Y-88030954D01*
X108751236Y-88034754D01*
X108755962Y-88039038D01*
X108760246Y-88043764D01*
X108764046Y-88048888D01*
X108767325Y-88054359D01*
X108770052Y-88060126D01*
X108772201Y-88066131D01*
X108773751Y-88072319D01*
X108774687Y-88078629D01*
X108775000Y-88085000D01*
X108775000Y-88215000D01*
X108774687Y-88221371D01*
X108773751Y-88227681D01*
X108772201Y-88233869D01*
X108770052Y-88239874D01*
X108767325Y-88245641D01*
X108764046Y-88251112D01*
X108760246Y-88256236D01*
X108755962Y-88260962D01*
X108751236Y-88265246D01*
X108746112Y-88269046D01*
X108740641Y-88272325D01*
X108734874Y-88275052D01*
X108728869Y-88277201D01*
X108722681Y-88278751D01*
X108716371Y-88279687D01*
X108710000Y-88280000D01*
X108060000Y-88280000D01*
X108053629Y-88279687D01*
X108047319Y-88278751D01*
X108041131Y-88277201D01*
X108035126Y-88275052D01*
X108029359Y-88272325D01*
X108023888Y-88269046D01*
X108018764Y-88265246D01*
X108014038Y-88260962D01*
X108009754Y-88256236D01*
X108005954Y-88251112D01*
X108002675Y-88245641D01*
X107999948Y-88239874D01*
X107997799Y-88233869D01*
X107996249Y-88227681D01*
X107995313Y-88221371D01*
X107995000Y-88215000D01*
X107995000Y-88085000D01*
X107995313Y-88078629D01*
X107996249Y-88072319D01*
X107997799Y-88066131D01*
X107999948Y-88060126D01*
X108002675Y-88054359D01*
X108005954Y-88048888D01*
X108009754Y-88043764D01*
X108014038Y-88039038D01*
X108018764Y-88034754D01*
X108023888Y-88030954D01*
X108029359Y-88027675D01*
X108035126Y-88024948D01*
X108041131Y-88022799D01*
X108047319Y-88021249D01*
X108053629Y-88020313D01*
X108060000Y-88020000D01*
X108710000Y-88020000D01*
X108716371Y-88020313D01*
X108716371Y-88020313D01*
G37*
D25*
G04 #@! TD*
G04 #@! TO.P,U1,13*
G04 #@! TO.N,STATUS_LED*
X108385000Y-88150000D03*
D13*
G04 #@! TO.N,Net-(U1-Pad14)*
G04 #@! TO.C,U1*
G36*
X108716371Y-87520313D02*
X108722681Y-87521249D01*
X108728869Y-87522799D01*
X108734874Y-87524948D01*
X108740641Y-87527675D01*
X108746112Y-87530954D01*
X108751236Y-87534754D01*
X108755962Y-87539038D01*
X108760246Y-87543764D01*
X108764046Y-87548888D01*
X108767325Y-87554359D01*
X108770052Y-87560126D01*
X108772201Y-87566131D01*
X108773751Y-87572319D01*
X108774687Y-87578629D01*
X108775000Y-87585000D01*
X108775000Y-87715000D01*
X108774687Y-87721371D01*
X108773751Y-87727681D01*
X108772201Y-87733869D01*
X108770052Y-87739874D01*
X108767325Y-87745641D01*
X108764046Y-87751112D01*
X108760246Y-87756236D01*
X108755962Y-87760962D01*
X108751236Y-87765246D01*
X108746112Y-87769046D01*
X108740641Y-87772325D01*
X108734874Y-87775052D01*
X108728869Y-87777201D01*
X108722681Y-87778751D01*
X108716371Y-87779687D01*
X108710000Y-87780000D01*
X108060000Y-87780000D01*
X108053629Y-87779687D01*
X108047319Y-87778751D01*
X108041131Y-87777201D01*
X108035126Y-87775052D01*
X108029359Y-87772325D01*
X108023888Y-87769046D01*
X108018764Y-87765246D01*
X108014038Y-87760962D01*
X108009754Y-87756236D01*
X108005954Y-87751112D01*
X108002675Y-87745641D01*
X107999948Y-87739874D01*
X107997799Y-87733869D01*
X107996249Y-87727681D01*
X107995313Y-87721371D01*
X107995000Y-87715000D01*
X107995000Y-87585000D01*
X107995313Y-87578629D01*
X107996249Y-87572319D01*
X107997799Y-87566131D01*
X107999948Y-87560126D01*
X108002675Y-87554359D01*
X108005954Y-87548888D01*
X108009754Y-87543764D01*
X108014038Y-87539038D01*
X108018764Y-87534754D01*
X108023888Y-87530954D01*
X108029359Y-87527675D01*
X108035126Y-87524948D01*
X108041131Y-87522799D01*
X108047319Y-87521249D01*
X108053629Y-87520313D01*
X108060000Y-87520000D01*
X108710000Y-87520000D01*
X108716371Y-87520313D01*
X108716371Y-87520313D01*
G37*
D25*
G04 #@! TD*
G04 #@! TO.P,U1,14*
G04 #@! TO.N,Net-(U1-Pad14)*
X108385000Y-87650000D03*
D13*
G04 #@! TO.N,Net-(U1-Pad15)*
G04 #@! TO.C,U1*
G36*
X108716371Y-87020313D02*
X108722681Y-87021249D01*
X108728869Y-87022799D01*
X108734874Y-87024948D01*
X108740641Y-87027675D01*
X108746112Y-87030954D01*
X108751236Y-87034754D01*
X108755962Y-87039038D01*
X108760246Y-87043764D01*
X108764046Y-87048888D01*
X108767325Y-87054359D01*
X108770052Y-87060126D01*
X108772201Y-87066131D01*
X108773751Y-87072319D01*
X108774687Y-87078629D01*
X108775000Y-87085000D01*
X108775000Y-87215000D01*
X108774687Y-87221371D01*
X108773751Y-87227681D01*
X108772201Y-87233869D01*
X108770052Y-87239874D01*
X108767325Y-87245641D01*
X108764046Y-87251112D01*
X108760246Y-87256236D01*
X108755962Y-87260962D01*
X108751236Y-87265246D01*
X108746112Y-87269046D01*
X108740641Y-87272325D01*
X108734874Y-87275052D01*
X108728869Y-87277201D01*
X108722681Y-87278751D01*
X108716371Y-87279687D01*
X108710000Y-87280000D01*
X108060000Y-87280000D01*
X108053629Y-87279687D01*
X108047319Y-87278751D01*
X108041131Y-87277201D01*
X108035126Y-87275052D01*
X108029359Y-87272325D01*
X108023888Y-87269046D01*
X108018764Y-87265246D01*
X108014038Y-87260962D01*
X108009754Y-87256236D01*
X108005954Y-87251112D01*
X108002675Y-87245641D01*
X107999948Y-87239874D01*
X107997799Y-87233869D01*
X107996249Y-87227681D01*
X107995313Y-87221371D01*
X107995000Y-87215000D01*
X107995000Y-87085000D01*
X107995313Y-87078629D01*
X107996249Y-87072319D01*
X107997799Y-87066131D01*
X107999948Y-87060126D01*
X108002675Y-87054359D01*
X108005954Y-87048888D01*
X108009754Y-87043764D01*
X108014038Y-87039038D01*
X108018764Y-87034754D01*
X108023888Y-87030954D01*
X108029359Y-87027675D01*
X108035126Y-87024948D01*
X108041131Y-87022799D01*
X108047319Y-87021249D01*
X108053629Y-87020313D01*
X108060000Y-87020000D01*
X108710000Y-87020000D01*
X108716371Y-87020313D01*
X108716371Y-87020313D01*
G37*
D25*
G04 #@! TD*
G04 #@! TO.P,U1,15*
G04 #@! TO.N,Net-(U1-Pad15)*
X108385000Y-87150000D03*
D13*
G04 #@! TO.N,Net-(U1-Pad16)*
G04 #@! TO.C,U1*
G36*
X108716371Y-86520313D02*
X108722681Y-86521249D01*
X108728869Y-86522799D01*
X108734874Y-86524948D01*
X108740641Y-86527675D01*
X108746112Y-86530954D01*
X108751236Y-86534754D01*
X108755962Y-86539038D01*
X108760246Y-86543764D01*
X108764046Y-86548888D01*
X108767325Y-86554359D01*
X108770052Y-86560126D01*
X108772201Y-86566131D01*
X108773751Y-86572319D01*
X108774687Y-86578629D01*
X108775000Y-86585000D01*
X108775000Y-86715000D01*
X108774687Y-86721371D01*
X108773751Y-86727681D01*
X108772201Y-86733869D01*
X108770052Y-86739874D01*
X108767325Y-86745641D01*
X108764046Y-86751112D01*
X108760246Y-86756236D01*
X108755962Y-86760962D01*
X108751236Y-86765246D01*
X108746112Y-86769046D01*
X108740641Y-86772325D01*
X108734874Y-86775052D01*
X108728869Y-86777201D01*
X108722681Y-86778751D01*
X108716371Y-86779687D01*
X108710000Y-86780000D01*
X108060000Y-86780000D01*
X108053629Y-86779687D01*
X108047319Y-86778751D01*
X108041131Y-86777201D01*
X108035126Y-86775052D01*
X108029359Y-86772325D01*
X108023888Y-86769046D01*
X108018764Y-86765246D01*
X108014038Y-86760962D01*
X108009754Y-86756236D01*
X108005954Y-86751112D01*
X108002675Y-86745641D01*
X107999948Y-86739874D01*
X107997799Y-86733869D01*
X107996249Y-86727681D01*
X107995313Y-86721371D01*
X107995000Y-86715000D01*
X107995000Y-86585000D01*
X107995313Y-86578629D01*
X107996249Y-86572319D01*
X107997799Y-86566131D01*
X107999948Y-86560126D01*
X108002675Y-86554359D01*
X108005954Y-86548888D01*
X108009754Y-86543764D01*
X108014038Y-86539038D01*
X108018764Y-86534754D01*
X108023888Y-86530954D01*
X108029359Y-86527675D01*
X108035126Y-86524948D01*
X108041131Y-86522799D01*
X108047319Y-86521249D01*
X108053629Y-86520313D01*
X108060000Y-86520000D01*
X108710000Y-86520000D01*
X108716371Y-86520313D01*
X108716371Y-86520313D01*
G37*
D25*
G04 #@! TD*
G04 #@! TO.P,U1,16*
G04 #@! TO.N,Net-(U1-Pad16)*
X108385000Y-86650000D03*
D13*
G04 #@! TO.N,Net-(U1-Pad17)*
G04 #@! TO.C,U1*
G36*
X107821371Y-85625313D02*
X107827681Y-85626249D01*
X107833869Y-85627799D01*
X107839874Y-85629948D01*
X107845641Y-85632675D01*
X107851112Y-85635954D01*
X107856236Y-85639754D01*
X107860962Y-85644038D01*
X107865246Y-85648764D01*
X107869046Y-85653888D01*
X107872325Y-85659359D01*
X107875052Y-85665126D01*
X107877201Y-85671131D01*
X107878751Y-85677319D01*
X107879687Y-85683629D01*
X107880000Y-85690000D01*
X107880000Y-86340000D01*
X107879687Y-86346371D01*
X107878751Y-86352681D01*
X107877201Y-86358869D01*
X107875052Y-86364874D01*
X107872325Y-86370641D01*
X107869046Y-86376112D01*
X107865246Y-86381236D01*
X107860962Y-86385962D01*
X107856236Y-86390246D01*
X107851112Y-86394046D01*
X107845641Y-86397325D01*
X107839874Y-86400052D01*
X107833869Y-86402201D01*
X107827681Y-86403751D01*
X107821371Y-86404687D01*
X107815000Y-86405000D01*
X107685000Y-86405000D01*
X107678629Y-86404687D01*
X107672319Y-86403751D01*
X107666131Y-86402201D01*
X107660126Y-86400052D01*
X107654359Y-86397325D01*
X107648888Y-86394046D01*
X107643764Y-86390246D01*
X107639038Y-86385962D01*
X107634754Y-86381236D01*
X107630954Y-86376112D01*
X107627675Y-86370641D01*
X107624948Y-86364874D01*
X107622799Y-86358869D01*
X107621249Y-86352681D01*
X107620313Y-86346371D01*
X107620000Y-86340000D01*
X107620000Y-85690000D01*
X107620313Y-85683629D01*
X107621249Y-85677319D01*
X107622799Y-85671131D01*
X107624948Y-85665126D01*
X107627675Y-85659359D01*
X107630954Y-85653888D01*
X107634754Y-85648764D01*
X107639038Y-85644038D01*
X107643764Y-85639754D01*
X107648888Y-85635954D01*
X107654359Y-85632675D01*
X107660126Y-85629948D01*
X107666131Y-85627799D01*
X107672319Y-85626249D01*
X107678629Y-85625313D01*
X107685000Y-85625000D01*
X107815000Y-85625000D01*
X107821371Y-85625313D01*
X107821371Y-85625313D01*
G37*
D25*
G04 #@! TD*
G04 #@! TO.P,U1,17*
G04 #@! TO.N,Net-(U1-Pad17)*
X107750000Y-86015000D03*
D13*
G04 #@! TO.N,Net-(U1-Pad18)*
G04 #@! TO.C,U1*
G36*
X107321371Y-85625313D02*
X107327681Y-85626249D01*
X107333869Y-85627799D01*
X107339874Y-85629948D01*
X107345641Y-85632675D01*
X107351112Y-85635954D01*
X107356236Y-85639754D01*
X107360962Y-85644038D01*
X107365246Y-85648764D01*
X107369046Y-85653888D01*
X107372325Y-85659359D01*
X107375052Y-85665126D01*
X107377201Y-85671131D01*
X107378751Y-85677319D01*
X107379687Y-85683629D01*
X107380000Y-85690000D01*
X107380000Y-86340000D01*
X107379687Y-86346371D01*
X107378751Y-86352681D01*
X107377201Y-86358869D01*
X107375052Y-86364874D01*
X107372325Y-86370641D01*
X107369046Y-86376112D01*
X107365246Y-86381236D01*
X107360962Y-86385962D01*
X107356236Y-86390246D01*
X107351112Y-86394046D01*
X107345641Y-86397325D01*
X107339874Y-86400052D01*
X107333869Y-86402201D01*
X107327681Y-86403751D01*
X107321371Y-86404687D01*
X107315000Y-86405000D01*
X107185000Y-86405000D01*
X107178629Y-86404687D01*
X107172319Y-86403751D01*
X107166131Y-86402201D01*
X107160126Y-86400052D01*
X107154359Y-86397325D01*
X107148888Y-86394046D01*
X107143764Y-86390246D01*
X107139038Y-86385962D01*
X107134754Y-86381236D01*
X107130954Y-86376112D01*
X107127675Y-86370641D01*
X107124948Y-86364874D01*
X107122799Y-86358869D01*
X107121249Y-86352681D01*
X107120313Y-86346371D01*
X107120000Y-86340000D01*
X107120000Y-85690000D01*
X107120313Y-85683629D01*
X107121249Y-85677319D01*
X107122799Y-85671131D01*
X107124948Y-85665126D01*
X107127675Y-85659359D01*
X107130954Y-85653888D01*
X107134754Y-85648764D01*
X107139038Y-85644038D01*
X107143764Y-85639754D01*
X107148888Y-85635954D01*
X107154359Y-85632675D01*
X107160126Y-85629948D01*
X107166131Y-85627799D01*
X107172319Y-85626249D01*
X107178629Y-85625313D01*
X107185000Y-85625000D01*
X107315000Y-85625000D01*
X107321371Y-85625313D01*
X107321371Y-85625313D01*
G37*
D25*
G04 #@! TD*
G04 #@! TO.P,U1,18*
G04 #@! TO.N,Net-(U1-Pad18)*
X107250000Y-86015000D03*
D13*
G04 #@! TO.N,Net-(U1-Pad19)*
G04 #@! TO.C,U1*
G36*
X106821371Y-85625313D02*
X106827681Y-85626249D01*
X106833869Y-85627799D01*
X106839874Y-85629948D01*
X106845641Y-85632675D01*
X106851112Y-85635954D01*
X106856236Y-85639754D01*
X106860962Y-85644038D01*
X106865246Y-85648764D01*
X106869046Y-85653888D01*
X106872325Y-85659359D01*
X106875052Y-85665126D01*
X106877201Y-85671131D01*
X106878751Y-85677319D01*
X106879687Y-85683629D01*
X106880000Y-85690000D01*
X106880000Y-86340000D01*
X106879687Y-86346371D01*
X106878751Y-86352681D01*
X106877201Y-86358869D01*
X106875052Y-86364874D01*
X106872325Y-86370641D01*
X106869046Y-86376112D01*
X106865246Y-86381236D01*
X106860962Y-86385962D01*
X106856236Y-86390246D01*
X106851112Y-86394046D01*
X106845641Y-86397325D01*
X106839874Y-86400052D01*
X106833869Y-86402201D01*
X106827681Y-86403751D01*
X106821371Y-86404687D01*
X106815000Y-86405000D01*
X106685000Y-86405000D01*
X106678629Y-86404687D01*
X106672319Y-86403751D01*
X106666131Y-86402201D01*
X106660126Y-86400052D01*
X106654359Y-86397325D01*
X106648888Y-86394046D01*
X106643764Y-86390246D01*
X106639038Y-86385962D01*
X106634754Y-86381236D01*
X106630954Y-86376112D01*
X106627675Y-86370641D01*
X106624948Y-86364874D01*
X106622799Y-86358869D01*
X106621249Y-86352681D01*
X106620313Y-86346371D01*
X106620000Y-86340000D01*
X106620000Y-85690000D01*
X106620313Y-85683629D01*
X106621249Y-85677319D01*
X106622799Y-85671131D01*
X106624948Y-85665126D01*
X106627675Y-85659359D01*
X106630954Y-85653888D01*
X106634754Y-85648764D01*
X106639038Y-85644038D01*
X106643764Y-85639754D01*
X106648888Y-85635954D01*
X106654359Y-85632675D01*
X106660126Y-85629948D01*
X106666131Y-85627799D01*
X106672319Y-85626249D01*
X106678629Y-85625313D01*
X106685000Y-85625000D01*
X106815000Y-85625000D01*
X106821371Y-85625313D01*
X106821371Y-85625313D01*
G37*
D25*
G04 #@! TD*
G04 #@! TO.P,U1,19*
G04 #@! TO.N,Net-(U1-Pad19)*
X106750000Y-86015000D03*
D13*
G04 #@! TO.N,Net-(U1-Pad20)*
G04 #@! TO.C,U1*
G36*
X106321371Y-85625313D02*
X106327681Y-85626249D01*
X106333869Y-85627799D01*
X106339874Y-85629948D01*
X106345641Y-85632675D01*
X106351112Y-85635954D01*
X106356236Y-85639754D01*
X106360962Y-85644038D01*
X106365246Y-85648764D01*
X106369046Y-85653888D01*
X106372325Y-85659359D01*
X106375052Y-85665126D01*
X106377201Y-85671131D01*
X106378751Y-85677319D01*
X106379687Y-85683629D01*
X106380000Y-85690000D01*
X106380000Y-86340000D01*
X106379687Y-86346371D01*
X106378751Y-86352681D01*
X106377201Y-86358869D01*
X106375052Y-86364874D01*
X106372325Y-86370641D01*
X106369046Y-86376112D01*
X106365246Y-86381236D01*
X106360962Y-86385962D01*
X106356236Y-86390246D01*
X106351112Y-86394046D01*
X106345641Y-86397325D01*
X106339874Y-86400052D01*
X106333869Y-86402201D01*
X106327681Y-86403751D01*
X106321371Y-86404687D01*
X106315000Y-86405000D01*
X106185000Y-86405000D01*
X106178629Y-86404687D01*
X106172319Y-86403751D01*
X106166131Y-86402201D01*
X106160126Y-86400052D01*
X106154359Y-86397325D01*
X106148888Y-86394046D01*
X106143764Y-86390246D01*
X106139038Y-86385962D01*
X106134754Y-86381236D01*
X106130954Y-86376112D01*
X106127675Y-86370641D01*
X106124948Y-86364874D01*
X106122799Y-86358869D01*
X106121249Y-86352681D01*
X106120313Y-86346371D01*
X106120000Y-86340000D01*
X106120000Y-85690000D01*
X106120313Y-85683629D01*
X106121249Y-85677319D01*
X106122799Y-85671131D01*
X106124948Y-85665126D01*
X106127675Y-85659359D01*
X106130954Y-85653888D01*
X106134754Y-85648764D01*
X106139038Y-85644038D01*
X106143764Y-85639754D01*
X106148888Y-85635954D01*
X106154359Y-85632675D01*
X106160126Y-85629948D01*
X106166131Y-85627799D01*
X106172319Y-85626249D01*
X106178629Y-85625313D01*
X106185000Y-85625000D01*
X106315000Y-85625000D01*
X106321371Y-85625313D01*
X106321371Y-85625313D01*
G37*
D25*
G04 #@! TD*
G04 #@! TO.P,U1,20*
G04 #@! TO.N,Net-(U1-Pad20)*
X106250000Y-86015000D03*
D13*
G04 #@! TO.N,Net-(U1-Pad21)*
G04 #@! TO.C,U1*
G36*
X105821371Y-85625313D02*
X105827681Y-85626249D01*
X105833869Y-85627799D01*
X105839874Y-85629948D01*
X105845641Y-85632675D01*
X105851112Y-85635954D01*
X105856236Y-85639754D01*
X105860962Y-85644038D01*
X105865246Y-85648764D01*
X105869046Y-85653888D01*
X105872325Y-85659359D01*
X105875052Y-85665126D01*
X105877201Y-85671131D01*
X105878751Y-85677319D01*
X105879687Y-85683629D01*
X105880000Y-85690000D01*
X105880000Y-86340000D01*
X105879687Y-86346371D01*
X105878751Y-86352681D01*
X105877201Y-86358869D01*
X105875052Y-86364874D01*
X105872325Y-86370641D01*
X105869046Y-86376112D01*
X105865246Y-86381236D01*
X105860962Y-86385962D01*
X105856236Y-86390246D01*
X105851112Y-86394046D01*
X105845641Y-86397325D01*
X105839874Y-86400052D01*
X105833869Y-86402201D01*
X105827681Y-86403751D01*
X105821371Y-86404687D01*
X105815000Y-86405000D01*
X105685000Y-86405000D01*
X105678629Y-86404687D01*
X105672319Y-86403751D01*
X105666131Y-86402201D01*
X105660126Y-86400052D01*
X105654359Y-86397325D01*
X105648888Y-86394046D01*
X105643764Y-86390246D01*
X105639038Y-86385962D01*
X105634754Y-86381236D01*
X105630954Y-86376112D01*
X105627675Y-86370641D01*
X105624948Y-86364874D01*
X105622799Y-86358869D01*
X105621249Y-86352681D01*
X105620313Y-86346371D01*
X105620000Y-86340000D01*
X105620000Y-85690000D01*
X105620313Y-85683629D01*
X105621249Y-85677319D01*
X105622799Y-85671131D01*
X105624948Y-85665126D01*
X105627675Y-85659359D01*
X105630954Y-85653888D01*
X105634754Y-85648764D01*
X105639038Y-85644038D01*
X105643764Y-85639754D01*
X105648888Y-85635954D01*
X105654359Y-85632675D01*
X105660126Y-85629948D01*
X105666131Y-85627799D01*
X105672319Y-85626249D01*
X105678629Y-85625313D01*
X105685000Y-85625000D01*
X105815000Y-85625000D01*
X105821371Y-85625313D01*
X105821371Y-85625313D01*
G37*
D25*
G04 #@! TD*
G04 #@! TO.P,U1,21*
G04 #@! TO.N,Net-(U1-Pad21)*
X105750000Y-86015000D03*
D13*
G04 #@! TO.N,Net-(U1-Pad22)*
G04 #@! TO.C,U1*
G36*
X105321371Y-85625313D02*
X105327681Y-85626249D01*
X105333869Y-85627799D01*
X105339874Y-85629948D01*
X105345641Y-85632675D01*
X105351112Y-85635954D01*
X105356236Y-85639754D01*
X105360962Y-85644038D01*
X105365246Y-85648764D01*
X105369046Y-85653888D01*
X105372325Y-85659359D01*
X105375052Y-85665126D01*
X105377201Y-85671131D01*
X105378751Y-85677319D01*
X105379687Y-85683629D01*
X105380000Y-85690000D01*
X105380000Y-86340000D01*
X105379687Y-86346371D01*
X105378751Y-86352681D01*
X105377201Y-86358869D01*
X105375052Y-86364874D01*
X105372325Y-86370641D01*
X105369046Y-86376112D01*
X105365246Y-86381236D01*
X105360962Y-86385962D01*
X105356236Y-86390246D01*
X105351112Y-86394046D01*
X105345641Y-86397325D01*
X105339874Y-86400052D01*
X105333869Y-86402201D01*
X105327681Y-86403751D01*
X105321371Y-86404687D01*
X105315000Y-86405000D01*
X105185000Y-86405000D01*
X105178629Y-86404687D01*
X105172319Y-86403751D01*
X105166131Y-86402201D01*
X105160126Y-86400052D01*
X105154359Y-86397325D01*
X105148888Y-86394046D01*
X105143764Y-86390246D01*
X105139038Y-86385962D01*
X105134754Y-86381236D01*
X105130954Y-86376112D01*
X105127675Y-86370641D01*
X105124948Y-86364874D01*
X105122799Y-86358869D01*
X105121249Y-86352681D01*
X105120313Y-86346371D01*
X105120000Y-86340000D01*
X105120000Y-85690000D01*
X105120313Y-85683629D01*
X105121249Y-85677319D01*
X105122799Y-85671131D01*
X105124948Y-85665126D01*
X105127675Y-85659359D01*
X105130954Y-85653888D01*
X105134754Y-85648764D01*
X105139038Y-85644038D01*
X105143764Y-85639754D01*
X105148888Y-85635954D01*
X105154359Y-85632675D01*
X105160126Y-85629948D01*
X105166131Y-85627799D01*
X105172319Y-85626249D01*
X105178629Y-85625313D01*
X105185000Y-85625000D01*
X105315000Y-85625000D01*
X105321371Y-85625313D01*
X105321371Y-85625313D01*
G37*
D25*
G04 #@! TD*
G04 #@! TO.P,U1,22*
G04 #@! TO.N,Net-(U1-Pad22)*
X105250000Y-86015000D03*
D13*
G04 #@! TO.N,USB_D-*
G04 #@! TO.C,U1*
G36*
X104821371Y-85625313D02*
X104827681Y-85626249D01*
X104833869Y-85627799D01*
X104839874Y-85629948D01*
X104845641Y-85632675D01*
X104851112Y-85635954D01*
X104856236Y-85639754D01*
X104860962Y-85644038D01*
X104865246Y-85648764D01*
X104869046Y-85653888D01*
X104872325Y-85659359D01*
X104875052Y-85665126D01*
X104877201Y-85671131D01*
X104878751Y-85677319D01*
X104879687Y-85683629D01*
X104880000Y-85690000D01*
X104880000Y-86340000D01*
X104879687Y-86346371D01*
X104878751Y-86352681D01*
X104877201Y-86358869D01*
X104875052Y-86364874D01*
X104872325Y-86370641D01*
X104869046Y-86376112D01*
X104865246Y-86381236D01*
X104860962Y-86385962D01*
X104856236Y-86390246D01*
X104851112Y-86394046D01*
X104845641Y-86397325D01*
X104839874Y-86400052D01*
X104833869Y-86402201D01*
X104827681Y-86403751D01*
X104821371Y-86404687D01*
X104815000Y-86405000D01*
X104685000Y-86405000D01*
X104678629Y-86404687D01*
X104672319Y-86403751D01*
X104666131Y-86402201D01*
X104660126Y-86400052D01*
X104654359Y-86397325D01*
X104648888Y-86394046D01*
X104643764Y-86390246D01*
X104639038Y-86385962D01*
X104634754Y-86381236D01*
X104630954Y-86376112D01*
X104627675Y-86370641D01*
X104624948Y-86364874D01*
X104622799Y-86358869D01*
X104621249Y-86352681D01*
X104620313Y-86346371D01*
X104620000Y-86340000D01*
X104620000Y-85690000D01*
X104620313Y-85683629D01*
X104621249Y-85677319D01*
X104622799Y-85671131D01*
X104624948Y-85665126D01*
X104627675Y-85659359D01*
X104630954Y-85653888D01*
X104634754Y-85648764D01*
X104639038Y-85644038D01*
X104643764Y-85639754D01*
X104648888Y-85635954D01*
X104654359Y-85632675D01*
X104660126Y-85629948D01*
X104666131Y-85627799D01*
X104672319Y-85626249D01*
X104678629Y-85625313D01*
X104685000Y-85625000D01*
X104815000Y-85625000D01*
X104821371Y-85625313D01*
X104821371Y-85625313D01*
G37*
D25*
G04 #@! TD*
G04 #@! TO.P,U1,23*
G04 #@! TO.N,USB_D-*
X104750000Y-86015000D03*
D13*
G04 #@! TO.N,USB_D+*
G04 #@! TO.C,U1*
G36*
X104321371Y-85625313D02*
X104327681Y-85626249D01*
X104333869Y-85627799D01*
X104339874Y-85629948D01*
X104345641Y-85632675D01*
X104351112Y-85635954D01*
X104356236Y-85639754D01*
X104360962Y-85644038D01*
X104365246Y-85648764D01*
X104369046Y-85653888D01*
X104372325Y-85659359D01*
X104375052Y-85665126D01*
X104377201Y-85671131D01*
X104378751Y-85677319D01*
X104379687Y-85683629D01*
X104380000Y-85690000D01*
X104380000Y-86340000D01*
X104379687Y-86346371D01*
X104378751Y-86352681D01*
X104377201Y-86358869D01*
X104375052Y-86364874D01*
X104372325Y-86370641D01*
X104369046Y-86376112D01*
X104365246Y-86381236D01*
X104360962Y-86385962D01*
X104356236Y-86390246D01*
X104351112Y-86394046D01*
X104345641Y-86397325D01*
X104339874Y-86400052D01*
X104333869Y-86402201D01*
X104327681Y-86403751D01*
X104321371Y-86404687D01*
X104315000Y-86405000D01*
X104185000Y-86405000D01*
X104178629Y-86404687D01*
X104172319Y-86403751D01*
X104166131Y-86402201D01*
X104160126Y-86400052D01*
X104154359Y-86397325D01*
X104148888Y-86394046D01*
X104143764Y-86390246D01*
X104139038Y-86385962D01*
X104134754Y-86381236D01*
X104130954Y-86376112D01*
X104127675Y-86370641D01*
X104124948Y-86364874D01*
X104122799Y-86358869D01*
X104121249Y-86352681D01*
X104120313Y-86346371D01*
X104120000Y-86340000D01*
X104120000Y-85690000D01*
X104120313Y-85683629D01*
X104121249Y-85677319D01*
X104122799Y-85671131D01*
X104124948Y-85665126D01*
X104127675Y-85659359D01*
X104130954Y-85653888D01*
X104134754Y-85648764D01*
X104139038Y-85644038D01*
X104143764Y-85639754D01*
X104148888Y-85635954D01*
X104154359Y-85632675D01*
X104160126Y-85629948D01*
X104166131Y-85627799D01*
X104172319Y-85626249D01*
X104178629Y-85625313D01*
X104185000Y-85625000D01*
X104315000Y-85625000D01*
X104321371Y-85625313D01*
X104321371Y-85625313D01*
G37*
D25*
G04 #@! TD*
G04 #@! TO.P,U1,24*
G04 #@! TO.N,USB_D+*
X104250000Y-86015000D03*
D13*
G04 #@! TO.N,Net-(U1-Pad25)*
G04 #@! TO.C,U1*
G36*
X103946371Y-86520313D02*
X103952681Y-86521249D01*
X103958869Y-86522799D01*
X103964874Y-86524948D01*
X103970641Y-86527675D01*
X103976112Y-86530954D01*
X103981236Y-86534754D01*
X103985962Y-86539038D01*
X103990246Y-86543764D01*
X103994046Y-86548888D01*
X103997325Y-86554359D01*
X104000052Y-86560126D01*
X104002201Y-86566131D01*
X104003751Y-86572319D01*
X104004687Y-86578629D01*
X104005000Y-86585000D01*
X104005000Y-86715000D01*
X104004687Y-86721371D01*
X104003751Y-86727681D01*
X104002201Y-86733869D01*
X104000052Y-86739874D01*
X103997325Y-86745641D01*
X103994046Y-86751112D01*
X103990246Y-86756236D01*
X103985962Y-86760962D01*
X103981236Y-86765246D01*
X103976112Y-86769046D01*
X103970641Y-86772325D01*
X103964874Y-86775052D01*
X103958869Y-86777201D01*
X103952681Y-86778751D01*
X103946371Y-86779687D01*
X103940000Y-86780000D01*
X103290000Y-86780000D01*
X103283629Y-86779687D01*
X103277319Y-86778751D01*
X103271131Y-86777201D01*
X103265126Y-86775052D01*
X103259359Y-86772325D01*
X103253888Y-86769046D01*
X103248764Y-86765246D01*
X103244038Y-86760962D01*
X103239754Y-86756236D01*
X103235954Y-86751112D01*
X103232675Y-86745641D01*
X103229948Y-86739874D01*
X103227799Y-86733869D01*
X103226249Y-86727681D01*
X103225313Y-86721371D01*
X103225000Y-86715000D01*
X103225000Y-86585000D01*
X103225313Y-86578629D01*
X103226249Y-86572319D01*
X103227799Y-86566131D01*
X103229948Y-86560126D01*
X103232675Y-86554359D01*
X103235954Y-86548888D01*
X103239754Y-86543764D01*
X103244038Y-86539038D01*
X103248764Y-86534754D01*
X103253888Y-86530954D01*
X103259359Y-86527675D01*
X103265126Y-86524948D01*
X103271131Y-86522799D01*
X103277319Y-86521249D01*
X103283629Y-86520313D01*
X103290000Y-86520000D01*
X103940000Y-86520000D01*
X103946371Y-86520313D01*
X103946371Y-86520313D01*
G37*
D25*
G04 #@! TD*
G04 #@! TO.P,U1,25*
G04 #@! TO.N,Net-(U1-Pad25)*
X103615000Y-86650000D03*
D13*
G04 #@! TO.N,RESET*
G04 #@! TO.C,U1*
G36*
X103946371Y-87020313D02*
X103952681Y-87021249D01*
X103958869Y-87022799D01*
X103964874Y-87024948D01*
X103970641Y-87027675D01*
X103976112Y-87030954D01*
X103981236Y-87034754D01*
X103985962Y-87039038D01*
X103990246Y-87043764D01*
X103994046Y-87048888D01*
X103997325Y-87054359D01*
X104000052Y-87060126D01*
X104002201Y-87066131D01*
X104003751Y-87072319D01*
X104004687Y-87078629D01*
X104005000Y-87085000D01*
X104005000Y-87215000D01*
X104004687Y-87221371D01*
X104003751Y-87227681D01*
X104002201Y-87233869D01*
X104000052Y-87239874D01*
X103997325Y-87245641D01*
X103994046Y-87251112D01*
X103990246Y-87256236D01*
X103985962Y-87260962D01*
X103981236Y-87265246D01*
X103976112Y-87269046D01*
X103970641Y-87272325D01*
X103964874Y-87275052D01*
X103958869Y-87277201D01*
X103952681Y-87278751D01*
X103946371Y-87279687D01*
X103940000Y-87280000D01*
X103290000Y-87280000D01*
X103283629Y-87279687D01*
X103277319Y-87278751D01*
X103271131Y-87277201D01*
X103265126Y-87275052D01*
X103259359Y-87272325D01*
X103253888Y-87269046D01*
X103248764Y-87265246D01*
X103244038Y-87260962D01*
X103239754Y-87256236D01*
X103235954Y-87251112D01*
X103232675Y-87245641D01*
X103229948Y-87239874D01*
X103227799Y-87233869D01*
X103226249Y-87227681D01*
X103225313Y-87221371D01*
X103225000Y-87215000D01*
X103225000Y-87085000D01*
X103225313Y-87078629D01*
X103226249Y-87072319D01*
X103227799Y-87066131D01*
X103229948Y-87060126D01*
X103232675Y-87054359D01*
X103235954Y-87048888D01*
X103239754Y-87043764D01*
X103244038Y-87039038D01*
X103248764Y-87034754D01*
X103253888Y-87030954D01*
X103259359Y-87027675D01*
X103265126Y-87024948D01*
X103271131Y-87022799D01*
X103277319Y-87021249D01*
X103283629Y-87020313D01*
X103290000Y-87020000D01*
X103940000Y-87020000D01*
X103946371Y-87020313D01*
X103946371Y-87020313D01*
G37*
D25*
G04 #@! TD*
G04 #@! TO.P,U1,26*
G04 #@! TO.N,RESET*
X103615000Y-87150000D03*
D13*
G04 #@! TO.N,Net-(U1-Pad27)*
G04 #@! TO.C,U1*
G36*
X103946371Y-87520313D02*
X103952681Y-87521249D01*
X103958869Y-87522799D01*
X103964874Y-87524948D01*
X103970641Y-87527675D01*
X103976112Y-87530954D01*
X103981236Y-87534754D01*
X103985962Y-87539038D01*
X103990246Y-87543764D01*
X103994046Y-87548888D01*
X103997325Y-87554359D01*
X104000052Y-87560126D01*
X104002201Y-87566131D01*
X104003751Y-87572319D01*
X104004687Y-87578629D01*
X104005000Y-87585000D01*
X104005000Y-87715000D01*
X104004687Y-87721371D01*
X104003751Y-87727681D01*
X104002201Y-87733869D01*
X104000052Y-87739874D01*
X103997325Y-87745641D01*
X103994046Y-87751112D01*
X103990246Y-87756236D01*
X103985962Y-87760962D01*
X103981236Y-87765246D01*
X103976112Y-87769046D01*
X103970641Y-87772325D01*
X103964874Y-87775052D01*
X103958869Y-87777201D01*
X103952681Y-87778751D01*
X103946371Y-87779687D01*
X103940000Y-87780000D01*
X103290000Y-87780000D01*
X103283629Y-87779687D01*
X103277319Y-87778751D01*
X103271131Y-87777201D01*
X103265126Y-87775052D01*
X103259359Y-87772325D01*
X103253888Y-87769046D01*
X103248764Y-87765246D01*
X103244038Y-87760962D01*
X103239754Y-87756236D01*
X103235954Y-87751112D01*
X103232675Y-87745641D01*
X103229948Y-87739874D01*
X103227799Y-87733869D01*
X103226249Y-87727681D01*
X103225313Y-87721371D01*
X103225000Y-87715000D01*
X103225000Y-87585000D01*
X103225313Y-87578629D01*
X103226249Y-87572319D01*
X103227799Y-87566131D01*
X103229948Y-87560126D01*
X103232675Y-87554359D01*
X103235954Y-87548888D01*
X103239754Y-87543764D01*
X103244038Y-87539038D01*
X103248764Y-87534754D01*
X103253888Y-87530954D01*
X103259359Y-87527675D01*
X103265126Y-87524948D01*
X103271131Y-87522799D01*
X103277319Y-87521249D01*
X103283629Y-87520313D01*
X103290000Y-87520000D01*
X103940000Y-87520000D01*
X103946371Y-87520313D01*
X103946371Y-87520313D01*
G37*
D25*
G04 #@! TD*
G04 #@! TO.P,U1,27*
G04 #@! TO.N,Net-(U1-Pad27)*
X103615000Y-87650000D03*
D13*
G04 #@! TO.N,GND*
G04 #@! TO.C,U1*
G36*
X103946371Y-88020313D02*
X103952681Y-88021249D01*
X103958869Y-88022799D01*
X103964874Y-88024948D01*
X103970641Y-88027675D01*
X103976112Y-88030954D01*
X103981236Y-88034754D01*
X103985962Y-88039038D01*
X103990246Y-88043764D01*
X103994046Y-88048888D01*
X103997325Y-88054359D01*
X104000052Y-88060126D01*
X104002201Y-88066131D01*
X104003751Y-88072319D01*
X104004687Y-88078629D01*
X104005000Y-88085000D01*
X104005000Y-88215000D01*
X104004687Y-88221371D01*
X104003751Y-88227681D01*
X104002201Y-88233869D01*
X104000052Y-88239874D01*
X103997325Y-88245641D01*
X103994046Y-88251112D01*
X103990246Y-88256236D01*
X103985962Y-88260962D01*
X103981236Y-88265246D01*
X103976112Y-88269046D01*
X103970641Y-88272325D01*
X103964874Y-88275052D01*
X103958869Y-88277201D01*
X103952681Y-88278751D01*
X103946371Y-88279687D01*
X103940000Y-88280000D01*
X103290000Y-88280000D01*
X103283629Y-88279687D01*
X103277319Y-88278751D01*
X103271131Y-88277201D01*
X103265126Y-88275052D01*
X103259359Y-88272325D01*
X103253888Y-88269046D01*
X103248764Y-88265246D01*
X103244038Y-88260962D01*
X103239754Y-88256236D01*
X103235954Y-88251112D01*
X103232675Y-88245641D01*
X103229948Y-88239874D01*
X103227799Y-88233869D01*
X103226249Y-88227681D01*
X103225313Y-88221371D01*
X103225000Y-88215000D01*
X103225000Y-88085000D01*
X103225313Y-88078629D01*
X103226249Y-88072319D01*
X103227799Y-88066131D01*
X103229948Y-88060126D01*
X103232675Y-88054359D01*
X103235954Y-88048888D01*
X103239754Y-88043764D01*
X103244038Y-88039038D01*
X103248764Y-88034754D01*
X103253888Y-88030954D01*
X103259359Y-88027675D01*
X103265126Y-88024948D01*
X103271131Y-88022799D01*
X103277319Y-88021249D01*
X103283629Y-88020313D01*
X103290000Y-88020000D01*
X103940000Y-88020000D01*
X103946371Y-88020313D01*
X103946371Y-88020313D01*
G37*
D25*
G04 #@! TD*
G04 #@! TO.P,U1,28*
G04 #@! TO.N,GND*
X103615000Y-88150000D03*
D13*
G04 #@! TO.N,Net-(C2-Pad1)*
G04 #@! TO.C,U1*
G36*
X103946371Y-88520313D02*
X103952681Y-88521249D01*
X103958869Y-88522799D01*
X103964874Y-88524948D01*
X103970641Y-88527675D01*
X103976112Y-88530954D01*
X103981236Y-88534754D01*
X103985962Y-88539038D01*
X103990246Y-88543764D01*
X103994046Y-88548888D01*
X103997325Y-88554359D01*
X104000052Y-88560126D01*
X104002201Y-88566131D01*
X104003751Y-88572319D01*
X104004687Y-88578629D01*
X104005000Y-88585000D01*
X104005000Y-88715000D01*
X104004687Y-88721371D01*
X104003751Y-88727681D01*
X104002201Y-88733869D01*
X104000052Y-88739874D01*
X103997325Y-88745641D01*
X103994046Y-88751112D01*
X103990246Y-88756236D01*
X103985962Y-88760962D01*
X103981236Y-88765246D01*
X103976112Y-88769046D01*
X103970641Y-88772325D01*
X103964874Y-88775052D01*
X103958869Y-88777201D01*
X103952681Y-88778751D01*
X103946371Y-88779687D01*
X103940000Y-88780000D01*
X103290000Y-88780000D01*
X103283629Y-88779687D01*
X103277319Y-88778751D01*
X103271131Y-88777201D01*
X103265126Y-88775052D01*
X103259359Y-88772325D01*
X103253888Y-88769046D01*
X103248764Y-88765246D01*
X103244038Y-88760962D01*
X103239754Y-88756236D01*
X103235954Y-88751112D01*
X103232675Y-88745641D01*
X103229948Y-88739874D01*
X103227799Y-88733869D01*
X103226249Y-88727681D01*
X103225313Y-88721371D01*
X103225000Y-88715000D01*
X103225000Y-88585000D01*
X103225313Y-88578629D01*
X103226249Y-88572319D01*
X103227799Y-88566131D01*
X103229948Y-88560126D01*
X103232675Y-88554359D01*
X103235954Y-88548888D01*
X103239754Y-88543764D01*
X103244038Y-88539038D01*
X103248764Y-88534754D01*
X103253888Y-88530954D01*
X103259359Y-88527675D01*
X103265126Y-88524948D01*
X103271131Y-88522799D01*
X103277319Y-88521249D01*
X103283629Y-88520313D01*
X103290000Y-88520000D01*
X103940000Y-88520000D01*
X103946371Y-88520313D01*
X103946371Y-88520313D01*
G37*
D25*
G04 #@! TD*
G04 #@! TO.P,U1,29*
G04 #@! TO.N,Net-(C2-Pad1)*
X103615000Y-88650000D03*
D13*
G04 #@! TO.N,+3.3V*
G04 #@! TO.C,U1*
G36*
X103946371Y-89020313D02*
X103952681Y-89021249D01*
X103958869Y-89022799D01*
X103964874Y-89024948D01*
X103970641Y-89027675D01*
X103976112Y-89030954D01*
X103981236Y-89034754D01*
X103985962Y-89039038D01*
X103990246Y-89043764D01*
X103994046Y-89048888D01*
X103997325Y-89054359D01*
X104000052Y-89060126D01*
X104002201Y-89066131D01*
X104003751Y-89072319D01*
X104004687Y-89078629D01*
X104005000Y-89085000D01*
X104005000Y-89215000D01*
X104004687Y-89221371D01*
X104003751Y-89227681D01*
X104002201Y-89233869D01*
X104000052Y-89239874D01*
X103997325Y-89245641D01*
X103994046Y-89251112D01*
X103990246Y-89256236D01*
X103985962Y-89260962D01*
X103981236Y-89265246D01*
X103976112Y-89269046D01*
X103970641Y-89272325D01*
X103964874Y-89275052D01*
X103958869Y-89277201D01*
X103952681Y-89278751D01*
X103946371Y-89279687D01*
X103940000Y-89280000D01*
X103290000Y-89280000D01*
X103283629Y-89279687D01*
X103277319Y-89278751D01*
X103271131Y-89277201D01*
X103265126Y-89275052D01*
X103259359Y-89272325D01*
X103253888Y-89269046D01*
X103248764Y-89265246D01*
X103244038Y-89260962D01*
X103239754Y-89256236D01*
X103235954Y-89251112D01*
X103232675Y-89245641D01*
X103229948Y-89239874D01*
X103227799Y-89233869D01*
X103226249Y-89227681D01*
X103225313Y-89221371D01*
X103225000Y-89215000D01*
X103225000Y-89085000D01*
X103225313Y-89078629D01*
X103226249Y-89072319D01*
X103227799Y-89066131D01*
X103229948Y-89060126D01*
X103232675Y-89054359D01*
X103235954Y-89048888D01*
X103239754Y-89043764D01*
X103244038Y-89039038D01*
X103248764Y-89034754D01*
X103253888Y-89030954D01*
X103259359Y-89027675D01*
X103265126Y-89024948D01*
X103271131Y-89022799D01*
X103277319Y-89021249D01*
X103283629Y-89020313D01*
X103290000Y-89020000D01*
X103940000Y-89020000D01*
X103946371Y-89020313D01*
X103946371Y-89020313D01*
G37*
D25*
G04 #@! TD*
G04 #@! TO.P,U1,30*
G04 #@! TO.N,+3.3V*
X103615000Y-89150000D03*
D13*
G04 #@! TO.N,SWD_CLK*
G04 #@! TO.C,U1*
G36*
X103946371Y-89520313D02*
X103952681Y-89521249D01*
X103958869Y-89522799D01*
X103964874Y-89524948D01*
X103970641Y-89527675D01*
X103976112Y-89530954D01*
X103981236Y-89534754D01*
X103985962Y-89539038D01*
X103990246Y-89543764D01*
X103994046Y-89548888D01*
X103997325Y-89554359D01*
X104000052Y-89560126D01*
X104002201Y-89566131D01*
X104003751Y-89572319D01*
X104004687Y-89578629D01*
X104005000Y-89585000D01*
X104005000Y-89715000D01*
X104004687Y-89721371D01*
X104003751Y-89727681D01*
X104002201Y-89733869D01*
X104000052Y-89739874D01*
X103997325Y-89745641D01*
X103994046Y-89751112D01*
X103990246Y-89756236D01*
X103985962Y-89760962D01*
X103981236Y-89765246D01*
X103976112Y-89769046D01*
X103970641Y-89772325D01*
X103964874Y-89775052D01*
X103958869Y-89777201D01*
X103952681Y-89778751D01*
X103946371Y-89779687D01*
X103940000Y-89780000D01*
X103290000Y-89780000D01*
X103283629Y-89779687D01*
X103277319Y-89778751D01*
X103271131Y-89777201D01*
X103265126Y-89775052D01*
X103259359Y-89772325D01*
X103253888Y-89769046D01*
X103248764Y-89765246D01*
X103244038Y-89760962D01*
X103239754Y-89756236D01*
X103235954Y-89751112D01*
X103232675Y-89745641D01*
X103229948Y-89739874D01*
X103227799Y-89733869D01*
X103226249Y-89727681D01*
X103225313Y-89721371D01*
X103225000Y-89715000D01*
X103225000Y-89585000D01*
X103225313Y-89578629D01*
X103226249Y-89572319D01*
X103227799Y-89566131D01*
X103229948Y-89560126D01*
X103232675Y-89554359D01*
X103235954Y-89548888D01*
X103239754Y-89543764D01*
X103244038Y-89539038D01*
X103248764Y-89534754D01*
X103253888Y-89530954D01*
X103259359Y-89527675D01*
X103265126Y-89524948D01*
X103271131Y-89522799D01*
X103277319Y-89521249D01*
X103283629Y-89520313D01*
X103290000Y-89520000D01*
X103940000Y-89520000D01*
X103946371Y-89520313D01*
X103946371Y-89520313D01*
G37*
D25*
G04 #@! TD*
G04 #@! TO.P,U1,31*
G04 #@! TO.N,SWD_CLK*
X103615000Y-89650000D03*
D13*
G04 #@! TO.N,SWD_IO*
G04 #@! TO.C,U1*
G36*
X103946371Y-90020313D02*
X103952681Y-90021249D01*
X103958869Y-90022799D01*
X103964874Y-90024948D01*
X103970641Y-90027675D01*
X103976112Y-90030954D01*
X103981236Y-90034754D01*
X103985962Y-90039038D01*
X103990246Y-90043764D01*
X103994046Y-90048888D01*
X103997325Y-90054359D01*
X104000052Y-90060126D01*
X104002201Y-90066131D01*
X104003751Y-90072319D01*
X104004687Y-90078629D01*
X104005000Y-90085000D01*
X104005000Y-90215000D01*
X104004687Y-90221371D01*
X104003751Y-90227681D01*
X104002201Y-90233869D01*
X104000052Y-90239874D01*
X103997325Y-90245641D01*
X103994046Y-90251112D01*
X103990246Y-90256236D01*
X103985962Y-90260962D01*
X103981236Y-90265246D01*
X103976112Y-90269046D01*
X103970641Y-90272325D01*
X103964874Y-90275052D01*
X103958869Y-90277201D01*
X103952681Y-90278751D01*
X103946371Y-90279687D01*
X103940000Y-90280000D01*
X103290000Y-90280000D01*
X103283629Y-90279687D01*
X103277319Y-90278751D01*
X103271131Y-90277201D01*
X103265126Y-90275052D01*
X103259359Y-90272325D01*
X103253888Y-90269046D01*
X103248764Y-90265246D01*
X103244038Y-90260962D01*
X103239754Y-90256236D01*
X103235954Y-90251112D01*
X103232675Y-90245641D01*
X103229948Y-90239874D01*
X103227799Y-90233869D01*
X103226249Y-90227681D01*
X103225313Y-90221371D01*
X103225000Y-90215000D01*
X103225000Y-90085000D01*
X103225313Y-90078629D01*
X103226249Y-90072319D01*
X103227799Y-90066131D01*
X103229948Y-90060126D01*
X103232675Y-90054359D01*
X103235954Y-90048888D01*
X103239754Y-90043764D01*
X103244038Y-90039038D01*
X103248764Y-90034754D01*
X103253888Y-90030954D01*
X103259359Y-90027675D01*
X103265126Y-90024948D01*
X103271131Y-90022799D01*
X103277319Y-90021249D01*
X103283629Y-90020313D01*
X103290000Y-90020000D01*
X103940000Y-90020000D01*
X103946371Y-90020313D01*
X103946371Y-90020313D01*
G37*
D25*
G04 #@! TD*
G04 #@! TO.P,U1,32*
G04 #@! TO.N,SWD_IO*
X103615000Y-90150000D03*
D26*
G04 #@! TO.P,U1,*
G04 #@! TO.N,*
X106780000Y-89180000D03*
X106780000Y-87620000D03*
X105220000Y-89180000D03*
X105220000Y-87620000D03*
G04 #@! TD*
D27*
G04 #@! TO.N,+3.3V*
X107061000Y-81407000D03*
X100965000Y-80073504D03*
G04 #@! TO.N,GND*
X102044500Y-93218000D03*
X109791500Y-79565500D03*
X103251000Y-83566000D03*
X102235000Y-84375000D03*
D28*
X108450000Y-84074000D03*
D27*
X109791500Y-80327500D03*
X106108500Y-94488000D03*
X102108000Y-87058500D03*
G04 #@! TO.N,USB_D-*
X106489500Y-83502500D03*
X105346500Y-80772000D03*
G04 #@! TO.N,TOUCH_A*
X104445000Y-98892500D03*
G04 #@! TO.N,TOUCH_B*
X107620000Y-98892500D03*
G04 #@! TD*
D29*
G04 #@! TO.N,+3.3V*
X102605000Y-89150000D02*
X102255000Y-89500000D01*
X103615000Y-89150000D02*
X102605000Y-89150000D01*
X108385000Y-90150000D02*
X109073000Y-90150000D01*
X107988000Y-95796000D02*
X108775500Y-95796000D01*
X107765010Y-93529990D02*
X107765010Y-95573010D01*
X109474000Y-91821000D02*
X107765010Y-93529990D01*
X107765010Y-95573010D02*
X107988000Y-95796000D01*
X109474000Y-90551000D02*
X109073000Y-90150000D01*
X109474000Y-91821000D02*
X109474000Y-90551000D01*
X106561500Y-82486500D02*
X106536500Y-82486500D01*
X108375000Y-82550000D02*
X108450000Y-82625000D01*
X108665000Y-82840000D02*
X108450000Y-82625000D01*
X108450000Y-82625000D02*
X108450000Y-82625000D01*
X102255000Y-89658232D02*
X101663500Y-90249732D01*
X102255000Y-89500000D02*
X102255000Y-89658232D01*
X108311500Y-82486500D02*
X108450000Y-82625000D01*
D30*
X106536500Y-82486500D02*
X108311500Y-82486500D01*
D29*
X108450000Y-82625000D02*
X108450000Y-82097500D01*
G04 #@! TO.N,GND*
X108385000Y-89650000D02*
X109100000Y-89650000D01*
X109350000Y-89500000D02*
X109705000Y-89500000D01*
X109250000Y-89500000D02*
X109350000Y-89500000D01*
X109100000Y-89650000D02*
X109250000Y-89500000D01*
X103173440Y-88150000D02*
X102589940Y-87566500D01*
X103615000Y-88150000D02*
X103173440Y-88150000D01*
X101445000Y-87785000D02*
X101445000Y-88201500D01*
X101663500Y-87566500D02*
X101445000Y-87785000D01*
X107250000Y-89650000D02*
X106780000Y-89180000D01*
X108385000Y-89650000D02*
X107250000Y-89650000D01*
X104690000Y-88150000D02*
X105220000Y-87620000D01*
X103615000Y-88150000D02*
X104690000Y-88150000D01*
X109810000Y-79547000D02*
X109791500Y-79565500D01*
D30*
X109810000Y-74800000D02*
X109810000Y-79547000D01*
D29*
X102036500Y-93035500D02*
X102044500Y-93027500D01*
X102044500Y-94142000D02*
X102036500Y-94150000D01*
X102044500Y-93218000D02*
X102044500Y-94142000D01*
X102378500Y-84375000D02*
X102235000Y-84375000D01*
D30*
X103317000Y-83436500D02*
X102378500Y-84375000D01*
X104136500Y-83436500D02*
X103317000Y-83436500D01*
D29*
X102200000Y-84375000D02*
X102472500Y-84375000D01*
X102235000Y-84375000D02*
X102200000Y-84375000D01*
X106780000Y-89180000D02*
X105220000Y-89180000D01*
X105220000Y-87620000D02*
X105220000Y-89180000D01*
X108815000Y-84375000D02*
X108450000Y-84375000D01*
X110350000Y-82840000D02*
X108815000Y-84375000D01*
X108450000Y-84375000D02*
X108450000Y-84375000D01*
D30*
X109791500Y-80391000D02*
X109791500Y-79565500D01*
D29*
X102616000Y-84756000D02*
X102235000Y-84375000D01*
X102616000Y-85756000D02*
X102616000Y-84756000D01*
X106780000Y-87620000D02*
X105220000Y-87620000D01*
X101445000Y-89500000D02*
X101445000Y-88836500D01*
X101445000Y-88836500D02*
X101445000Y-88201500D01*
X102044500Y-87566500D02*
X101663500Y-87566500D01*
X102589940Y-87566500D02*
X102044500Y-87566500D01*
X106108500Y-96886500D02*
X106108500Y-94488000D01*
X102094974Y-87566500D02*
X102044500Y-87566500D01*
X102108000Y-87553474D02*
X102094974Y-87566500D01*
X102108000Y-87058500D02*
X102108000Y-87553474D01*
G04 #@! TO.N,Net-(C2-Pad1)*
X102703500Y-88650000D02*
X103615000Y-88650000D01*
X102255000Y-88201500D02*
X102703500Y-88650000D01*
G04 #@! TO.N,VCC*
X102275000Y-82550000D02*
X102200000Y-82625000D01*
X102190000Y-82615000D02*
X102200000Y-82625000D01*
X104457500Y-82550000D02*
X104200000Y-82550000D01*
X104200000Y-84450000D02*
X104399000Y-84450000D01*
X104896489Y-83825511D02*
X104896489Y-82988989D01*
X104335500Y-84386500D02*
X104896489Y-83825511D01*
X104896489Y-82988989D02*
X104394000Y-82486500D01*
X102338500Y-82486500D02*
X102200000Y-82625000D01*
D31*
X104136500Y-82486500D02*
X102338500Y-82486500D01*
D29*
X102200000Y-74810000D02*
X102190000Y-74800000D01*
D30*
X102200000Y-82625000D02*
X102200000Y-74810000D01*
D29*
G04 #@! TO.N,Net-(D1-PadA)*
X109728000Y-85344000D02*
X110350000Y-84722000D01*
X109728000Y-86868000D02*
X109728000Y-85344000D01*
X110595000Y-87735000D02*
X109728000Y-86868000D01*
X110350000Y-84722000D02*
X110350000Y-84160000D01*
X110595000Y-88201500D02*
X110595000Y-87735000D01*
G04 #@! TO.N,USB_D+*
X105346500Y-84264500D02*
X105346500Y-82232500D01*
X104250000Y-85361000D02*
X105346500Y-84264500D01*
X104250000Y-86015000D02*
X104250000Y-85361000D01*
D31*
X105346500Y-81851500D02*
X107300000Y-79898000D01*
X107300000Y-79898000D02*
X107300000Y-75050000D01*
X105346500Y-82232500D02*
X105346500Y-81851500D01*
D29*
G04 #@! TO.N,STATUS_LED*
X109653500Y-88150000D02*
X109705000Y-88201500D01*
X108385000Y-88150000D02*
X109653500Y-88150000D01*
G04 #@! TO.N,RESET*
X102616000Y-86811000D02*
X102616000Y-86456000D01*
X102955000Y-87150000D02*
X102616000Y-86811000D01*
X103615000Y-87150000D02*
X102955000Y-87150000D01*
G04 #@! TO.N,SWD_CLK*
X103073232Y-89650000D02*
X102298500Y-90424732D01*
X103615000Y-89650000D02*
X103073232Y-89650000D01*
X102298500Y-90869910D02*
X102298500Y-90424732D01*
X101791910Y-91376500D02*
X102298500Y-90869910D01*
X101790500Y-91376500D02*
X101791910Y-91376500D01*
G04 #@! TO.N,SWD_IO*
X103000000Y-91000000D02*
X102997000Y-91003000D01*
X102997000Y-91003000D02*
X102997000Y-92583000D01*
X103209643Y-90150000D02*
X102870000Y-90489643D01*
X102870000Y-90870000D02*
X103000000Y-91000000D01*
X102870000Y-90489643D02*
X102870000Y-90870000D01*
X103615000Y-90150000D02*
X103209643Y-90150000D01*
G04 #@! TO.N,LED_DATA*
X104250000Y-91486500D02*
X104250000Y-90785000D01*
X104250000Y-91965000D02*
X104250000Y-91486500D01*
X103836500Y-92378500D02*
X104250000Y-91965000D01*
X103836500Y-94150000D02*
X103836500Y-92378500D01*
G04 #@! TO.N,LED_CLK*
X102936500Y-94681500D02*
X102936500Y-94150000D01*
X103205000Y-94950000D02*
X102936500Y-94681500D01*
X104425487Y-94761013D02*
X104236500Y-94950000D01*
X104425487Y-92488013D02*
X104425487Y-94761013D01*
X104750000Y-92163500D02*
X104425487Y-92488013D01*
X104236500Y-94950000D02*
X103205000Y-94950000D01*
X104750000Y-90785000D02*
X104750000Y-92163500D01*
D31*
G04 #@! TO.N,USB_D-*
X104700000Y-80125500D02*
X105346500Y-80772000D01*
X104700000Y-75050000D02*
X104700000Y-80125500D01*
D29*
X104750000Y-85525000D02*
X104750000Y-86015000D01*
X105849990Y-84425010D02*
X104750000Y-85525000D01*
X105849990Y-83850010D02*
X105849990Y-84425010D01*
X106197500Y-83502500D02*
X105849990Y-83850010D01*
X106489500Y-83502500D02*
X106197500Y-83502500D01*
G04 #@! TO.N,PHOTOSENSOR*
X108963590Y-89150000D02*
X109213590Y-88900000D01*
X108385000Y-89150000D02*
X108963590Y-89150000D01*
X109213590Y-88900000D02*
X110426500Y-88900000D01*
X110617500Y-89091000D02*
X110617500Y-89535000D01*
X110426500Y-88900000D02*
X110617500Y-89091000D01*
X108775500Y-93155910D02*
X108775500Y-94196000D01*
X109924009Y-92007401D02*
X108775500Y-93155910D01*
X109924009Y-90799491D02*
X109924009Y-92007401D01*
X110617500Y-90106000D02*
X109924009Y-90799491D01*
X110617500Y-89535000D02*
X110617500Y-90106000D01*
G04 #@! TO.N,USER_BUTTON*
X106411500Y-93486500D02*
X106108500Y-93486500D01*
X107251500Y-92646500D02*
X106411500Y-93486500D01*
X107250000Y-91275000D02*
X107251500Y-91276500D01*
X107250000Y-90785000D02*
X107250000Y-91275000D01*
X107251500Y-91276500D02*
X107251500Y-92646500D01*
G04 #@! TO.N,TOUCH_A*
X105250000Y-90785000D02*
X105250000Y-92416439D01*
X105250000Y-92416439D02*
X104875498Y-92790941D01*
X104875498Y-92790941D02*
X104875498Y-95381478D01*
X104875498Y-95381478D02*
X104886510Y-95392490D01*
X104875498Y-98462002D02*
X104445000Y-98892500D01*
X104875498Y-95381478D02*
X104875498Y-98462002D01*
G04 #@! TO.N,TOUCH_B*
X107315000Y-98425000D02*
X107620000Y-98730000D01*
X107315000Y-93219411D02*
X107315000Y-98425000D01*
X107750000Y-92784411D02*
X107315000Y-93219411D01*
X107620000Y-98730000D02*
X107620000Y-98892500D01*
X107750000Y-90785000D02*
X107750000Y-92784411D01*
G04 #@! TD*
D32*
G04 #@! TO.N,TOUCH_B*
G36*
X111935001Y-98996809D02*
X111916887Y-99181548D01*
X111864161Y-99356184D01*
X111778519Y-99517252D01*
X111663229Y-99658612D01*
X111522671Y-99774892D01*
X111362208Y-99861654D01*
X111187946Y-99915597D01*
X111003465Y-99934987D01*
X110999777Y-99935000D01*
X107000000Y-99935000D01*
X107000000Y-98336000D01*
X111935001Y-98336000D01*
X111935001Y-98996809D01*
X111935001Y-98996809D01*
G37*
X111935001Y-98996809D02*
X111916887Y-99181548D01*
X111864161Y-99356184D01*
X111778519Y-99517252D01*
X111663229Y-99658612D01*
X111522671Y-99774892D01*
X111362208Y-99861654D01*
X111187946Y-99915597D01*
X111003465Y-99934987D01*
X110999777Y-99935000D01*
X107000000Y-99935000D01*
X107000000Y-98336000D01*
X111935001Y-98336000D01*
X111935001Y-98996809D01*
G04 #@! TO.N,TOUCH_A*
G36*
X105067870Y-99935000D02*
X101003180Y-99935000D01*
X100818452Y-99916887D01*
X100643816Y-99864161D01*
X100482748Y-99778519D01*
X100341388Y-99663229D01*
X100225108Y-99522671D01*
X100138346Y-99362208D01*
X100084403Y-99187946D01*
X100065013Y-99003465D01*
X100065000Y-98999777D01*
X100065000Y-98336000D01*
X105060933Y-98336000D01*
X105067870Y-99935000D01*
X105067870Y-99935000D01*
G37*
X105067870Y-99935000D02*
X101003180Y-99935000D01*
X100818452Y-99916887D01*
X100643816Y-99864161D01*
X100482748Y-99778519D01*
X100341388Y-99663229D01*
X100225108Y-99522671D01*
X100138346Y-99362208D01*
X100084403Y-99187946D01*
X100065013Y-99003465D01*
X100065000Y-98999777D01*
X100065000Y-98336000D01*
X105060933Y-98336000D01*
X105067870Y-99935000D01*
D33*
G04 #@! TO.N,+3.3V*
G36*
X101573000Y-81642406D02*
X101479825Y-81670670D01*
X101355508Y-81737118D01*
X101246544Y-81826544D01*
X101157118Y-81935508D01*
X101090670Y-82059825D01*
X101049751Y-82194717D01*
X101035934Y-82335000D01*
X101035934Y-82915000D01*
X101049751Y-83055283D01*
X101090670Y-83190175D01*
X101157118Y-83314492D01*
X101246544Y-83423456D01*
X101339812Y-83500000D01*
X101246544Y-83576544D01*
X101157118Y-83685508D01*
X101090670Y-83809825D01*
X101049751Y-83944717D01*
X101035934Y-84085000D01*
X101035934Y-84665000D01*
X101049751Y-84805283D01*
X101090670Y-84940175D01*
X101157118Y-85064492D01*
X101246544Y-85173456D01*
X101355508Y-85262882D01*
X101479825Y-85329330D01*
X101614717Y-85370249D01*
X101755000Y-85384066D01*
X101995093Y-85384066D01*
X101979110Y-85413968D01*
X101947580Y-85517907D01*
X101936934Y-85626000D01*
X101936934Y-85886000D01*
X101947580Y-85994093D01*
X101979110Y-86098032D01*
X101983369Y-86106000D01*
X101979110Y-86113968D01*
X101947580Y-86217907D01*
X101939515Y-86299791D01*
X101881357Y-86311359D01*
X101739952Y-86369931D01*
X101612691Y-86454964D01*
X101504464Y-86563191D01*
X101419431Y-86690452D01*
X101360859Y-86831857D01*
X101331000Y-86981972D01*
X101331000Y-87125286D01*
X101271289Y-87174289D01*
X101254003Y-87195352D01*
X101073856Y-87375500D01*
X101052789Y-87392789D01*
X100983809Y-87476842D01*
X100932552Y-87572738D01*
X100919026Y-87617326D01*
X100889806Y-87641306D01*
X100818103Y-87728677D01*
X100764822Y-87828358D01*
X100732013Y-87936518D01*
X100720934Y-88049000D01*
X100720934Y-88354000D01*
X100732013Y-88466482D01*
X100764822Y-88574642D01*
X100818103Y-88674323D01*
X100889806Y-88761694D01*
X100893000Y-88764315D01*
X100893000Y-88937185D01*
X100889806Y-88939806D01*
X100818103Y-89027177D01*
X100764822Y-89126858D01*
X100732013Y-89235018D01*
X100720934Y-89347500D01*
X100720934Y-89652500D01*
X100732013Y-89764982D01*
X100764822Y-89873142D01*
X100818103Y-89972823D01*
X100889806Y-90060194D01*
X100977177Y-90131897D01*
X101076858Y-90185178D01*
X101185018Y-90217987D01*
X101297500Y-90229066D01*
X101592500Y-90229066D01*
X101645722Y-90223824D01*
X101710372Y-90267021D01*
X101762903Y-90288781D01*
X101754488Y-90316521D01*
X101746500Y-90397623D01*
X101743830Y-90424732D01*
X101746270Y-90449500D01*
X101699199Y-90449500D01*
X101520104Y-90485124D01*
X101351401Y-90555004D01*
X101199572Y-90656452D01*
X101070452Y-90785572D01*
X100969004Y-90937401D01*
X100899124Y-91106104D01*
X100863500Y-91285199D01*
X100863500Y-91467801D01*
X100899124Y-91646896D01*
X100969004Y-91815599D01*
X101070452Y-91967428D01*
X101199572Y-92096548D01*
X101351401Y-92197996D01*
X101520104Y-92267876D01*
X101699199Y-92303500D01*
X101881801Y-92303500D01*
X102060896Y-92267876D01*
X102137252Y-92236248D01*
X102105624Y-92312604D01*
X102080085Y-92441000D01*
X101967972Y-92441000D01*
X101817857Y-92470859D01*
X101676452Y-92529431D01*
X101549191Y-92614464D01*
X101440964Y-92722691D01*
X101355931Y-92849952D01*
X101297359Y-92991357D01*
X101267500Y-93141472D01*
X101267500Y-93294528D01*
X101297359Y-93444643D01*
X101355931Y-93586048D01*
X101379377Y-93621137D01*
X101365678Y-93666293D01*
X101357434Y-93750000D01*
X101357434Y-94550000D01*
X101365678Y-94633707D01*
X101390095Y-94714196D01*
X101429745Y-94788376D01*
X101483105Y-94853395D01*
X101548124Y-94906755D01*
X101622304Y-94946405D01*
X101623957Y-94946907D01*
X101536872Y-94982979D01*
X101450557Y-95040652D01*
X101377152Y-95114057D01*
X101319479Y-95200372D01*
X101279752Y-95296280D01*
X101259500Y-95398095D01*
X101259500Y-95645250D01*
X101391250Y-95777000D01*
X101963500Y-95777000D01*
X101963500Y-95757000D01*
X102109500Y-95757000D01*
X102109500Y-95777000D01*
X102129500Y-95777000D01*
X102129500Y-95923000D01*
X102109500Y-95923000D01*
X102109500Y-95943000D01*
X101963500Y-95943000D01*
X101963500Y-95923000D01*
X101391250Y-95923000D01*
X101365750Y-95948500D01*
X100955234Y-95948500D01*
X100778811Y-95931124D01*
X100615150Y-95881478D01*
X100477000Y-95807635D01*
X100477000Y-87393212D01*
X100538174Y-87373806D01*
X100577921Y-87356771D01*
X100617881Y-87340301D01*
X100623731Y-87337137D01*
X100623741Y-87337133D01*
X100623749Y-87337127D01*
X100794764Y-87243111D01*
X100830454Y-87218674D01*
X100866445Y-87194762D01*
X100871573Y-87190519D01*
X100871578Y-87190516D01*
X100871582Y-87190512D01*
X101021082Y-87065067D01*
X101051336Y-87034173D01*
X101082009Y-87003714D01*
X101086213Y-86998558D01*
X101086217Y-86998554D01*
X101086220Y-86998550D01*
X101208509Y-86846452D01*
X101232195Y-86810257D01*
X101256356Y-86774438D01*
X101259479Y-86768563D01*
X101259484Y-86768555D01*
X101259487Y-86768547D01*
X101349902Y-86595601D01*
X101366095Y-86555523D01*
X101382853Y-86515659D01*
X101384773Y-86509295D01*
X101384777Y-86509286D01*
X101384779Y-86509277D01*
X101439880Y-86322057D01*
X101447981Y-86279588D01*
X101456674Y-86237243D01*
X101457324Y-86230614D01*
X101475013Y-86036253D01*
X101474711Y-85993019D01*
X101475013Y-85949786D01*
X101474363Y-85943157D01*
X101453962Y-85749061D01*
X101445266Y-85706697D01*
X101437168Y-85664245D01*
X101435244Y-85657874D01*
X101435243Y-85657868D01*
X101435241Y-85657862D01*
X101377531Y-85471432D01*
X101360780Y-85431582D01*
X101344583Y-85391492D01*
X101341456Y-85385612D01*
X101341456Y-85385611D01*
X101341453Y-85385607D01*
X101248631Y-85213935D01*
X101224436Y-85178064D01*
X101200782Y-85141916D01*
X101196580Y-85136764D01*
X101196574Y-85136756D01*
X101196567Y-85136749D01*
X101072168Y-84986377D01*
X101041483Y-84955905D01*
X101011244Y-84925026D01*
X101006118Y-84920786D01*
X101006111Y-84920779D01*
X101006103Y-84920774D01*
X100854870Y-84797431D01*
X100818901Y-84773533D01*
X100783189Y-84749080D01*
X100777330Y-84745913D01*
X100605007Y-84654288D01*
X100565042Y-84637815D01*
X100525301Y-84620782D01*
X100518948Y-84618816D01*
X100518938Y-84618812D01*
X100518928Y-84618810D01*
X100477000Y-84606151D01*
X100477000Y-79833365D01*
X100615150Y-79759522D01*
X100778811Y-79709876D01*
X100955234Y-79692500D01*
X101573000Y-79692500D01*
X101573000Y-81642406D01*
X101573000Y-81642406D01*
G37*
X101573000Y-81642406D02*
X101479825Y-81670670D01*
X101355508Y-81737118D01*
X101246544Y-81826544D01*
X101157118Y-81935508D01*
X101090670Y-82059825D01*
X101049751Y-82194717D01*
X101035934Y-82335000D01*
X101035934Y-82915000D01*
X101049751Y-83055283D01*
X101090670Y-83190175D01*
X101157118Y-83314492D01*
X101246544Y-83423456D01*
X101339812Y-83500000D01*
X101246544Y-83576544D01*
X101157118Y-83685508D01*
X101090670Y-83809825D01*
X101049751Y-83944717D01*
X101035934Y-84085000D01*
X101035934Y-84665000D01*
X101049751Y-84805283D01*
X101090670Y-84940175D01*
X101157118Y-85064492D01*
X101246544Y-85173456D01*
X101355508Y-85262882D01*
X101479825Y-85329330D01*
X101614717Y-85370249D01*
X101755000Y-85384066D01*
X101995093Y-85384066D01*
X101979110Y-85413968D01*
X101947580Y-85517907D01*
X101936934Y-85626000D01*
X101936934Y-85886000D01*
X101947580Y-85994093D01*
X101979110Y-86098032D01*
X101983369Y-86106000D01*
X101979110Y-86113968D01*
X101947580Y-86217907D01*
X101939515Y-86299791D01*
X101881357Y-86311359D01*
X101739952Y-86369931D01*
X101612691Y-86454964D01*
X101504464Y-86563191D01*
X101419431Y-86690452D01*
X101360859Y-86831857D01*
X101331000Y-86981972D01*
X101331000Y-87125286D01*
X101271289Y-87174289D01*
X101254003Y-87195352D01*
X101073856Y-87375500D01*
X101052789Y-87392789D01*
X100983809Y-87476842D01*
X100932552Y-87572738D01*
X100919026Y-87617326D01*
X100889806Y-87641306D01*
X100818103Y-87728677D01*
X100764822Y-87828358D01*
X100732013Y-87936518D01*
X100720934Y-88049000D01*
X100720934Y-88354000D01*
X100732013Y-88466482D01*
X100764822Y-88574642D01*
X100818103Y-88674323D01*
X100889806Y-88761694D01*
X100893000Y-88764315D01*
X100893000Y-88937185D01*
X100889806Y-88939806D01*
X100818103Y-89027177D01*
X100764822Y-89126858D01*
X100732013Y-89235018D01*
X100720934Y-89347500D01*
X100720934Y-89652500D01*
X100732013Y-89764982D01*
X100764822Y-89873142D01*
X100818103Y-89972823D01*
X100889806Y-90060194D01*
X100977177Y-90131897D01*
X101076858Y-90185178D01*
X101185018Y-90217987D01*
X101297500Y-90229066D01*
X101592500Y-90229066D01*
X101645722Y-90223824D01*
X101710372Y-90267021D01*
X101762903Y-90288781D01*
X101754488Y-90316521D01*
X101746500Y-90397623D01*
X101743830Y-90424732D01*
X101746270Y-90449500D01*
X101699199Y-90449500D01*
X101520104Y-90485124D01*
X101351401Y-90555004D01*
X101199572Y-90656452D01*
X101070452Y-90785572D01*
X100969004Y-90937401D01*
X100899124Y-91106104D01*
X100863500Y-91285199D01*
X100863500Y-91467801D01*
X100899124Y-91646896D01*
X100969004Y-91815599D01*
X101070452Y-91967428D01*
X101199572Y-92096548D01*
X101351401Y-92197996D01*
X101520104Y-92267876D01*
X101699199Y-92303500D01*
X101881801Y-92303500D01*
X102060896Y-92267876D01*
X102137252Y-92236248D01*
X102105624Y-92312604D01*
X102080085Y-92441000D01*
X101967972Y-92441000D01*
X101817857Y-92470859D01*
X101676452Y-92529431D01*
X101549191Y-92614464D01*
X101440964Y-92722691D01*
X101355931Y-92849952D01*
X101297359Y-92991357D01*
X101267500Y-93141472D01*
X101267500Y-93294528D01*
X101297359Y-93444643D01*
X101355931Y-93586048D01*
X101379377Y-93621137D01*
X101365678Y-93666293D01*
X101357434Y-93750000D01*
X101357434Y-94550000D01*
X101365678Y-94633707D01*
X101390095Y-94714196D01*
X101429745Y-94788376D01*
X101483105Y-94853395D01*
X101548124Y-94906755D01*
X101622304Y-94946405D01*
X101623957Y-94946907D01*
X101536872Y-94982979D01*
X101450557Y-95040652D01*
X101377152Y-95114057D01*
X101319479Y-95200372D01*
X101279752Y-95296280D01*
X101259500Y-95398095D01*
X101259500Y-95645250D01*
X101391250Y-95777000D01*
X101963500Y-95777000D01*
X101963500Y-95757000D01*
X102109500Y-95757000D01*
X102109500Y-95777000D01*
X102129500Y-95777000D01*
X102129500Y-95923000D01*
X102109500Y-95923000D01*
X102109500Y-95943000D01*
X101963500Y-95943000D01*
X101963500Y-95923000D01*
X101391250Y-95923000D01*
X101365750Y-95948500D01*
X100955234Y-95948500D01*
X100778811Y-95931124D01*
X100615150Y-95881478D01*
X100477000Y-95807635D01*
X100477000Y-87393212D01*
X100538174Y-87373806D01*
X100577921Y-87356771D01*
X100617881Y-87340301D01*
X100623731Y-87337137D01*
X100623741Y-87337133D01*
X100623749Y-87337127D01*
X100794764Y-87243111D01*
X100830454Y-87218674D01*
X100866445Y-87194762D01*
X100871573Y-87190519D01*
X100871578Y-87190516D01*
X100871582Y-87190512D01*
X101021082Y-87065067D01*
X101051336Y-87034173D01*
X101082009Y-87003714D01*
X101086213Y-86998558D01*
X101086217Y-86998554D01*
X101086220Y-86998550D01*
X101208509Y-86846452D01*
X101232195Y-86810257D01*
X101256356Y-86774438D01*
X101259479Y-86768563D01*
X101259484Y-86768555D01*
X101259487Y-86768547D01*
X101349902Y-86595601D01*
X101366095Y-86555523D01*
X101382853Y-86515659D01*
X101384773Y-86509295D01*
X101384777Y-86509286D01*
X101384779Y-86509277D01*
X101439880Y-86322057D01*
X101447981Y-86279588D01*
X101456674Y-86237243D01*
X101457324Y-86230614D01*
X101475013Y-86036253D01*
X101474711Y-85993019D01*
X101475013Y-85949786D01*
X101474363Y-85943157D01*
X101453962Y-85749061D01*
X101445266Y-85706697D01*
X101437168Y-85664245D01*
X101435244Y-85657874D01*
X101435243Y-85657868D01*
X101435241Y-85657862D01*
X101377531Y-85471432D01*
X101360780Y-85431582D01*
X101344583Y-85391492D01*
X101341456Y-85385612D01*
X101341456Y-85385611D01*
X101341453Y-85385607D01*
X101248631Y-85213935D01*
X101224436Y-85178064D01*
X101200782Y-85141916D01*
X101196580Y-85136764D01*
X101196574Y-85136756D01*
X101196567Y-85136749D01*
X101072168Y-84986377D01*
X101041483Y-84955905D01*
X101011244Y-84925026D01*
X101006118Y-84920786D01*
X101006111Y-84920779D01*
X101006103Y-84920774D01*
X100854870Y-84797431D01*
X100818901Y-84773533D01*
X100783189Y-84749080D01*
X100777330Y-84745913D01*
X100605007Y-84654288D01*
X100565042Y-84637815D01*
X100525301Y-84620782D01*
X100518948Y-84618816D01*
X100518938Y-84618812D01*
X100518928Y-84618810D01*
X100477000Y-84606151D01*
X100477000Y-79833365D01*
X100615150Y-79759522D01*
X100778811Y-79709876D01*
X100955234Y-79692500D01*
X101573000Y-79692500D01*
X101573000Y-81642406D01*
G36*
X111012697Y-81142576D02*
X111188251Y-81161646D01*
X111350799Y-81212602D01*
X111500345Y-81294174D01*
X111523001Y-81313061D01*
X111523001Y-84606788D01*
X111461826Y-84626194D01*
X111422077Y-84643230D01*
X111382120Y-84659699D01*
X111376265Y-84662865D01*
X111376260Y-84662867D01*
X111376256Y-84662870D01*
X111205236Y-84756889D01*
X111169562Y-84781316D01*
X111133555Y-84805238D01*
X111128424Y-84809483D01*
X110978918Y-84934933D01*
X110948664Y-84965827D01*
X110917991Y-84996286D01*
X110913787Y-85001442D01*
X110913783Y-85001446D01*
X110913782Y-85001448D01*
X110791491Y-85153548D01*
X110767819Y-85189723D01*
X110743644Y-85225563D01*
X110740517Y-85231444D01*
X110650098Y-85404399D01*
X110633899Y-85444491D01*
X110617147Y-85484342D01*
X110615228Y-85490702D01*
X110615223Y-85490714D01*
X110615221Y-85490725D01*
X110560120Y-85677943D01*
X110552020Y-85720406D01*
X110543326Y-85762757D01*
X110542676Y-85769386D01*
X110524987Y-85963748D01*
X110525289Y-86007014D01*
X110524987Y-86050214D01*
X110525636Y-86056831D01*
X110525636Y-86056840D01*
X110525637Y-86056843D01*
X110546038Y-86250939D01*
X110554734Y-86293303D01*
X110562832Y-86335755D01*
X110564756Y-86342126D01*
X110564757Y-86342132D01*
X110564759Y-86342138D01*
X110622469Y-86528568D01*
X110639220Y-86568418D01*
X110655417Y-86608508D01*
X110658542Y-86614384D01*
X110658544Y-86614389D01*
X110658547Y-86614393D01*
X110751369Y-86786065D01*
X110775564Y-86821936D01*
X110799218Y-86858084D01*
X110803420Y-86863236D01*
X110803426Y-86863244D01*
X110803433Y-86863251D01*
X110927832Y-87013623D01*
X110958498Y-87044076D01*
X110988756Y-87074975D01*
X110993882Y-87079214D01*
X110993888Y-87079220D01*
X110993895Y-87079224D01*
X111145130Y-87202569D01*
X111181133Y-87226489D01*
X111216812Y-87250920D01*
X111222666Y-87254084D01*
X111222670Y-87254087D01*
X111222674Y-87254089D01*
X111394993Y-87345712D01*
X111434972Y-87362190D01*
X111474700Y-87379218D01*
X111481056Y-87381185D01*
X111481063Y-87381188D01*
X111481070Y-87381189D01*
X111523000Y-87393849D01*
X111523001Y-95732327D01*
X111438235Y-95801631D01*
X111287709Y-95881834D01*
X111124453Y-95931216D01*
X110948486Y-95948500D01*
X109875250Y-95948500D01*
X109795750Y-95869000D01*
X108848500Y-95869000D01*
X108848500Y-95889000D01*
X108702500Y-95889000D01*
X108702500Y-95869000D01*
X108682500Y-95869000D01*
X108682500Y-95723000D01*
X108702500Y-95723000D01*
X108702500Y-95703000D01*
X108848500Y-95703000D01*
X108848500Y-95723000D01*
X109795750Y-95723000D01*
X109927500Y-95591250D01*
X109927500Y-95344095D01*
X109907248Y-95242280D01*
X109867521Y-95146372D01*
X109809848Y-95060057D01*
X109736443Y-94986652D01*
X109659895Y-94935505D01*
X109703895Y-94899395D01*
X109757255Y-94834376D01*
X109796905Y-94760196D01*
X109821322Y-94679707D01*
X109829566Y-94596000D01*
X109829566Y-93796000D01*
X109821322Y-93712293D01*
X109796905Y-93631804D01*
X109757255Y-93557624D01*
X109703895Y-93492605D01*
X109638876Y-93439245D01*
X109564696Y-93399595D01*
X109484207Y-93375178D01*
X109400500Y-93366934D01*
X109345120Y-93366934D01*
X110295158Y-92416897D01*
X110316220Y-92399612D01*
X110385200Y-92315559D01*
X110436457Y-92219664D01*
X110468021Y-92115612D01*
X110476009Y-92034510D01*
X110476009Y-92034508D01*
X110478679Y-92007402D01*
X110476009Y-91980296D01*
X110476009Y-91028135D01*
X110988654Y-90515492D01*
X111009711Y-90498211D01*
X111041900Y-90458988D01*
X111078691Y-90414159D01*
X111114721Y-90346750D01*
X111129948Y-90318263D01*
X111161512Y-90214211D01*
X111169500Y-90133109D01*
X111169500Y-90133099D01*
X111172169Y-90106001D01*
X111169500Y-90078903D01*
X111169500Y-90063342D01*
X111207768Y-90016712D01*
X111259200Y-89920489D01*
X111290872Y-89816081D01*
X111301566Y-89707500D01*
X111301566Y-89362500D01*
X111290872Y-89253919D01*
X111259200Y-89149511D01*
X111207768Y-89053288D01*
X111163094Y-88998853D01*
X111161512Y-88982789D01*
X111147846Y-88937738D01*
X111129948Y-88878737D01*
X111084402Y-88793526D01*
X111116052Y-88767552D01*
X111185268Y-88683212D01*
X111236700Y-88586989D01*
X111268372Y-88482581D01*
X111279066Y-88374000D01*
X111279066Y-88029000D01*
X111268372Y-87920419D01*
X111236700Y-87816011D01*
X111185268Y-87719788D01*
X111143112Y-87668421D01*
X111139012Y-87626789D01*
X111107448Y-87522737D01*
X111056191Y-87426842D01*
X110987211Y-87342789D01*
X110966154Y-87325508D01*
X110280000Y-86639356D01*
X110280000Y-85572645D01*
X110721154Y-85131492D01*
X110742211Y-85114211D01*
X110811191Y-85030158D01*
X110862448Y-84934263D01*
X110883903Y-84863535D01*
X110924490Y-84841841D01*
X111016407Y-84766407D01*
X111091841Y-84674490D01*
X111147894Y-84569623D01*
X111182411Y-84455835D01*
X111194066Y-84337500D01*
X111194066Y-83982500D01*
X111182411Y-83864165D01*
X111147894Y-83750377D01*
X111091841Y-83645510D01*
X111016407Y-83553593D01*
X110951103Y-83500000D01*
X111016407Y-83446407D01*
X111091841Y-83354490D01*
X111147894Y-83249623D01*
X111182411Y-83135835D01*
X111194066Y-83017500D01*
X111194066Y-82662500D01*
X111182411Y-82544165D01*
X111147894Y-82430377D01*
X111091841Y-82325510D01*
X111016407Y-82233593D01*
X110924490Y-82158159D01*
X110819623Y-82102106D01*
X110705835Y-82067589D01*
X110587500Y-82055934D01*
X110112500Y-82055934D01*
X109994165Y-82067589D01*
X109880377Y-82102106D01*
X109775510Y-82158159D01*
X109712000Y-82210280D01*
X109712000Y-81993095D01*
X109691748Y-81891280D01*
X109652021Y-81795372D01*
X109594348Y-81709057D01*
X109520943Y-81635652D01*
X109434628Y-81577979D01*
X109338720Y-81538252D01*
X109236905Y-81518000D01*
X108654750Y-81518000D01*
X108523000Y-81649750D01*
X108523000Y-82552000D01*
X108543000Y-82552000D01*
X108543000Y-82655823D01*
X108357000Y-82652823D01*
X108357000Y-82552000D01*
X108377000Y-82552000D01*
X108377000Y-81649750D01*
X108245250Y-81518000D01*
X107663095Y-81518000D01*
X107561280Y-81538252D01*
X107465372Y-81577979D01*
X107379057Y-81635652D01*
X107305652Y-81709057D01*
X107247979Y-81795372D01*
X107235414Y-81825706D01*
X107211128Y-81809479D01*
X107115220Y-81769752D01*
X107013405Y-81749500D01*
X106741250Y-81749500D01*
X106609500Y-81881250D01*
X106609500Y-82413500D01*
X106629500Y-82413500D01*
X106629500Y-82559500D01*
X106609500Y-82559500D01*
X106609500Y-82579500D01*
X106567680Y-82579500D01*
X106476878Y-82546429D01*
X106443500Y-82524971D01*
X106443500Y-82413500D01*
X106463500Y-82413500D01*
X106463500Y-81881250D01*
X106331750Y-81749500D01*
X106299856Y-81749500D01*
X106949109Y-81100248D01*
X111012697Y-81142576D01*
X111012697Y-81142576D01*
G37*
X111012697Y-81142576D02*
X111188251Y-81161646D01*
X111350799Y-81212602D01*
X111500345Y-81294174D01*
X111523001Y-81313061D01*
X111523001Y-84606788D01*
X111461826Y-84626194D01*
X111422077Y-84643230D01*
X111382120Y-84659699D01*
X111376265Y-84662865D01*
X111376260Y-84662867D01*
X111376256Y-84662870D01*
X111205236Y-84756889D01*
X111169562Y-84781316D01*
X111133555Y-84805238D01*
X111128424Y-84809483D01*
X110978918Y-84934933D01*
X110948664Y-84965827D01*
X110917991Y-84996286D01*
X110913787Y-85001442D01*
X110913783Y-85001446D01*
X110913782Y-85001448D01*
X110791491Y-85153548D01*
X110767819Y-85189723D01*
X110743644Y-85225563D01*
X110740517Y-85231444D01*
X110650098Y-85404399D01*
X110633899Y-85444491D01*
X110617147Y-85484342D01*
X110615228Y-85490702D01*
X110615223Y-85490714D01*
X110615221Y-85490725D01*
X110560120Y-85677943D01*
X110552020Y-85720406D01*
X110543326Y-85762757D01*
X110542676Y-85769386D01*
X110524987Y-85963748D01*
X110525289Y-86007014D01*
X110524987Y-86050214D01*
X110525636Y-86056831D01*
X110525636Y-86056840D01*
X110525637Y-86056843D01*
X110546038Y-86250939D01*
X110554734Y-86293303D01*
X110562832Y-86335755D01*
X110564756Y-86342126D01*
X110564757Y-86342132D01*
X110564759Y-86342138D01*
X110622469Y-86528568D01*
X110639220Y-86568418D01*
X110655417Y-86608508D01*
X110658542Y-86614384D01*
X110658544Y-86614389D01*
X110658547Y-86614393D01*
X110751369Y-86786065D01*
X110775564Y-86821936D01*
X110799218Y-86858084D01*
X110803420Y-86863236D01*
X110803426Y-86863244D01*
X110803433Y-86863251D01*
X110927832Y-87013623D01*
X110958498Y-87044076D01*
X110988756Y-87074975D01*
X110993882Y-87079214D01*
X110993888Y-87079220D01*
X110993895Y-87079224D01*
X111145130Y-87202569D01*
X111181133Y-87226489D01*
X111216812Y-87250920D01*
X111222666Y-87254084D01*
X111222670Y-87254087D01*
X111222674Y-87254089D01*
X111394993Y-87345712D01*
X111434972Y-87362190D01*
X111474700Y-87379218D01*
X111481056Y-87381185D01*
X111481063Y-87381188D01*
X111481070Y-87381189D01*
X111523000Y-87393849D01*
X111523001Y-95732327D01*
X111438235Y-95801631D01*
X111287709Y-95881834D01*
X111124453Y-95931216D01*
X110948486Y-95948500D01*
X109875250Y-95948500D01*
X109795750Y-95869000D01*
X108848500Y-95869000D01*
X108848500Y-95889000D01*
X108702500Y-95889000D01*
X108702500Y-95869000D01*
X108682500Y-95869000D01*
X108682500Y-95723000D01*
X108702500Y-95723000D01*
X108702500Y-95703000D01*
X108848500Y-95703000D01*
X108848500Y-95723000D01*
X109795750Y-95723000D01*
X109927500Y-95591250D01*
X109927500Y-95344095D01*
X109907248Y-95242280D01*
X109867521Y-95146372D01*
X109809848Y-95060057D01*
X109736443Y-94986652D01*
X109659895Y-94935505D01*
X109703895Y-94899395D01*
X109757255Y-94834376D01*
X109796905Y-94760196D01*
X109821322Y-94679707D01*
X109829566Y-94596000D01*
X109829566Y-93796000D01*
X109821322Y-93712293D01*
X109796905Y-93631804D01*
X109757255Y-93557624D01*
X109703895Y-93492605D01*
X109638876Y-93439245D01*
X109564696Y-93399595D01*
X109484207Y-93375178D01*
X109400500Y-93366934D01*
X109345120Y-93366934D01*
X110295158Y-92416897D01*
X110316220Y-92399612D01*
X110385200Y-92315559D01*
X110436457Y-92219664D01*
X110468021Y-92115612D01*
X110476009Y-92034510D01*
X110476009Y-92034508D01*
X110478679Y-92007402D01*
X110476009Y-91980296D01*
X110476009Y-91028135D01*
X110988654Y-90515492D01*
X111009711Y-90498211D01*
X111041900Y-90458988D01*
X111078691Y-90414159D01*
X111114721Y-90346750D01*
X111129948Y-90318263D01*
X111161512Y-90214211D01*
X111169500Y-90133109D01*
X111169500Y-90133099D01*
X111172169Y-90106001D01*
X111169500Y-90078903D01*
X111169500Y-90063342D01*
X111207768Y-90016712D01*
X111259200Y-89920489D01*
X111290872Y-89816081D01*
X111301566Y-89707500D01*
X111301566Y-89362500D01*
X111290872Y-89253919D01*
X111259200Y-89149511D01*
X111207768Y-89053288D01*
X111163094Y-88998853D01*
X111161512Y-88982789D01*
X111147846Y-88937738D01*
X111129948Y-88878737D01*
X111084402Y-88793526D01*
X111116052Y-88767552D01*
X111185268Y-88683212D01*
X111236700Y-88586989D01*
X111268372Y-88482581D01*
X111279066Y-88374000D01*
X111279066Y-88029000D01*
X111268372Y-87920419D01*
X111236700Y-87816011D01*
X111185268Y-87719788D01*
X111143112Y-87668421D01*
X111139012Y-87626789D01*
X111107448Y-87522737D01*
X111056191Y-87426842D01*
X110987211Y-87342789D01*
X110966154Y-87325508D01*
X110280000Y-86639356D01*
X110280000Y-85572645D01*
X110721154Y-85131492D01*
X110742211Y-85114211D01*
X110811191Y-85030158D01*
X110862448Y-84934263D01*
X110883903Y-84863535D01*
X110924490Y-84841841D01*
X111016407Y-84766407D01*
X111091841Y-84674490D01*
X111147894Y-84569623D01*
X111182411Y-84455835D01*
X111194066Y-84337500D01*
X111194066Y-83982500D01*
X111182411Y-83864165D01*
X111147894Y-83750377D01*
X111091841Y-83645510D01*
X111016407Y-83553593D01*
X110951103Y-83500000D01*
X111016407Y-83446407D01*
X111091841Y-83354490D01*
X111147894Y-83249623D01*
X111182411Y-83135835D01*
X111194066Y-83017500D01*
X111194066Y-82662500D01*
X111182411Y-82544165D01*
X111147894Y-82430377D01*
X111091841Y-82325510D01*
X111016407Y-82233593D01*
X110924490Y-82158159D01*
X110819623Y-82102106D01*
X110705835Y-82067589D01*
X110587500Y-82055934D01*
X110112500Y-82055934D01*
X109994165Y-82067589D01*
X109880377Y-82102106D01*
X109775510Y-82158159D01*
X109712000Y-82210280D01*
X109712000Y-81993095D01*
X109691748Y-81891280D01*
X109652021Y-81795372D01*
X109594348Y-81709057D01*
X109520943Y-81635652D01*
X109434628Y-81577979D01*
X109338720Y-81538252D01*
X109236905Y-81518000D01*
X108654750Y-81518000D01*
X108523000Y-81649750D01*
X108523000Y-82552000D01*
X108543000Y-82552000D01*
X108543000Y-82655823D01*
X108357000Y-82652823D01*
X108357000Y-82552000D01*
X108377000Y-82552000D01*
X108377000Y-81649750D01*
X108245250Y-81518000D01*
X107663095Y-81518000D01*
X107561280Y-81538252D01*
X107465372Y-81577979D01*
X107379057Y-81635652D01*
X107305652Y-81709057D01*
X107247979Y-81795372D01*
X107235414Y-81825706D01*
X107211128Y-81809479D01*
X107115220Y-81769752D01*
X107013405Y-81749500D01*
X106741250Y-81749500D01*
X106609500Y-81881250D01*
X106609500Y-82413500D01*
X106629500Y-82413500D01*
X106629500Y-82559500D01*
X106609500Y-82559500D01*
X106609500Y-82579500D01*
X106567680Y-82579500D01*
X106476878Y-82546429D01*
X106443500Y-82524971D01*
X106443500Y-82413500D01*
X106463500Y-82413500D01*
X106463500Y-81881250D01*
X106331750Y-81749500D01*
X106299856Y-81749500D01*
X106949109Y-81100248D01*
X111012697Y-81142576D01*
G36*
X102328000Y-89427000D02*
X102348000Y-89427000D01*
X102348000Y-89573000D01*
X102328000Y-89573000D01*
X102328000Y-89593000D01*
X102182000Y-89593000D01*
X102182000Y-89573000D01*
X102169066Y-89573000D01*
X102169066Y-89427000D01*
X102182000Y-89427000D01*
X102182000Y-89407000D01*
X102328000Y-89407000D01*
X102328000Y-89427000D01*
X102328000Y-89427000D01*
G37*
X102328000Y-89427000D02*
X102348000Y-89427000D01*
X102348000Y-89573000D01*
X102328000Y-89573000D01*
X102328000Y-89593000D01*
X102182000Y-89593000D01*
X102182000Y-89573000D01*
X102169066Y-89573000D01*
X102169066Y-89427000D01*
X102182000Y-89427000D01*
X102182000Y-89407000D01*
X102328000Y-89407000D01*
X102328000Y-89427000D01*
G04 #@! TD*
M02*
